<?xml version='1.0' encoding='UTF-8'?>
<svg xmlns:xlink="http://www.w3.org/1999/xlink" xmlns="http://www.w3.org/2000/svg" version="1.1" width="74px" height="74px" viewBox="-41.1 -41.1 82.2 82.2"><defs><g id="c1"><path fill="#ff0000" stroke="none" d="M37.1 37.1 L-37.1 37.1 -37.1 -37.1 37.1 -37.1 37.1 37.1"/><path fill="#ffffff" stroke="none" d="M2.05 -2.0 Q1.2 -2.9 0.0 -2.9 -1.25 -2.9 -2.15 -2.0 -2.95 -1.1 -2.95 0.05 -2.95 1.25 -2.15 2.15 -1.25 2.95 0.0 2.95 1.2 2.95 2.05 2.15 2.9 1.25 2.9 0.05 2.9 -1.1 2.05 -2.0 M13.85 -13.75 Q19.6 -8.0 19.6 0.05 19.6 8.2 13.85 13.9 8.15 19.65 0.0 19.65 -8.2 19.65 -13.9 13.9 -19.65 8.2 -19.65 0.05 -19.65 -8.0 -13.9 -13.75 -8.2 -19.6 0.0 -19.6 8.15 -19.6 13.85 -13.75"/><path fill="none" stroke="#ffffff" stroke-width="2.0" d="M21.55 -21.55 Q30.0 -12.55 30.0 0.05 30.0 12.7 21.55 21.6 M17.7 -17.6 Q24.55 -10.3 24.55 0.05 24.55 10.4 17.7 17.75 M-21.6 21.6 Q-30.0 12.7 -30.0 0.05 -30.0 -12.55 -21.6 -21.55 M-17.75 17.75 Q-24.6 10.4 -24.6 0.05 -24.6 -10.3 -17.7 -17.6"/></g></defs><g><g><use transform="matrix(1.0,0.0,0.0,1.0,0.0,0.0)" xlink:href="#c1"/></g></g></svg>