<?xml version='1.0' encoding='UTF-8'?>
<svg xmlns:xlink="http://www.w3.org/1999/xlink" xmlns="http://www.w3.org/2000/svg" version="1.1" width="74px" height="74px" viewBox="-41.0 -41.0 82.0 82.0"><defs><g id="c1"><path fill="#009900" stroke="none" d="M37.0 -37.0 L37.0 37.0 -37.0 37.0 -37.0 -37.0 37.0 -37.0"/><path fill="#ffffff" stroke="none" d="M24.85 -25.3 L31.55 -25.3 31.55 -18.7 24.85 -18.7 24.85 -12.0 18.25 -12.0 18.25 -18.7 11.55 -18.7 11.55 -25.3 18.25 -25.3 18.25 -32.0 24.85 -32.0 24.85 -25.3"/><path fill="none" stroke="#ffffff" stroke-width="2.5" d="M27.6 23.3 Q27.05 25.95 25.85 28.45 L-29.25 24.95 -26.7 24.9 Q-17.0 23.85 -14.25 13.65 -13.15 6.7 -7.9 1.45 -1.25 -5.2 8.1 -5.2 17.45 -5.2 24.1 1.45 30.75 8.05 30.75 17.45 30.75 20.0 30.25 22.4 L-26.7 24.9"/><path fill="#ffffff" stroke="none" d="M-2.1 14.15 L-4.15 14.0 -6.0 14.0 -6.0 17.05 -3.85 17.05 -2.3 17.0 -1.45 16.55 Q-1.1 16.2 -1.1 15.55 -1.1 15.05 -1.35 14.7 L-2.1 14.15 M-6.0 9.45 L-6.0 12.1 -2.8 12.05 Q-2.25 12.0 -1.9 11.65 -1.55 11.3 -1.55 10.75 -1.55 10.25 -1.85 9.9 -2.15 9.55 -2.7 9.5 L-6.0 9.45 M0.35 9.1 Q0.7 9.7 0.7 10.45 0.7 11.25 0.25 11.9 -0.15 12.6 -0.9 12.9 0.15 13.2 0.7 13.95 1.25 14.7 1.25 15.7 1.25 16.45 0.9 17.2 L-0.1 18.4 Q-0.7 18.8 -1.65 18.9 L-8.35 19.0 -8.35 7.55 -3.75 7.55 -1.7 7.65 Q-1.05 7.75 -0.5 8.15 L0.35 9.1 M3.2 7.55 L5.55 7.55 5.55 12.05 10.05 12.05 10.05 7.55 12.4 7.55 12.4 19.0 10.05 19.0 10.05 14.0 5.55 14.0 5.55 19.0 3.2 19.0 3.2 7.55 M21.8 7.55 L24.25 7.55 20.15 19.0 17.7 19.0 13.6 7.55 16.1 7.55 19.0 16.0 21.8 7.55"/></g></defs><g><g><use transform="matrix(1.0,0.0,0.0,1.0,0.0,0.0)" xlink:href="#c1"/></g></g></svg>