<?xml version='1.0' encoding='UTF-8'?>
<svg xmlns:xlink="http://www.w3.org/1999/xlink" xmlns="http://www.w3.org/2000/svg" version="1.1" width="100px" height="100px" viewBox="-54.0 -54.0 108.0 108.0"><defs><g id="c1"><path fill="#ff0000" stroke="none" d="M-41.95 0.0 L-0.05 41.9 41.85 0.0 -0.05 -41.9 -41.95 0.0 M0.0 50.0 L-50.0 0.0 -0.05 -50.0 50.0 0.05 0.0 50.0"/><path fill="#ffffff" stroke="none" d="M-41.95 0.0 L-0.05 -41.9 41.85 0.0 -0.05 41.9 -41.95 0.0"/><path fill="#000000" stroke="none" d="M2.9 -18.4 Q5.15 -13.55 4.9 -8.65 7.05 -9.0 7.8 -11.4 8.3 -12.95 8.35 -16.45 10.45 -15.15 10.9 -11.05 11.25 -7.35 10.1 -4.3 11.1 -4.1 12.45 -6.0 14.15 -8.3 14.85 -8.65 16.05 -5.6 15.5 -2.0 14.95 1.55 13.15 3.5 L15.45 3.35 Q17.05 2.55 17.05 1.3 17.75 8.0 14.5 12.35 11.1 16.9 4.5 16.95 L7.65 13.85 Q9.5 12.05 10.1 10.0 9.8 9.65 8.5 10.25 7.05 11.05 6.2 10.85 6.15 10.25 7.55 7.6 8.95 5.1 8.35 2.65 7.95 3.55 6.5 4.45 4.9 5.4 4.5 6.1 L3.0 -0.5 Q1.95 -3.8 0.1 -5.6 0.05 -4.3 -1.3 0.25 -2.3 3.85 -1.6 6.1 -2.75 6.6 -4.25 5.35 -5.65 4.15 -5.95 2.65 -7.2 4.3 -6.15 6.6 L-4.25 10.45 -7.25 10.0 -9.45 8.7 Q-8.25 14.25 -2.95 16.1 -10.4 17.4 -14.15 11.6 -16.95 7.45 -18.15 -1.25 L-15.45 1.1 Q-13.85 2.45 -12.05 2.65 L-13.25 -3.15 Q-14.15 -7.55 -13.8 -10.8 -12.65 -10.25 -11.35 -8.25 -10.05 -6.2 -9.0 -5.6 -9.6 -7.2 -9.25 -11.7 L-8.6 -17.75 Q-6.6 -17.2 -5.7 -14.4 L-4.25 -9.55 Q-2.15 -11.35 -1.8 -17.3 -1.4 -24.7 -0.8 -26.45 -0.25 -24.6 0.9 -22.25 L2.9 -18.4 M14.85 23.15 L-14.2 23.15 -14.2 19.7 14.85 19.7 14.85 23.15"/></g></defs><g><g><use transform="matrix(1.0,0.0,0.0,1.0,0.0,0.0)" xlink:href="#c1"/></g></g></svg>