<?xml version='1.0' encoding='UTF-8'?>
<svg xmlns:xlink="http://www.w3.org/1999/xlink" xmlns="http://www.w3.org/2000/svg" version="1.1" width="40px" height="40px" viewBox="-24.0 -24.0 48.0 48.0"><defs><g id="c1"><path fill="#000000" stroke="none" d="M17.1 2.9 Q20.0 5.85 20.0 10.0 20.0 14.15 17.1 17.05 14.2 20.0 10.0 20.0 5.9 20.0 2.9 17.05 0.0 14.15 0.0 10.0 0.0 5.85 2.9 2.9 5.9 0.0 10.0 0.0 14.2 0.0 17.1 2.9"/></g><g id="c2"><g><use transform="matrix(1.0,0.0,0.0,1.0,0.0,0.0)" xlink:href="#c1"/></g></g><g id="c3"><path fill="#ffffff" stroke="none" d="M0.15 -5.2 Q-1.75 -5.2 -2.95 -3.8 -4.15 -2.45 -4.15 0.6 -4.15 3.9 -2.95 5.25 -1.75 6.65 0.2 6.65 1.6 6.65 2.65 5.75 3.65 4.85 4.1 3.0 L7.4 4.0 Q6.6 6.85 4.8 8.25 2.95 9.65 0.2 9.65 -3.3 9.65 -5.5 7.3 -7.7 4.95 -7.7 0.9 -7.7 -3.4 -5.5 -5.8 -3.25 -8.2 0.35 -8.2 3.55 -8.2 5.5 -6.3 6.7 -5.2 7.3 -3.1 L3.8 -2.25 Q3.5 -3.6 2.55 -4.4 1.55 -5.2 0.15 -5.2"/></g></defs><g><g><use transform="matrix(2.0,0.0,0.0,2.0,-20.0,-20.0)" xlink:href="#c2" class="color"/></g><g><use transform="matrix(1.0,0.0,0.0,1.0,0.0,0.0)" xlink:href="#c3"/></g></g></svg>