<?xml version='1.0' encoding='UTF-8'?>
<svg xmlns:xlink="http://www.w3.org/1999/xlink" xmlns="http://www.w3.org/2000/svg" version="1.1" width="40px" height="40px" viewBox="-24.0 -24.0 48.0 48.0"><defs><g id="c1"><path fill="#000000" stroke="none" d="M17.1 2.9 Q20.0 5.85 20.0 10.0 20.0 14.15 17.1 17.05 14.2 20.0 10.0 20.0 5.9 20.0 2.9 17.05 0.0 14.15 0.0 10.0 0.0 5.85 2.9 2.9 5.9 0.0 10.0 0.0 14.2 0.0 17.1 2.9"/></g><g id="c2"><g><use transform="matrix(1.0,0.0,0.0,1.0,0.0,0.0)" xlink:href="#c1"/></g></g><g id="c3"><path fill="#ffffff" stroke="none" d="M-3.5 -3.7 Q-4.8 -2.25 -4.8 0.7 -4.8 3.65 -3.45 5.15 -2.1 6.65 -0.05 6.65 2.0 6.65 3.35 5.15 4.65 3.65 4.65 0.65 4.65 -2.25 3.35 -3.75 2.1 -5.2 -0.05 -5.2 -2.2 -5.2 -3.5 -3.7 M-0.1 -8.2 Q3.7 -8.2 5.95 -5.8 8.25 -3.45 8.25 0.75 8.25 4.9 6.0 7.3 3.75 9.65 -0.05 9.65 -3.85 9.65 -6.1 7.3 -8.35 4.95 -8.35 0.85 -8.35 -1.8 -7.6 -3.6 -7.0 -4.9 -6.0 -5.95 -5.0 -7.0 -3.8 -7.5 -2.2 -8.2 -0.1 -8.2"/></g></defs><g><g><use transform="matrix(2.0,0.0,0.0,2.0,-20.0,-20.0)" xlink:href="#c2" class="color"/></g><g><use transform="matrix(1.0,0.0,0.0,1.0,0.0,0.0)" xlink:href="#c3"/></g></g></svg>