<?xml version='1.0' encoding='UTF-8'?>
<svg xmlns:xlink="http://www.w3.org/1999/xlink" xmlns="http://www.w3.org/2000/svg" version="1.1" width="40px" height="40px" viewBox="-24.0 -24.0 48.0 48.0"><defs><g id="c1"><path fill="#000000" stroke="none" d="M17.1 2.9 Q20.0 5.85 20.0 10.0 20.0 14.15 17.1 17.05 14.2 20.0 10.0 20.0 5.9 20.0 2.9 17.05 0.0 14.15 0.0 10.0 0.0 5.85 2.9 2.9 5.9 0.0 10.0 0.0 14.2 0.0 17.1 2.9"/></g><g id="c2"><g><use transform="matrix(1.0,0.0,0.0,1.0,0.0,0.0)" xlink:href="#c1"/></g></g><g id="c3"><path fill="#ffffff" stroke="none" d="M1.7 -4.8 L-0.8 -4.85 -3.5 -4.85 -3.5 -0.45 -0.95 -0.45 2.15 -0.65 3.1 -1.4 Q3.45 -1.9 3.45 -2.7 3.45 -3.55 3.0 -4.1 2.5 -4.65 1.7 -4.8 M7.0 -2.9 Q7.0 -1.0 5.9 0.3 4.8 1.55 2.6 1.85 L4.4 3.3 6.3 6.15 8.4 9.5 4.35 9.5 1.85 5.7 0.05 3.2 Q-0.45 2.65 -1.05 2.5 L-2.8 2.3 -3.5 2.3 -3.5 9.5 -6.95 9.5 -6.95 -7.75 0.3 -7.75 4.25 -7.3 Q5.5 -6.8 6.25 -5.65 7.0 -4.45 7.0 -2.9"/></g></defs><g><g><use transform="matrix(2.0,0.0,0.0,2.0,-20.0,-20.0)" xlink:href="#c2" class="color"/></g><g><use transform="matrix(1.0,0.0,0.0,1.0,0.0,0.0)" xlink:href="#c3"/></g></g></svg>