<?xml version='1.0' encoding='UTF-8'?>
<svg xmlns:xlink="http://www.w3.org/1999/xlink" xmlns="http://www.w3.org/2000/svg" version="1.1" width="40px" height="40px" viewBox="-24.0 -24.0 48.0 48.0"><defs><g id="c1"><path fill="#000000" stroke="none" d="M17.1 2.9 Q20.0 5.85 20.0 10.0 20.0 14.15 17.1 17.05 14.2 20.0 10.0 20.0 5.9 20.0 2.9 17.05 0.0 14.15 0.0 10.0 0.0 5.85 2.9 2.9 5.9 0.0 10.0 0.0 14.2 0.0 17.1 2.9"/></g><g id="c2"><g><use transform="matrix(1.0,0.0,0.0,1.0,0.0,0.0)" xlink:href="#c1"/></g></g><g id="c3"><path fill="#ffffff" stroke="none" d="M3.4 -7.55 Q4.4 -7.4 5.2 -6.85 L6.5 -5.45 Q7.05 -4.55 7.05 -3.4 7.05 -2.2 6.4 -1.2 5.75 -0.15 4.65 0.35 6.2 0.8 7.05 1.9 7.9 3.0 7.9 4.5 7.9 5.7 7.35 6.8 6.8 7.9 5.85 8.55 4.9 9.25 3.55 9.4 L-0.65 9.5 -6.45 9.5 -6.45 -7.75 0.4 -7.75 3.4 -7.55 M3.15 -1.55 Q3.65 -2.1 3.65 -2.9 3.65 -3.7 3.2 -4.2 2.8 -4.7 1.9 -4.8 L-1.0 -4.85 -3.0 -4.85 -3.0 -0.9 -0.75 -0.9 1.75 -0.95 Q2.65 -1.05 3.15 -1.55 M2.85 2.25 L-0.2 2.0 -3.0 2.0 -3.0 6.6 0.2 6.6 2.6 6.5 Q3.35 6.35 3.85 5.8 4.3 5.25 4.3 4.35 4.3 3.55 3.95 3.05 3.55 2.5 2.85 2.25"/></g></defs><g><g><use transform="matrix(2.0,0.0,0.0,2.0,-20.0,-20.0)" xlink:href="#c2" class="color"/></g><g><use transform="matrix(1.0,0.0,0.0,1.0,0.0,0.0)" xlink:href="#c3"/></g></g></svg>