<?xml version='1.0' encoding='UTF-8'?>
<svg xmlns:xlink="http://www.w3.org/1999/xlink" xmlns="http://www.w3.org/2000/svg" version="1.1" width="40px" height="40px" viewBox="-24.0 -24.0 48.0 48.0"><defs><g id="c1"><path fill="#000000" stroke="none" d="M17.1 2.9 Q20.0 5.85 20.0 10.0 20.0 14.15 17.1 17.05 14.2 20.0 10.0 20.0 5.9 20.0 2.9 17.05 0.0 14.15 0.0 10.0 0.0 5.85 2.9 2.9 5.9 0.0 10.0 0.0 14.2 0.0 17.1 2.9"/></g><g id="c2"><g><use transform="matrix(1.0,0.0,0.0,1.0,0.0,0.0)" xlink:href="#c1"/></g></g><g id="c3"><path fill="#ffffff" stroke="none" d="M6.7 -7.25 L6.7 1.8 6.45 6.2 Q6.15 7.45 5.4 8.35 4.65 9.25 3.4 9.75 2.1 10.3 0.1 10.3 -2.35 10.3 -3.65 9.7 L-5.65 8.25 Q-6.4 7.3 -6.65 6.3 -6.95 4.85 -6.95 1.95 L-6.95 -7.25 -3.5 -7.25 -3.5 2.15 -3.35 5.0 Q-3.15 6.1 -2.3 6.75 -1.45 7.4 0.0 7.4 1.45 7.4 2.2 6.75 2.95 6.15 3.1 5.3 L3.25 2.35 3.25 -7.25 6.7 -7.25"/></g></defs><g><g><use transform="matrix(2.0,0.0,0.0,2.0,-20.0,-20.0)" xlink:href="#c2" class="color"/></g><g><use transform="matrix(1.0,0.0,0.0,1.0,0.0,0.0)" xlink:href="#c3"/></g></g></svg>