<?xml version='1.0' encoding='UTF-8'?>
<svg xmlns:xlink="http://www.w3.org/1999/xlink" xmlns="http://www.w3.org/2000/svg" version="1.1" width="40px" height="40px" viewBox="-24.0 -24.0 48.0 48.0"><defs><g id="c1"><path fill="#000000" stroke="none" d="M17.1 2.9 Q20.0 5.85 20.0 10.0 20.0 14.15 17.1 17.05 14.2 20.0 10.0 20.0 5.9 20.0 2.9 17.05 0.0 14.15 0.0 10.0 0.0 5.85 2.9 2.9 5.9 0.0 10.0 0.0 14.2 0.0 17.1 2.9"/></g><g id="c2"><g><use transform="matrix(1.0,0.0,0.0,1.0,0.0,0.0)" xlink:href="#c1"/></g></g><g id="c3"><path fill="#ffffff" stroke="none" d="M1.6 -4.75 L-0.9 -4.85 -2.6 -4.85 -2.6 0.15 -0.7 0.15 2.1 -0.15 3.2 -1.0 Q3.6 -1.6 3.6 -2.35 3.6 -3.3 3.05 -3.95 2.45 -4.55 1.6 -4.75 M7.15 -2.4 Q7.15 -0.8 6.6 0.25 L5.1 1.95 Q4.2 2.6 3.3 2.8 L-0.35 3.05 -2.6 3.05 -2.6 9.5 -6.05 9.5 -6.05 -7.75 -0.5 -7.75 3.65 -7.5 Q5.15 -7.1 6.15 -5.8 7.15 -4.5 7.15 -2.4"/></g></defs><g><g><use transform="matrix(2.0,0.0,0.0,2.0,-20.0,-20.0)" xlink:href="#c2" class="color"/></g><g><use transform="matrix(1.0,0.0,0.0,1.0,0.0,0.0)" xlink:href="#c3"/></g></g></svg>