<?xml version='1.0' encoding='UTF-8'?>
<svg xmlns:xlink="http://www.w3.org/1999/xlink" xmlns="http://www.w3.org/2000/svg" version="1.1" width="40px" height="40px" viewBox="-24.0 -24.0 48.0 48.0"><defs><g id="c1"><path fill="#000000" stroke="none" d="M17.1 2.9 Q20.0 5.85 20.0 10.0 20.0 14.15 17.1 17.05 14.2 20.0 10.0 20.0 5.9 20.0 2.9 17.05 0.0 14.15 0.0 10.0 0.0 5.85 2.9 2.9 5.9 0.0 10.0 0.0 14.2 0.0 17.1 2.9"/></g><g id="c2"><g><use transform="matrix(1.0,0.0,0.0,1.0,0.0,0.0)" xlink:href="#c1"/></g></g><g id="c3"><path fill="#ffffff" stroke="none" d="M1.8 -5.3 L-1.05 -5.45 -2.6 -5.45 -2.6 6.0 0.0 6.0 2.05 5.85 3.45 5.1 Q4.0 4.6 4.35 3.45 4.7 2.3 4.7 0.3 4.7 -1.7 4.35 -2.8 L3.4 -4.45 Q2.75 -5.05 1.8 -5.3 M7.7 -3.65 Q8.3 -2.0 8.3 0.45 8.3 2.55 7.75 4.1 7.1 6.0 5.9 7.15 5.0 8.05 3.5 8.55 L0.45 8.9 -6.05 8.9 -6.05 -8.35 0.25 -8.35 3.5 -8.0 Q5.0 -7.6 6.1 -6.45 7.15 -5.3 7.7 -3.65"/></g></defs><g><g><use transform="matrix(2.0,0.0,0.0,2.0,-20.0,-20.0)" xlink:href="#c2" class="color"/></g><g><use transform="matrix(1.0,0.0,0.0,1.0,0.0,0.0)" xlink:href="#c3"/></g></g></svg>