<?xml version='1.0' encoding='UTF-8'?>
<svg xmlns:xlink="http://www.w3.org/1999/xlink" xmlns="http://www.w3.org/2000/svg" version="1.1" width="40px" height="40px" viewBox="-24.0 -24.0 48.0 48.0"><defs><g id="c1"><path fill="#000000" stroke="none" d="M17.1 2.9 Q20.0 5.85 20.0 10.0 20.0 14.15 17.1 17.05 14.2 20.0 10.0 20.0 5.9 20.0 2.9 17.05 0.0 14.15 0.0 10.0 0.0 5.85 2.9 2.9 5.9 0.0 10.0 0.0 14.2 0.0 17.1 2.9"/></g><g id="c2"><g><use transform="matrix(1.0,0.0,0.0,1.0,0.0,0.0)" xlink:href="#c1"/></g></g><g id="c3"><path fill="#ffffff" stroke="none" d="M1.8 -4.7 Q1.1 -5.3 -0.4 -5.3 -1.9 -5.3 -2.75 -4.65 -3.3 -4.25 -3.3 -3.6 -3.3 -2.95 -2.8 -2.55 -2.15 -2.0 0.4 -1.4 L4.15 -0.2 Q5.35 0.45 6.05 1.55 6.7 2.65 6.7 4.25 6.7 5.7 5.9 7.0 5.05 8.3 3.55 8.9 2.05 9.55 -0.15 9.55 -3.4 9.55 -5.15 8.0 -6.9 6.5 -7.25 3.65 L-3.95 3.25 Q-3.65 4.95 -2.75 5.75 -1.8 6.55 -0.2 6.55 1.45 6.55 2.3 5.85 3.15 5.15 3.15 4.2 3.15 3.6 2.8 3.15 2.45 2.75 1.55 2.4 L-1.15 1.7 Q-3.95 1.0 -5.05 0.0 -6.6 -1.4 -6.6 -3.45 -6.6 -4.8 -5.85 -5.95 -5.1 -7.05 -3.7 -7.7 -2.3 -8.3 -0.35 -8.3 2.9 -8.3 4.55 -6.8 6.15 -5.3 6.25 -2.85 L2.8 -2.75 Q2.55 -4.1 1.8 -4.7"/></g></defs><g><g><use transform="matrix(2.0,0.0,0.0,2.0,-20.0,-20.0)" xlink:href="#c2" class="color"/></g><g><use transform="matrix(1.0,0.0,0.0,1.0,0.0,0.0)" xlink:href="#c3"/></g></g></svg>