<?xml version='1.0' encoding='UTF-8'?>
<svg xmlns:xlink="http://www.w3.org/1999/xlink" xmlns="http://www.w3.org/2000/svg" version="1.1" width="40px" height="40px" viewBox="-24.0 -24.0 48.0 48.0"><defs><g id="c1"><path fill="#000000" stroke="none" d="M17.1 2.9 Q20.0 5.85 20.0 10.0 20.0 14.15 17.1 17.05 14.2 20.0 10.0 20.0 5.9 20.0 2.9 17.05 0.0 14.15 0.0 10.0 0.0 5.85 2.9 2.9 5.9 0.0 10.0 0.0 14.2 0.0 17.1 2.9"/></g><g id="c2"><g><use transform="matrix(1.0,0.0,0.0,1.0,0.0,0.0)" xlink:href="#c1"/></g></g><g id="c3"><path fill="#ffffff" stroke="none" d="M-3.5 -3.75 Q-4.8 -2.3 -4.8 0.65 -4.8 3.6 -3.5 5.1 -2.15 6.6 -0.15 6.6 L1.25 6.35 Q0.2 5.65 -0.85 5.25 L0.1 3.3 Q1.8 3.9 3.35 5.05 L4.35 3.15 4.65 0.65 Q4.65 -2.3 3.35 -3.8 2.05 -5.25 -0.05 -5.25 -2.2 -5.25 -3.5 -3.75 M-0.05 -8.25 Q3.75 -8.25 6.0 -5.9 8.25 -3.55 8.25 0.6 8.25 2.85 7.6 4.5 7.15 5.8 6.1 7.0 7.4 7.9 8.9 8.45 L7.6 11.0 6.1 10.35 3.8 8.85 Q2.1 9.6 0.05 9.6 -3.9 9.6 -6.15 7.25 -8.35 4.9 -8.35 0.7 -8.35 -3.55 -6.15 -5.9 -3.9 -8.25 -0.05 -8.25"/></g></defs><g><g><use transform="matrix(2.0,0.0,0.0,2.0,-20.0,-20.0)" xlink:href="#c2" class="color"/></g><g><use transform="matrix(1.0,0.0,0.0,1.0,0.0,0.0)" xlink:href="#c3"/></g></g></svg>