<?xml version='1.0' encoding='UTF-8'?>
<svg xmlns:xlink="http://www.w3.org/1999/xlink" xmlns="http://www.w3.org/2000/svg" version="1.1" width="40px" height="40px" viewBox="-24.0 -24.0 48.0 48.0"><defs><g id="c1"><path fill="#000000" stroke="none" d="M17.1 2.9 Q20.0 5.85 20.0 10.0 20.0 14.15 17.1 17.05 14.2 20.0 10.0 20.0 5.9 20.0 2.9 17.05 0.0 14.15 0.0 10.0 0.0 5.85 2.9 2.9 5.9 0.0 10.0 0.0 14.2 0.0 17.1 2.9"/></g><g id="c2"><g><use transform="matrix(1.0,0.0,0.0,1.0,0.0,0.0)" xlink:href="#c1"/></g></g><g id="c3"><path fill="#ffffff" stroke="none" d="M0.2 -5.05 Q-2.1 -5.05 -3.45 -3.6 -4.8 -2.15 -4.8 0.7 -4.8 3.75 -3.45 5.25 -2.1 6.8 0.15 6.8 L2.3 6.35 4.2 5.3 4.2 3.15 0.25 3.15 0.25 0.2 7.65 0.2 7.65 7.1 Q6.55 8.15 4.5 8.95 2.45 9.8 0.35 9.8 -2.35 9.8 -4.35 8.65 -6.35 7.5 -7.35 5.4 -8.35 3.3 -8.35 0.8 -8.35 -1.9 -7.25 -3.95 -6.1 -6.05 -3.95 -7.2 -2.25 -8.05 0.2 -8.05 3.45 -8.05 5.25 -6.7 7.05 -5.35 7.55 -2.95 L4.1 -2.3 Q3.75 -3.55 2.7 -4.3 1.7 -5.05 0.2 -5.05"/></g></defs><g><g><use transform="matrix(2.0,0.0,0.0,2.0,-20.0,-20.0)" xlink:href="#c2" class="color"/></g><g><use transform="matrix(1.0,0.0,0.0,1.0,0.0,0.0)" xlink:href="#c3"/></g></g></svg>