<?xml version='1.0' encoding='UTF-8'?>
<svg xmlns:xlink="http://www.w3.org/1999/xlink" xmlns="http://www.w3.org/2000/svg" version="1.1" width="74px" height="74px" viewBox="-41.1 -41.1 82.2 82.2"><defs><g id="c1"><path fill="#009900" stroke="none" d="M37.1 -37.1 L37.1 37.1 -37.1 37.1 -37.1 -37.1 37.1 -37.1"/><path fill="#ffffff" stroke="none" d="M26.15 -26.15 L32.4 -26.15 32.55 -26.05 32.6 -25.9 32.6 -19.25 32.55 -19.1 32.4 -19.05 26.15 -19.05 26.15 -12.8 26.1 -12.65 25.95 -12.6 19.3 -12.6 19.15 -12.65 19.05 -12.8 19.05 -19.05 12.85 -19.05 12.65 -19.1 12.6 -19.25 12.6 -25.9 12.65 -26.05 12.85 -26.15 19.05 -26.15 19.05 -32.35 19.15 -32.5 19.3 -32.6 25.95 -32.6 26.1 -32.5 26.15 -32.35 26.15 -26.15"/><path fill="#ffffff" stroke="none" d="M13.5 -7.45 Q17.5 -3.45 17.5 2.0 17.5 4.6 16.6 6.85 12.05 19.95 -7.0 31.45 -26.0 19.95 -30.6 6.85 L-30.7 6.5 Q-31.5 4.4 -31.5 2.0 -31.5 -3.45 -27.65 -7.45 -23.7 -11.3 -18.15 -11.3 -12.7 -11.3 -8.8 -7.45 L-7.0 -5.25 -5.3 -7.45 Q-1.35 -11.3 4.15 -11.3 9.65 -11.3 13.5 -7.45 M-1.35 -4.55 L-2.1 -4.55 -16.25 11.3 -8.4 11.3 -13.75 23.0 -13.05 23.0 1.15 7.15 -6.8 7.15 -1.35 -4.55"/></g></defs><g><g><use transform="matrix(1.0,0.0,0.0,1.0,0.0,0.0)" xlink:href="#c1"/></g></g></svg>