<?xml version='1.0' encoding='UTF-8'?>
<svg xmlns:xlink="http://www.w3.org/1999/xlink" xmlns="http://www.w3.org/2000/svg" version="1.1" width="74px" height="74px" viewBox="-41.1 -41.1 82.2 82.2"><defs><g id="c1"><path fill="#009900" stroke="none" d="M37.1 -37.1 L37.1 37.1 -37.1 37.1 -37.1 -37.1 37.1 -37.1"/><path fill="#ffffff" stroke="none" d="M26.15 -26.15 L32.4 -26.15 32.55 -26.05 32.6 -25.9 32.6 -19.25 32.55 -19.1 32.4 -19.05 26.15 -19.05 26.15 -12.8 26.1 -12.65 25.95 -12.6 19.3 -12.6 19.15 -12.65 19.05 -12.8 19.05 -19.05 12.85 -19.05 12.65 -19.1 12.6 -19.25 12.6 -25.9 12.65 -26.05 12.85 -26.15 19.05 -26.15 19.05 -32.35 19.15 -32.5 19.3 -32.6 25.95 -32.6 26.1 -32.5 26.15 -32.35 26.15 -26.15"/><path fill="#ffffff" stroke="none" d="M5.75 -13.75 Q5.75 -8.8 2.6 -5.3 -0.55 -1.8 -5.0 -1.8 -9.45 -1.8 -12.6 -5.3 -15.8 -8.8 -15.8 -13.75 -15.8 -18.7 -12.6 -22.15 -9.45 -25.65 -5.0 -25.65 -0.55 -25.65 2.6 -22.15 5.75 -18.7 5.75 -13.75 M6.3 -13.2 Q6.6 -13.5 7.0 -13.45 L7.6 -13.15 7.85 -12.5 Q6.75 4.3 -4.05 5.3 L-4.05 20.15 6.35 -1.1 6.3 -0.9 Q6.3 -0.65 6.45 -0.45 L6.65 -0.35 6.9 -0.9 Q12.8 -0.6 16.0 2.9 19.55 6.75 19.9 14.55 L19.9 30.7 10.9 30.7 10.9 15.65 10.6 14.8 Q10.25 14.4 9.7 14.4 9.2 14.4 8.85 14.8 8.5 15.1 8.5 15.65 L8.5 30.7 -30.1 30.7 -30.1 14.55 Q-29.65 3.8 -23.05 0.55 -20.55 -0.75 -17.1 -0.9 L-5.9 21.15 -5.9 5.3 Q-16.7 4.3 -17.8 -12.5 L-17.55 -13.15 -16.95 -13.45 Q-16.55 -13.5 -16.25 -13.2 L-15.95 -12.6 Q-14.95 2.85 -5.0 3.55 L-4.9 3.55 Q5.0 2.85 6.0 -12.6 L6.3 -13.2 M-18.0 9.8 Q-19.65 9.8 -20.8 10.9 L-20.85 11.0 Q-21.95 12.15 -21.95 13.75 -21.95 15.4 -20.8 16.55 -19.65 17.7 -18.05 17.7 L-18.1 17.85 Q-17.85 24.15 -14.4 26.3 -13.4 26.95 -12.1 27.25 -8.55 27.85 -6.45 26.3 -5.05 25.3 -4.3 23.4 L-4.3 22.9 -4.45 22.75 -5.0 22.9 -5.35 22.8 -5.4 22.95 Q-7.05 26.9 -11.85 26.05 -16.65 24.85 -16.85 17.8 L-16.95 17.55 Q-15.95 17.3 -15.2 16.55 -14.1 15.4 -14.1 13.75 -14.1 12.15 -15.2 11.0 L-15.2 10.95 Q-16.35 9.8 -18.0 9.8 M-16.5 13.75 Q-16.5 14.4 -16.95 14.85 -17.4 15.25 -18.0 15.25 -18.65 15.25 -19.1 14.8 L-19.1 14.85 -19.55 13.75 Q-19.55 13.15 -19.1 12.7 L-19.1 12.65 Q-18.65 12.25 -18.0 12.25 -17.4 12.25 -16.95 12.7 L-16.95 12.65 Q-16.5 13.1 -16.5 13.75"/></g></defs><g><g><use transform="matrix(1.0,0.0,0.0,1.0,0.0,0.0)" xlink:href="#c1"/></g></g></svg>