<?xml version='1.0' encoding='UTF-8'?>
<svg xmlns:xlink="http://www.w3.org/1999/xlink" xmlns="http://www.w3.org/2000/svg" version="1.1" width="74px" height="74px" viewBox="-41.0 -41.05 82.0 81.9"><defs><g id="c1"><path fill="#003f80" stroke="none" d="M37.0 -32.45 L37.0 32.25 Q37.0 34.2 35.65 35.55 34.35 36.85 32.35 36.85 L-32.4 36.85 Q-34.05 36.85 -35.7 35.55 -37.0 34.2 -37.0 32.25 L-37.0 -32.45 Q-37.0 -34.1 -35.7 -35.75 -34.05 -37.05 -32.4 -37.05 L32.35 -37.05 Q34.35 -37.05 35.65 -35.75 37.0 -34.1 37.0 -32.45 M14.2 -11.95 Q20.8 -11.95 20.8 -5.35 L20.8 23.0 Q20.8 29.6 14.2 29.6 L-14.2 29.6 Q-20.85 29.6 -20.85 23.0 L-20.85 -5.35 Q-20.85 -11.95 -14.2 -11.95 L14.2 -11.95 -14.2 -11.95 Q-20.85 -11.95 -20.85 -5.35 L-20.85 23.0 Q-20.85 29.6 -14.2 29.6 L14.2 29.6 Q20.8 29.6 20.8 23.0 L20.8 -5.35 Q20.8 -11.95 14.2 -11.95"/><path fill="none" stroke="#ffffff" stroke-width="1.0" d="M14.2 -11.95 L-14.2 -11.95 Q-20.85 -11.95 -20.85 -5.35 L-20.85 23.0 Q-20.85 29.6 -14.2 29.6 L14.2 29.6 Q20.8 29.6 20.8 23.0 L20.8 -5.35 Q20.8 -11.95 14.2 -11.95"/><path fill="#ffffff" stroke="none" d="M-14.3 -23.55 L-14.3 -27.8 -8.0 -32.85 -1.75 -27.8 -1.85 -23.55 Q-3.95 -25.35 -6.2 -27.15 L-6.2 -17.5 -9.85 -17.5 -9.85 -27.1 -14.3 -23.55"/><path fill="#ffffff" stroke="none" d="M14.5 -26.8 L14.5 -22.55 8.2 -17.5 1.95 -22.55 2.05 -26.8 6.4 -23.2 6.4 -32.85 10.05 -32.85 10.05 -23.25 14.5 -26.8"/><path fill="#ffffff" stroke="none" d="M-12.0 2.55 Q-12.9 2.55 -13.55 1.95 L-14.15 0.4 -13.55 -1.1 Q-12.9 -2.0 -12.0 -1.7 L-11.7 -1.7 -10.5 -1.1 -9.85 0.4 -10.5 1.95 Q-11.4 2.55 -12.0 2.55 M-7.1 3.8 L-6.5 5.0 -6.5 13.85 Q-6.5 14.15 -6.8 14.45 -7.1 14.75 -7.45 14.75 -7.75 14.75 -8.05 14.45 -8.05 14.15 -8.35 13.85 -8.35 10.5 -8.65 7.15 -8.65 7.45 -8.95 7.45 L-8.95 25.1 -9.55 26.05 -9.85 26.05 Q-9.85 26.35 -10.15 26.35 L-10.8 26.05 -11.1 26.05 -11.4 25.1 -11.7 25.1 -11.7 14.45 -12.3 14.45 Q-12.3 14.75 -12.6 14.75 L-12.6 25.1 Q-12.6 25.75 -12.9 26.05 L-13.25 26.05 Q-13.55 26.35 -13.85 26.35 -14.15 26.35 -14.45 26.05 L-14.75 26.05 -15.35 25.1 -15.35 23.6 -15.05 23.6 -15.05 7.45 -15.35 7.15 Q-15.35 7.45 -15.65 7.45 -15.65 11.1 -15.95 14.45 -16.3 14.75 -16.9 14.75 L-17.5 14.45 -17.5 5.0 -16.9 3.8 -15.35 3.15 -8.95 3.15 -7.1 3.8"/><path fill="#ffffff" stroke="none" d="M0.25 2.55 Q-0.65 2.55 -1.3 1.95 L-1.9 0.4 -1.3 -1.1 Q-0.65 -2.0 0.25 -1.7 L0.55 -1.7 1.75 -1.1 2.4 0.4 1.75 1.95 Q0.85 2.55 0.25 2.55 M5.15 3.8 L5.75 5.0 5.75 13.85 5.45 14.45 4.8 14.75 4.2 14.45 3.9 13.85 3.6 7.15 3.3 7.45 3.3 25.1 2.7 26.05 2.4 26.05 2.1 26.35 1.45 26.05 1.15 26.05 0.85 25.1 0.55 25.1 0.55 14.45 -0.05 14.45 Q-0.05 14.75 -0.35 14.75 L-0.35 25.1 Q-0.35 25.75 -0.65 26.05 L-1.0 26.05 -1.6 26.35 -2.2 26.05 -2.5 26.05 -3.1 25.1 -3.1 23.6 -2.8 23.6 -2.8 7.45 -3.1 7.15 Q-3.1 7.45 -3.4 7.45 -3.4 11.1 -3.7 14.45 L-4.65 14.75 Q-4.95 14.75 -5.25 14.45 L-5.25 5.0 -4.65 3.8 -3.1 3.15 3.3 3.15 5.15 3.8"/><path fill="#ffffff" stroke="none" d="M12.45 2.55 Q11.55 2.55 10.9 1.95 L10.3 0.4 10.9 -1.1 Q11.55 -2.0 12.45 -1.7 L12.75 -1.7 13.95 -1.1 14.6 0.4 13.95 1.95 Q13.05 2.55 12.45 2.55 M17.35 3.8 L17.95 5.0 17.95 13.85 17.65 14.45 17.0 14.75 16.4 14.45 16.1 13.85 15.8 7.15 15.5 7.45 15.5 25.1 14.9 26.05 14.6 26.05 14.3 26.35 Q13.95 26.35 13.65 26.05 L13.35 26.05 13.05 25.1 12.75 25.1 12.75 14.45 12.15 14.45 11.85 14.75 11.85 25.1 11.55 26.05 11.2 26.05 10.6 26.35 10.0 26.05 9.7 26.05 9.1 25.1 9.1 23.6 9.4 23.6 9.4 7.45 9.1 7.15 8.8 7.45 8.5 14.45 7.55 14.75 Q7.25 14.75 6.95 14.45 L6.95 5.0 7.55 3.8 9.1 3.15 15.5 3.15 17.35 3.8"/></g></defs><g><g><use transform="matrix(1.0,0.0,0.0,1.0,0.0,0.0)" xlink:href="#c1"/></g></g></svg>