<?xml version='1.0' encoding='UTF-8'?>
<svg xmlns:xlink="http://www.w3.org/1999/xlink" xmlns="http://www.w3.org/2000/svg" version="1.1" width="74px" height="74px" viewBox="-41.1 -41.1 82.2 82.2"><defs><g id="c1"><path fill="#ff0000" stroke="none" d="M37.1 -37.1 L37.1 37.1 -37.1 37.1 -37.1 -37.1 37.1 -37.1"/><path fill="#ffffff" stroke="none" d="M11.6 -29.15 L11.7 -20.5 Q11.85 -15.15 10.75 -12.85 L5.9 -12.85 5.9 -30.0 8.65 -30.0 Q10.85 -29.95 11.6 -29.15 M11.7 22.35 Q11.85 27.75 10.75 30.0 L5.9 30.0 5.9 12.85 8.65 12.85 Q10.85 12.9 11.6 13.7 L11.7 22.35 M1.3 -30.0 Q2.45 -28.0 2.25 -22.8 2.0 -15.85 2.15 -14.55 2.05 -13.05 0.65 -11.85 -1.0 -10.4 -1.25 -9.45 -0.8 -5.35 -1.35 4.05 -1.3 11.85 2.15 13.7 L2.15 30.0 Q-4.6 28.05 -8.5 19.3 -12.0 11.25 -12.0 0.45 -12.0 -10.3 -8.6 -18.6 -4.95 -27.65 1.3 -30.0"/></g></defs><g><g><use transform="matrix(1.0,0.0,0.0,1.0,0.0,0.0)" xlink:href="#c1"/></g></g></svg>