<?xml version='1.0' encoding='UTF-8'?>
<svg xmlns:xlink="http://www.w3.org/1999/xlink" xmlns="http://www.w3.org/2000/svg" version="1.1" width="74px" height="74px" viewBox="-41.1 -41.1 82.2 82.2"><defs><g id="c1"><path fill="#009900" stroke="none" d="M37.1 -37.1 L37.1 37.1 -37.1 37.1 -37.1 -37.1 37.1 -37.1"/><path fill="#ffffff" stroke="none" d="M26.15 -26.15 L32.4 -26.15 32.55 -26.05 32.6 -25.9 32.6 -19.25 32.55 -19.1 32.4 -19.05 26.15 -19.05 26.15 -12.8 26.1 -12.65 25.95 -12.6 19.3 -12.6 19.15 -12.65 19.05 -12.8 19.05 -19.05 12.85 -19.05 12.65 -19.1 12.6 -19.25 12.6 -25.9 12.65 -26.05 12.85 -26.15 19.05 -26.15 19.05 -32.35 19.15 -32.5 19.3 -32.6 25.95 -32.6 26.1 -32.5 26.15 -32.35 26.15 -26.15"/><path fill="#ffffff" stroke="none" d="M-12.85 -27.6 Q-10.85 -28.35 -9.85 -27.9 L-6.55 -19.9 Q-4.4 -15.0 -4.55 -12.45 L-9.05 -10.65 -15.4 -26.6 -12.85 -27.6 M-13.2 -5.3 Q-11.25 -1.7 -8.3 7.25 -5.35 14.5 -1.45 14.9 L4.6 30.05 Q-2.4 30.7 -9.25 24.05 -15.5 17.85 -19.5 7.85 -23.5 -2.15 -23.45 -11.1 -23.4 -20.85 -18.45 -25.35 -16.7 -23.95 -14.9 -19.0 L-11.95 -11.35 Q-11.5 -9.9 -12.35 -8.3 -13.35 -6.3 -13.2 -5.3 M11.35 27.35 L6.85 29.15 0.5 13.2 3.05 12.2 Q5.05 11.45 6.05 11.9 L9.35 19.9 Q11.5 24.85 11.35 27.35"/></g></defs><g><g><use transform="matrix(1.0,0.0,0.0,1.0,0.0,0.0)" xlink:href="#c1"/></g></g></svg>