<?xml version='1.0' encoding='UTF-8'?>
<svg xmlns:xlink="http://www.w3.org/1999/xlink" xmlns="http://www.w3.org/2000/svg" version="1.1" width="74px" height="74px" viewBox="-41.0 -41.0 82.0 82.0"><defs><g id="c1"><path fill="#009900" stroke="none" d="M37.0 37.0 L-37.0 37.0 -37.0 -37.0 37.0 -37.0 37.0 37.0"/><path fill="#ffffff" stroke="none" d="M-3.35 12.15 L-5.65 11.15 -8.3 17.1 -3.35 12.15 M-7.3 -15.55 L-7.1 -15.95 -6.7 -16.15 -6.3 -16.05 -0.4 -13.4 0.0 -13.0 0.0 -12.45 -7.7 4.75 -7.95 5.05 -8.3 5.2 -8.7 5.15 -15.15 2.05 -21.5 14.7 -21.95 15.05 -22.5 15.05 -25.45 13.65 -25.85 13.2 -25.8 12.65 -18.1 -2.75 -17.7 -3.15 -17.1 -3.1 -10.5 0.05 -8.9 -7.95 -13.7 -5.8 -14.25 -5.8 Q-14.55 -5.9 -14.65 -6.15 L-16.15 -9.2 -16.25 -9.6 -16.1 -9.95 -15.8 -10.2 -7.65 -14.1 -7.3 -15.55 M22.85 -6.05 Q22.85 -6.55 23.25 -6.9 23.6 -7.3 24.1 -7.3 L30.15 -7.3 Q30.65 -7.3 31.05 -6.9 L31.4 -6.05 Q31.4 -5.55 31.05 -5.15 30.65 -4.8 30.15 -4.8 L25.35 -4.8 25.35 3.0 25.0 3.9 Q24.6 4.25 24.1 4.25 L16.35 4.25 16.35 12.05 16.0 12.95 Q15.6 13.3 15.1 13.3 L7.3 13.3 7.3 21.1 6.95 22.0 Q6.55 22.35 6.05 22.35 L-1.75 22.35 -1.75 30.15 Q-1.75 30.65 -2.1 31.05 -2.5 31.4 -3.0 31.4 L-24.05 31.4 Q-24.55 31.4 -24.9 31.05 -25.3 30.65 -25.3 30.15 -25.3 29.65 -24.9 29.3 -24.55 28.9 -24.05 28.9 L-4.25 28.9 -4.25 21.1 Q-4.25 20.6 -3.85 20.25 -3.5 19.85 -3.0 19.85 L4.8 19.85 4.8 12.05 Q4.8 11.55 5.2 11.2 5.55 10.8 6.05 10.8 L13.85 10.8 13.85 3.0 Q13.85 2.5 14.25 2.15 14.6 1.75 15.1 1.75 L22.85 1.75 22.85 -6.05 M1.35 -24.4 Q2.8 -23.05 2.8 -21.0 2.8 -19.0 1.4 -17.65 L1.35 -17.6 Q0.0 -16.25 -1.95 -16.25 -3.95 -16.25 -5.4 -17.6 L-5.4 -17.65 Q-6.75 -18.95 -6.75 -21.0 -6.75 -23.0 -5.4 -24.4 L-5.35 -24.45 Q-3.95 -25.75 -1.95 -25.75 0.0 -25.75 1.35 -24.4 M3.1 -29.2 Q2.8 -29.7 2.95 -30.15 L3.55 -30.9 4.5 -31.05 5.25 -30.45 9.4 -23.25 9.55 -22.7 9.45 -22.1 -4.6 8.9 -1.45 10.25 6.3 2.5 Q6.65 2.1 7.15 2.1 7.65 2.1 8.05 2.5 8.4 2.85 8.4 3.35 L8.05 4.25 -0.2 12.5 -0.3 12.65 -9.85 22.2 -9.8 23.0 Q-9.8 24.25 -10.7 25.2 L-10.65 25.15 Q-11.55 26.1 -12.9 26.1 -14.2 26.1 -15.1 25.2 -16.05 24.25 -16.05 23.0 -16.05 21.7 -15.15 20.75 L-15.1 20.7 Q-14.2 19.85 -12.9 19.85 L-12.35 19.9 -7.95 10.15 -13.3 7.8 Q-13.8 7.6 -13.95 7.1 -14.15 6.6 -13.95 6.15 -13.75 5.65 -13.25 5.5 -12.75 5.3 -12.3 5.5 L-6.9 7.85 6.9 -22.6 3.1 -29.2"/></g></defs><g><g><use transform="matrix(1.0,0.0,0.0,1.0,0.0,0.0)" xlink:href="#c1"/></g></g></svg>