<?xml version='1.0' encoding='UTF-8'?>
<svg xmlns:xlink="http://www.w3.org/1999/xlink" xmlns="http://www.w3.org/2000/svg" version="1.1" width="74px" height="74px" viewBox="-41.1 -41.1 82.2 82.2"><defs><g id="c1"><path fill="#009d00" stroke="none" d="M37.1 -37.1 L37.1 37.1 -37.1 37.1 -37.1 -37.1 37.1 -37.1"/><path fill="#ffffff" stroke="none" d="M1.4 -13.45 L8.0 -13.45 12.3 -6.95 Q13.6 -4.6 15.2 -5.45 16.85 -6.6 15.6 -8.4 L10.9 -16.15 Q10.1 -17.7 8.4 -17.7 L-3.8 -17.7 Q-7.15 -17.8 -10.4 -15.7 -9.5 -16.9 -9.5 -18.5 -9.5 -20.6 -11.0 -22.05 -12.45 -23.55 -14.55 -23.55 -16.6 -23.55 -18.1 -22.05 -19.55 -20.6 -19.55 -18.5 -19.55 -16.45 -18.1 -14.95 -16.6 -13.5 -14.55 -13.5 -13.35 -13.5 -12.3 -14.0 L-12.1 -13.7 -16.25 -7.5 -22.7 -7.5 -22.65 -31.0 18.5 -31.0 18.5 8.75 22.85 8.75 28.15 17.8 18.5 17.8 18.5 26.55 23.15 31.0 -5.85 31.0 -9.25 27.55 -15.7 27.55 -12.25 31.0 -18.7 31.0 -22.7 27.0 -22.7 -2.2 -15.4 -2.2 -9.25 -10.0 -4.3 -1.05 -16.25 25.35 Q-10.7 27.2 -7.95 20.55 L1.3 2.6 3.1 11.3 Q3.9 15.8 7.3 15.55 L24.45 15.55 21.55 10.75 8.4 10.75 6.85 -1.4 1.4 -13.45"/></g></defs><g><g><use transform="matrix(1.0,0.0,0.0,1.0,0.0,0.0)" xlink:href="#c1"/></g></g></svg>