<?xml version='1.0' encoding='UTF-8'?>
<svg xmlns:xlink="http://www.w3.org/1999/xlink" xmlns="http://www.w3.org/2000/svg" version="1.1" width="74px" height="74px" viewBox="-41.1 -41.1 82.2 82.2"><defs><g id="c1"><path fill="#009d00" stroke="none" d="M-37.1 -37.1 L37.1 -37.1 37.1 37.1 -37.1 37.1 -37.1 -37.1"/><path fill="#ffffff" stroke="none" d="M19.55 -18.5 Q19.55 -20.6 18.1 -22.05 16.6 -23.55 14.55 -23.55 12.45 -23.55 11.0 -22.05 9.5 -20.6 9.5 -18.5 9.5 -16.9 10.4 -15.7 7.15 -17.8 3.8 -17.7 L-8.4 -17.7 Q-10.1 -17.7 -10.9 -16.15 L-15.6 -8.4 Q-16.85 -6.6 -15.2 -5.45 -13.6 -4.6 -12.3 -6.95 L-8.0 -13.45 -1.4 -13.45 -6.85 -1.4 -8.4 10.75 -21.55 10.75 -24.45 15.55 -7.3 15.55 Q-3.9 15.8 -3.1 11.3 L-1.3 2.6 7.95 20.55 Q10.7 27.2 16.25 25.35 L4.3 -1.05 9.25 -10.0 15.4 -2.2 22.7 -2.2 22.7 27.0 18.7 31.0 12.25 31.0 15.7 27.55 9.25 27.55 5.85 31.0 -23.15 31.0 -18.5 26.55 -18.5 17.8 -28.15 17.8 -22.85 8.75 -18.5 8.75 -18.5 -31.0 22.65 -31.0 22.7 -7.5 16.25 -7.5 12.1 -13.7 12.3 -14.0 Q13.35 -13.5 14.55 -13.5 16.6 -13.5 18.1 -14.95 19.55 -16.45 19.55 -18.5"/></g></defs><g><g><use transform="matrix(1.0,0.0,0.0,1.0,0.0,0.0)" xlink:href="#c1"/></g></g></svg>