<?xml version='1.0' encoding='UTF-8'?>
<svg xmlns:xlink="http://www.w3.org/1999/xlink" xmlns="http://www.w3.org/2000/svg" version="1.1" width="66px" height="66px" viewBox="-37.0 -37.0 73.9 73.9"><defs><g id="c1"><path fill="#003f80" stroke="none" d="M32.9 -33.0 L32.9 32.9 -33.0 32.9 -33.0 -33.0 32.9 -33.0"/><path fill="#ffffff" stroke="none" d="M12.15 -19.15 L-12.55 -19.15 -12.55 5.9 -6.3 5.9 -6.3 13.15 -19.45 13.15 -19.45 -26.35 19.75 -26.35 19.75 13.15 6.9 13.15 6.9 5.9 12.15 5.9 12.15 -19.15 M4.6 -7.95 L4.6 16.1 12.5 16.1 0.0 28.65 Q-5.6 22.4 -11.55 16.1 L-4.65 16.1 -4.65 -7.95 4.6 -7.95"/></g></defs><g><g><use transform="matrix(1.0,0.0,0.0,1.0,0.0,0.0)" xlink:href="#c1"/></g></g></svg>