<?xml version='1.0' encoding='UTF-8'?>
<svg xmlns:xlink="http://www.w3.org/1999/xlink" xmlns="http://www.w3.org/2000/svg" version="1.1" width="168px" height="74px" viewBox="-88.0 -41.1 176.0 82.2"><defs><g id="c1"><path fill="#009900" stroke="none" d="M84.0 37.1 L-84.0 37.1 -84.0 -37.1 84.0 -37.1 84.0 37.1"/><path fill="#ffffff" stroke="none" d="M36.5 -24.8 L76.15 -24.8 76.15 -16.35 61.4 -16.35 61.4 25.5 51.3 25.5 51.3 -16.35 36.5 -16.35 36.5 -24.8 M30.75 -24.8 L30.75 25.5 20.6 25.5 20.6 -24.8 30.75 -24.8 M13.45 -24.8 L-1.8 -1.15 15.35 25.5 3.1 25.5 -7.85 8.35 -18.85 25.5 -30.85 25.5 -13.75 -0.9 -28.95 -24.8 -17.0 -24.8 -7.65 -10.3 1.8 -24.8 13.45 -24.8 M-62.4 -5.1 L-37.5 -5.1 -37.5 3.35 -62.4 3.35 -62.4 17.0 -34.5 17.0 -34.5 25.5 -72.5 25.5 -72.5 -24.8 -35.6 -24.8 -35.6 -16.35 -62.4 -16.35 -62.4 -5.1"/></g></defs><g><g><use transform="matrix(1.0,0.0,0.0,1.0,0.0,0.0)" xlink:href="#c1"/></g></g></svg>