<?xml version='1.0' encoding='UTF-8'?>
<svg xmlns:xlink="http://www.w3.org/1999/xlink" xmlns="http://www.w3.org/2000/svg" version="1.1" width="74px" height="74px" viewBox="-41.0 -41.0 82.2 82.2"><defs><g id="c1"><path fill="#ff0000" stroke="none" d="M37.2 -37.0 L37.2 37.2 -37.0 37.2 -37.0 -37.0 37.2 -37.0"/><path fill="#ffffff" stroke="none" d="M22.1 -16.35 Q25.15 -7.55 31.9 -3.65 20.2 -2.2 17.5 -13.15 15.65 -20.3 10.9 -24.2 18.8 -25.65 22.1 -16.35 M33.05 -8.1 Q20.5 -15.15 24.4 -28.65 27.3 -18.9 33.05 -16.25 L33.05 -8.1 M33.05 19.8 L33.05 26.55 Q14.9 26.45 13.2 13.9 21.9 21.15 33.05 19.8 M33.05 2.35 L33.05 9.75 Q12.7 3.95 12.95 -12.4 23.2 1.05 33.05 2.35 M7.05 5.35 Q14.25 -0.55 21.2 8.15 25.85 13.6 31.75 14.65 24.45 19.95 15.75 10.0 12.05 5.8 7.05 5.35"/><path fill="#ffffff" stroke="none" d="M2.05 -17.65 Q3.65 -12.8 9.1 -9.15 3.95 -11.15 2.05 -13.9 0.2 -16.65 -1.15 -20.75 -4.85 -28.05 -13.45 -27.9 -16.45 -27.85 -18.6 -27.0 L-19.5 -29.95 Q-9.35 -33.05 -2.05 -25.75 0.45 -22.55 2.05 -17.65 M11.05 -2.55 L-32.4 -2.55 Q-33.5 -4.3 -32.4 -6.0 L11.05 -6.0 11.05 -2.55 M-24.9 -13.8 Q-25.3 -25.5 -13.8 -26.1 -4.8 -26.05 -1.45 -18.1 1.35 -9.45 7.95 -7.35 L-29.7 -7.35 Q-25.6 -8.85 -24.9 -13.8"/></g></defs><g><g><use transform="matrix(1.0,0.0,0.0,1.0,0.0,0.0)" xlink:href="#c1"/></g></g></svg>