<?xml version='1.0' encoding='UTF-8'?>
<svg xmlns:xlink="http://www.w3.org/1999/xlink" xmlns="http://www.w3.org/2000/svg" version="1.1" width="74px" height="74px" viewBox="-41.0 -41.0 82.2 82.2"><defs><g id="c1"><path fill="#ff0000" stroke="none" d="M37.2 -37.0 L37.2 37.2 -37.0 37.2 -37.0 -37.0 37.2 -37.0"/><path fill="#ffffff" stroke="none" d="M24.4 -28.65 Q27.3 -18.9 33.05 -16.25 L33.05 -8.1 Q20.5 -15.15 24.4 -28.65 M10.9 -24.2 Q18.8 -25.65 22.1 -16.35 25.15 -7.55 31.9 -3.65 20.2 -2.2 17.5 -13.15 15.65 -20.3 10.9 -24.2 M21.2 8.15 Q25.85 13.6 31.75 14.65 24.45 19.95 15.75 10.0 12.05 5.8 7.05 5.35 14.25 -0.55 21.2 8.15 M33.05 19.8 L33.05 26.55 Q14.9 26.45 13.2 13.9 21.9 21.15 33.05 19.8 M33.05 2.35 L33.05 9.75 Q12.7 3.95 12.95 -12.4 23.2 1.05 33.05 2.35"/></g><g id="c2"><path fill="#ffffff" stroke="none" d="M2.0 -5.95 L2.0 46.95 -2.0 46.95 -2.0 -5.95 2.0 -5.95 M4.8 60.9 L4.3 60.0 4.2 60.0 4.2 54.6 8.2 54.6 8.2 60.0 8.15 60.0 7.65 60.9 Q7.05 61.45 6.2 61.45 5.35 61.45 4.8 60.9 M42.3 25.2 L42.3 20.9 38.2 20.9 Q38.45 22.5 39.65 23.7 40.8 24.85 42.3 25.2 M42.3 18.9 L42.3 14.65 Q40.85 14.95 39.7 16.05 L39.65 16.1 Q38.45 17.3 38.2 18.9 L42.3 18.9 M47.3 16.05 Q46.0 14.8 44.3 14.55 L44.3 18.9 48.85 18.9 Q48.55 17.3 47.3 16.05 M47.3 23.7 Q48.55 22.5 48.85 20.9 L44.3 20.9 44.3 25.25 Q46.0 25.0 47.3 23.7 M23.75 -0.05 Q24.3 -0.65 25.15 -0.65 26.0 -0.65 26.6 -0.05 27.15 0.5 27.15 1.35 L27.15 40.3 Q27.15 41.15 26.6 41.75 26.0 42.3 25.15 42.3 24.3 42.3 23.75 41.75 23.15 41.15 23.15 40.3 L23.15 1.35 Q23.15 0.5 23.75 -0.05 M29.6 -5.95 L33.6 -5.95 33.6 18.9 36.15 18.9 Q36.45 16.5 38.25 14.65 40.45 12.5 43.5 12.5 46.55 12.5 48.7 14.65 50.9 16.85 50.9 19.9 L50.9 19.95 Q50.9 22.95 48.75 25.1 L48.7 25.15 Q46.55 27.3 43.5 27.3 40.45 27.3 38.25 25.1 36.45 23.3 36.15 20.9 L33.6 20.9 33.6 46.95 29.6 46.95 29.6 -5.95 M4.8 -0.05 Q5.35 -0.65 6.2 -0.65 7.05 -0.65 7.65 -0.05 8.2 0.5 8.2 1.35 L8.2 50.85 4.2 50.85 4.2 1.35 Q4.2 0.5 4.8 -0.05 M17.4 -0.05 Q17.95 -0.65 18.8 -0.65 19.65 -0.65 20.25 -0.05 20.8 0.5 20.8 1.35 L20.8 40.3 Q20.8 41.15 20.25 41.75 19.65 42.3 18.8 42.3 17.95 42.3 17.4 41.75 16.8 41.15 16.8 40.3 L16.8 1.35 Q16.8 0.5 17.4 -0.05 M11.1 -0.05 Q11.65 -0.65 12.5 -0.65 13.35 -0.65 13.95 -0.05 14.5 0.5 14.5 1.35 L14.5 40.3 Q14.5 41.15 13.95 41.75 13.35 42.3 12.5 42.3 11.65 42.3 11.1 41.75 10.5 41.15 10.5 40.3 L10.5 1.35 Q10.5 0.5 11.1 -0.05"/></g><g id="c3"><g><use transform="matrix(1.0,0.0,0.0,1.0,0.0,0.0)" xlink:href="#c2"/></g></g></defs><g><g><use transform="matrix(1.0,0.0,0.0,1.0,0.0,0.0)" xlink:href="#c1"/></g><g><use transform="matrix(0.7314453125,0.0,0.0,0.729736328125,-28.9,-16.0)" xlink:href="#c3"/></g></g></svg>