<?xml version='1.0' encoding='UTF-8'?>
<svg xmlns:xlink="http://www.w3.org/1999/xlink" xmlns="http://www.w3.org/2000/svg" version="1.1" width="74px" height="74px" viewBox="-41.0 -41.0 82.2 82.2"><defs><g id="c1"><path fill="#ff0000" stroke="none" d="M37.2 37.2 L-37.0 37.2 -37.0 -37.0 37.2 -37.0 37.2 37.2"/><path fill="#ffffff" stroke="none" d="M33.05 -8.1 Q20.5 -15.15 24.4 -28.65 27.3 -18.9 33.05 -16.25 L33.05 -8.1 M22.1 -16.35 Q25.15 -7.55 31.9 -3.65 20.2 -2.2 17.5 -13.15 15.65 -20.3 10.9 -24.2 18.8 -25.65 22.1 -16.35 M7.05 5.35 Q14.25 -0.55 21.2 8.15 25.85 13.6 31.75 14.65 24.45 19.95 15.75 10.0 12.05 5.8 7.05 5.35 M33.05 2.35 L33.05 9.75 Q12.7 3.95 12.95 -12.4 23.2 1.05 33.05 2.35 M33.05 26.55 Q14.9 26.45 13.2 13.9 21.9 21.15 33.05 19.8 L33.05 26.55"/><path fill="#ffffff" stroke="none" d="M-18.15 -26.65 Q-16.2 -26.65 -14.85 -25.3 -13.45 -23.9 -13.45 -21.95 -13.45 -20.05 -14.85 -18.65 -16.2 -17.25 -18.15 -17.25 -20.1 -17.25 -21.5 -18.65 -22.85 -20.05 -22.85 -21.95 -22.85 -23.9 -21.5 -25.3 -20.1 -26.65 -18.15 -26.65"/><path fill="none" stroke="#ffffff" stroke-width="2.0" d="M-10.65 -29.4 L-10.65 -14.05 -25.95 -14.05 -25.95 -29.4 -10.65 -29.4"/><path fill="#ffffff" stroke="none" d="M-8.55 -1.1 L-8.2 -1.0 -7.8 -1.5 Q-6.85 -2.5 -5.55 -2.5 -4.2 -2.5 -3.25 -1.5 -2.35 -0.65 -2.3 0.6 L-1.95 0.75 -1.6 0.3 Q-0.65 -0.65 0.7 -0.65 2.0 -0.65 3.0 0.3 3.9 1.2 3.9 2.55 L3.9 22.0 Q3.9 23.3 3.0 24.25 L0.05 27.15 0.05 29.4 -0.1 30.6 -22.9 30.6 -23.15 29.4 -23.15 26.05 -28.4 17.95 Q-28.95 17.15 -28.95 16.15 L-28.95 1.9 Q-28.95 0.6 -28.0 -0.3 -27.05 -1.25 -25.75 -1.25 -24.45 -1.25 -23.5 -0.3 -22.55 0.6 -22.55 1.9 L-22.55 10.75 -21.55 10.75 -21.55 -12.95 Q-21.55 -14.25 -20.55 -15.2 -19.65 -16.15 -18.35 -16.15 -17.05 -16.15 -16.05 -15.2 -15.15 -14.25 -15.15 -12.95 L-15.15 -1.85 -14.85 -1.85 Q-14.7 -2.85 -14.0 -3.5 -13.05 -4.45 -11.75 -4.45 -10.4 -4.45 -9.5 -3.5 -8.55 -2.6 -8.55 -1.25 L-8.55 -1.1"/></g></defs><g><g><use transform="matrix(1.0,0.0,0.0,1.0,0.0,0.0)" xlink:href="#c1"/></g></g></svg>