<?xml version='1.0' encoding='UTF-8'?>
<svg xmlns:xlink="http://www.w3.org/1999/xlink" xmlns="http://www.w3.org/2000/svg" version="1.1" width="74px" height="74px" viewBox="-41.0 -41.0 82.2 82.2"><defs><g id="c1"><path fill="#ff0000" stroke="none" d="M37.2 37.2 L-37.0 37.2 -37.0 -37.0 37.2 -37.0 37.2 37.2"/><path fill="#ffffff" stroke="none" d="M33.05 -8.1 Q20.5 -15.15 24.4 -28.65 27.3 -18.9 33.05 -16.25 L33.05 -8.1 M17.5 -13.15 Q15.65 -20.3 10.9 -24.2 18.8 -25.65 22.1 -16.35 25.15 -7.55 31.9 -3.65 20.2 -2.2 17.5 -13.15 M31.75 14.65 Q24.45 19.95 15.75 10.0 12.05 5.8 7.05 5.35 14.25 -0.55 21.2 8.15 25.85 13.6 31.75 14.65 M33.05 26.55 Q14.9 26.45 13.2 13.9 21.9 21.15 33.05 19.8 L33.05 26.55 M33.05 2.35 L33.05 9.75 Q12.7 3.95 12.95 -12.4 23.2 1.05 33.05 2.35"/><path fill="#ffffff" stroke="none" d="M-10.15 -28.9 L-6.75 -28.9 -4.75 -27.6 -4.75 -24.3 -7.0 -22.95 -10.15 -22.95 -10.15 -18.35 -7.85 -18.35 Q-4.4 -18.35 -3.55 -16.05 -2.45 -13.7 -2.1 -11.4 L-2.1 30.4 -25.15 30.4 -25.15 -11.4 Q-24.85 -13.7 -23.7 -16.05 -22.85 -18.35 -19.4 -18.35 L-17.1 -18.35 -17.1 -23.0 -20.0 -23.3 -22.5 -21.4 -24.25 -20.1 -28.65 -17.0 -28.9 -16.05 -28.9 -14.05 -30.9 -14.05 -30.9 -19.0 -30.75 -20.1 -30.3 -21.0 -29.45 -22.3 -20.25 -28.9 -17.1 -28.9 -17.1 -30.65 -10.15 -30.65 -10.15 -28.9"/><path fill="#ff0000" stroke="none" d="M-5.75 -7.75 L-5.75 1.5 -21.5 1.5 -21.5 -7.75 -5.75 -7.75"/></g></defs><g><g><use transform="matrix(1.0,0.0,0.0,1.0,0.0,0.0)" xlink:href="#c1"/></g></g></svg>