<?xml version='1.0' encoding='UTF-8'?>
<svg xmlns:xlink="http://www.w3.org/1999/xlink" xmlns="http://www.w3.org/2000/svg" version="1.1" width="74px" height="74px" viewBox="-41.1 -41.1 82.2 82.2"><defs><g id="c1"><path fill="#ff0000" stroke="none" d="M37.1 -37.1 L37.1 37.1 -37.1 37.1 -37.1 -37.1 37.1 -37.1"/><path fill="#ffffff" stroke="none" d="M0.0 -30.0 Q1.8 -30.0 3.0 -28.75 L3.0 -28.7 Q4.0 -27.55 4.15 -25.95 7.7 -24.75 10.55 -21.55 13.95 -17.7 14.7 -12.65 L16.95 -12.65 Q18.15 -12.65 19.05 -11.75 19.85 -10.95 19.85 -9.7 19.85 -8.5 19.05 -7.6 18.15 -6.8 16.95 -6.8 L14.9 -6.8 14.9 -1.7 21.25 -1.7 21.75 -1.5 21.95 -1.0 21.95 8.95 21.75 9.5 21.25 9.7 14.9 9.7 14.9 25.75 15.55 25.75 16.2 26.0 16.45 26.35 16.45 29.35 16.2 29.75 15.55 30.0 -15.55 30.0 -16.2 29.75 -16.5 29.35 -16.5 26.35 -16.2 26.0 -15.55 25.75 -14.9 25.75 -14.9 9.7 -21.15 9.7 -21.7 9.5 -21.9 8.95 -21.9 -1.0 -21.7 -1.5 -21.15 -1.7 -14.9 -1.7 -14.9 -6.8 -16.95 -6.8 Q-18.2 -6.8 -19.0 -7.6 -19.85 -8.5 -19.85 -9.7 -19.85 -10.95 -19.0 -11.75 -18.2 -12.65 -16.95 -12.65 L-14.7 -12.65 Q-13.95 -17.7 -10.7 -21.55 -7.8 -24.85 -4.2 -25.95 -4.15 -27.55 -3.15 -28.7 L-3.05 -28.75 Q-1.75 -30.0 0.0 -30.0"/></g></defs><g><g><use transform="matrix(1.0,0.0,0.0,1.0,0.0,0.0)" xlink:href="#c1"/></g></g></svg>