<?xml version='1.0' encoding='UTF-8'?>
<svg xmlns:xlink="http://www.w3.org/1999/xlink" xmlns="http://www.w3.org/2000/svg" version="1.1" width="74px" height="74px" viewBox="-41.0 -41.0 82.2 82.2"><defs><g id="c1"><path fill="#ff0000" stroke="none" d="M37.2 -37.0 L37.2 37.2 -37.0 37.2 -37.0 -37.0 37.2 -37.0"/><path fill="#ffffff" stroke="none" d="M33.05 -16.25 L33.05 -8.1 Q20.5 -15.15 24.4 -28.65 27.3 -18.9 33.05 -16.25 M31.9 -3.65 Q20.2 -2.2 17.5 -13.15 15.65 -20.3 10.9 -24.2 18.8 -25.65 22.1 -16.35 25.15 -7.55 31.9 -3.65 M15.75 10.0 Q12.05 5.8 7.05 5.35 14.25 -0.55 21.2 8.15 25.85 13.6 31.75 14.65 24.45 19.95 15.75 10.0 M13.2 13.9 Q21.9 21.15 33.05 19.8 L33.05 26.55 Q14.9 26.45 13.2 13.9 M33.05 2.35 L33.05 9.75 Q12.7 3.95 12.95 -12.4 23.2 1.05 33.05 2.35"/></g><g id="c2"><path fill="#ffffff" stroke="none" d="M2.75 16.25 L2.4 20.75 14.6 20.75 14.15 16.25 2.75 16.25 M13.55 8.75 L13.1 4.25 3.8 4.25 3.45 8.75 13.55 8.75 M2.65 -0.05 L2.95 -0.55 3.5 -0.75 4.0 -0.45 4.15 0.1 3.95 2.75 13.0 2.75 12.75 0.1 Q12.7 -0.25 12.95 -0.45 L13.45 -0.75 14.0 -0.55 14.25 -0.05 14.55 3.45 15.1 9.45 15.1 9.5 15.6 15.45 15.6 15.5 16.15 21.45 16.15 21.5 16.65 27.45 16.65 27.5 17.2 33.75 17.2 33.8 17.65 38.75 17.5 39.3 17.0 39.55 16.45 39.4 16.15 38.9 15.75 34.55 1.15 34.55 0.75 38.9 0.5 39.4 -0.05 39.55 Q-0.4 39.5 -0.55 39.3 L-0.75 38.75 -0.3 33.8 -0.3 33.75 0.25 27.5 0.25 27.45 0.8 21.5 0.8 21.4 1.3 15.5 1.3 15.45 1.3 15.4 2.35 3.5 2.35 3.45 2.65 -0.05 M2.25 22.25 L1.85 26.75 15.1 26.75 14.7 22.25 2.25 22.25 M15.65 33.05 L15.2 28.25 1.7 28.25 1.3 33.05 15.65 33.05 M14.05 14.75 L13.65 10.25 3.3 10.25 2.9 14.75 14.05 14.75"/></g><g id="c3"><g><use transform="matrix(1.0,0.0,0.0,1.0,0.0,0.0)" xlink:href="#c2"/></g></g></defs><g><g><use transform="matrix(1.0,0.0,0.0,1.0,0.0,0.0)" xlink:href="#c1"/></g><g><use transform="matrix(1.43785095215,0.0,0.0,1.44329833984,-25.5,-28.5)" xlink:href="#c3"/></g></g></svg>