<?xml version='1.0' encoding='UTF-8'?>
<svg xmlns:xlink="http://www.w3.org/1999/xlink" xmlns="http://www.w3.org/2000/svg" version="1.1" width="74px" height="74px" viewBox="-41.0 -41.0 82.2 82.2"><defs><g id="c1"><path fill="#ff0000" stroke="none" d="M37.2 -37.0 L37.2 37.2 -37.0 37.2 -37.0 -37.0 37.2 -37.0"/><path fill="#ffffff" stroke="none" d="M24.4 -28.65 Q27.3 -18.9 33.05 -16.25 L33.05 -8.1 Q20.5 -15.15 24.4 -28.65 M10.9 -24.2 Q18.8 -25.65 22.1 -16.35 25.15 -7.55 31.9 -3.65 20.2 -2.2 17.5 -13.15 15.65 -20.3 10.9 -24.2 M21.2 8.15 Q25.85 13.6 31.75 14.65 24.45 19.95 15.75 10.0 12.05 5.8 7.05 5.35 14.25 -0.55 21.2 8.15 M33.05 19.8 L33.05 26.55 Q14.9 26.45 13.2 13.9 21.9 21.15 33.05 19.8 M33.05 2.35 L33.05 9.75 Q12.7 3.95 12.95 -12.4 23.2 1.05 33.05 2.35"/><path fill="#ffffff" stroke="none" d="M-14.85 -28.9 L-11.55 -20.9 Q-9.4 -16.0 -9.55 -13.45 L-14.05 -11.65 -20.4 -27.6 -17.85 -28.6 Q-15.85 -29.35 -14.85 -28.9 M-18.2 -6.3 Q-16.25 -2.7 -13.3 6.25 -10.35 13.5 -6.45 13.9 L-0.4 29.05 Q-7.4 29.7 -14.25 23.05 -20.5 16.85 -24.5 6.85 -28.5 -3.15 -28.45 -12.1 -28.4 -21.85 -23.45 -26.35 -21.7 -24.95 -19.9 -20.0 L-16.95 -12.35 Q-16.5 -10.9 -17.35 -9.3 -18.35 -7.3 -18.2 -6.3 M1.85 28.15 L-4.5 12.2 -1.95 11.2 Q0.05 10.45 1.05 10.9 L4.35 18.9 Q6.5 23.85 6.35 26.35 L1.85 28.15"/></g></defs><g><g><use transform="matrix(1.0,0.0,0.0,1.0,0.0,0.0)" xlink:href="#c1"/></g></g></svg>