<?xml version='1.0' encoding='UTF-8'?>
<svg xmlns:xlink="http://www.w3.org/1999/xlink" xmlns="http://www.w3.org/2000/svg" version="1.1" width="74px" height="74px" viewBox="-41.0 -41.0 82.2 82.2"><defs><g id="c1"><path fill="#ff0000" stroke="none" d="M37.2 -37.0 L37.2 37.2 -37.0 37.2 -37.0 -37.0 37.2 -37.0"/><path fill="#ffffff" stroke="none" d="M-19.55 -21.15 L-17.35 -21.15 -17.35 -8.95 -19.55 -8.95 -19.55 -21.15 M-9.05 -16.15 Q-8.6 -16.3 -8.45 -16.65 -8.2 -17.05 -8.2 -17.6 L-8.45 -18.55 Q-8.75 -19.0 -9.3 -19.05 L-12.7 -19.05 -12.7 -16.0 -11.05 -16.0 -9.05 -16.15 M-7.65 -20.85 Q-6.85 -20.5 -6.35 -19.65 -5.85 -18.8 -5.85 -17.75 -5.85 -16.35 -6.55 -15.45 -7.35 -14.55 -8.8 -14.3 L-7.6 -13.3 -6.35 -11.35 -5.0 -8.95 -7.65 -8.95 -9.25 -11.6 -10.45 -13.35 -11.15 -13.9 -12.25 -14.05 -12.7 -14.05 -12.7 -8.95 -15.0 -8.95 -15.0 -21.15 -10.25 -21.15 -7.65 -20.85 M-22.3 -14.1 L-26.95 -14.1 -26.95 -8.95 -29.15 -8.95 -29.15 -21.15 -21.55 -21.15 -21.55 -19.05 -26.95 -19.05 -26.95 -16.15 -22.3 -16.15 -22.3 -14.1 M4.95 -11.0 L4.95 -8.95 -3.55 -8.95 -3.55 -21.15 4.7 -21.15 4.7 -19.05 -1.25 -19.05 -1.25 -16.4 4.3 -16.4 4.3 -14.3 -1.25 -14.3 -1.25 -11.0 4.95 -11.0"/><path fill="#ffffff" stroke="none" d="M-24.7 16.95 L-24.0 16.35 Q-23.7 15.95 -23.7 15.4 -23.7 14.75 -24.05 14.25 -24.45 13.85 -25.0 13.75 L-26.55 13.7 -27.65 13.7 -27.65 17.15 -26.45 17.15 -24.7 16.95 M-29.95 11.6 L-26.3 11.6 -23.6 11.75 Q-22.7 12.1 -22.1 13.0 -21.4 13.9 -21.4 15.35 -21.4 16.5 -21.8 17.25 L-22.7 18.45 Q-23.25 18.9 -23.85 19.0 L-26.2 19.2 -27.65 19.2 -27.65 23.8 -29.95 23.8 -29.95 11.6 M-7.6 18.95 L-9.15 14.45 -10.65 18.95 -7.6 18.95 M-11.3 21.05 L-12.25 23.8 -20.45 23.8 -20.45 11.7 -18.25 11.7 -18.25 21.7 -13.9 21.7 -10.3 11.6 -7.95 11.6 -3.45 23.8 -5.9 23.8 -6.85 21.05 -11.3 21.05 M4.0 19.75 L4.0 11.6 6.05 11.6 6.05 23.8 3.8 23.8 -0.65 15.85 -0.65 23.8 -2.7 23.8 -2.7 11.6 -0.5 11.6 4.0 19.75"/><path fill="#ffffff" stroke="none" d="M33.5 -16.75 L33.5 -8.6 Q21.45 -15.65 25.2 -29.15 27.95 -19.4 33.5 -16.75 M12.2 -24.7 Q19.8 -26.15 22.95 -16.85 25.9 -8.05 32.4 -4.15 21.15 -2.7 18.55 -13.65 16.8 -20.8 12.2 -24.7 M22.1 7.65 Q26.6 13.1 32.25 14.15 25.2 19.45 16.85 9.5 13.3 5.3 8.5 4.85 15.4 -1.05 22.1 7.65 M14.4 13.4 Q22.8 20.65 33.5 19.3 L33.5 26.05 Q16.0 25.95 14.4 13.4 M33.5 1.85 L33.5 9.25 Q13.95 3.45 14.2 -12.9 24.0 0.55 33.5 1.85"/></g></defs><g><g><use transform="matrix(1.0,0.0,0.0,1.0,0.0,0.0)" xlink:href="#c1"/></g></g></svg>