<?xml version='1.0' encoding='UTF-8'?>
<svg xmlns:xlink="http://www.w3.org/1999/xlink" xmlns="http://www.w3.org/2000/svg" version="1.1" width="74px" height="74px" viewBox="-41.1 -41.1 82.2 82.2"><defs><g id="c1"><path fill="#ff0000" stroke="none" d="M37.1 -37.1 L37.1 37.1 -37.1 37.1 -37.1 -37.1 37.1 -37.1"/><path fill="#ffffff" stroke="none" d="M9.35 -29.75 L9.8 -29.55 10.0 -29.1 10.0 -10.9 28.2 -10.9 28.65 -10.7 28.85 -10.25 28.85 9.2 28.65 9.65 28.2 9.85 10.0 9.85 10.0 28.05 9.8 28.5 9.35 28.7 -10.1 28.7 -10.55 28.5 -10.75 28.05 -10.75 9.85 -28.95 9.85 -29.45 9.65 -29.6 9.2 -29.6 -10.25 -29.45 -10.7 -28.95 -10.9 -10.75 -10.9 -10.75 -29.1 -10.55 -29.55 -10.1 -29.75 9.35 -29.75"/></g></defs><g><g><use transform="matrix(1.0,0.0,0.0,1.0,0.0,0.0)" xlink:href="#c1"/></g></g></svg>