<?xml version='1.0' encoding='UTF-8'?>
<svg xmlns:xlink="http://www.w3.org/1999/xlink" xmlns="http://www.w3.org/2000/svg" version="1.1" width="74px" height="74px" viewBox="-41.0 -41.0 82.0 82.0"><defs><g id="c1"><path fill="#fcfd04" stroke="none" d="M37.0 -37.0 L37.0 37.0 -37.0 37.0 -37.0 -37.0 37.0 -37.0"/><path fill="none" stroke="#000000" stroke-width="2.0" d="M37.0 -37.0 L37.0 37.0 -37.0 37.0 -37.0 -37.0 37.0 -37.0"/><path fill="#000000" stroke="none" d="M-30.0 -6.8 Q-28.45 -10.05 -25.5 -11.65 -22.55 -13.2 -18.7 -13.2 -15.9 -13.2 -13.6 -12.3 -11.35 -11.4 -10.1 -9.8 -8.8 -8.15 -8.15 -5.55 L-11.2 -4.7 Q-11.8 -6.7 -12.65 -7.8 -13.5 -8.95 -15.1 -9.6 -16.7 -10.3 -18.65 -10.3 -21.0 -10.3 -22.7 -9.55 -24.4 -8.85 -25.45 -7.7 L-27.1 -5.15 Q-28.05 -2.75 -28.05 0.05 -28.05 3.45 -26.85 5.8 -25.7 8.1 -23.45 9.25 -21.15 10.35 -18.6 10.35 -16.4 10.35 -14.3 9.5 L-11.1 7.7 -11.1 2.9 -18.65 2.9 -18.65 -0.15 -7.75 -0.15 -7.75 9.4 Q-10.25 11.4 -12.95 12.45 -15.6 13.45 -18.4 13.45 -22.2 13.45 -25.3 11.8 -28.4 10.2 -30.0 7.1 -31.6 4.05 -31.6 0.25 -31.6 -3.5 -30.0 -6.8 M8.5 -1.65 Q7.0 -3.5 4.55 -3.5 2.4 -3.5 0.9 -2.05 -0.6 -0.55 -0.75 1.85 L9.7 1.85 Q9.5 -0.5 8.5 -1.65 M4.55 -6.1 Q8.3 -6.1 10.65 -3.55 13.05 -1.0 13.05 3.65 L13.0 4.45 -0.9 4.45 Q-0.75 7.55 0.85 9.2 2.4 10.8 4.75 10.8 6.45 10.8 7.7 9.9 8.95 9.0 9.65 7.0 L12.9 7.4 Q12.15 10.25 10.05 11.85 7.95 13.4 4.7 13.4 0.6 13.4 -1.75 10.9 -4.2 8.4 -4.2 3.8 -4.2 -0.9 -1.75 -3.5 0.65 -6.1 4.55 -6.1 M19.7 -5.65 L19.7 -3.0 Q21.8 -6.1 25.65 -6.1 27.35 -6.1 28.75 -5.45 30.2 -4.9 30.9 -3.9 31.6 -2.9 31.85 -1.55 L32.05 1.5 32.05 13.0 28.9 13.0 28.9 1.65 Q28.9 -0.3 28.5 -1.25 28.15 -2.2 27.2 -2.75 26.25 -3.35 25.0 -3.35 22.95 -3.35 21.5 -2.05 20.05 -0.8 20.05 2.8 L20.05 13.0 16.85 13.0 16.85 -5.65 19.7 -5.65"/></g></defs><g><g><use transform="matrix(1.0,0.0,0.0,1.0,0.0,0.0)" xlink:href="#c1"/></g></g></svg>