<?xml version='1.0' encoding='UTF-8'?>
<svg xmlns:xlink="http://www.w3.org/1999/xlink" xmlns="http://www.w3.org/2000/svg" version="1.1" width="100px" height="100px" viewBox="-54.0 -54.0 108.0 108.0"><defs><g id="c1"><path fill="#ff0000" stroke="none" d="M-41.95 0.0 L-0.05 41.9 41.85 0.0 -0.05 -41.9 -41.95 0.0 M0.0 50.0 L-50.0 0.0 -0.05 -50.0 50.0 0.05 0.0 50.0"/><path fill="#ffffff" stroke="none" d="M-41.95 0.0 L-0.05 -41.9 41.85 0.0 -0.05 41.9 -41.95 0.0"/></g><g id="c2"><path fill="#000000" stroke="none" d="M28.85 19.1 Q26.5 19.2 25.0 16.8 L25.85 15.0 29.7 15.0 30.9 16.45 Q30.5 18.05 28.85 19.1 M24.8 22.4 Q26.45 23.65 24.45 25.1 L23.15 24.75 22.55 24.75 21.25 25.1 Q19.2 23.65 20.85 22.4 22.05 21.55 22.25 19.7 L23.4 19.7 Q23.6 21.55 24.8 22.4 M20.1 16.8 Q18.6 19.2 16.25 19.1 14.55 18.05 14.2 16.45 L15.35 15.0 19.2 15.0 20.1 16.8"/><path fill="none" stroke="#000000" stroke-width="1.2" d="M31.9 7.9 Q36.5 10.6 33.1 13.95 37.8 10.7 33.7 6.1 28.1 -0.35 22.55 0.0 L22.5 0.0 Q16.95 -0.4 11.35 6.1 7.25 10.7 11.95 13.95 8.6 10.6 13.15 7.9 M33.1 13.95 Q34.15 21.1 29.8 22.75 L30.95 22.4 Q37.2 20.4 38.25 18.4 38.0 15.7 40.65 15.85 44.3 16.15 42.75 19.2 46.4 21.1 44.2 22.6 41.15 24.45 38.75 21.65 L29.85 26.45 29.8 27.95 37.9 32.35 Q42.5 28.45 44.2 32.35 44.9 35.7 41.65 35.45 41.55 39.15 39.1 38.6 36.0 38.1 35.85 34.25 L28.6 30.7 Q26.8 32.75 22.65 32.75 18.4 32.75 16.65 30.65 L9.2 34.25 Q9.05 38.1 5.95 38.6 3.55 39.15 3.4 35.45 0.15 35.7 0.85 32.35 2.55 28.45 7.15 32.35 L15.45 27.8 15.35 26.55 6.3 21.65 Q3.9 24.45 0.85 22.6 -1.35 21.1 2.3 19.2 0.75 16.15 4.45 15.85 7.05 15.7 6.85 18.4 7.85 20.4 14.15 22.4 L15.25 22.75 Q10.95 21.1 11.95 13.95 M28.6 30.7 Q29.5 29.7 29.8 28.15 L29.8 27.95 29.6 27.8 29.7 26.55 Q31.2 24.5 30.95 22.4 M29.8 22.75 L29.0 23.0 27.7 23.3 Q27.75 26.75 25.75 28.05 24.55 28.8 22.65 28.8 17.5 28.8 17.55 23.35 L16.05 23.0 15.3 22.75 15.25 22.75 M29.7 26.55 L29.85 26.45 M41.65 35.45 L41.55 33.45 M15.45 27.8 Q15.65 29.5 16.65 30.65 M3.4 35.45 L3.5 33.45 M15.35 26.55 Q13.9 24.5 14.15 22.4"/></g><g id="c3"><g><use transform="matrix(1.0,0.0,0.0,1.0,0.0,0.0)" xlink:href="#c2"/></g></g></defs><g><g><use transform="matrix(1.0,0.0,0.0,1.0,0.0,0.0)" xlink:href="#c1"/></g><g><use transform="matrix(1.0,0.0,0.0,1.0,-22.4,-24.2)" xlink:href="#c3"/></g></g></svg>