<?xml version='1.0' encoding='UTF-8'?>
<svg xmlns:xlink="http://www.w3.org/1999/xlink" xmlns="http://www.w3.org/2000/svg" version="1.1" width="66px" height="66px" viewBox="-37.0 -37.0 74.0 74.0"><defs><g id="c1"><path fill="#003f80" stroke="none" d="M33.0 33.0 L-33.0 33.0 -33.0 -33.0 33.0 -33.0 33.0 33.0"/><path fill="#ffffff" stroke="none" d="M13.9 -10.85 Q12.55 -9.85 11.25 -9.85 9.6 -9.85 8.6 -10.85 L7.3 -13.85 8.6 -16.45 11.25 -17.45 Q12.55 -16.8 13.9 -16.45 L14.9 -13.85 Q14.55 -12.2 13.9 -10.85 M15.55 -3.6 L16.55 0.35 16.55 14.55 2.65 14.55 2.65 27.1 -0.95 27.1 -0.95 13.55 Q-0.95 9.95 1.0 9.95 L8.6 9.95 8.6 -2.6 Q8.95 -5.6 11.25 -5.9 L13.25 -5.9 15.55 -3.6 M19.5 6.95 L19.5 2.65 26.1 2.65 26.1 29.4 21.45 29.4 21.45 6.95 19.5 6.95 M5.95 6.95 L-6.9 6.95 -6.9 14.55 -27.0 14.55 -27.0 2.65 5.95 2.65 5.95 6.95 M13.9 16.85 L13.9 24.1 18.85 24.1 18.85 29.4 15.85 29.4 15.85 27.4 8.95 27.4 8.95 29.4 5.65 29.4 5.65 24.1 10.6 24.1 10.6 16.85 13.9 16.85 M-5.9 -15.5 L-5.9 -0.65 -23.4 -0.65 -23.4 -15.5 -5.9 -15.5 M-8.55 -12.5 L-21.1 -12.5 -21.1 -4.25 -8.55 -4.25 -8.55 -12.5 M-6.9 17.2 L-6.9 29.05 -27.0 29.05 -27.0 17.2 -6.9 17.2"/></g></defs><g><g><use transform="matrix(1.0,0.0,0.0,1.0,0.0,0.0)" xlink:href="#c1"/></g></g></svg>