<?xml version='1.0' encoding='UTF-8'?>
<svg xmlns:xlink="http://www.w3.org/1999/xlink" xmlns="http://www.w3.org/2000/svg" version="1.1" width="200px" height="200px" viewBox="-104.0 -104.0 208.0 208.0"><defs><g id="c1"><path fill="#ffffff" stroke="none" d="M31.3 -75.55 Q45.5 -69.6 57.3 -57.8 L57.4 -57.7 52.5 -52.7 Q41.6 -63.6 28.6 -69.0 L31.3 -75.55 M75.4 -31.15 Q80.8 -18.1 81.3 -3.05 L81.3 -0.05 74.3 -0.05 Q74.3 -15.4 68.9 -28.5 L75.4 -31.15 M75.2 31.35 Q69.3 45.65 57.4 57.6 L52.5 52.7 Q63.4 41.75 68.8 28.6 L75.2 31.35 M31.1 75.55 Q17.9 81.05 2.5 81.55 L-0.1 81.55 -0.1 74.55 Q15.3 74.55 28.4 69.1 L31.1 75.55 M-31.3 75.55 Q-45.7 69.6 -57.7 57.7 L-52.7 52.7 Q-41.8 63.6 -28.6 69.1 L-31.3 75.55 M-75.5 31.45 Q-81.0 18.1 -81.5 2.65 L-81.5 -0.05 -74.5 -0.05 -74.5 0.05 Q-74.5 15.5 -69.0 28.7 L-75.5 31.45 M-75.6 -31.35 Q-69.6 -45.75 -57.8 -57.8 L-57.7 -57.8 -52.6 -52.7 -52.7 -52.7 Q-63.6 -41.75 -69.1 -28.5 L-75.6 -31.35 M-31.4 -75.75 Q-19.2 -80.75 -5.3 -81.55 L-4.0 -81.55 -0.1 -81.65 -0.1 -74.55 -4.9 -74.45 -6.3 -74.35 Q-18.2 -73.45 -28.6 -69.1 L-31.4 -75.75"/><path fill="#000000" stroke="none" d="M57.4 -57.7 Q69.4 -45.65 75.4 -31.15 L68.9 -28.5 Q63.4 -41.75 52.5 -52.7 L57.4 -57.7 M81.3 -3.05 L100.0 -0.35 81.3 2.15 Q80.9 17.8 75.2 31.35 L68.8 28.6 Q74.3 15.4 74.3 0.05 L74.3 -0.05 81.3 -0.05 81.3 -3.05 M57.4 57.6 L57.3 57.6 Q45.5 69.5 31.1 75.55 L28.4 69.1 Q41.6 63.6 52.5 52.7 L57.4 57.6 M2.5 81.55 L-0.2 100.0 -2.8 81.55 Q-18.1 81.05 -31.3 75.55 L-28.6 69.1 Q-15.5 74.55 -0.1 74.55 L-0.1 81.55 2.5 81.55 M-57.7 57.7 L-57.8 57.6 Q-69.6 45.75 -75.5 31.45 L-69.0 28.7 Q-63.5 41.85 -52.7 52.7 L-57.7 57.7 M-81.5 2.65 L-100.0 0.15 -81.5 -2.45 Q-81.1 -18.0 -75.6 -31.35 L-69.1 -28.5 Q-73.9 -17.0 -74.5 -3.45 L-74.5 -0.05 -81.5 -0.05 -81.5 -2.45 -81.5 -0.05 -81.5 2.65 M-57.7 -57.8 Q-45.8 -69.75 -31.4 -75.75 L-28.6 -69.1 Q-41.8 -63.6 -52.6 -52.7 L-57.7 -57.8 M-0.1 -81.65 L3.8 -81.55 Q18.5 -80.95 31.3 -75.55 L28.6 -69.0 Q17.4 -73.75 4.7 -74.45 L-0.1 -74.55 -0.1 -81.65 M81.3 2.15 L81.3 -0.05 81.3 2.15 M-2.8 81.55 L-0.1 81.55 -2.8 81.55"/><path fill="#ffffff" fill-opacity="0.0" d="M28.6 -69.0 Q41.6 -63.6 52.5 -52.7 63.4 -41.75 68.9 -28.5 74.3 -15.4 74.3 -0.05 L74.3 0.05 Q74.3 15.4 68.8 28.6 63.4 41.75 52.5 52.7 41.6 63.6 28.4 69.1 15.3 74.55 -0.1 74.55 -15.5 74.55 -28.6 69.1 -41.8 63.6 -52.7 52.7 -63.5 41.85 -69.0 28.7 -74.5 15.5 -74.5 0.05 L-74.5 -0.05 -74.5 -3.45 Q-73.9 -17.0 -69.1 -28.5 -63.6 -41.75 -52.7 -52.7 L-52.6 -52.7 Q-41.8 -63.6 -28.6 -69.1 -18.2 -73.45 -6.3 -74.35 L-4.9 -74.45 -0.1 -74.55 4.7 -74.45 Q17.4 -73.75 28.6 -69.0 M-0.1 -0.05 L-0.2 -0.05 -0.1 0.05 -0.1 -0.05 0.1 0.05 0.0 0.05 0.2 0.15 0.1 0.05 0.4 -0.05 0.1 -0.05 0.2 -0.35 -0.1 -0.05 -0.1 -74.55 -0.1 -0.05"/><path fill="none" stroke="#000000" stroke-width="1.0" d="M31.3 -75.55 Q45.5 -69.6 57.3 -57.8 L57.4 -57.7 Q69.4 -45.65 75.4 -31.15 80.8 -18.1 81.3 -3.05 L100.0 -0.35 81.3 2.15 Q80.9 17.8 75.2 31.35 69.3 45.65 57.4 57.6 L57.3 57.6 Q45.5 69.5 31.1 75.55 17.9 81.05 2.5 81.55 L-0.2 100.0 -2.8 81.55 Q-18.1 81.05 -31.3 75.55 -45.7 69.6 -57.7 57.7 L-57.8 57.6 Q-69.6 45.75 -75.5 31.45 -81.0 18.1 -81.5 2.65 L-100.0 0.15 -81.5 -2.45 Q-81.1 -18.0 -75.6 -31.35 -69.6 -45.75 -57.8 -57.8 L-57.7 -57.8 Q-45.8 -69.75 -31.4 -75.75 -19.2 -80.75 -5.3 -81.55 L-4.0 -81.55 -0.1 -81.65 3.8 -81.55 Q18.5 -80.95 31.3 -75.55 L28.6 -69.0 Q41.6 -63.6 52.5 -52.7 L57.4 -57.7 M-0.1 -74.55 L4.7 -74.45 Q17.4 -73.75 28.6 -69.0 M-0.1 -0.05 L0.2 -0.35 0.1 -0.05 0.4 -0.05 0.1 0.05 0.2 0.15 0.0 0.05 0.1 0.05 -0.1 -0.05 -0.1 0.05 -0.2 -0.05 -0.1 -0.05 -0.1 -74.55 -4.9 -74.45 -6.3 -74.35 Q-18.2 -73.45 -28.6 -69.1 -41.8 -63.6 -52.6 -52.7 L-52.7 -52.7 Q-63.6 -41.75 -69.1 -28.5 -73.9 -17.0 -74.5 -3.45 L-74.5 -0.05 -74.5 0.05 Q-74.5 15.5 -69.0 28.7 -63.5 41.85 -52.7 52.7 -41.8 63.6 -28.6 69.1 -15.5 74.55 -0.1 74.55 15.3 74.55 28.4 69.1 41.6 63.6 52.5 52.7 63.4 41.75 68.8 28.6 74.3 15.4 74.3 0.05 L74.3 -0.05 Q74.3 -15.4 68.9 -28.5 63.4 -41.75 52.5 -52.7 M0.1 -0.05 L0.1 0.05 M75.4 -31.15 L68.9 -28.5 M81.3 -3.05 L81.3 -0.05 81.3 2.15 M74.3 -0.05 L81.3 -0.05 M68.8 28.6 L75.2 31.35 M28.4 69.1 L31.1 75.55 M52.5 52.7 L57.4 57.6 M-81.5 -0.05 L-81.5 -2.45 M-28.6 -69.1 L-31.4 -75.75 M-0.1 -81.65 L-0.1 -74.55 M-57.7 -57.8 L-52.6 -52.7 M-75.6 -31.35 L-69.1 -28.5 M-81.5 -0.05 L-74.5 -0.05 M-75.5 31.45 L-69.0 28.7 M-57.7 57.7 L-52.7 52.7 M-0.1 74.55 L-0.1 81.55 2.5 81.55 M-0.1 81.55 L-2.8 81.55 M-28.6 69.1 L-31.3 75.55 M-81.5 2.65 L-81.5 -0.05 M-0.1 -0.05 L0.1 -0.05"/><path fill="#000000" stroke="none" d="M-0.1 -100.0 L15.9 0.05 -16.3 0.05 -0.1 -100.0"/><path fill="none" stroke="#000000" stroke-width="1.0" d="M-0.1 -100.0 L15.9 0.05 -16.3 0.05 -0.1 -100.0"/><path fill="#ffffff" stroke="none" d="M8.0 -5.05 L4.1 -5.05 -4.3 -18.2 -4.3 -5.05 -8.0 -5.05 -8.0 -25.2 -4.0 -25.2 4.2 -11.7 4.2 -25.2 8.0 -25.2 8.0 -5.05"/><path fill="#000000" stroke="none" d="M4.2 0.15 Q4.2 2.05 2.9 3.35 1.6 4.65 -0.3 4.65 -2.1 4.65 -3.4 3.35 -4.8 2.05 -4.8 0.15 -4.8 -1.65 -3.4 -2.95 -2.1 -4.25 -0.3 -4.25 1.6 -4.25 2.9 -2.95 4.2 -1.65 4.2 0.15"/><path fill="none" stroke="#000000" stroke-width="1.0" d="M4.2 0.15 Q4.2 2.05 2.9 3.35 1.6 4.65 -0.3 4.65 -2.1 4.65 -3.4 3.35 -4.8 2.05 -4.8 0.15 -4.8 -1.65 -3.4 -2.95 -2.1 -4.25 -0.3 -4.25 1.6 -4.25 2.9 -2.95 4.2 -1.65 4.2 0.15"/></g></defs><g><g><use transform="matrix(1.0,0.0,0.0,1.0,0.0,0.0)" xlink:href="#c1"/></g></g></svg>