<?xml version='1.0' encoding='UTF-8'?>
<svg xmlns:xlink="http://www.w3.org/1999/xlink" xmlns="http://www.w3.org/2000/svg" version="1.1" width="82px" height="200px" viewBox="-45.1 -104.0 90.2 208.0"><defs><g id="c1"><path fill="#ffffff" stroke="none" d="M21.2 3.7 L21.2 2.2 Q21.2 -6.5 15.0 -12.9 11.6 -16.1 7.5 -17.8 3.9 -19.1 -0.1 -19.1 -4.3 -19.1 -7.6 -17.8 -12.0 -16.1 -15.1 -12.9 -21.5 -6.5 -21.5 2.2 L-21.3 3.7 -21.5 2.2 Q-21.5 -6.5 -15.1 -12.9 -12.0 -16.1 -7.6 -17.8 -4.3 -19.1 -0.1 -19.1 3.9 -19.1 7.5 -17.8 11.6 -16.1 15.0 -12.9 21.2 -6.5 21.2 2.2 L21.2 3.7 27.9 3.7 21.2 3.7 Q20.7 11.6 15.0 17.3 L12.3 19.6 Q7.0 23.6 -0.1 23.6 -7.1 23.6 -12.5 19.6 -14.0 18.6 -15.1 17.3 -21.0 11.6 -21.3 3.7 L-28.0 3.7 -21.3 3.7 -18.0 3.7 -21.3 3.7 Q-21.0 11.6 -15.1 17.3 -14.0 18.6 -12.5 19.6 -7.1 23.6 -0.1 23.6 7.0 23.6 12.3 19.6 L15.0 17.3 Q20.7 11.6 21.2 3.7 L17.8 3.7 21.2 3.7 M10.0 -24.0 Q15.3 -21.9 19.7 -17.6 27.9 -9.4 27.9 2.2 L27.9 3.7 Q27.4 14.2 19.7 21.9 L16.3 25.0 Q9.1 30.2 -0.1 30.2 -9.3 30.2 -16.3 25.0 L-19.8 21.9 Q-27.5 14.2 -28.0 3.7 L-28.0 2.2 Q-28.0 -9.4 -19.8 -17.6 -15.5 -21.9 -10.0 -24.0 -5.4 -25.8 -0.1 -25.8 5.3 -25.8 10.0 -24.0"/><path fill="#000000" stroke="none" d="M10.0 -24.0 Q5.3 -25.8 -0.1 -25.8 -5.4 -25.8 -10.0 -24.0 L-0.1 -100.0 10.0 -24.0 M16.3 25.0 L19.3 48.4 -0.1 30.3 -19.5 48.4 -16.3 25.0 Q-9.3 30.2 -0.1 30.2 9.1 30.2 16.3 25.0"/><path fill="none" stroke="#000000" stroke-width="1.0" d="M-21.3 3.7 L-21.5 2.2 Q-21.5 -6.5 -15.1 -12.9 -12.0 -16.1 -7.6 -17.8 -4.3 -19.1 -0.1 -19.1 3.9 -19.1 7.5 -17.8 11.6 -16.1 15.0 -12.9 21.2 -6.5 21.2 2.2 L21.2 3.7 Q20.7 11.6 15.0 17.3 L12.3 19.6 Q7.0 23.6 -0.1 23.6 -7.1 23.6 -12.5 19.6 -14.0 18.6 -15.1 17.3 -21.0 11.6 -21.3 3.7"/><path fill="none" stroke="#000000" stroke-width="2.0" d="M-0.1 30.3 L-0.1 100.0"/><path fill="none" stroke="#000000" stroke-width="2.0" d="M27.9 3.7 L27.9 2.2 Q27.9 -9.4 19.7 -17.6 15.3 -21.9 10.0 -24.0 5.3 -25.8 -0.1 -25.8 -5.4 -25.8 -10.0 -24.0 -15.5 -21.9 -19.8 -17.6 -28.0 -9.4 -28.0 2.2 L-28.0 3.7 M16.3 25.0 Q9.1 30.2 -0.1 30.2 -9.3 30.2 -16.3 25.0 L-19.8 21.9 Q-27.5 14.2 -28.0 3.7 M16.3 25.0 L19.7 21.9 Q27.4 14.2 27.9 3.7"/><path fill="none" stroke="#000000" stroke-width="2.0" d="M21.2 3.7 L27.9 3.7 41.1 3.7 M-28.0 3.7 L-21.3 3.7 -18.0 3.7 M-28.0 3.7 L-41.1 3.7 M21.2 3.7 L17.8 3.7"/><path fill="#000000" stroke="none" d="M8.5 -8.0 L8.5 13.6 4.1 13.6 -4.4 -0.5 -4.4 13.6 -8.6 13.6 -8.6 -8.0 -4.3 -8.0 4.4 6.2 4.4 -8.0 8.5 -8.0"/></g></defs><g><g><use transform="matrix(1.0,0.0,0.0,1.0,0.0,0.0)" xlink:href="#c1"/></g></g></svg>