<?xml version='1.0' encoding='UTF-8'?>
<svg xmlns:xlink="http://www.w3.org/1999/xlink" xmlns="http://www.w3.org/2000/svg" version="1.1" width="80px" height="56px" viewBox="-44.0 -32.0 88.0 64.0"><defs><g id="c1"><path fill="#009d00" stroke="none" d="M40.0 -8.0 L40.0 8.15 -40.0 8.15 -40.0 -8.0 40.0 -8.0"/><path fill="#ffffff" stroke="none" d="M19.8 -19.8 Q28.0 -11.6 28.0 0.0 28.0 11.55 19.8 19.75 11.6 28.0 0.0 28.0 -11.6 28.0 -19.8 19.75 -28.0 11.55 -28.0 0.0 -28.0 -11.6 -19.8 -19.8 -11.6 -28.0 0.0 -28.0 11.6 -28.0 19.8 -19.8"/><path fill="none" stroke="#009f00" stroke-width="4.0" d="M19.8 -19.8 Q28.0 -11.6 28.0 0.0 28.0 11.55 19.8 19.75 11.6 28.0 0.0 28.0 -11.6 28.0 -19.8 19.75 -28.0 11.55 -28.0 0.0 -28.0 -11.6 -19.8 -19.8 -11.6 -28.0 0.0 -28.0 11.6 -28.0 19.8 -19.8"/><path fill="#000000" stroke="none" d="M-6.8 -9.75 Q-10.05 -9.75 -12.0 -7.55 -13.95 -5.35 -13.95 -0.9 -13.95 3.45 -11.95 5.75 -9.95 8.0 -6.8 8.0 -3.7 8.0 -1.7 5.75 0.3 3.5 0.3 -0.95 0.3 -5.4 -1.65 -7.6 -3.6 -9.75 -6.8 -9.75 M2.25 -10.7 Q5.65 -7.15 5.65 -0.85 5.65 5.4 2.25 8.9 -1.1 12.45 -6.8 12.45 -12.55 12.45 -15.95 8.95 -19.35 5.45 -19.35 -0.75 -19.35 -4.65 -18.15 -7.35 -17.3 -9.3 -15.75 -10.85 -14.25 -12.45 -12.45 -13.2 -10.0 -14.2 -6.85 -14.2 -1.2 -14.2 2.25 -10.7 M13.6 -2.7 Q16.1 -2.7 17.5 -1.4 18.95 -0.05 18.95 1.95 18.95 3.05 18.55 4.1 L17.25 6.25 15.15 8.4 13.2 10.25 12.55 11.1 18.95 11.1 18.95 14.1 7.7 14.1 Q7.85 12.4 8.8 10.9 9.7 9.4 12.4 6.9 L15.05 4.15 Q15.7 3.15 15.7 2.15 15.7 1.1 15.15 0.55 14.55 -0.05 13.55 -0.05 12.55 -0.05 11.95 0.55 11.35 1.15 11.25 2.55 L8.05 2.25 Q8.35 -0.4 9.85 -1.55 11.35 -2.7 13.6 -2.7"/></g></defs><g><g><use transform="matrix(1.0,0.0,0.0,1.0,0.0,0.0)" xlink:href="#c1"/></g></g></svg>