<?xml version='1.0' encoding='UTF-8'?>
<svg xmlns:xlink="http://www.w3.org/1999/xlink" xmlns="http://www.w3.org/2000/svg" version="1.1" width="74px" height="74px" viewBox="-41.1 -41.1 82.2 82.2"><defs><g id="c1"><path fill="#009900" stroke="none" d="M37.1 -37.1 L37.1 37.1 -37.1 37.1 -37.1 -37.1 37.1 -37.1"/><path fill="#ffffff" stroke="none" d="M33.5 -30.3 L25.8 -22.65 25.85 -22.6 32.55 -22.65 28.4 -18.5 18.5 -18.45 18.5 -28.75 22.6 -32.85 22.6 -25.85 22.65 -25.8 30.35 -33.45 33.5 -30.3"/><path fill="#ffffff" stroke="none" d="M-33.7 -30.3 L-30.55 -33.45 -22.85 -25.8 -22.8 -25.85 -22.8 -32.85 -18.7 -28.75 -18.7 -18.45 -28.6 -18.5 -32.75 -22.65 -26.05 -22.6 -26.0 -22.65 -33.7 -30.3"/><path fill="#ffffff" stroke="none" d="M25.85 22.3 L25.8 22.35 33.5 30.0 30.35 33.15 22.65 25.5 22.6 25.55 22.6 32.55 18.5 28.45 18.5 18.15 28.4 18.2 32.55 22.35 25.85 22.3"/><path fill="#ffffff" stroke="none" d="M-26.05 22.3 L-32.75 22.35 -28.6 18.2 -18.7 18.15 -18.7 28.45 -22.8 32.55 -22.8 25.55 -22.85 25.5 -30.55 33.15 -33.7 30.0 -26.0 22.35 -26.05 22.3"/><path fill="#ffffff" stroke="none" d="M2.7 -18.85 Q2.7 -17.75 1.9 -16.95 1.1 -16.15 -0.05 -16.15 -1.15 -16.15 -1.95 -16.95 -2.75 -17.75 -2.75 -18.85 -2.75 -20.0 -1.95 -20.8 -1.15 -21.6 -0.05 -21.6 1.1 -21.6 1.9 -20.8 2.7 -20.0 2.7 -18.85 M8.4 -14.95 Q9.55 -14.95 10.3 -14.15 11.15 -13.35 11.15 -12.2 11.15 -11.1 10.3 -10.3 9.55 -9.5 8.4 -9.5 7.3 -9.5 6.5 -10.3 5.65 -11.1 5.65 -12.2 5.65 -13.35 6.5 -14.15 7.3 -14.95 8.4 -14.95 M4.95 -5.25 L4.4 -5.25 4.4 5.55 4.45 5.95 Q4.45 6.5 4.05 6.85 3.65 7.25 3.1 7.25 2.55 7.25 2.2 6.85 1.8 6.5 1.8 5.95 L1.8 5.85 1.8 -5.15 Q1.85 -6.75 3.0 -7.9 4.15 -9.05 5.8 -9.05 L11.0 -9.05 Q12.65 -9.05 13.8 -7.9 14.95 -6.75 15.0 -5.15 L15.0 5.85 15.0 5.95 Q15.0 6.5 14.6 6.85 14.25 7.25 13.7 7.25 13.15 7.25 12.75 6.85 12.35 6.5 12.35 5.95 L12.4 5.55 12.4 -5.25 11.85 -5.25 11.85 19.95 11.85 20.05 Q11.85 20.7 11.35 21.1 10.9 21.6 10.25 21.6 9.6 21.6 9.15 21.1 8.7 20.7 8.7 20.05 L8.7 4.9 8.1 4.9 8.1 20.1 8.1 20.45 7.65 21.1 Q7.2 21.6 6.55 21.6 5.9 21.6 5.45 21.1 4.95 20.7 4.95 20.05 L4.95 19.95 4.95 -5.25 M-6.45 -14.15 Q-5.65 -13.35 -5.65 -12.2 -5.65 -11.1 -6.45 -10.3 -7.2 -9.5 -8.35 -9.5 -9.5 -9.5 -10.3 -10.3 -11.1 -11.1 -11.1 -12.2 -11.1 -13.35 -10.3 -14.15 -9.5 -14.95 -8.35 -14.95 -7.2 -14.95 -6.45 -14.15 M-11.8 -5.2 L-12.35 -5.2 -12.4 5.55 -12.3 5.95 Q-12.3 6.5 -12.7 6.85 -13.1 7.3 -13.65 7.3 -14.2 7.3 -14.6 6.85 -14.95 6.5 -14.95 5.95 L-14.95 -5.15 Q-14.95 -6.75 -13.75 -7.9 -12.6 -9.05 -10.95 -9.05 L-5.8 -9.05 Q-4.15 -9.05 -3.0 -7.9 -1.8 -6.75 -1.75 -5.15 L-1.75 5.95 Q-1.75 6.5 -2.15 6.85 -2.5 7.3 -3.1 7.3 -3.6 7.3 -4.05 6.85 -4.4 6.5 -4.4 5.95 L-4.35 5.55 -4.4 -5.2 -4.95 -5.2 -4.95 19.95 -4.95 20.05 Q-4.95 20.7 -5.4 21.15 L-6.5 21.6 -7.65 21.15 -8.1 20.1 -8.1 4.95 -8.65 4.95 -8.65 20.1 -8.7 20.45 -9.1 21.15 -10.2 21.6 Q-10.9 21.6 -11.35 21.15 -11.8 20.7 -11.8 20.05 L-11.8 19.95 -11.8 -5.2"/></g></defs><g><g><use transform="matrix(1.0,0.0,0.0,1.0,0.0,0.0)" xlink:href="#c1"/></g></g></svg>