<?xml version='1.0' encoding='UTF-8'?>
<svg xmlns:xlink="http://www.w3.org/1999/xlink" xmlns="http://www.w3.org/2000/svg" version="1.1" width="66px" height="66px" viewBox="-37.0 -37.0 74.0 74.0"><defs><g id="c1"><path fill="#003f80" stroke="none" d="M33.0 -33.0 L33.0 33.0 -33.0 33.0 -33.0 -33.0 33.0 -33.0"/><path fill="#ffffff" stroke="none" d="M5.95 -25.75 L13.55 -25.75 13.55 -18.8 Q19.8 -13.85 26.05 -9.25 L26.05 28.35 13.55 18.45 13.55 21.75 5.95 21.75 5.95 -25.75 M10.9 -13.85 Q13.55 -12.2 15.85 -10.9 L21.1 -5.6 22.45 -1.65 21.1 0.35 Q19.45 0.0 15.85 -2.65 L10.9 -7.9 9.55 -11.9 10.9 -13.85 M11.55 -10.25 L11.9 -9.25 12.85 -7.9 19.15 -2.95 Q19.8 -2.65 20.1 -2.65 L20.45 -3.3 20.1 -4.3 19.15 -5.6 12.85 -10.55 Q12.55 -10.55 11.9 -10.9 L11.55 -10.25 M14.5 -2.3 L21.1 4.3 21.75 5.6 22.45 8.25 Q22.45 8.9 22.1 9.25 L21.1 9.9 Q19.45 9.9 15.85 7.25 L11.55 2.65 10.9 1.65 9.55 -2.0 10.9 -3.95 Q12.85 -2.95 14.5 -2.3 M11.9 -1.0 Q11.9 -0.65 11.55 -0.65 L11.55 0.35 11.9 0.65 12.85 2.0 19.15 6.95 20.1 7.25 20.45 6.6 20.1 5.6 19.15 4.3 15.85 1.3 12.85 -0.65 Q12.55 -0.65 11.9 -1.0 M24.1 -7.9 L7.6 -20.45 7.6 11.9 24.1 24.4 24.1 -7.9 M22.1 18.15 L12.85 10.9 14.85 15.5 12.55 13.55 11.55 10.55 9.55 7.6 9.55 5.6 22.1 15.85 22.1 18.15 M-12.55 -25.4 L-11.55 -23.1 Q-11.9 -22.1 -12.55 -21.1 -13.55 -20.45 -14.5 -20.1 L-16.85 -21.1 -17.5 -23.1 -16.85 -25.4 Q-15.5 -25.75 -14.5 -26.4 L-12.55 -25.4 M-2.95 -23.1 L-3.65 -21.1 Q-4.6 -20.45 -5.95 -20.1 -6.95 -20.45 -7.9 -21.1 -8.25 -22.1 -8.9 -23.1 -8.25 -24.1 -7.9 -25.4 -6.95 -25.75 -5.95 -26.4 L-3.65 -25.4 -2.95 -23.1 M-21.1 -25.4 L-20.45 -23.1 -21.1 -21.1 Q-22.1 -20.45 -23.4 -20.1 -24.4 -20.45 -25.4 -21.1 -25.75 -22.1 -26.4 -23.1 -25.75 -24.1 -25.4 -25.4 -24.4 -25.75 -23.4 -26.4 -22.1 -25.75 -21.1 -25.4 M-16.85 -17.15 Q-15.5 -17.5 -14.5 -18.15 L-12.55 -17.15 -11.55 -14.85 Q-11.9 -13.85 -12.55 -12.85 -13.55 -12.2 -14.5 -11.9 -15.5 -12.2 -16.85 -12.85 L-17.5 -14.85 -16.85 -17.15 M-21.1 -12.85 Q-22.1 -12.2 -23.4 -11.9 -24.4 -12.2 -25.4 -12.85 -25.75 -13.85 -26.4 -14.85 -25.75 -15.85 -25.4 -17.15 -24.4 -17.5 -23.4 -18.15 -22.1 -17.5 -21.1 -17.15 L-20.45 -14.85 -21.1 -12.85 M-25.4 -8.6 L-23.4 -9.25 -21.1 -8.6 -20.45 -6.25 -21.1 -4.3 Q-22.1 -3.65 -23.4 -3.3 -24.75 -3.3 -25.4 -4.3 -25.75 -5.3 -26.4 -6.25 -25.75 -7.25 -25.4 -8.6 M-3.65 -17.15 L-2.95 -14.85 -3.65 -12.85 Q-4.6 -12.2 -5.95 -11.9 -6.95 -12.2 -7.9 -12.85 -8.25 -13.85 -8.9 -14.85 -8.25 -15.85 -7.9 -17.15 -6.95 -17.5 -5.95 -18.15 L-3.65 -17.15 M-11.55 -6.6 L-11.55 20.8 Q-11.55 21.45 -11.9 22.1 L-11.9 23.1 Q-8.9 17.5 -4.95 16.5 -2.3 15.5 -1.0 16.5 0.0 17.5 -1.0 19.45 L-12.2 33.0 -33.0 33.0 -33.0 10.25 -30.0 9.9 -27.05 13.2 -25.75 11.55 Q-25.4 8.25 -22.75 8.6 -20.1 8.25 -19.8 11.55 L-18.45 12.85 Q-17.8 12.2 -17.5 11.55 L-17.5 -6.6 Q-17.15 -9.55 -14.5 -9.25 -11.9 -9.55 -11.55 -6.6 M-2.95 -5.95 L-3.65 -3.95 Q-4.6 -3.3 -5.95 -2.95 -6.95 -3.3 -7.9 -3.95 -8.25 -4.95 -8.9 -5.95 -8.25 -6.95 -7.9 -8.25 L-5.95 -8.9 -3.65 -8.25 -2.95 -5.95 M-2.95 2.65 L-3.65 4.6 Q-4.6 5.3 -5.95 5.6 -6.95 5.3 -7.9 4.6 -8.25 3.65 -8.9 2.65 -8.25 1.65 -7.9 0.35 L-5.95 -0.35 -3.65 0.35 -2.95 2.65 M-20.45 2.3 L-21.1 4.3 Q-22.1 4.95 -23.4 5.3 L-25.4 4.3 Q-25.75 3.3 -26.4 2.3 -25.75 1.3 -25.4 0.35 -24.4 0.0 -23.4 -0.65 -22.1 0.0 -21.1 0.35 L-20.45 2.3"/></g></defs><g><g><use transform="matrix(1.0,0.0,0.0,1.0,0.0,0.0)" xlink:href="#c1"/></g></g></svg>