<?xml version='1.0' encoding='UTF-8'?>
<svg xmlns:xlink="http://www.w3.org/1999/xlink" xmlns="http://www.w3.org/2000/svg" version="1.1" width="74px" height="74px" viewBox="-41.0 -41.0 82.0 82.0"><defs><g id="c1"><path fill="#fcfd04" stroke="none" d="M37.0 37.0 L-37.0 37.0 -37.0 -37.0 37.0 -37.0 37.0 37.0"/><path fill="none" stroke="#000000" stroke-width="2.0" d="M37.0 37.0 L-37.0 37.0 -37.0 -37.0 37.0 -37.0 37.0 37.0"/><path fill="#000000" stroke="none" d="M5.1 -7.0 Q7.2 -4.9 7.2 -1.9 7.2 1.1 5.1 3.2 L3.65 4.3 Q2.0 5.3 0.0 5.3 -2.0 5.3 -3.55 4.35 L-5.1 3.2 Q-7.2 1.1 -7.2 -1.9 L-7.2 -1.95 Q-7.2 -4.9 -5.1 -7.0 L-3.55 -8.2 Q-2.0 -9.15 0.0 -9.15 2.05 -9.15 3.75 -8.1 L5.1 -7.0 M5.7 -11.55 L15.15 -27.85 Q18.35 -25.95 21.2 -23.1 30.0 -14.35 30.0 -1.95 L28.85 -1.9 27.65 -1.9 11.15 -1.9 Q11.15 -6.55 7.9 -9.8 L5.7 -11.55 M15.05 24.1 Q8.35 28.1 0.0 28.1 -8.3 28.1 -15.0 24.15 L-5.5 7.75 Q-3.05 9.2 0.0 9.2 3.1 9.2 5.6 7.7 L15.05 24.1 M-21.25 -23.1 Q-18.35 -26.0 -15.0 -28.0 L-5.55 -11.6 -7.85 -9.8 Q-11.1 -6.55 -11.1 -1.95 L-30.0 -2.0 Q-30.0 -14.35 -21.25 -23.1"/></g></defs><g><g><use transform="matrix(1.0,0.0,0.0,1.0,0.0,0.0)" xlink:href="#c1"/></g></g></svg>