<?xml version='1.0' encoding='UTF-8'?>
<svg xmlns:xlink="http://www.w3.org/1999/xlink" xmlns="http://www.w3.org/2000/svg" version="1.1" width="66px" height="66px" viewBox="-37.0 -37.0 74.0 74.0"><defs><g id="c1"><path fill="#003f80" stroke="none" d="M33.0 33.0 L-33.0 33.0 -33.0 -33.0 33.0 -33.0 33.0 33.0"/><path fill="#ffffff" stroke="none" d="M7.95 -2.95 L-5.6 -2.95 Q-5.25 -1.0 -5.25 0.65 L13.25 0.65 20.8 18.45 26.75 16.15 28.4 19.45 17.85 24.1 10.25 4.95 -9.55 4.95 -9.55 3.3 -11.5 -22.1 Q-11.5 -23.1 -11.85 -24.1 -10.85 -25.75 -10.2 -27.7 L-6.55 -29.05 -2.95 -27.7 -1.6 -24.1 Q-2.3 -22.1 -2.95 -20.45 -4.9 -18.8 -6.55 -18.8 L-5.9 -7.9 7.95 -7.9 7.95 -2.95 M-12.85 -1.0 Q-13.5 0.0 -14.5 0.65 -18.45 4.6 -18.45 10.25 -18.45 16.15 -14.5 20.1 -10.2 24.1 -4.6 24.1 1.35 24.1 5.3 20.1 9.6 16.15 9.6 10.25 L9.6 9.25 12.9 17.15 8.6 23.4 Q3.0 28.7 -4.9 28.7 -12.5 28.7 -18.1 23.4 -23.4 17.8 -23.4 10.25 -23.4 2.3 -18.1 -2.95 L-12.85 -6.95 -12.85 -1.0"/></g></defs><g><g><use transform="matrix(1.0,0.0,0.0,1.0,0.0,0.0)" xlink:href="#c1"/></g></g></svg>