<?xml version='1.0' encoding='UTF-8'?>
<svg xmlns:xlink="http://www.w3.org/1999/xlink" xmlns="http://www.w3.org/2000/svg" version="1.1" width="74px" height="74px" viewBox="-41.1 -41.1 82.2 82.2"><defs><g id="c1"><path fill="#009900" stroke="none" d="M-37.1 -37.1 L37.1 -37.1 37.1 37.1 -37.1 37.1 -37.1 -37.1"/><path fill="#ffffff" stroke="none" d="M26.15 -26.15 L32.4 -26.15 32.55 -26.05 32.6 -25.9 32.6 -19.25 32.55 -19.1 32.4 -19.05 26.15 -19.05 26.15 -12.8 26.1 -12.65 25.95 -12.6 19.3 -12.6 19.15 -12.65 19.05 -12.8 19.05 -19.05 12.85 -19.05 12.65 -19.1 12.6 -19.25 12.6 -25.9 12.65 -26.05 12.85 -26.15 19.05 -26.15 19.05 -32.35 19.15 -32.5 19.3 -32.6 25.95 -32.6 26.1 -32.5 26.15 -32.35 26.15 -26.15"/><path fill="#ffffff" stroke="none" d="M-17.8 -0.75 Q-16.45 -2.05 -14.6 -2.05 L-8.65 -2.05 Q-6.75 -2.05 -5.45 -0.75 -4.1 0.55 -4.05 2.4 L-4.05 15.05 -4.05 15.15 Q-4.05 15.8 -4.5 16.2 -4.9 16.65 -5.55 16.65 -6.15 16.65 -6.65 16.2 L-7.1 15.15 -7.05 14.7 -7.05 2.3 -7.65 2.3 -7.65 31.25 -7.65 31.35 Q-7.65 32.1 -8.25 32.55 -8.75 33.1 -9.5 33.1 -10.25 33.1 -10.75 32.55 -11.25 32.1 -11.25 31.35 L-11.25 13.95 -11.95 13.95 -11.95 31.4 -11.95 31.8 Q-12.05 32.25 -12.45 32.55 -13.0 33.1 -13.7 33.1 -14.45 33.1 -15.0 32.55 -15.55 32.1 -15.55 31.35 L-15.55 31.25 -15.55 2.3 -16.2 2.3 -16.2 14.7 -16.1 15.15 Q-16.1 15.8 -16.6 16.2 -17.05 16.65 -17.65 16.65 -18.3 16.65 -18.7 16.2 L-19.15 15.15 -19.15 15.05 -19.15 2.4 Q-19.1 0.55 -17.8 -0.75 M-11.6 -8.85 Q-10.3 -8.85 -9.45 -7.95 -8.45 -7.0 -8.45 -5.7 -8.45 -4.45 -9.45 -3.5 -10.3 -2.6 -11.6 -2.6 -12.85 -2.6 -13.8 -3.5 -14.75 -4.45 -14.75 -5.7 -14.75 -7.0 -13.8 -7.95 -12.85 -8.85 -11.6 -8.85"/><path fill="#ffffff" stroke="none" d="M1.1 -2.85 Q1.5 -2.5 1.5 -1.95 1.5 -1.45 1.1 -1.1 0.75 -0.7 0.25 -0.7 -0.3 -0.7 -0.65 -1.1 -1.0 -1.45 -1.0 -1.95 -1.0 -2.5 -0.65 -2.85 -0.3 -3.2 0.25 -3.2 0.75 -3.2 1.1 -2.85 M-9.95 -31.85 L-9.95 -25.3 -6.9 -25.3 -6.05 -25.2 Q-4.15 -24.75 -4.05 -22.55 L-4.05 -22.05 -19.65 -22.05 -19.6 -22.55 Q-19.5 -24.75 -17.6 -25.2 L-16.75 -25.3 -13.7 -25.3 -13.7 -31.85 -9.95 -31.85 M-21.15 -13.55 L-20.25 -13.85 -19.35 -13.55 Q-19.0 -13.15 -19.0 -12.65 -19.0 -12.1 -19.35 -11.75 -19.7 -11.4 -20.25 -11.4 -20.75 -11.4 -21.15 -11.75 -21.5 -12.1 -21.5 -12.65 L-21.15 -13.55 M-20.6 -9.95 Q-20.25 -9.6 -20.25 -9.05 -20.25 -8.55 -20.6 -8.2 -20.95 -7.8 -21.5 -7.8 -22.0 -7.8 -22.4 -8.2 -22.75 -8.55 -22.75 -9.05 -22.75 -9.6 -22.4 -9.95 -22.0 -10.3 -21.5 -10.3 -20.95 -10.3 -20.6 -9.95 M-22.75 -6.75 Q-22.2 -6.75 -21.85 -6.4 -21.5 -6.05 -21.5 -5.5 -21.5 -5.0 -21.85 -4.65 -22.2 -4.25 -22.75 -4.25 -23.25 -4.25 -23.65 -4.65 -24.0 -5.0 -24.0 -5.5 -24.0 -6.05 -23.65 -6.4 -23.25 -6.75 -22.75 -6.75 M-24.9 -1.1 Q-25.25 -1.45 -25.25 -1.95 L-24.9 -2.85 Q-24.5 -3.2 -24.0 -3.2 -23.45 -3.2 -23.1 -2.85 -22.75 -2.5 -22.75 -1.95 -22.75 -1.45 -23.1 -1.1 -23.45 -0.7 -24.0 -0.7 -24.5 -0.7 -24.9 -1.1 M-5.05 -18.85 Q-5.4 -18.5 -5.95 -18.5 -6.5 -18.5 -6.85 -18.85 -7.2 -19.2 -7.2 -19.75 L-6.85 -20.65 Q-6.5 -21.0 -5.95 -21.0 L-5.05 -20.65 Q-4.7 -20.25 -4.7 -19.75 -4.7 -19.2 -5.05 -18.85 M-8.3 -20.35 Q-7.95 -19.95 -7.95 -19.4 -7.95 -18.9 -8.3 -18.55 -8.65 -18.2 -9.2 -18.2 -9.7 -18.2 -10.1 -18.55 -10.45 -18.9 -10.45 -19.4 -10.45 -19.95 -10.1 -20.35 L-9.2 -20.65 -8.3 -20.35 M-5.6 -17.1 Q-5.25 -17.45 -4.7 -17.45 -4.15 -17.45 -3.85 -17.1 -3.45 -16.7 -3.45 -16.2 -3.45 -15.65 -3.85 -15.3 -4.15 -14.95 -4.7 -14.95 -5.25 -14.95 -5.6 -15.3 -5.95 -15.65 -5.95 -16.2 L-5.6 -17.1 M-8.5 -17.0 Q-8.0 -17.0 -7.65 -16.65 L-7.25 -15.75 Q-7.25 -15.2 -7.65 -14.85 -8.0 -14.5 -8.5 -14.5 -9.05 -14.5 -9.4 -14.85 -9.75 -15.2 -9.75 -15.75 L-9.4 -16.65 Q-9.05 -17.0 -8.5 -17.0 M-7.9 -13.3 Q-7.35 -13.3 -7.0 -12.95 -6.65 -12.6 -6.65 -12.05 -6.65 -11.55 -7.0 -11.2 -7.35 -10.8 -7.9 -10.8 -8.4 -10.8 -8.8 -11.2 -9.15 -11.55 -9.15 -12.05 -9.15 -12.6 -8.8 -12.95 -8.4 -13.3 -7.9 -13.3 M-2.65 -13.55 Q-2.25 -13.15 -2.25 -12.65 -2.25 -12.1 -2.65 -11.75 -3.0 -11.4 -3.5 -11.4 -4.05 -11.4 -4.4 -11.75 -4.75 -12.1 -4.75 -12.65 L-4.4 -13.55 -3.5 -13.85 Q-3.0 -13.85 -2.65 -13.55 M-11.75 -19.4 L-10.9 -19.1 -10.5 -18.2 Q-10.5 -17.65 -10.9 -17.3 -11.2 -16.95 -11.75 -16.95 -12.3 -16.95 -12.65 -17.3 -13.0 -17.65 -13.0 -18.2 L-12.65 -19.1 -11.75 -19.4 M-13.7 -20.35 Q-13.3 -19.95 -13.3 -19.4 -13.3 -18.9 -13.7 -18.55 -14.05 -18.2 -14.55 -18.2 -15.1 -18.2 -15.45 -18.55 -15.8 -18.9 -15.8 -19.4 L-15.45 -20.35 -14.55 -20.65 Q-14.05 -20.65 -13.7 -20.35 M-17.8 -21.0 Q-17.3 -21.0 -16.95 -20.65 -16.55 -20.25 -16.55 -19.75 -16.55 -19.2 -16.95 -18.85 -17.3 -18.5 -17.8 -18.5 -18.35 -18.5 -18.7 -18.85 -19.05 -19.2 -19.05 -19.75 L-18.7 -20.65 Q-18.35 -21.0 -17.8 -21.0 M-16.15 -16.65 Q-15.8 -17.0 -15.25 -17.0 -14.7 -17.0 -14.35 -16.65 -14.0 -16.25 -14.0 -15.75 -14.0 -15.2 -14.35 -14.85 -14.7 -14.5 -15.25 -14.5 -15.8 -14.5 -16.15 -14.85 L-16.5 -15.75 -16.15 -16.65 M-18.2 -17.1 Q-17.8 -16.7 -17.8 -16.2 -17.8 -15.65 -18.2 -15.3 -18.55 -14.95 -19.05 -14.95 -19.6 -14.95 -19.95 -15.3 -20.3 -15.65 -20.3 -16.2 L-19.95 -17.1 Q-19.6 -17.45 -19.05 -17.45 -18.55 -17.45 -18.2 -17.1 M-15.85 -13.3 Q-15.35 -13.3 -15.0 -12.95 -14.6 -12.6 -14.6 -12.05 -14.6 -11.55 -15.0 -11.2 -15.35 -10.8 -15.85 -10.8 -16.4 -10.8 -16.8 -11.2 L-17.1 -12.05 -16.8 -12.95 -15.85 -13.3 M-11.75 -13.2 Q-12.3 -13.2 -12.65 -13.55 -13.0 -13.9 -13.0 -14.45 L-12.65 -15.35 Q-12.3 -15.7 -11.75 -15.7 -11.2 -15.7 -10.9 -15.35 L-10.5 -14.45 Q-10.5 -13.9 -10.9 -13.55 -11.2 -13.2 -11.75 -13.2 M-12.65 -9.8 Q-13.0 -10.15 -13.0 -10.7 L-12.65 -11.6 Q-12.3 -11.95 -11.75 -11.95 -11.2 -11.95 -10.9 -11.6 L-10.5 -10.7 Q-10.5 -10.15 -10.9 -9.8 -11.2 -9.45 -11.75 -9.45 -12.3 -9.45 -12.65 -9.8 M-10.5 -6.95 Q-10.5 -6.4 -10.9 -6.1 -11.2 -5.7 -11.75 -5.7 -12.3 -5.7 -12.65 -6.1 -13.0 -6.4 -13.0 -6.95 -13.0 -7.5 -12.65 -7.85 -12.3 -8.2 -11.75 -8.2 -11.2 -8.2 -10.9 -7.85 -10.5 -7.5 -10.5 -6.95 M-15.7 -9.3 Q-15.3 -8.9 -15.3 -8.4 -15.3 -7.85 -15.7 -7.5 -16.05 -7.15 -16.55 -7.15 -17.1 -7.15 -17.45 -7.5 -17.8 -7.85 -17.8 -8.4 L-17.45 -9.3 -16.55 -9.65 Q-16.05 -9.65 -15.7 -9.3 M-18.5 -4.7 Q-18.5 -5.25 -18.15 -5.6 -17.8 -5.95 -17.25 -5.95 L-16.35 -5.6 Q-16.0 -5.25 -16.0 -4.7 -16.0 -4.15 -16.35 -3.85 -16.7 -3.45 -17.25 -3.45 -17.8 -3.45 -18.15 -3.85 L-18.5 -4.7 M-1.4 -9.95 Q-1.0 -9.6 -1.0 -9.05 -1.0 -8.55 -1.4 -8.2 -1.75 -7.8 -2.25 -7.8 -2.8 -7.8 -3.15 -8.2 -3.5 -8.55 -3.5 -9.05 -3.5 -9.6 -3.15 -9.95 -2.8 -10.3 -2.25 -10.3 -1.75 -10.3 -1.4 -9.95 M-0.15 -6.4 Q0.25 -6.05 0.25 -5.5 0.25 -5.0 -0.15 -4.65 -0.5 -4.25 -1.0 -4.25 -1.55 -4.25 -1.9 -4.65 -2.25 -5.0 -2.25 -5.5 L-1.9 -6.4 Q-1.55 -6.75 -1.0 -6.75 -0.5 -6.75 -0.15 -6.4 M-6.3 -9.3 Q-5.95 -8.9 -5.95 -8.4 -5.95 -7.85 -6.3 -7.5 -6.65 -7.15 -7.2 -7.15 -7.75 -7.15 -8.1 -7.5 L-8.45 -8.4 -8.1 -9.3 Q-7.75 -9.65 -7.2 -9.65 -6.65 -9.65 -6.3 -9.3 M-5.65 -3.85 Q-6.0 -3.45 -6.5 -3.45 -7.05 -3.45 -7.4 -3.85 -7.75 -4.15 -7.75 -4.7 -7.75 -5.25 -7.4 -5.6 L-6.5 -5.95 Q-6.0 -5.95 -5.65 -5.6 -5.25 -5.25 -5.25 -4.7 -5.25 -4.15 -5.65 -3.85 M-24.35 0.7 Q-24.0 1.05 -24.0 1.6 -24.0 2.15 -24.35 2.45 -24.7 2.85 -25.25 2.85 -25.75 2.85 -26.15 2.45 -26.5 2.15 -26.5 1.6 -26.5 1.05 -26.15 0.7 -25.75 0.35 -25.25 0.35 -24.7 0.35 -24.35 0.7 M-27.4 4.25 Q-27.0 3.9 -26.5 3.9 -25.95 3.9 -25.6 4.25 -25.25 4.6 -25.25 5.15 -25.25 5.7 -25.6 6.05 -25.95 6.4 -26.5 6.4 -27.0 6.4 -27.4 6.05 -27.75 5.7 -27.75 5.15 -27.75 4.6 -27.4 4.25 M-26.5 8.7 Q-26.5 9.25 -26.85 9.6 -27.2 9.95 -27.75 9.95 -28.25 9.95 -28.65 9.6 -29.0 9.25 -29.0 8.7 -29.0 8.2 -28.65 7.8 -28.25 7.45 -27.75 7.45 -27.2 7.45 -26.85 7.8 -26.5 8.2 -26.5 8.7 M-28.1 11.35 Q-27.75 11.75 -27.75 12.25 -27.75 12.8 -28.1 13.15 -28.45 13.5 -29.0 13.5 L-29.9 13.15 Q-30.25 12.8 -30.25 12.25 -30.25 11.75 -29.9 11.35 -29.5 11.0 -29.0 11.0 -28.45 11.0 -28.1 11.35 M1.5 2.85 Q0.95 2.85 0.55 2.45 0.25 2.15 0.25 1.6 0.25 1.05 0.55 0.7 0.95 0.35 1.5 0.35 2.0 0.35 2.35 0.7 2.75 1.05 2.75 1.6 2.75 2.15 2.35 2.45 2.0 2.85 1.5 2.85 M1.5 5.15 Q1.5 4.6 1.8 4.25 2.2 3.9 2.75 3.9 3.25 3.9 3.6 4.25 4.0 4.6 4.0 5.15 4.0 5.7 3.6 6.05 3.25 6.4 2.75 6.4 L1.8 6.05 Q1.5 5.7 1.5 5.15 M3.05 9.6 Q2.75 9.25 2.75 8.7 2.75 8.2 3.05 7.8 3.45 7.45 4.0 7.45 4.5 7.45 4.85 7.8 5.2 8.2 5.2 8.7 5.2 9.25 4.85 9.6 4.5 9.95 4.0 9.95 L3.05 9.6 M4.3 11.35 Q4.7 11.0 5.2 11.0 5.75 11.0 6.1 11.35 6.45 11.75 6.45 12.25 6.45 12.8 6.1 13.15 5.75 13.5 5.2 13.5 4.7 13.5 4.3 13.15 4.0 12.8 4.0 12.25 4.0 11.75 4.3 11.35"/></g></defs><g><g><use transform="matrix(1.0,0.0,0.0,1.0,0.0,0.0)" xlink:href="#c1"/></g></g></svg>