<?xml version='1.0' encoding='UTF-8'?>
<svg xmlns:xlink="http://www.w3.org/1999/xlink" xmlns="http://www.w3.org/2000/svg" version="1.1" width="100px" height="100px" viewBox="-54.0 -54.0 108.0 108.0"><defs><g id="c1"><path fill="#ff0000" stroke="none" d="M-41.95 0.0 L-0.05 41.9 41.85 0.0 -0.05 -41.9 -41.95 0.0 M0.0 50.0 L-50.0 0.0 -0.05 -50.0 50.0 0.05 0.0 50.0"/><path fill="#ffffff" stroke="none" d="M-41.95 0.0 L-0.05 -41.9 41.85 0.0 -0.05 41.9 -41.95 0.0"/><path fill="#000000" stroke="none" d="M4.0 19.9 L3.95 19.95 3.95 20.05 4.0 19.9 M-4.75 17.1 Q-4.75 15.05 -3.3 13.6 -1.85 12.15 0.2 12.15 2.25 12.15 3.7 13.6 5.15 15.05 5.15 17.1 5.15 19.1 3.8 20.5 L3.65 20.7 Q2.2 22.05 0.2 22.05 -1.8 22.05 -3.25 20.7 L-3.25 20.65 -3.3 20.6 Q-4.75 19.15 -4.75 17.1 M7.25 -14.25 L7.25 -14.3 4.1 5.55 4.1 5.45 Q4.05 6.9 3.0 7.95 L2.95 8.0 Q1.8 9.15 0.25 9.15 L0.15 9.15 Q-1.4 9.15 -2.5 8.0 L-2.55 7.95 Q-3.6 6.95 -3.7 5.55 L-6.85 -14.3 -6.8 -14.25 -6.95 -15.5 Q-6.95 -17.55 -5.5 -19.0 -4.1 -20.4 -2.1 -20.45 L2.55 -20.45 Q4.5 -20.4 5.9 -19.0 7.35 -17.55 7.35 -15.5 L7.25 -14.25"/></g></defs><g><g><use transform="matrix(1.0,0.0,0.0,1.0,0.0,0.0)" xlink:href="#c1"/></g></g></svg>