<?xml version='1.0' encoding='UTF-8'?>
<svg xmlns:xlink="http://www.w3.org/1999/xlink" xmlns="http://www.w3.org/2000/svg" version="1.1" width="52px" height="80px" viewBox="-30.0 -43.0 60.0 88.0"><defs><g id="c1"><path fill="#009900" fill-opacity="0.0" d="M26.0 -39.0 L26.0 41.0 -26.0 41.0 -26.0 -39.0 26.0 -39.0"/><path fill="#003f80" stroke="none" d="M-13.5 -13.4 Q-12.55 -9.75 -6.6 3.8 -0.65 17.0 1.35 18.65 2.0 19.3 2.65 18.65 L6.3 15.35 6.3 15.7 20.15 32.2 Q18.85 33.85 16.2 34.85 L11.55 36.5 8.95 36.85 7.3 36.5 -0.3 31.55 Q-7.9 26.6 -14.5 15.35 -21.1 4.1 -22.45 -3.15 -23.75 -10.1 -23.75 -16.05 L-24.1 -27.25 -24.1 -28.9 Q-24.1 -30.25 -23.45 -30.9 L-21.1 -32.9 Q-19.15 -34.55 -16.15 -35.2 -13.5 -36.2 -11.2 -36.5 L-11.2 -36.2 Q-9.25 -25.6 -7.6 -15.05 L-8.9 -15.05 -11.85 -15.05 Q-13.2 -15.05 -13.5 -14.4 L-13.5 -13.4 M-7.25 -36.85 L-5.95 -36.85 Q-4.95 -36.85 -4.6 -36.5 -2.95 -27.6 -1.65 -18.65 -1.65 -17.35 -1.95 -16.7 -2.3 -16.35 -3.95 -16.05 L-5.95 -15.7 Q-6.25 -15.35 -6.9 -15.35 -8.25 -25.95 -9.9 -36.5 L-7.25 -36.85 M24.1 27.9 Q24.1 28.55 23.45 29.25 L22.45 30.2 21.15 31.2 7.3 14.7 8.6 13.35 Q9.25 12.7 9.6 12.7 L10.9 12.4 Q11.9 12.4 12.55 13.05 L23.45 26.6 23.8 27.25 24.1 27.9"/></g></defs><g><g><use transform="matrix(1.0,0.0,0.0,1.0,0.0,0.0)" xlink:href="#c1"/></g></g></svg>