<?xml version='1.0' encoding='UTF-8'?>
<svg xmlns:xlink="http://www.w3.org/1999/xlink" xmlns="http://www.w3.org/2000/svg" version="1.1" width="74px" height="74px" viewBox="-41.0 -41.0 82.0 82.0"><defs><g id="c1"><path fill="#cc0000" stroke="none" d="M26.15 -26.2 Q37.0 -15.35 37.0 0.0 37.0 15.3 26.15 26.1 15.3 37.0 0.0 37.0 -15.3 37.0 -26.2 26.1 -37.0 15.3 -37.0 0.0 -37.0 -15.35 -26.2 -26.2 -15.3 -37.0 0.0 -37.0 15.3 -37.0 26.15 -26.2"/><path fill="#ffffff" stroke="none" d="M1.55 -26.1 L1.2 -25.9 1.2 -25.5 Q1.25 -25.3 1.45 -25.2 L1.85 -25.1 9.65 -27.4 9.65 -25.0 9.55 -24.95 1.6 -23.15 1.25 -22.95 Q1.1 -22.8 1.2 -22.5 L1.45 -22.2 1.85 -22.15 9.65 -24.0 9.65 -21.6 9.6 -21.6 1.65 -20.45 1.25 -20.2 1.15 -19.8 Q1.2 -19.6 1.4 -19.5 L1.8 -19.4 9.65 -20.6 9.65 -18.25 1.7 -17.65 Q1.45 -17.65 1.35 -17.45 L1.15 -17.1 1.4 -16.75 1.75 -16.65 9.65 -17.2 9.65 -14.85 1.7 -14.85 1.35 -14.7 1.15 -14.35 1.35 -14.0 Q1.5 -13.85 1.7 -13.85 L9.65 -13.85 9.65 -11.5 1.75 -11.85 1.4 -11.7 1.15 -11.35 1.35 -11.0 Q1.45 -10.85 1.7 -10.85 L9.65 -10.5 9.65 -8.15 1.75 -8.75 1.4 -8.6 1.15 -8.3 1.35 -7.85 Q1.45 -7.7 1.65 -7.7 L9.65 -7.1 9.65 -4.75 1.75 -5.65 1.4 -5.55 1.15 -5.15 1.25 -4.8 Q1.45 -4.65 1.65 -4.6 L9.6 -3.75 9.65 -3.75 9.65 -1.05 0.8 -2.45 0.8 -2.2 Q0.8 -1.3 0.1 -0.6 L-1.7 1.2 -1.65 1.2 -4.75 4.3 -4.75 28.4 Q-4.75 29.45 -5.45 30.1 -6.15 30.8 -7.15 30.8 -8.15 30.8 -8.9 30.1 -9.55 29.45 -9.55 28.4 L-9.55 3.85 -9.6 3.3 Q-9.6 2.4 -8.9 1.65 L-7.1 -0.1 -7.15 -0.1 -3.85 -3.45 -3.85 -3.55 -3.85 -26.5 Q-3.85 -27.5 -3.15 -28.25 -2.45 -28.9 -1.45 -28.9 L-1.15 -28.9 -0.75 -28.8 Q-0.2 -28.7 0.25 -28.25 L0.6 -27.8 9.65 -30.85 9.65 -28.5 9.5 -28.45 1.55 -26.1"/></g></defs><g><g><use transform="matrix(1.0,0.0,0.0,1.0,0.0,0.0)" xlink:href="#c1"/></g></g></svg>