<?xml version='1.0' encoding='UTF-8'?>
<svg xmlns:xlink="http://www.w3.org/1999/xlink" xmlns="http://www.w3.org/2000/svg" version="1.1" width="74px" height="74px" viewBox="-41.0 -41.0 82.0 82.0"><defs><g id="c1"><path fill="#cc0000" stroke="none" d="M26.15 -26.15 Q37.0 -15.3 37.0 0.0 37.0 15.35 26.15 26.15 15.3 37.0 0.0 37.0 -15.3 37.0 -26.2 26.15 -37.0 15.35 -37.0 0.0 -37.0 -15.3 -26.2 -26.15 -15.3 -37.0 0.0 -37.0 15.3 -37.0 26.15 -26.15"/><path fill="#ffffff" stroke="none" d="M-10.9 -13.4 Q-10.9 -15.55 -12.4 -17.05 -13.9 -18.55 -16.1 -18.55 -18.2 -18.55 -19.7 -17.05 -21.2 -15.55 -21.2 -13.4 -21.2 -11.25 -19.7 -9.75 -18.2 -8.3 -16.1 -8.3 -13.9 -8.3 -12.4 -9.75 -10.9 -11.25 -10.9 -13.4 M20.95 -4.2 L20.65 -4.1 0.2 -0.35 Q-6.55 0.9 -8.5 6.2 L-8.5 6.15 -12.1 16.75 -12.15 16.8 Q-14.4 21.65 -12.8 24.3 L-12.75 24.45 Q-12.15 26.55 -12.8 27.45 -13.4 28.5 -15.35 28.05 L-15.45 28.0 -22.0 25.05 Q-26.8 22.7 -23.4 14.45 L-21.1 9.3 Q-17.55 1.05 -22.2 -2.15 L-22.25 -2.2 Q-30.25 -8.75 -27.95 -15.5 -25.9 -22.25 -19.6 -24.45 -13.55 -26.7 -3.9 -23.05 L-3.85 -23.05 Q5.85 -17.85 20.6 -16.55 L20.95 -16.4 21.1 -16.05 21.1 -4.55 20.95 -4.2"/><path fill="none" stroke="#ffffff" stroke-width="1.0" d="M23.9 -15.0 L32.7 -10.9 M23.9 -9.9 L32.7 -5.8 M23.9 -5.3 L32.7 -1.2"/></g></defs><g><g><use transform="matrix(1.0,0.0,0.0,1.0,0.0,0.0)" xlink:href="#c1"/></g></g></svg>