<?xml version='1.0' encoding='UTF-8'?>
<svg xmlns:xlink="http://www.w3.org/1999/xlink" xmlns="http://www.w3.org/2000/svg" version="1.1" width="74px" height="74px" viewBox="-41.0 -41.0 82.0 82.0"><defs><g id="c1"><path fill="#cc0000" stroke="none" d="M26.1 -26.15 Q37.0 -15.3 37.0 0.0 37.0 15.3 26.1 26.15 15.3 37.0 0.0 37.0 -15.3 37.0 -26.2 26.15 -37.0 15.3 -37.0 0.0 -37.0 -15.3 -26.2 -26.15 -15.3 -37.0 0.0 -37.0 15.3 -37.0 26.1 -26.15"/><path fill="#ffffff" stroke="none" d="M1.45 -29.9 Q2.05 -29.35 2.05 -28.45 L2.05 17.25 2.05 17.65 Q2.9 18.1 3.6 18.8 4.55 19.7 4.95 20.9 L5.5 21.4 Q7.15 23.05 7.7 25.1 L8.85 28.6 9.2 28.55 10.2 28.55 Q10.6 28.55 10.9 28.85 L11.2 29.55 10.9 30.25 Q10.6 30.6 10.2 30.6 L-10.15 30.6 -10.9 30.25 -11.2 29.55 -10.9 28.85 Q-10.55 28.55 -10.15 28.55 L-9.85 28.55 -9.55 28.6 -8.35 25.1 -8.3 25.05 -8.3 25.1 Q-7.75 23.05 -6.2 21.4 L-4.95 20.4 -3.9 18.8 Q-3.05 17.95 -2.0 17.6 L-2.05 17.25 -2.05 -28.45 Q-2.05 -29.35 -1.45 -29.9 -0.9 -30.5 0.0 -30.5 0.85 -30.5 1.45 -29.9"/></g></defs><g><g><use transform="matrix(1.0,0.0,0.0,1.0,0.0,0.0)" xlink:href="#c1"/></g></g></svg>