<?xml version='1.0' encoding='UTF-8'?>
<svg xmlns:xlink="http://www.w3.org/1999/xlink" xmlns="http://www.w3.org/2000/svg" version="1.1" width="74px" height="74px" viewBox="-41.0 -41.0 82.0 82.0"><defs><g id="c1"><path fill="#cc0000" stroke="none" d="M26.15 -26.2 Q37.0 -15.3 37.0 0.0 37.0 15.3 26.15 26.15 15.3 37.0 0.0 37.0 -15.3 37.0 -26.2 26.15 -37.0 15.3 -37.0 0.0 -37.0 -15.3 -26.2 -26.2 -15.3 -37.0 0.0 -37.0 15.3 -37.0 26.15 -26.2"/><path fill="#fefdfc" stroke="none" d="M24.2 -22.4 L20.55 -15.75 16.5 -14.5 -0.6 2.6 Q1.55 4.4 0.85 6.9 L-0.7 9.1 -4.0 9.1 -5.3 10.4 -4.75 13.55 -15.4 24.2 -19.6 24.2 -24.2 19.6 -24.2 15.4 -13.55 4.75 -10.4 5.3 -9.1 4.0 -9.1 0.7 -6.9 -0.85 Q-4.4 -1.55 -2.6 0.6 L14.5 -16.5 15.75 -20.55 22.4 -24.2 24.2 -22.4"/><path fill="none" stroke="#ffffff" stroke-width="1.0" d="M24.2 -22.4 L20.55 -15.75 16.5 -14.5 -0.6 2.6 Q1.55 4.4 0.85 6.9 L-0.7 9.1 -4.0 9.1 -5.3 10.4 -4.75 13.55 -15.4 24.2 -19.6 24.2 -24.2 19.6 -24.2 15.4 -13.55 4.75 -10.4 5.3 -9.1 4.0 -9.1 0.7 -6.9 -0.85 Q-4.4 -1.55 -2.6 0.6 L14.5 -16.5 15.75 -20.55 22.4 -24.2 24.2 -22.4"/></g></defs><g><g><use transform="matrix(1.0,0.0,0.0,1.0,0.0,0.0)" xlink:href="#c1"/></g></g></svg>