<?xml version='1.0' encoding='UTF-8'?>
<svg xmlns:xlink="http://www.w3.org/1999/xlink" xmlns="http://www.w3.org/2000/svg" version="1.1" width="74px" height="74px" viewBox="-41.0 -41.0 82.0 82.0"><defs><g id="c1"><path fill="#cc0000" stroke="none" d="M26.15 -26.2 Q37.0 -15.35 37.0 0.0 37.0 15.3 26.15 26.1 15.3 37.0 0.0 37.0 -15.3 37.0 -26.2 26.1 -37.0 15.3 -37.0 0.0 -37.0 -15.35 -26.2 -26.2 -15.3 -37.0 0.0 -37.0 15.3 -37.0 26.15 -26.2"/><path fill="#ffffff" stroke="none" d="M27.85 -11.65 Q27.85 -4.9 23.1 -0.3 L23.1 -0.35 Q18.4 4.4 11.75 4.4 5.85 4.4 1.55 0.75 L-4.75 6.3 Q-4.55 6.95 -4.6 7.8 -4.75 9.65 -6.1 10.95 L-17.6 20.9 Q-19.1 22.1 -21.0 22.0 -22.85 21.85 -24.1 20.45 -25.35 19.0 -25.2 17.1 -25.1 15.25 -23.7 14.0 L-12.2 4.05 Q-10.75 2.8 -8.9 2.95 L-7.45 3.25 -1.35 -2.2 Q-4.35 -6.35 -4.35 -11.65 -4.35 -18.35 0.35 -23.1 5.1 -27.75 11.75 -27.75 18.4 -27.75 23.1 -23.1 27.85 -18.35 27.85 -11.65 M1.3 -2.25 L1.45 -2.05 1.8 -1.75 Q5.9 2.35 11.75 2.35 17.6 2.35 21.7 -1.75 25.8 -5.85 25.8 -11.65 25.8 -17.55 21.7 -21.65 17.6 -25.7 11.75 -25.7 5.9 -25.7 1.8 -21.6 L1.8 -21.65 Q-2.3 -17.55 -2.3 -11.65 -2.3 -6.7 0.65 -3.0 L0.7 -2.95 1.3 -2.25"/></g></defs><g><g><use transform="matrix(1.0,0.0,0.0,1.0,0.0,0.0)" xlink:href="#c1"/></g></g></svg>