<?xml version='1.0' encoding='UTF-8'?>
<svg xmlns:xlink="http://www.w3.org/1999/xlink" xmlns="http://www.w3.org/2000/svg" version="1.1" width="74px" height="74px" viewBox="-41.0 -41.0 82.0 82.0"><defs><g id="c1"><path fill="#cc0000" stroke="none" d="M26.1 -26.15 Q37.0 -15.3 37.0 0.0 37.0 15.3 26.1 26.15 15.3 37.0 0.0 37.0 -15.3 37.0 -26.2 26.15 -37.0 15.3 -37.0 0.0 -37.0 -15.3 -26.2 -26.15 -15.3 -37.0 0.0 -37.0 15.3 -37.0 26.1 -26.15"/><path fill="#ffffff" stroke="none" d="M5.65 6.8 L22.5 -2.9 28.5 7.55 11.7 17.25 5.65 6.8"/><path fill="none" stroke="#ffffff" stroke-width="4.0" d="M21.95 16.5 L9.8 23.45 -12.4 -15.15 Q-14.55 -19.55 -18.3 -19.5 L-24.9 -19.5"/><path fill="none" stroke="#ffffff" stroke-width="4.0" d="M-13.55 20.9 Q-13.55 17.75 -11.35 15.55 -9.15 13.4 -6.05 13.4 -2.9 13.4 -0.7 15.55 1.45 17.75 1.45 20.9 1.45 24.0 -0.7 26.2 -2.9 28.4 -6.05 28.4 -9.15 28.4 -11.35 26.2 -13.55 24.0 -13.55 20.9"/></g></defs><g><g><use transform="matrix(1.0,0.0,0.0,1.0,0.0,0.0)" xlink:href="#c1"/></g></g></svg>