<?xml version='1.0' encoding='UTF-8'?>
<svg xmlns:xlink="http://www.w3.org/1999/xlink" xmlns="http://www.w3.org/2000/svg" version="1.1" width="74px" height="74px" viewBox="-41.0 -41.0 82.0 82.0"><defs><g id="c1"><path fill="#cc0000" stroke="none" d="M26.15 -26.2 Q37.0 -15.3 37.0 0.0 37.0 15.3 26.15 26.15 15.3 37.0 0.0 37.0 -15.3 37.0 -26.2 26.15 -37.0 15.3 -37.0 0.0 -37.0 -15.3 -26.2 -26.2 -15.3 -37.0 0.0 -37.0 15.3 -37.0 26.15 -26.2"/><path fill="#ffffff" stroke="none" d="M16.15 -23.65 Q19.45 -23.65 19.45 -20.3 L19.45 -18.7 20.8 -18.7 Q24.6 -18.4 24.95 -14.8 L24.95 -8.1 Q24.1 -3.95 20.1 -3.3 L20.15 -3.3 6.8 -1.05 Q-1.0 0.25 -0.8 8.45 L-0.3 8.85 Q0.4 9.5 0.45 10.55 L1.5 30.0 Q1.55 30.7 1.2 31.35 L0.2 32.35 Q-0.45 32.7 -1.15 32.65 L-3.2 32.6 Q-4.3 32.55 -5.0 31.8 -5.7 31.0 -5.65 29.95 L-4.65 10.55 Q-4.6 9.5 -3.8 8.85 -3.4 8.35 -2.85 8.2 -2.95 -1.45 6.45 -3.05 L19.8 -5.3 19.8 -5.35 Q22.3 -5.75 22.9 -8.35 L22.9 -14.6 Q22.65 -16.5 20.65 -16.65 L19.45 -16.65 19.45 -15.85 Q19.45 -12.55 16.15 -12.55 L-19.6 -12.55 Q-22.9 -12.55 -22.9 -15.85 L-22.9 -20.3 Q-22.9 -23.65 -19.6 -23.65 L16.15 -23.65"/></g></defs><g><g><use transform="matrix(1.0,0.0,0.0,1.0,0.0,0.0)" xlink:href="#c1"/></g></g></svg>