<?xml version='1.0' encoding='UTF-8'?>
<svg xmlns:xlink="http://www.w3.org/1999/xlink" xmlns="http://www.w3.org/2000/svg" version="1.1" width="74px" height="74px" viewBox="-41.0 -41.0 82.05 82.0"><defs><g id="c1"><path fill="#cc0000" stroke="none" d="M26.15 -26.15 Q37.05 -15.3 37.05 0.0 37.05 15.3 26.15 26.15 15.35 37.0 0.0 37.0 -15.3 37.0 -26.15 26.15 -37.0 15.3 -37.0 0.0 -37.0 -15.3 -26.15 -26.15 -15.3 -37.0 0.0 -37.0 15.35 -37.0 26.15 -26.15"/><path fill="#ffffff" stroke="none" d="M7.9 -23.55 Q10.25 -25.95 13.35 -26.45 L11.4 -21.7 Q10.25 -15.6 14.65 -14.15 19.2 -12.65 21.5 -16.6 L23.5 -22.05 Q25.2 -19.6 25.2 -16.4 25.2 -12.2 22.2 -9.25 19.25 -6.25 15.05 -6.25 L13.55 -6.35 -5.9 12.2 Q-4.8 14.3 -4.8 16.85 -4.8 21.1 -7.8 24.05 -10.1 26.35 -13.1 26.85 L-11.2 22.15 Q-10.05 16.1 -14.45 14.6 -19.0 13.1 -21.3 17.05 L-23.4 22.6 Q-25.15 20.1 -25.15 16.85 -25.15 12.65 -22.2 9.65 -19.2 6.7 -15.0 6.7 L-14.0 6.75 5.4 -13.1 Q4.85 -14.65 4.85 -16.4 4.85 -20.6 7.9 -23.55"/><path fill="none" stroke="#ffffff" stroke-width="1.0" d="M7.9 -23.55 Q10.25 -25.95 13.35 -26.45 L11.4 -21.7 Q10.25 -15.6 14.65 -14.15 19.2 -12.65 21.5 -16.6 L23.5 -22.05 Q25.2 -19.6 25.2 -16.4 25.2 -12.2 22.2 -9.25 19.25 -6.25 15.05 -6.25 L13.55 -6.35 -5.9 12.2 Q-4.8 14.3 -4.8 16.85 -4.8 21.1 -7.8 24.05 -10.1 26.35 -13.1 26.85 L-11.2 22.15 Q-10.05 16.1 -14.45 14.6 -19.0 13.1 -21.3 17.05 L-23.4 22.6 Q-25.15 20.1 -25.15 16.85 -25.15 12.65 -22.2 9.65 -19.2 6.7 -15.0 6.7 L-14.0 6.75 5.4 -13.1 Q4.85 -14.65 4.85 -16.4 4.85 -20.6 7.9 -23.55"/></g></defs><g><g><use transform="matrix(1.0,0.0,0.0,1.0,0.0,0.0)" xlink:href="#c1"/></g></g></svg>