<?xml version='1.0' encoding='UTF-8'?>
<svg xmlns:xlink="http://www.w3.org/1999/xlink" xmlns="http://www.w3.org/2000/svg" version="1.1" width="74px" height="74px" viewBox="-41.0 -41.0 82.0 82.0"><defs><g id="c1"><path fill="#cc0000" stroke="none" d="M26.1 -26.15 Q37.0 -15.3 37.0 0.0 37.0 15.35 26.1 26.15 15.3 37.0 0.0 37.0 -15.35 37.0 -26.2 26.15 -37.0 15.35 -37.0 0.0 -37.0 -15.3 -26.2 -26.15 -15.35 -37.0 0.0 -37.0 15.3 -37.0 26.1 -26.15"/><path fill="#ffffff" stroke="none" d="M0.6 -5.75 L14.3 -24.3 21.35 -24.3 4.15 -1.25 22.7 24.6 14.7 24.6 0.25 3.9 -14.4 24.6 -22.15 24.6 -3.25 -0.9 -19.95 -24.3 -12.2 -24.3 0.6 -5.75"/></g></defs><g><g><use transform="matrix(1.0,0.0,0.0,1.0,0.0,0.0)" xlink:href="#c1"/></g></g></svg>