<?xml version='1.0' encoding='UTF-8'?>
<svg xmlns:xlink="http://www.w3.org/1999/xlink" xmlns="http://www.w3.org/2000/svg" version="1.1" width="74px" height="74px" viewBox="-41.0 -41.0 82.0 82.0"><defs><g id="c1"><path fill="#cc0000" stroke="none" d="M26.15 -26.15 Q37.0 -15.3 37.0 0.0 37.0 15.3 26.15 26.15 15.3 37.0 0.0 37.0 -15.3 37.0 -26.2 26.15 -37.0 15.3 -37.0 0.0 -37.0 -15.3 -26.2 -26.15 -15.3 -37.0 0.0 -37.0 15.3 -37.0 26.15 -26.15"/><path fill="#ffffff" stroke="none" d="M-15.5 5.4 L-14.1 4.6 -11.2 8.3 -11.2 12.65 -5.25 20.45 -6.6 21.55 -11.95 14.85 Q-10.95 17.75 -11.15 23.5 L-12.7 24.55 Q-14.55 17.55 -15.4 9.25 L-22.3 14.75 Q-22.5 15.8 -21.0 17.45 L-20.9 17.8 -21.05 18.15 -21.45 18.3 Q-21.7 18.3 -21.8 18.1 -23.9 15.8 -23.2 14.3 L-23.05 14.05 -15.5 7.95 -15.5 5.4 M11.2 -18.4 L17.5 -10.65 -8.4 9.45 -14.75 1.7 11.2 -18.4 M22.45 -22.1 L23.4 -21.05 16.9 -13.5 13.75 -17.4 22.45 -22.1"/></g></defs><g><g><use transform="matrix(1.0,0.0,0.0,1.0,0.0,0.0)" xlink:href="#c1"/></g></g></svg>