<?xml version='1.0' encoding='UTF-8'?>
<svg xmlns:xlink="http://www.w3.org/1999/xlink" xmlns="http://www.w3.org/2000/svg" version="1.1" width="66px" height="66px" viewBox="-37.0 -37.0 74.0 74.0"><defs><g id="c1"><path fill="#003f80" stroke="none" d="M33.0 33.0 L-33.0 33.0 -33.0 -33.0 33.0 -33.0 33.0 33.0"/><path fill="#ffffff" stroke="none" d="M2.75 -27.35 Q3.85 -26.55 4.0 -25.15 L4.0 -24.2 Q4.0 -23.25 3.65 -22.6 3.4 -22.0 2.75 -21.4 2.45 -20.75 1.8 -20.4 L-0.1 -20.1 -0.4 -20.1 Q-2.4 -20.25 -3.55 -21.4 -4.75 -22.5 -4.8 -24.2 -4.85 -25.95 -3.55 -27.35 -2.85 -28.4 -0.4 -28.9 1.8 -28.8 2.75 -27.35 M8.1 -17.25 L13.1 -0.55 13.1 0.7 11.85 1.65 10.65 1.3 9.7 0.35 5.9 -10.95 5.6 -11.3 Q5.6 -10.95 5.25 -10.95 L10.9 8.9 5.6 8.9 5.6 25.9 4.95 27.1 3.05 28.1 1.5 27.45 1.2 27.1 0.5 25.9 0.25 8.9 -1.05 8.9 -1.05 25.9 -1.95 27.1 Q-1.95 27.45 -2.3 27.45 L-3.55 28.1 Q-4.15 27.75 -5.1 27.45 L-5.45 27.1 -6.05 25.9 -6.05 8.9 -11.4 8.9 Q-8.6 -0.9 -6.05 -10.95 L-6.4 -11.3 -6.4 -10.95 -10.15 0.35 Q-10.45 1.0 -11.1 1.3 L-12.35 1.65 -13.6 0.7 -13.6 -0.55 -9.2 -16.3 -8.6 -17.25 Q-7.95 -17.6 -7.65 -18.25 -7.0 -18.5 -6.7 -18.85 L6.2 -18.85 6.8 -18.25 8.1 -17.25"/></g></defs><g><g><use transform="matrix(1.0,0.0,0.0,1.0,0.0,0.0)" xlink:href="#c1"/></g></g></svg>