<?xml version='1.0' encoding='UTF-8'?>
<svg xmlns:xlink="http://www.w3.org/1999/xlink" xmlns="http://www.w3.org/2000/svg" version="1.1" width="66px" height="66px" viewBox="-37.0 -37.0 74.0 74.0"><defs><g id="c1"><path fill="#003f80" stroke="none" d="M33.0 -33.0 L33.0 33.0 -33.0 33.0 -33.0 -33.0 33.0 -33.0"/><path fill="#ffffff" stroke="none" d="M20.1 -21.45 Q18.45 -20.1 16.8 -19.8 14.85 -20.1 13.5 -21.45 L12.2 -24.4 13.5 -27.7 Q14.85 -29.35 16.8 -29.05 L17.8 -29.05 20.1 -27.7 21.4 -24.4 20.1 -21.45 M6.6 -17.5 L10.2 -18.8 Q10.55 -18.45 10.85 -18.45 L10.85 -18.8 23.4 -18.8 27.05 -17.5 28.35 -14.85 28.35 3.95 28.0 5.3 26.7 5.6 25.05 5.3 Q25.05 4.6 24.7 3.95 L24.05 -9.9 23.75 -10.25 23.05 -9.55 23.4 27.7 Q23.05 28.7 22.4 29.35 L22.4 29.7 21.75 29.7 20.75 30.0 19.45 29.7 19.1 29.7 18.8 29.35 18.1 27.7 17.8 27.7 17.8 5.6 17.45 5.3 16.15 5.3 Q16.15 5.6 15.8 5.6 L15.5 27.7 14.85 29.35 14.5 29.7 14.15 29.7 12.85 30.0 11.85 29.7 11.2 29.7 11.2 29.35 10.2 27.7 10.2 24.4 10.55 24.4 10.55 -9.55 9.9 -10.25 Q9.9 -9.9 9.55 -9.9 L8.9 3.95 8.55 5.3 6.9 5.6 5.6 5.3 5.25 3.95 5.25 -14.85 6.6 -17.5 M-10.25 -25.4 L-10.25 -24.4 Q-10.25 -23.4 -10.6 -22.75 -10.9 -22.1 -11.55 -21.45 -11.9 -20.8 -12.55 -20.45 -13.55 -20.1 -14.55 -20.1 L-14.85 -20.1 -18.15 -21.45 -19.5 -24.4 -18.15 -27.7 -14.85 -29.05 -14.85 -29.35 Q-13.2 -28.35 -11.55 -27.7 L-10.25 -25.4 M-22.45 -18.15 Q-21.8 -18.45 -21.45 -18.8 L-7.95 -18.8 -7.3 -18.15 -5.95 -17.15 -0.7 0.35 -0.7 1.65 -2.0 2.65 -3.3 2.3 -4.3 1.3 -8.25 -10.55 -8.6 -10.9 Q-8.6 -10.55 -8.95 -10.55 L-3.0 10.25 -8.6 10.25 -8.6 28.05 -9.25 29.35 Q-10.25 30.0 -11.25 30.35 -11.9 30.0 -12.9 29.7 L-13.2 29.35 -13.9 28.05 Q-13.9 19.15 -14.2 10.25 L-15.55 10.25 -15.55 28.05 Q-15.85 28.7 -16.5 29.35 -16.5 29.7 -16.85 29.7 L-18.15 30.35 Q-18.8 30.0 -19.8 29.7 L-20.15 29.35 -20.8 28.05 -20.8 10.25 -26.4 10.25 Q-23.45 0.0 -20.8 -10.55 L-21.15 -10.9 -21.15 -10.55 -25.1 1.3 Q-25.4 2.0 -26.1 2.3 L-27.4 2.65 -28.7 1.65 -28.7 0.35 -24.1 -16.15 Q-23.75 -16.5 -23.45 -17.15 -22.8 -17.5 -22.45 -18.15"/></g></defs><g><g><use transform="matrix(1.0,0.0,0.0,1.0,0.0,0.0)" xlink:href="#c1"/></g></g></svg>