<?xml version='1.0' encoding='UTF-8'?>
<svg xmlns:xlink="http://www.w3.org/1999/xlink" xmlns="http://www.w3.org/2000/svg" version="1.1" width="66px" height="66px" viewBox="-37.0 -37.0 74.0 74.0"><defs><g id="c1"><path fill="#003f80" stroke="none" d="M33.0 33.0 L-33.0 33.0 -33.0 -33.0 33.0 -33.0 33.0 33.0"/><path fill="#ffffff" stroke="none" d="M3.1 -27.7 Q4.2 -26.15 4.4 -24.4 4.3 -22.65 3.1 -21.45 1.45 -20.1 -0.2 -19.8 -2.15 -20.1 -3.5 -21.45 -4.95 -22.75 -4.8 -24.4 -4.85 -26.35 -3.5 -27.7 -2.15 -29.35 -0.2 -29.05 L0.8 -29.05 Q2.15 -28.65 3.1 -27.7 M-10.4 -17.5 L-6.8 -18.8 6.4 -18.8 10.05 -17.5 11.35 -14.85 11.35 3.95 11.0 5.3 9.7 5.6 8.05 5.3 Q8.05 4.6 7.7 3.95 L7.05 -9.9 6.75 -10.25 6.05 -9.55 6.4 27.7 Q6.05 28.7 5.4 29.35 L4.75 29.7 3.75 30.0 2.45 29.7 2.1 29.7 1.8 29.35 0.8 27.7 0.8 5.6 0.45 5.3 -0.85 5.3 Q-0.85 5.6 -1.2 5.6 L-1.5 27.7 -2.15 29.35 -2.5 29.7 -2.85 29.7 -4.15 30.0 -5.15 29.7 -5.8 29.35 -6.8 27.7 -6.45 -9.55 -7.1 -10.25 Q-7.1 -9.9 -7.45 -9.9 L-8.1 3.95 -8.45 5.3 -10.1 5.6 -11.4 5.3 -11.75 3.95 -11.75 -14.85 -10.4 -17.5"/></g></defs><g><g><use transform="matrix(1.0,0.0,0.0,1.0,0.0,0.0)" xlink:href="#c1"/></g></g></svg>