<?xml version='1.0' encoding='UTF-8'?>
<svg xmlns:xlink="http://www.w3.org/1999/xlink" xmlns="http://www.w3.org/2000/svg" version="1.1" width="40px" height="40px" viewBox="-24.0 -24.0 48.0 48.0"><defs><g id="c1"><path fill="#000000" stroke="none" d="M17.1 2.9 Q20.0 5.85 20.0 10.0 20.0 14.15 17.1 17.05 14.2 20.0 10.0 20.0 5.9 20.0 2.9 17.05 0.0 14.15 0.0 10.0 0.0 5.85 2.9 2.9 5.9 0.0 10.0 0.0 14.2 0.0 17.1 2.9"/></g><g id="c2"><g><use transform="matrix(1.0,0.0,0.0,1.0,0.0,0.0)" xlink:href="#c1"/></g></g><g id="c3"><path fill="#ffffff" stroke="none" d="M5.35 -1.4 Q6.95 0.15 6.95 2.5 6.95 4.15 6.1 5.65 5.3 7.2 3.75 8.0 2.25 8.8 -0.15 8.8 L-3.05 8.45 Q-4.3 8.15 -5.15 7.5 L-6.5 6.05 Q-7.05 5.25 -7.4 4.05 L-2.5 3.55 Q-2.35 4.7 -1.7 5.3 -1.05 5.9 -0.15 5.9 0.85 5.9 1.5 5.15 2.15 4.4 2.15 2.95 2.15 1.45 1.5 0.75 0.85 0.05 -0.25 0.05 -0.95 0.05 -1.6 0.4 L-2.7 1.25 -6.75 0.7 -5.25 -8.65 6.1 -8.65 6.1 -4.7 -1.6 -4.7 -2.0 -2.2 -0.4 -2.75 1.15 -2.95 Q3.7 -2.95 5.35 -1.4"/></g></defs><g><g><use transform="matrix(2.0,0.0,0.0,2.0,-20.0,-20.0)" xlink:href="#c2" class="color"/></g><g><use transform="matrix(1.0,0.0,0.0,1.0,0.0,0.0)" xlink:href="#c3"/></g></g></svg>