<?xml version='1.0' encoding='UTF-8'?>
<svg xmlns:xlink="http://www.w3.org/1999/xlink" xmlns="http://www.w3.org/2000/svg" version="1.1" width="74px" height="74px" viewBox="-41.0 -41.0 82.0 82.0"><defs><g id="c1"><path fill="#ff0000" stroke="none" d="M37.0 37.0 L-37.0 37.0 -37.0 -37.0 37.0 -37.0 37.0 37.0"/><path fill="#ffffff" stroke="none" d="M2.75 -14.6 L2.75 -29.4 -12.0 -29.4 -12.0 -14.6 2.75 -14.6 M-1.0 -18.3 Q-2.5 -16.75 -4.65 -16.75 -6.8 -16.75 -8.35 -18.3 -9.85 -19.8 -9.85 -21.95 -9.85 -24.1 -8.35 -25.7 -6.8 -27.15 -4.65 -27.15 -2.5 -27.15 -1.0 -25.7 0.55 -24.1 0.55 -21.95 0.55 -19.8 -1.0 -18.3 M6.65 -10.7 L-15.9 -10.7 -15.9 -33.3 6.65 -33.3 6.65 -10.7"/><path fill="#ffffff" stroke="none" d="M9.0 28.65 L9.15 28.8 9.15 28.55 9.0 28.65 M-7.15 -13.25 Q-7.15 -14.5 -6.3 -15.35 -5.45 -16.15 -4.2 -16.15 -2.95 -16.15 -2.1 -15.35 -1.3 -14.5 -1.3 -13.25 L-1.3 0.8 -0.6 -0.15 Q0.2 -1.0 1.45 -1.0 2.7 -1.0 3.55 -0.15 L4.4 1.45 4.7 1.0 Q5.55 0.15 6.8 0.15 8.05 0.15 8.9 1.0 9.7 1.85 9.7 3.1 L9.7 3.4 10.0 3.1 Q10.85 2.25 12.05 2.25 13.3 2.25 14.15 3.1 15.0 3.95 15.0 5.15 L15.0 26.35 Q14.65 28.1 13.3 29.45 L15.0 29.45 15.0 32.95 -7.6 32.95 -7.6 28.15 Q-13.1 24.55 -14.4 17.8 L-14.5 17.2 -14.5 14.7 -14.5 14.5 -14.5 14.4 -14.5 4.05 Q-14.5 2.85 -13.65 2.0 -12.8 1.15 -11.55 1.15 -10.3 1.15 -9.5 2.0 -8.65 2.85 -8.65 4.05 L-8.65 13.1 -7.85 13.55 -7.15 11.75 -7.15 -13.25"/></g></defs><g><g><use transform="matrix(1.0,0.0,0.0,1.0,0.0,0.0)" xlink:href="#c1"/></g></g></svg>