<?xml version='1.0' encoding='UTF-8'?>
<svg xmlns:xlink="http://www.w3.org/1999/xlink" xmlns="http://www.w3.org/2000/svg" version="1.1" width="40px" height="40px" viewBox="-24.0 -24.0 48.0 48.0"><defs><g id="c1"><path fill="#000000" stroke="none" d="M17.1 2.9 Q20.0 5.85 20.0 10.0 20.0 14.15 17.1 17.05 14.2 20.0 10.0 20.0 5.9 20.0 2.9 17.05 0.0 14.15 0.0 10.0 0.0 5.85 2.9 2.9 5.9 0.0 10.0 0.0 14.2 0.0 17.1 2.9"/></g><g id="c2"><g><use transform="matrix(1.0,0.0,0.0,1.0,0.0,0.0)" xlink:href="#c1"/></g></g><g id="c3"><path fill="#ffffff" stroke="none" d="M0.1 -5.35 Q-1.1 -5.35 -1.6 -4.15 -2.15 -2.95 -2.15 0.25 -2.15 3.5 -1.55 4.7 -1.0 5.9 0.1 5.9 0.8 5.9 1.35 5.4 1.85 4.9 2.1 3.8 L2.35 0.4 Q2.35 -3.0 1.8 -4.2 1.2 -5.35 0.1 -5.35 M6.65 -3.8 Q7.15 -1.9 7.15 0.2 7.15 4.85 5.55 7.05 4.0 9.2 0.1 9.2 -2.05 9.2 -3.4 8.5 -4.75 7.8 -5.6 6.45 -6.25 5.55 -6.55 3.9 -6.9 2.25 -6.9 0.25 -6.9 -4.65 -5.15 -6.6 -3.4 -8.55 0.25 -8.55 L3.1 -8.1 4.9 -7.0 6.0 -5.55 6.65 -3.8"/></g></defs><g><g><use transform="matrix(2.0,0.0,0.0,2.0,-20.0,-20.0)" xlink:href="#c2" class="color"/></g><g><use transform="matrix(1.0,0.0,0.0,1.0,0.0,0.0)" xlink:href="#c3"/></g></g></svg>