<?xml version='1.0' encoding='UTF-8'?>
<svg xmlns:xlink="http://www.w3.org/1999/xlink" xmlns="http://www.w3.org/2000/svg" version="1.1" width="130px" height="74px" viewBox="-69.0 -41.1 138.0 82.2"><defs><g id="c1"><path fill="#ffffff" stroke="none" d="M27.0 -27.85 Q29.6 -27.85 31.6 -25.85 33.6 -24.2 33.6 -21.55 L33.25 -19.55 46.5 -19.55 54.45 -8.95 50.8 -6.3 44.85 -14.6 36.55 -14.6 46.5 0.35 46.5 11.9 60.4 11.9 60.4 16.9 41.55 16.9 41.55 5.65 30.6 11.9 30.6 24.85 25.65 24.85 25.65 8.3 35.9 1.65 30.95 -4.95 30.95 -0.65 15.05 -0.65 15.05 -5.65 25.65 -5.65 25.65 -15.55 Q23.65 -15.9 22.0 -17.55 20.7 -19.55 20.7 -21.55 20.7 -24.2 22.7 -26.15 24.35 -27.85 27.0 -27.85 M-57.7 -27.5 L-29.25 -27.5 -29.25 25.5 -57.7 25.5 -57.7 -27.5"/><path fill="#009900" stroke="none" d="M27.0 -27.85 Q24.35 -27.85 22.7 -26.15 20.7 -24.2 20.7 -21.55 20.7 -19.55 22.0 -17.55 23.65 -15.9 25.65 -15.55 L25.65 -5.65 15.05 -5.65 15.05 -0.65 30.95 -0.65 30.95 -4.95 35.9 1.65 25.65 8.3 25.65 24.85 30.6 24.85 30.6 11.9 41.55 5.65 41.55 16.9 60.4 16.9 60.4 11.9 46.5 11.9 46.5 0.35 36.55 -14.6 44.85 -14.6 50.8 -6.3 54.45 -8.95 46.5 -19.55 33.25 -19.55 33.6 -21.55 Q33.6 -24.2 31.6 -25.85 29.6 -27.85 27.0 -27.85 M65.0 37.1 L-65.0 37.1 -65.0 -37.1 65.0 -37.1 65.0 37.1 M-57.7 -27.5 L-57.7 25.5 -29.25 25.5 -29.25 -27.5 -57.7 -27.5"/><path fill="#ffffff" stroke="none" d="M-16.55 -4.75 L-5.65 -15.65 5.25 -4.75 -3.0 -4.75 -3.0 16.5 -8.3 16.5 -8.3 -4.75 -16.55 -4.75"/></g></defs><g><g><use transform="matrix(1.0,0.0,0.0,1.0,0.0,0.0)" xlink:href="#c1"/></g></g></svg>