<?xml version='1.0' encoding='UTF-8'?>
<svg xmlns:xlink="http://www.w3.org/1999/xlink" xmlns="http://www.w3.org/2000/svg" version="1.1" width="74px" height="74px" viewBox="-41.0 -41.0 82.0 82.0"><defs><g id="c1"><path fill="#009900" stroke="none" d="M37.0 -37.0 L37.0 37.0 -37.0 37.0 -37.0 -37.0 37.0 -37.0"/><path fill="#ffffff" stroke="none" d="M22.4 14.2 L8.3 14.2 8.3 7.7 15.9 7.7 15.9 -22.2 -14.0 -22.2 -14.0 7.7 -5.95 7.7 -5.95 14.2 -20.45 14.2 -20.45 -28.65 22.4 -28.65 22.4 14.2"/><path fill="#ffffff" stroke="none" d="M12.15 19.85 L1.25 30.75 -9.65 19.85 -1.4 19.85 -1.4 -1.4 3.9 -1.4 3.9 19.85 12.15 19.85"/></g></defs><g><g><use transform="matrix(1.0,0.0,0.0,1.0,0.0,0.0)" xlink:href="#c1"/></g></g></svg>