<?xml version='1.0' encoding='UTF-8'?>
<svg xmlns:xlink="http://www.w3.org/1999/xlink" xmlns="http://www.w3.org/2000/svg" version="1.1" width="40px" height="40px" viewBox="-24.0 -24.0 48.0 48.0"><defs><g id="c1"><path fill="#000000" stroke="none" d="M17.1 2.9 Q20.0 5.85 20.0 10.0 20.0 14.15 17.1 17.05 14.2 20.0 10.0 20.0 5.9 20.0 2.9 17.05 0.0 14.15 0.0 10.0 0.0 5.85 2.9 2.9 5.9 0.0 10.0 0.0 14.2 0.0 17.1 2.9"/></g><g id="c2"><g><use transform="matrix(1.0,0.0,0.0,1.0,0.0,0.0)" xlink:href="#c1"/></g></g><g id="c3"><path fill="#ffffff" stroke="none" d="M6.1 -1.0 Q5.2 0.4 2.7 2.1 L0.8 3.5 -0.4 4.6 7.1 4.6 7.1 8.5 -7.2 8.5 Q-7.0 6.4 -5.7 4.5 -4.5 2.6 -1.0 0.1 1.1 -1.4 1.6 -2.3 2.2 -3.1 2.2 -3.8 2.2 -4.6 1.7 -5.1 1.1 -5.7 0.2 -5.7 -0.7 -5.7 -1.3 -5.1 -1.9 -4.5 -2.1 -3.0 L-6.9 -3.4 Q-6.6 -5.4 -5.8 -6.6 -5.1 -7.7 -3.7 -8.3 L0.1 -8.9 4.0 -8.4 Q5.4 -7.8 6.2 -6.6 7.0 -5.4 7.0 -4.0 7.0 -2.4 6.1 -1.0"/></g></defs><g><g><use transform="matrix(2.0,0.0,0.0,2.0,-20.0,-20.0)" xlink:href="#c2" class="color"/></g><g><use transform="matrix(1.0,0.0,0.0,1.0,0.0,0.0)" xlink:href="#c3"/></g></g></svg>