<?xml version='1.0' encoding='UTF-8'?>
<svg xmlns:xlink="http://www.w3.org/1999/xlink" xmlns="http://www.w3.org/2000/svg" version="1.1" width="50px" height="50px" viewBox="-29.0 -29.0 58.0 58.0"><defs><g id="c1"><path fill="none" stroke="#000000" stroke-width="1.0" d="M0.0 12.5 L0.0 -12.5"/><path fill="#ffffff" stroke="none" d="M0.0 -12.5 L12.5 -12.5 12.5 0.0 0.0 0.0 0.0 12.5 -12.5 12.5 -12.5 0.0 0.0 0.0 0.0 -12.5 0.0 0.0 -12.5 0.0 -12.5 -12.5 0.0 -12.5 M0.0 12.5 L0.0 0.0 12.5 0.0 12.5 12.5 0.0 12.5"/><path fill="none" stroke="#000000" stroke-width="1.0" d="M0.0 -12.5 L0.0 -25.0 M0.0 -12.5 L12.5 -12.5 12.5 0.0 25.0 0.0 M0.0 25.0 L0.0 12.5 -12.5 12.5 -12.5 0.0 -25.0 0.0 M12.5 0.0 L0.0 0.0 0.0 12.5 12.5 12.5 12.5 0.0 M-12.5 0.0 L0.0 0.0 0.0 -12.5 -12.5 -12.5 -12.5 0.0"/></g></defs><g><g><use transform="matrix(1.0,0.0,0.0,1.0,0.0,0.0)" xlink:href="#c1"/></g></g></svg>