<?xml version='1.0' encoding='UTF-8'?>
<svg xmlns:xlink="http://www.w3.org/1999/xlink" xmlns="http://www.w3.org/2000/svg" version="1.1" width="74px" height="74px" viewBox="-41.1 -41.1 82.2 82.2"><defs><g id="c1"><path fill="#009900" stroke="none" d="M37.1 37.1 L-37.1 37.1 -37.1 -37.1 37.1 -37.1 37.1 37.1"/><path fill="#ffffff" stroke="none" d="M33.5 -30.3 L25.8 -22.65 25.85 -22.6 32.55 -22.65 28.4 -18.5 18.5 -18.45 18.5 -28.75 22.6 -32.85 22.6 -25.85 22.65 -25.8 30.35 -33.45 33.5 -30.3"/><path fill="#ffffff" stroke="none" d="M-33.7 -30.3 L-26.0 -22.65 -26.05 -22.6 -32.75 -22.65 -28.6 -18.5 -18.7 -18.45 -18.7 -28.75 -22.8 -32.85 -22.8 -25.85 -22.85 -25.8 -30.55 -33.45 -33.7 -30.3"/><path fill="#ffffff" stroke="none" d="M33.5 30.0 L25.8 22.35 25.85 22.3 32.55 22.35 28.4 18.2 18.5 18.15 18.5 28.45 22.6 32.55 22.6 25.55 22.65 25.5 30.35 33.15 33.5 30.0"/><path fill="#ffffff" stroke="none" d="M-33.7 30.0 L-26.0 22.35 -26.05 22.3 -32.75 22.35 -28.6 18.2 -18.7 18.15 -18.7 28.45 -22.8 32.55 -22.8 25.55 -22.85 25.5 -30.55 33.15 -33.7 30.0"/><path fill="#ffffff" stroke="none" d="M-17.1 1.95 L-18.85 1.95 -18.85 13.9 -23.2 13.9 -23.2 -0.5 Q-23.0 -3.85 -19.8 -4.1 L-6.05 -4.1 Q-5.65 -1.75 -3.85 0.0 L-3.05 0.7 -5.5 0.7 Q-11.25 0.35 -10.9 6.1 L-10.9 13.9 -17.1 13.9 -17.1 1.95 M-15.9 -15.6 Q-14.45 -17.1 -12.3 -17.1 -10.05 -17.1 -8.6 -15.6 -7.1 -14.1 -7.1 -11.9 -7.1 -9.75 -8.6 -8.25 -10.05 -6.7 -12.3 -6.7 -14.45 -6.7 -15.9 -8.25 -17.5 -9.75 -17.5 -11.9 -17.5 -14.1 -15.9 -15.6 M5.35 -22.05 Q6.85 -20.55 6.85 -18.3 6.85 -16.2 5.35 -14.7 3.85 -13.1 1.65 -13.1 -0.5 -13.1 -2.0 -14.7 -3.55 -16.2 -3.55 -18.3 -3.55 -20.55 -2.0 -22.05 -0.5 -23.5 1.65 -23.5 3.85 -23.5 5.35 -22.05 M6.85 -5.5 Q6.85 -3.35 5.35 -1.9 3.85 -0.3 1.65 -0.3 -0.5 -0.3 -2.0 -1.9 -3.55 -3.35 -3.55 -5.5 -3.55 -7.75 -2.0 -9.2 -0.5 -10.7 1.65 -10.7 3.85 -10.7 5.35 -9.2 6.85 -7.75 6.85 -5.5 M9.6 -11.9 Q9.6 -14.1 11.2 -15.6 12.7 -17.1 14.8 -17.1 17.05 -17.1 18.55 -15.6 20.0 -14.1 20.0 -11.9 20.0 -9.75 18.55 -8.25 17.05 -6.7 14.8 -6.7 12.7 -6.7 11.2 -8.25 9.6 -9.75 9.6 -11.9 M8.4 0.7 L6.45 0.7 7.2 0.0 Q8.9 -1.75 9.3 -4.1 L22.7 -4.1 Q25.85 -3.85 26.05 -0.5 L26.05 13.9 21.7 13.9 21.7 1.95 19.95 1.95 19.95 13.9 13.8 13.9 13.8 6.1 Q14.1 0.35 8.4 0.7 M-9.15 7.4 Q-9.4 2.6 -4.7 2.95 L8.65 2.95 Q11.85 3.2 12.05 6.5 L12.05 10.65 12.05 11.05 12.05 20.95 7.65 20.95 7.65 9.0 5.9 9.0 5.9 20.95 -3.05 20.95 -3.05 9.0 -4.8 9.0 -4.8 20.95 -9.15 20.95 -9.15 7.4"/></g></defs><g><g><use transform="matrix(1.0,0.0,0.0,1.0,0.0,0.0)" xlink:href="#c1"/></g></g></svg>