<?xml version='1.0' encoding='UTF-8'?>
<svg xmlns:xlink="http://www.w3.org/1999/xlink" xmlns="http://www.w3.org/2000/svg" version="1.1" width="74px" height="31px" viewBox="-41.0 -19.5 82.0 39.0"><defs><g id="c1"><path fill="#009900" stroke="none" d="M29.05 -8.0 L37.0 -0.15 28.75 8.1 22.2 8.1 27.8 2.5 27.8 2.4 15.45 2.4 15.45 -2.6 27.8 -2.6 27.8 -2.7 22.35 -8.0 29.05 -8.0"/><path fill="#009900" stroke="none" d="M-23.4 -8.0 L-15.45 -0.15 -23.7 8.1 -30.25 8.1 -24.65 2.5 -24.65 2.4 -37.0 2.4 -37.0 -2.6 -24.65 -2.6 -24.65 -2.7 -30.1 -8.0 -23.4 -8.0"/><path fill="#009900" stroke="none" d="M8.0 -2.6 L8.0 2.4 -9.65 2.4 -9.65 -2.6 8.0 -2.6"/><path fill="#bfb5ae" fill-opacity="0.0" d="M37.0 15.5 L-37.0 15.5 -37.0 -15.5 37.0 -15.5 37.0 15.5"/></g></defs><g><g><use transform="matrix(1.0,0.0,0.0,1.0,0.0,0.0)" xlink:href="#c1"/></g></g></svg>