<?xml version='1.0' encoding='UTF-8'?>
<svg xmlns:xlink="http://www.w3.org/1999/xlink" xmlns="http://www.w3.org/2000/svg" version="1.1" width="74px" height="74px" viewBox="-41.0 -41.0 82.0 82.0"><defs><g id="c1"><path fill="#ff0000" stroke="none" d="M37.0 37.0 L-37.0 37.0 -37.0 -37.0 37.0 -37.0 37.0 37.0"/><path fill="none" stroke="#ffffff" stroke-width="4.0" d="M-12.75 12.6 L-12.75 19.8 M-12.75 27.9 L-12.75 26.6 M-19.95 -26.4 L-19.95 16.4"/><path fill="none" stroke="#ffffff" stroke-width="4.0" d="M-12.75 27.9 L-12.75 29.15 M2.1 -21.75 L2.1 12.35 M-5.35 -21.75 L-5.35 12.35 M-12.75 -21.75 L-12.75 12.6"/><path fill="none" stroke="#ffffff" stroke-width="4.0" d="M9.6 -26.4 L9.6 -6.5"/><path fill="none" stroke="#ffffff" stroke-width="2.0" d="M9.6 -6.5 L27.85 -6.5"/><path fill="none" stroke="#ffffff" stroke-width="4.0" d="M9.6 -6.5 L9.6 16.4"/><path fill="none" stroke="#ffffff" stroke-width="2.0" d="M21.3 -12.1 L21.3 -0.9"/><path fill="none" stroke="#ffffff" stroke-width="2.0" d="M21.5 -12.9 Q24.15 -12.9 26.0 -11.05 27.9 -9.15 27.9 -6.5 27.9 -3.85 26.0 -2.0 24.15 -0.1 21.5 -0.1 18.85 -0.1 16.95 -2.0 15.1 -3.85 15.1 -6.5 15.1 -9.15 16.95 -11.05 18.85 -12.9 21.5 -12.9"/></g></defs><g><g><use transform="matrix(1.0,0.0,0.0,1.0,0.0,0.0)" xlink:href="#c1"/></g></g></svg>