<?xml version='1.0' encoding='UTF-8'?>
<svg xmlns:xlink="http://www.w3.org/1999/xlink" xmlns="http://www.w3.org/2000/svg" version="1.1" width="100px" height="132px" viewBox="-54.0 -70.0 108.0 140.25"><defs><g id="c1"><path fill="#bfb5ae" fill-opacity="0.0" d="M5.35 66.25 L-5.0 66.25 -5.0 58.65 5.35 58.65 5.35 66.25"/><path fill="#000000" stroke="none" d="M0.45 -50.05 L9.9 -9.5 0.45 -0.15 0.45 -50.05 M50.0 -0.15 L10.1 10.1 0.45 -0.15 50.0 -0.15 M0.45 49.75 L-8.7 9.0 0.45 -0.15 0.45 49.75 M-50.0 -0.15 L-8.8 -9.65 0.45 -0.15 -50.0 -0.15"/><path fill="#aeaeae" stroke="none" d="M0.45 -50.05 L0.45 -0.15 9.9 -9.5 50.0 -0.15 0.45 -0.15 10.1 10.1 0.45 49.75 0.45 -0.15 -8.7 9.0 -50.0 -0.15 0.45 -0.15 -8.8 -9.65 0.45 -50.05"/><path fill="#000000" stroke="none" d="M3.5 -52.65 L-3.25 -62.95 -3.25 -52.65 -5.0 -52.65 -5.0 -66.0 -3.15 -66.0 3.6 -55.65 3.6 -66.0 5.35 -66.0 5.35 -52.65 3.5 -52.65"/></g></defs><g><g><use transform="matrix(1.0,0.0,0.0,1.0,0.0,0.0)" xlink:href="#c1"/></g></g></svg>