<?xml version='1.0' encoding='UTF-8'?>
<svg xmlns:xlink="http://www.w3.org/1999/xlink" xmlns="http://www.w3.org/2000/svg" version="1.1" width="290px" height="259px" viewBox="-148.9 -133.0 298.4 266.7"><defs><g id="c1"><path fill="#ffffff" stroke="none" d="M245.8 3.3 Q257.15 3.3 265.15 11.25 268.75 14.9 270.8 19.15 273.2 24.4 273.2 30.6 273.2 35.15 271.9 39.15 277.7 41.05 282.35 45.7 285.95 49.35 287.95 53.6 290.4 58.85 290.4 65.05 290.4 68.55 289.65 71.7 L287.15 71.0 288.65 74.85 Q286.65 80.05 282.35 84.3 278.1 88.65 272.9 90.6 277.4 93.55 280.3 98.55 282.5 102.55 283.25 106.6 L283.45 107.85 Q283.95 112.25 282.7 116.9 281.5 121.4 279.0 124.85 276.1 128.85 271.5 131.45 L269.0 132.8 268.4 131.55 268.4 133.05 Q265.95 134.05 263.45 134.5 L263.6 138.0 Q263.6 144.85 261.0 150.6 258.75 155.3 254.8 159.3 250.6 163.5 245.55 165.75 L242.1 166.95 242.15 169.4 Q242.15 179.15 235.25 186.0 228.35 192.95 218.6 192.95 208.85 192.95 201.95 186.0 195.1 179.15 195.1 169.4 195.1 168.15 195.25 167.0 187.05 171.65 177.05 171.65 161.85 171.65 151.05 160.9 147.8 157.65 145.65 154.05 L144.0 151.15 Q141.35 156.45 136.9 160.9 126.15 171.65 110.95 171.65 95.75 171.65 84.95 160.9 L84.1 160.0 Q82.35 162.7 79.95 165.1 71.95 173.1 60.65 173.1 L56.95 172.9 52.3 171.9 52.45 171.45 51.25 171.55 Q45.8 169.55 41.3 165.1 35.85 159.6 34.1 152.65 30.75 153.9 27.35 153.9 20.5 153.9 14.9 151.0 11.2 149.05 8.05 145.9 L5.55 143.1 Q0.05 136.0 0.0 126.55 0.05 119.7 2.95 114.1 4.9 110.35 8.05 107.2 12.0 103.25 16.85 101.3 14.1 99.5 11.65 97.0 8.85 94.2 7.0 91.15 L5.55 88.65 Q2.4 82.2 2.4 74.6 2.4 66.9 5.55 60.55 L7.0 58.05 Q8.35 55.8 10.2 53.7 L13.45 52.2 12.9 50.95 Q17.25 47.05 22.3 45.1 19.45 38.95 19.45 31.75 19.45 18.6 28.75 9.25 37.4 0.7 49.2 0.0 62.95 0.75 72.9 10.7 76.1 13.95 78.4 17.55 80.55 13.95 83.8 10.7 91.05 3.5 100.3 1.1 L104.9 0.8 Q117.8 0.8 126.9 9.95 130.7 13.7 132.95 18.2 L134.35 15.75 Q135.5 13.8 137.0 12.05 L138.9 9.95 Q148.1 0.8 161.0 0.8 L161.7 2.7 Q163.85 1.8 166.15 1.2 175.55 2.65 182.7 9.65 186.8 5.6 191.75 3.45 195.55 1.7 199.85 1.1 L204.45 0.8 Q211.75 0.8 217.85 3.75 L216.8 5.85 Q218.3 5.25 219.85 4.8 223.35 6.85 226.45 9.95 L227.15 10.7 Q231.05 7.0 235.65 5.2 L238.8 4.2 Q242.1 3.3 245.8 3.3 M172.85 192.65 Q178.8 186.8 187.1 186.8 195.45 186.8 201.3 192.65 207.15 198.6 207.15 206.95 207.15 215.25 201.3 221.1 195.45 227.0 187.1 227.0 178.8 227.0 172.85 221.1 167.0 215.25 167.0 206.95 167.0 198.6 172.85 192.65 M183.8 245.85 Q183.8 251.15 180.05 254.85 176.25 258.65 170.95 258.65 165.7 258.65 161.95 254.85 158.15 251.15 158.15 245.85 158.15 240.6 161.95 236.8 165.7 233.05 170.95 233.05 176.25 233.05 180.05 236.8 183.8 240.6 183.8 245.85"/></g><g id="c2"><g><use transform="matrix(1.0,0.0,0.0,1.0,0.0,0.0)" xlink:href="#c1"/></g></g><g id="c3"><path fill="#ffffff" stroke="none" d="M100.65 36.8 Q105.7 34.55 109.9 30.35 113.85 26.35 116.1 21.65 118.7 15.9 118.7 9.05 L118.55 5.55 Q121.05 5.1 123.5 4.1 123.2 11.6 120.3 18.0 117.55 23.75 112.7 28.65 107.25 34.1 100.65 36.8"/><path fill="none" stroke="#000000" stroke-width="2.0" d="M-66.65 -113.2 L-66.35 -113.7 Q-68.5 -116.9 -71.25 -119.7 -80.5 -129.0 -93.65 -129.0 L-95.7 -128.95 Q-107.5 -128.25 -116.15 -119.7 -125.45 -110.35 -125.45 -97.2 -125.45 -90.0 -122.6 -83.85 -127.65 -81.9 -132.0 -78.0 L-133.25 -76.85 -134.7 -75.25 Q-136.55 -73.15 -137.9 -70.9 L-139.35 -68.4 Q-142.5 -62.05 -142.5 -54.35 -142.5 -46.75 -139.35 -40.3 L-137.9 -37.8 Q-136.05 -34.75 -133.25 -31.95 -130.8 -29.45 -128.05 -27.65 -132.9 -25.7 -136.85 -21.75 -140.0 -18.6 -141.95 -14.85 -144.85 -9.25 -144.9 -2.4 -144.85 7.05 -139.35 14.15 L-136.85 16.95 Q-133.7 20.1 -130.0 22.05 -124.4 24.95 -117.55 24.95 -114.15 24.95 -110.8 23.7 -109.05 30.65 -103.6 36.15 -99.1 40.6 -93.65 42.6 L-92.6 42.95 -87.95 43.95 -84.25 44.15 Q-72.95 44.15 -64.95 36.15 -62.55 33.75 -60.8 31.05 L-59.95 31.95 Q-49.15 42.7 -33.95 42.7 -18.75 42.7 -8.0 31.95 -3.55 27.5 -0.9 22.2 L0.75 25.1 Q2.9 28.7 6.15 31.95 16.95 42.7 32.15 42.7 42.15 42.7 50.35 38.05 50.2 39.2 50.2 40.45 50.2 50.2 57.05 57.05 63.95 64.0 73.7 64.0 83.45 64.0 90.35 57.05 97.25 50.2 97.25 40.45 L97.2 38.0 100.65 36.8 Q105.7 34.55 109.9 30.35 113.85 26.35 116.1 21.65 118.7 15.9 118.7 9.05 L118.55 5.55 Q121.05 5.1 123.5 4.1 L124.1 3.85 126.6 2.5 Q131.2 -0.1 134.1 -4.1 136.6 -7.55 137.8 -12.05 139.05 -16.7 138.55 -21.1 L138.35 -22.35 Q137.6 -26.4 135.4 -30.4 132.5 -35.4 128.0 -38.35 133.2 -40.3 137.45 -44.65 141.75 -48.9 143.75 -54.1 L144.75 -57.25 Q145.5 -60.4 145.5 -63.9 145.5 -70.1 143.05 -75.35 141.05 -79.6 137.45 -83.25 132.8 -87.9 127.0 -89.8 128.3 -93.8 128.3 -98.35 128.3 -104.55 125.9 -109.8 123.85 -114.05 120.25 -117.7 112.25 -125.65 100.9 -125.65 97.2 -125.65 93.9 -124.75 L90.75 -123.75 Q86.15 -121.95 82.25 -118.25 L81.55 -119.0 Q78.45 -122.1 74.95 -124.15 L72.95 -125.2 Q66.85 -128.15 59.55 -128.15 L54.95 -127.85 Q50.65 -127.25 46.85 -125.5 41.9 -123.35 37.8 -119.3 30.65 -126.3 21.25 -127.75 L16.1 -128.15 Q3.2 -128.15 -6.0 -119.0 L-7.9 -116.9 -10.55 -113.2 -11.95 -110.75 Q-14.2 -115.25 -18.0 -119.0 -27.1 -128.15 -40.0 -128.15 L-44.6 -127.85 Q-54.6 -126.45 -62.1 -119.0 -64.6 -116.5 -66.35 -113.7 M27.95 63.7 Q33.9 57.85 42.2 57.85 50.55 57.85 56.4 63.7 62.25 69.65 62.25 78.0 62.25 86.3 56.4 92.15 50.55 98.05 42.2 98.05 33.9 98.05 27.95 92.15 22.1 86.3 22.1 78.0 22.1 69.65 27.95 63.7 M13.25 116.9 Q13.25 111.65 17.05 107.85 20.8 104.1 26.05 104.1 31.35 104.1 35.15 107.85 38.9 111.65 38.9 116.9 38.9 122.2 35.15 125.9 31.35 129.7 26.05 129.7 20.8 129.7 17.05 125.9 13.25 122.2 13.25 116.9"/></g></defs><g><g><use transform="matrix(1.0,0.0,0.0,1.0,-144.9,-128.95)" xlink:href="#c2"/></g><g><use transform="matrix(1.0,0.0,0.0,1.0,0.0,0.0)" xlink:href="#c3"/></g></g></svg>