<?xml version='1.0' encoding='UTF-8'?>
<svg xmlns:xlink="http://www.w3.org/1999/xlink" xmlns="http://www.w3.org/2000/svg" version="1.1" width="40px" height="40px" viewBox="-24.0 -24.0 48.0 48.0"><defs><g id="c1"><path fill="#000000" stroke="none" d="M17.1 2.9 Q20.0 5.85 20.0 10.0 20.0 14.15 17.1 17.05 14.2 20.0 10.0 20.0 5.9 20.0 2.9 17.05 0.0 14.15 0.0 10.0 0.0 5.85 2.9 2.9 5.9 0.0 10.0 0.0 14.2 0.0 17.1 2.9"/></g><g id="c2"><g><use transform="matrix(1.0,0.0,0.0,1.0,0.0,0.0)" xlink:href="#c1"/></g></g><g id="c3"><path fill="#ffffff" stroke="none" d="M0.05 -5.65 Q-0.8 -5.65 -1.3 -5.1 -1.85 -4.55 -1.85 -3.65 -1.85 -2.8 -1.3 -2.25 -0.75 -1.7 0.15 -1.7 0.95 -1.7 1.45 -2.25 2.0 -2.75 2.0 -3.65 2.0 -4.5 1.45 -5.05 0.9 -5.65 0.05 -5.65 M4.4 -0.3 Q5.75 0.35 6.45 1.45 7.15 2.55 7.15 3.9 7.15 5.15 6.55 6.3 L5.1 8.0 2.95 8.9 0.2 9.2 Q-2.5 9.2 -4.0 8.55 -5.4 7.9 -6.15 6.65 -6.9 5.4 -6.9 3.85 -6.9 2.35 -6.2 1.3 -5.5 0.3 -4.05 -0.3 -5.15 -0.9 -5.65 -1.65 -6.35 -2.65 -6.35 -3.95 -6.35 -6.1 -4.35 -7.5 -2.75 -8.55 -0.15 -8.55 3.3 -8.55 4.95 -7.2 6.6 -5.9 6.6 -3.9 6.6 -2.75 5.95 -1.75 5.45 -1.0 4.4 -0.3 M2.35 3.7 Q2.35 2.55 1.65 1.85 1.0 1.1 0.1 1.1 -0.8 1.1 -1.45 1.8 -2.15 2.55 -2.15 3.7 -2.15 4.85 -1.45 5.55 -0.75 6.3 0.15 6.3 1.0 6.3 1.7 5.55 2.35 4.8 2.35 3.7"/></g></defs><g><g><use transform="matrix(2.0,0.0,0.0,2.0,-20.0,-20.0)" xlink:href="#c2" class="color"/></g><g><use transform="matrix(1.0,0.0,0.0,1.0,0.0,0.0)" xlink:href="#c3"/></g></g></svg>