<?xml version='1.0' encoding='UTF-8'?>
<svg xmlns:xlink="http://www.w3.org/1999/xlink" xmlns="http://www.w3.org/2000/svg" version="1.1" width="300px" height="248px" viewBox="-154.0 -125.0 308.0 256.0"><defs><g id="c1"><path fill="#ffffff" stroke="none" d="M291.2 8.8 Q300.0 17.6 300.0 30.0 L300.0 177.7 Q300.0 190.1 291.2 198.9 282.4 207.7 270.0 207.7 L81.15 207.7 32.45 248.0 50.1 207.7 30.0 207.7 Q17.6 207.7 8.8 198.9 0.0 190.1 0.0 177.7 L0.0 30.0 Q0.0 17.6 8.8 8.8 17.6 0.0 30.0 0.0 L270.0 0.0 Q282.4 0.0 291.2 8.8"/></g><g id="c2"><g><use transform="matrix(1.0,0.0,0.0,1.0,0.0,0.0)" xlink:href="#c1"/></g></g><g id="c3"><path fill="none" stroke="#000000" stroke-width="2.0" d="M120.0 -121.0 L-120.0 -121.0 Q-132.4 -121.0 -141.2 -112.2 -150.0 -103.4 -150.0 -91.0 L-150.0 56.7 Q-150.0 69.1 -141.2 77.9 -132.4 86.7 -120.0 86.7 L-99.9 86.7 -117.55 127.0 -68.85 86.7 120.0 86.7 Q132.4 86.7 141.2 77.9 150.0 69.1 150.0 56.7 L150.0 -91.0 Q150.0 -103.4 141.2 -112.2 132.4 -121.0 120.0 -121.0"/></g></defs><g><g><use transform="matrix(1.0,0.0,0.0,1.0,-150.0,-121.0)" xlink:href="#c2" class="color"/></g><g><use transform="matrix(1.0,0.0,0.0,1.0,0.0,0.0)" xlink:href="#c3"/></g></g></svg>