<?xml version='1.0' encoding='UTF-8'?>
<svg xmlns:xlink="http://www.w3.org/1999/xlink" xmlns="http://www.w3.org/2000/svg" version="1.1" width="40px" height="40px" viewBox="-24.0 -24.0 48.0 48.0"><defs><g id="c1"><path fill="#000000" stroke="none" d="M17.1 2.9 Q20.0 5.85 20.0 10.0 20.0 14.15 17.1 17.05 14.2 20.0 10.0 20.0 5.9 20.0 2.9 17.05 0.0 14.15 0.0 10.0 0.0 5.85 2.9 2.9 5.9 0.0 10.0 0.0 14.2 0.0 17.1 2.9"/></g><g id="c2"><g><use transform="matrix(1.0,0.0,0.0,1.0,0.0,0.0)" xlink:href="#c1"/></g></g><g id="c3"><path fill="#ffffff" stroke="none" d="M2.0 -2.6 Q2.0 -4.0 1.3 -4.75 0.6 -5.55 -0.4 -5.55 -1.35 -5.55 -2.0 -4.85 -2.6 -4.15 -2.6 -2.7 -2.6 -1.3 -1.95 -0.55 -1.3 0.2 -0.35 0.2 0.65 0.2 1.35 -0.55 2.0 -1.25 2.0 -2.6 M6.1 -4.85 Q7.05 -2.9 7.05 0.25 7.05 4.85 5.1 7.05 3.15 9.2 -0.3 9.2 L-3.55 8.7 Q-4.75 8.25 -5.5 7.35 -6.3 6.45 -6.75 5.1 L-1.95 4.5 -1.35 5.9 Q-0.9 6.3 -0.25 6.3 0.85 6.3 1.5 5.1 1.95 4.25 2.2 1.45 L0.45 2.75 -1.65 3.2 Q-3.95 3.2 -5.5 1.55 -7.1 -0.1 -7.1 -2.6 -7.1 -4.3 -6.3 -5.7 -5.5 -7.1 -4.05 -7.8 -2.65 -8.55 -0.5 -8.55 2.05 -8.55 3.65 -7.65 5.2 -6.75 6.1 -4.85"/></g></defs><g><g><use transform="matrix(2.0,0.0,0.0,2.0,-20.0,-20.0)" xlink:href="#c2" class="color"/></g><g><use transform="matrix(1.0,0.0,0.0,1.0,0.0,0.0)" xlink:href="#c3"/></g></g></svg>