<?xml version='1.0' encoding='UTF-8'?>
<svg xmlns:xlink="http://www.w3.org/1999/xlink" xmlns="http://www.w3.org/2000/svg" version="1.1" width="300px" height="196px" viewBox="-154.0 -102.0 307.9 204.2"><defs><g id="c1"><path fill="#ffffff" stroke="none" d="M225.45 30.95 Q227.45 29.05 229.6 27.65 236.3 23.15 244.95 23.15 256.6 23.15 264.9 31.55 273.3 39.8 273.3 51.5 273.3 61.45 267.5 68.9 279.8 70.3 288.9 79.4 299.9 90.4 299.9 105.8 299.9 121.15 288.9 132.0 281.65 139.35 272.55 141.85 273.3 145.5 273.3 149.5 273.3 164.9 262.3 175.75 251.45 186.75 236.1 186.75 222.0 186.75 211.6 177.55 L209.7 175.75 Q207.7 173.75 206.05 171.6 203.35 179.05 197.2 185.2 186.3 196.2 170.95 196.2 156.85 196.2 146.45 187.0 L144.55 185.2 Q141.25 181.9 139.0 178.25 136.65 181.9 133.35 185.2 122.45 196.2 107.1 196.2 93.05 196.2 82.6 187.0 L80.75 185.2 Q75.55 180.0 72.8 173.75 71.75 171.4 71.15 168.8 L69.75 170.2 Q61.45 178.45 49.75 178.45 39.0 178.45 31.05 171.5 L29.65 170.2 Q25.65 166.2 23.6 161.45 21.4 156.25 21.4 150.1 L21.4 149.85 21.5 146.8 Q21.95 142.55 23.6 138.85 L24.8 136.5 Q16.3 135.45 9.65 129.65 L8.25 128.35 Q4.25 124.35 2.2 119.6 0.0 114.4 0.0 108.25 L0.1 104.95 Q0.55 100.7 2.2 97.05 4.25 92.2 8.25 88.3 16.05 80.5 26.6 80.0 21.4 71.5 21.4 60.85 21.4 45.5 32.25 34.5 43.25 23.65 58.6 23.65 72.8 23.65 83.1 32.85 84.4 20.2 93.75 10.85 104.75 0.0 120.1 0.0 135.45 0.0 146.35 10.85 151.65 16.2 154.4 22.45 157.1 16.05 162.3 10.85 173.3 0.0 188.65 0.0 204.05 0.0 214.9 10.85 223.65 19.6 225.45 30.95"/></g><g id="c2"><g><use transform="matrix(1.0,0.0,0.0,1.0,0.0,0.0)" xlink:href="#c1"/></g></g><g id="c3"><path fill="none" stroke="#000000" stroke-width="2.0" d="M-91.4 -74.35 Q-77.2 -74.35 -66.9 -65.15 -65.6 -77.8 -56.25 -87.15 -45.25 -98.0 -29.9 -98.0 -14.55 -98.0 -3.65 -87.15 1.65 -81.8 4.4 -75.55 7.1 -81.95 12.3 -87.15 23.3 -98.0 38.65 -98.0 54.05 -98.0 64.9 -87.15 73.65 -78.4 75.45 -67.05 77.45 -68.95 79.6 -70.35 86.3 -74.85 94.95 -74.85 106.6 -74.85 114.9 -66.45 123.3 -58.2 123.3 -46.5 123.3 -36.55 117.5 -29.1 129.8 -27.7 138.9 -18.6 149.9 -7.6 149.9 7.8 149.9 23.15 138.9 34.0 131.65 41.35 122.55 43.85 123.3 47.5 123.3 51.5 123.3 66.9 112.3 77.75 101.45 88.75 86.1 88.75 72.0 88.75 61.6 79.55 L59.7 77.75 Q57.7 75.75 56.05 73.6 53.35 81.05 47.2 87.2 36.3 98.2 20.95 98.2 6.85 98.2 -3.55 89.0 L-5.45 87.2 Q-8.75 83.9 -11.0 80.25 -13.35 83.9 -16.65 87.2 -27.55 98.2 -42.9 98.2 -56.95 98.2 -67.4 89.0 L-69.25 87.2 Q-74.45 82.0 -77.2 75.75 L-78.85 70.8 -80.25 72.2 Q-88.55 80.45 -100.25 80.45 -111.0 80.45 -118.95 73.5 L-120.35 72.2 Q-124.35 68.2 -126.4 63.45 -128.6 58.25 -128.6 52.1 L-128.6 51.85 -128.5 48.8 Q-128.05 44.55 -126.4 40.85 L-125.2 38.5 Q-133.7 37.45 -140.35 31.65 L-141.75 30.35 Q-145.75 26.35 -147.8 21.6 -150.0 16.4 -150.0 10.25 L-149.9 6.95 Q-149.45 2.7 -147.8 -0.95 -145.75 -5.8 -141.75 -9.7 -133.95 -17.5 -123.4 -18.0 -128.6 -26.5 -128.6 -37.15 -128.6 -52.5 -117.75 -63.5 -106.75 -74.35 -91.4 -74.35"/></g></defs><g><g><use transform="matrix(1.0,0.0,0.0,1.0,-150.0,-98.0)" xlink:href="#c2" class="color"/></g><g><use transform="matrix(1.0,0.0,0.0,1.0,0.0,0.0)" xlink:href="#c3"/></g></g></svg>