<?xml version='1.0' encoding='UTF-8'?>
<svg xmlns:xlink="http://www.w3.org/1999/xlink" xmlns="http://www.w3.org/2000/svg" version="1.1" width="74px" height="74px" viewBox="-41.0 -41.0 82.0 82.0"><defs><g id="c1"><path fill="#ff0000" stroke="none" d="M37.0 37.0 L-37.0 37.0 -37.0 -37.0 37.0 -37.0 37.0 37.0"/><path fill="#ffffff" stroke="none" d="M4.45 -29.75 L8.25 -29.75 10.45 -28.45 10.45 -25.15 7.95 -23.8 4.45 -23.8 4.45 -19.2 7.0 -19.2 Q10.8 -19.2 11.75 -16.9 13.0 -14.55 13.35 -12.25 L13.35 29.55 -12.1 29.55 -12.1 -12.25 Q-11.75 -14.55 -10.5 -16.9 -9.55 -19.2 -5.75 -19.2 L-3.2 -19.2 -3.2 -23.85 -6.4 -24.15 -9.15 -22.25 -11.1 -20.95 -15.95 -17.85 -16.25 -16.9 -16.25 -14.9 -18.45 -14.9 -18.45 -19.85 -18.3 -20.95 -17.8 -21.85 -16.85 -23.15 -6.7 -29.75 -3.2 -29.75 -3.2 -31.5 4.45 -31.5 4.45 -29.75"/></g></defs><g><g><use transform="matrix(1.0,0.0,0.0,1.0,0.0,0.0)" xlink:href="#c1"/></g></g></svg>