<?xml version='1.0' encoding='UTF-8'?>
<svg xmlns:xlink="http://www.w3.org/1999/xlink" xmlns="http://www.w3.org/2000/svg" version="1.1" width="40px" height="40px" viewBox="-24.0 -24.0 48.0 48.0"><defs><g id="c1"><path fill="#000000" stroke="none" d="M17.1 2.9 Q20.0 5.85 20.0 10.0 20.0 14.15 17.1 17.05 14.2 20.0 10.0 20.0 5.9 20.0 2.9 17.05 0.0 14.15 0.0 10.0 0.0 5.85 2.9 2.9 5.9 0.0 10.0 0.0 14.2 0.0 17.1 2.9"/></g><g id="c2"><g><use transform="matrix(1.0,0.0,0.0,1.0,0.0,0.0)" xlink:href="#c1"/></g></g><g id="c3"><path fill="#ffffff" stroke="none" d="M1.2 -5.5 Q0.7 -5.9 -0.1 -5.9 -1.0 -5.9 -1.5 -5.4 -2.1 -4.9 -2.3 -3.7 L-6.8 -4.5 Q-6.2 -6.6 -4.6 -7.8 -3.0 -8.9 0.0 -8.9 3.3 -8.9 4.8 -7.7 6.4 -6.4 6.4 -4.6 6.4 -3.4 5.7 -2.5 5.1 -1.6 3.9 -1.0 L5.4 -0.4 Q6.2 0.1 6.7 1.0 7.2 1.9 7.2 3.1 7.2 4.5 6.4 5.9 5.6 7.3 4.1 8.0 2.6 8.8 0.2 8.8 -2.1 8.8 -3.5 8.2 -4.8 7.7 -5.7 6.6 -6.6 5.6 -7.1 4.0 L-2.3 3.3 Q-2.0 4.8 -1.4 5.3 -0.8 5.9 0.1 5.9 1.1 5.9 1.8 5.2 2.4 4.5 2.4 3.3 2.4 2.1 1.8 1.5 1.2 0.8 0.1 0.8 L-1.4 1.1 -1.2 -2.3 -0.6 -2.3 Q0.4 -2.3 1.0 -2.9 1.7 -3.5 1.7 -4.2 1.7 -5.0 1.2 -5.5"/></g></defs><g><g><use transform="matrix(2.0,0.0,0.0,2.0,-20.0,-20.0)" xlink:href="#c2" class="color"/></g><g><use transform="matrix(1.0,0.0,0.0,1.0,0.0,0.0)" xlink:href="#c3"/></g></g></svg>