<?xml version='1.0' encoding='UTF-8'?>
<svg xmlns:xlink="http://www.w3.org/1999/xlink" xmlns="http://www.w3.org/2000/svg" version="1.1" width="40px" height="40px" viewBox="-24.0 -24.0 48.0 48.0"><defs><g id="c1"><path fill="#000000" stroke="none" d="M17.1 2.9 Q20.0 5.85 20.0 10.0 20.0 14.15 17.1 17.05 14.2 20.0 10.0 20.0 5.9 20.0 2.9 17.05 0.0 14.15 0.0 10.0 0.0 5.85 2.9 2.9 5.9 0.0 10.0 0.0 14.2 0.0 17.1 2.9"/></g><g id="c2"><g><use transform="matrix(1.0,0.0,0.0,1.0,0.0,0.0)" xlink:href="#c1"/></g></g><g id="c3"><path fill="#ffffff" stroke="none" d="M6.45 -4.4 L1.7 -3.85 1.05 -5.25 Q0.65 -5.65 0.0 -5.65 -1.15 -5.65 -1.75 -4.45 -2.2 -3.6 -2.45 -0.8 -1.6 -1.7 -0.7 -2.1 L1.4 -2.55 Q3.65 -2.55 5.25 -0.9 6.85 0.75 6.85 3.25 6.85 4.95 6.05 6.35 5.25 7.75 3.8 8.45 2.4 9.2 0.25 9.2 -2.35 9.2 -3.9 8.3 -5.45 7.4 -6.4 5.5 -7.3 3.6 -7.3 0.4 -7.3 -4.2 -5.35 -6.4 -3.4 -8.55 0.05 -8.55 L3.3 -8.05 Q4.5 -7.6 5.25 -6.7 6.05 -5.8 6.45 -4.4 M0.05 0.45 Q-0.95 0.45 -1.6 1.2 -2.3 1.9 -2.3 3.25 -2.3 4.65 -1.6 5.4 -0.85 6.2 0.15 6.2 1.05 6.2 1.7 5.5 2.35 4.8 2.35 3.4 2.35 1.95 1.7 1.2 1.05 0.45 0.05 0.45"/></g></defs><g><g><use transform="matrix(2.0,0.0,0.0,2.0,-20.0,-20.0)" xlink:href="#c2" class="color"/></g><g><use transform="matrix(1.0,0.0,0.0,1.0,0.0,0.0)" xlink:href="#c3"/></g></g></svg>