<?xml version='1.0' encoding='UTF-8'?>
<svg xmlns:xlink="http://www.w3.org/1999/xlink" xmlns="http://www.w3.org/2000/svg" version="1.1" width="80px" height="56px" viewBox="-44.0 -31.9 88.0 63.85"><defs><g id="c1"><path fill="#000000" fill-opacity="0.00392156862745" d="M-34.1 -27.9 L34.1 -27.9 34.1 27.95 -34.1 27.95 -34.1 -27.9"/><path fill="#6633ff" stroke="none" d="M34.1 7.45 L34.1 27.95 0.05 7.45 -34.1 27.95 -34.1 7.45 -34.1 -13.0 0.05 7.45 34.1 -13.0 34.1 7.45"/><path fill="none" stroke="#000000" stroke-width="3.0" d="M34.1 7.45 L34.1 27.95 0.05 7.45 -34.1 27.95 -34.1 7.45 -34.1 -13.0 0.05 7.45 34.1 -13.0 34.1 7.45"/><path fill="none" stroke="#000000" stroke-width="3.0" d="M-34.1 7.45 L-40.0 7.45 M34.1 7.45 L40.0 7.45"/><path fill="#000000" stroke="none" d="M14.55 -27.15 L9.2 -5.15 4.55 -5.15 0.1 -21.55 -4.2 -5.15 -9.0 -5.15 -14.25 -27.15 -9.7 -27.15 -6.45 -12.05 -2.45 -27.15 2.85 -27.15 6.7 -11.8 10.1 -27.15 14.55 -27.15"/></g></defs><g><g><use transform="matrix(1.0,0.0,0.0,1.0,0.0,0.0)" xlink:href="#c1"/></g></g></svg>