<?xml version='1.0' encoding='UTF-8'?>
<svg xmlns:xlink="http://www.w3.org/1999/xlink" xmlns="http://www.w3.org/2000/svg" version="1.1" width="74px" height="74px" viewBox="-41.1 -40.95 82.2 81.9"><defs><g id="c1"><path fill="#000000" stroke="none" d="M3.45 -34.3 L36.1 30.35 Q37.1 31.65 37.1 33.0 37.1 34.65 36.1 35.65 34.8 36.95 33.15 36.95 L-32.85 36.95 Q-34.8 36.95 -35.8 35.95 -37.1 34.65 -37.1 33.0 -37.1 31.65 -35.8 30.7 -19.3 -1.65 -3.15 -34.3 -2.15 -36.95 0.15 -36.95 2.8 -36.95 3.45 -34.3 M10.05 14.5 Q8.75 14.85 8.75 15.85 8.75 16.5 11.4 16.5 L16.35 16.85 18.65 16.85 20.6 16.85 Q21.6 17.15 21.6 18.15 21.6 19.15 19.3 19.8 17.3 20.45 17.3 20.8 17.3 21.1 17.65 21.8 L18.95 22.45 Q19.95 22.45 19.95 23.45 L18.65 24.4 11.7 25.05 Q6.1 25.4 -1.15 25.4 -3.15 25.4 -3.15 24.75 -3.15 23.75 -2.15 23.45 -1.5 23.1 -1.8 22.75 -1.8 22.1 -3.15 22.1 -11.7 22.45 -20.3 22.45 -22.6 22.45 -22.6 21.45 -22.6 20.8 -21.6 20.45 L-17.65 18.5 Q-16.65 18.15 -16.65 17.8 -16.65 17.15 -17.65 17.15 -18.65 16.85 -18.65 16.15 -18.65 15.5 -18.0 15.2 L-14.35 14.85 -9.1 14.85 Q-8.1 14.85 -7.75 14.2 -7.1 13.85 -7.75 13.2 L-8.1 12.2 -7.75 11.9 Q-7.1 11.55 -5.1 11.55 L-1.5 11.55 0.15 11.55 5.1 11.55 9.75 12.2 Q11.7 12.55 11.7 13.2 11.7 14.5 10.05 14.5 M0.15 -32.65 Q-16.35 0.35 -33.15 33.0 L33.15 33.0 0.15 -32.65"/><path fill="#ffe600" stroke="none" d="M0.15 -32.65 L33.15 33.0 -33.15 33.0 Q-16.35 0.35 0.15 -32.65 M10.05 14.5 Q11.7 14.5 11.7 13.2 11.7 12.55 9.75 12.2 L5.1 11.55 0.15 11.55 -1.5 11.55 -5.1 11.55 Q-7.1 11.55 -7.75 11.9 L-8.1 12.2 -7.75 13.2 Q-7.1 13.85 -7.75 14.2 -8.1 14.85 -9.1 14.85 L-14.35 14.85 -18.0 15.2 Q-18.65 15.5 -18.65 16.15 -18.65 16.85 -17.65 17.15 -16.65 17.15 -16.65 17.8 -16.65 18.15 -17.65 18.5 L-21.6 20.45 Q-22.6 20.8 -22.6 21.45 -22.6 22.45 -20.3 22.45 -11.7 22.45 -3.15 22.1 -1.8 22.1 -1.8 22.75 -1.5 23.1 -2.15 23.45 -3.15 23.75 -3.15 24.75 -3.15 25.4 -1.15 25.4 6.1 25.4 11.7 25.05 L18.65 24.4 19.95 23.45 Q19.95 22.45 18.95 22.45 L17.65 21.8 Q17.3 21.1 17.3 20.8 17.3 20.45 19.3 19.8 21.6 19.15 21.6 18.15 21.6 17.15 20.6 16.85 L18.65 16.85 16.35 16.85 11.4 16.5 Q8.75 16.5 8.75 15.85 8.75 14.85 10.05 14.5"/></g></defs><g><g><use transform="matrix(1.0,0.0,0.0,1.0,0.0,0.0)" xlink:href="#c1"/></g></g></svg>