<?xml version='1.0' encoding='UTF-8'?>
<svg xmlns:xlink="http://www.w3.org/1999/xlink" xmlns="http://www.w3.org/2000/svg" version="1.1" width="150px" height="127px" viewBox="-79.0396606445 -81.5095489504 157.974206543 135.152693177"><defs><g id="c1"><path fill="#ffff00" stroke="none" d="M11.05 -7.25 Q9.05 -5.2 7.7 -5.05 5.5 -6.55 3.6 -9.3 3.65 -11.25 5.8 -12.7 15.55 -17.7 32.15 -32.9 16.4 -16.85 11.05 -7.25"/><path fill="none" stroke="#ffff99" stroke-width="2.0" d="M32.15 -32.9 Q16.4 -16.85 11.05 -7.25"/><path fill="none" stroke="#ffff99" stroke-width="2.0" d="M5.8 -12.7 Q15.55 -17.7 32.15 -32.9"/><path fill="#ffff00" stroke="none" d="M13.05 1.0 Q10.15 0.95 9.15 0.15 8.6 -2.5 9.25 -5.8 10.7 -7.1 13.15 -6.6 23.6 -3.25 46.1 -2.3 23.6 -2.05 13.05 1.0"/><path fill="none" stroke="#ffff99" stroke-width="2.0" d="M46.1 -2.3 Q23.6 -2.05 13.05 1.0"/><path fill="none" stroke="#ffff99" stroke-width="2.0" d="M13.15 -6.6 Q23.6 -3.25 46.1 -2.3"/><path fill="#ffff00" stroke="none" d="M13.85 -3.45 Q11.15 -2.5 9.9 -3.0 8.5 -5.3 8.05 -8.65 9.05 -10.35 11.45 -10.65 22.45 -10.85 44.0 -17.35 22.85 -9.75 13.85 -3.45"/><path fill="none" stroke="#ffff99" stroke-width="2.0" d="M44.0 -17.35 Q22.85 -9.75 13.85 -3.45"/><path fill="none" stroke="#ffff99" stroke-width="2.0" d="M11.45 -10.65 Q22.45 -10.85 44.0 -17.35"/><path fill="#ffff00" stroke="none" d="M8.75 -14.2 Q8.05 -11.45 6.95 -10.65 4.3 -10.85 1.25 -12.3 0.35 -14.05 1.45 -16.3 7.45 -25.5 14.2 -47.0 8.6 -25.2 8.75 -14.2"/><path fill="none" stroke="#ffff99" stroke-width="2.0" d="M14.2 -47.0 Q8.6 -25.2 8.75 -14.2"/><path fill="none" stroke="#ffff99" stroke-width="2.0" d="M1.45 -16.3 Q7.45 -25.5 14.2 -47.0"/><path fill="#ffff00" stroke="none" d="M-6.45 -13.35 Q-4.2 -11.55 -3.95 -10.25 -5.15 -7.9 -7.7 -5.7 -9.65 -5.55 -11.25 -7.5 -17.35 -16.65 -34.3 -31.4 -16.6 -17.55 -6.45 -13.35"/><path fill="none" stroke="#ffff99" stroke-width="2.0" d="M-34.3 -31.4 Q-16.6 -17.55 -6.45 -13.35"/><path fill="none" stroke="#ffff99" stroke-width="2.0" d="M-11.25 -7.5 Q-17.35 -16.65 -34.3 -31.4"/><path fill="#ffff00" stroke="none" d="M-11.6 -6.8 Q-8.75 -7.15 -7.6 -6.4 -6.8 -3.85 -7.05 -0.5 -8.35 0.95 -10.85 0.75 -21.55 -1.45 -44.05 0.1 -21.7 -2.6 -11.6 -6.8"/><path fill="none" stroke="#ffff99" stroke-width="2.0" d="M-44.05 0.1 Q-21.7 -2.6 -11.6 -6.8"/><path fill="none" stroke="#ffff99" stroke-width="2.0" d="M-10.85 0.75 Q-21.55 -1.45 -44.05 0.1"/><path fill="#ffff00" stroke="none" d="M3.05 -16.0 Q3.1 -13.15 2.3 -12.05 -0.35 -11.5 -3.65 -12.05 -4.95 -13.5 -4.5 -15.95 -1.35 -26.45 -0.85 -48.9 -0.15 -26.45 3.05 -16.0"/><path fill="none" stroke="#ffff99" stroke-width="2.0" d="M-0.85 -48.9 Q-0.15 -26.45 3.05 -16.0"/><path fill="none" stroke="#ffff99" stroke-width="2.0" d="M-4.5 -15.95 Q-1.35 -26.45 -0.85 -48.9"/><path fill="#ffff00" stroke="none" d="M-2.95 -16.65 Q-1.7 -14.1 -2.05 -12.8 -4.2 -11.2 -7.45 -10.3 -9.2 -11.15 -9.85 -13.5 -11.3 -24.4 -20.05 -45.05 -10.2 -24.9 -2.95 -16.65"/><path fill="none" stroke="#ffff99" stroke-width="2.0" d="M-20.05 -45.05 Q-10.2 -24.9 -2.95 -16.65"/><path fill="none" stroke="#ffff99" stroke-width="2.0" d="M-9.85 -13.5 Q-11.3 -24.4 -20.05 -45.05"/><path fill="#ffff00" stroke="none" d="M-13.2 -10.5 Q-10.4 -10.1 -9.5 -9.05 -9.35 -6.4 -10.5 -3.2 -12.1 -2.15 -14.45 -3.0 -24.25 -7.9 -46.35 -12.15 -24.05 -9.1 -13.2 -10.5"/><path fill="none" stroke="#ffff99" stroke-width="2.0" d="M-46.35 -12.15 Q-24.05 -9.1 -13.2 -10.5"/><path fill="none" stroke="#ffff99" stroke-width="2.0" d="M-14.45 -3.0 Q-24.25 -7.9 -46.35 -12.15"/></g><g id="c4"><path fill="#000000" stroke="none" d="M6.25 -6.25 L-0.05 0.05 0.0 -29.25 6.25 -6.25 M-6.35 -6.3 L-0.05 0.05 29.25 0.1 6.2 6.35 -0.05 0.05 -29.35 -0.05 -6.35 -6.3 M-0.15 29.4 L-6.4 6.3 -0.05 0.05 -0.15 29.4"/><path fill="#999999" stroke="none" d="M0.0 -29.25 L-0.05 0.05 6.25 -6.25 29.25 0.1 -0.05 0.05 -6.35 -6.3 0.0 -29.25 M-29.35 -0.05 L-0.05 0.05 6.2 6.35 -0.15 29.4 -0.05 0.05 -6.4 6.3 -29.35 -0.05"/></g><g id="c8"><g><use transform="matrix(1.0,0.0,0.0,1.0,0.0,0.0)" xlink:href="#c1"/></g><g><use transform="matrix(0.484619140625,0.00111389160156,-0.00111389160156,0.484619140625,-3.05,28.8)" xlink:href="#c3"/></g><g><use transform="matrix(1.0,0.0,0.0,1.0,0.0,0.0)" xlink:href="#c4"/></g><g><use transform="matrix(0.484619140625,0.00111389160156,-0.00111389160156,0.484619140625,-44.3,-5.95)" xlink:href="#c5"/></g><g><use transform="matrix(0.484619140625,0.00111389160156,-0.00111389160156,0.484619140625,34.0,-7.4)" xlink:href="#c6"/></g><g><use transform="matrix(0.484619140625,0.00111389160156,-0.00111389160156,0.484619140625,-4.25,-43.75)" xlink:href="#c7"/></g></g><filter id="filter7"><feGaussianBlur in="SourceAlpha" stdDeviation="1" result="blur-out"/><feOffset in="blur-out" dx="0" dy="0" result="the-shadow"/><feBlend in="SourceGraphic" in2="the-shadow" mode="normal" result="offsetBlur"/></filter></defs><g><g><use transform="matrix(1.62222290039,3.0517578125e-05,-3.0517578125e-05,1.62391662598,0.15,1.9)" filter="url(#filter7)" xlink:href="#c8"/></g></g></svg>