<?xml version='1.0' encoding='UTF-8'?>
<svg xmlns:xlink="http://www.w3.org/1999/xlink" xmlns="http://www.w3.org/2000/svg" version="1.1" width="384px" height="42px" viewBox="-195.65 -25.0 391.95 49.9"><defs><g id="c1"><path fill="#d10d25" fill-opacity="0.0" d="M-191.0 -21.0 L192.3 -21.0 192.3 20.9 -191.0 20.9 -191.0 -21.0"/><path fill="#d10d25" stroke="none" d="M-155.65 -1.3 Q-155.65 6.15 -160.95 11.4 -166.2 16.7 -173.65 16.7 -181.1 16.7 -186.4 11.4 -191.65 6.15 -191.65 -1.3 -191.65 -8.75 -186.4 -14.05 -181.1 -19.3 -173.65 -19.3 -166.2 -19.3 -160.95 -14.05 -155.65 -8.75 -155.65 -1.3"/><path fill="none" stroke="#d20e22" stroke-width="4.0" d="M-155.65 -1.3 Q-155.65 6.15 -160.95 11.4 -166.2 16.7 -173.65 16.7 -181.1 16.7 -186.4 11.4 -191.65 6.15 -191.65 -1.3 -191.65 -8.75 -186.4 -14.05 -181.1 -19.3 -173.65 -19.3 -166.2 -19.3 -160.95 -14.05 -155.65 -8.75 -155.65 -1.3 L-101.25 -1.3"/><path fill="#000000" stroke="none" d="M-18.55 -0.35 L-18.55 -10.4 -12.25 -10.4 -12.25 13.45 -18.1 13.45 -18.1 9.9 Q-19.4 11.8 -21.5 12.9 -23.65 14.0 -26.0 14.0 -28.4 14.0 -30.3 12.95 -32.25 11.9 -33.1 9.95 -33.95 8.05 -33.95 4.7 L-33.95 -10.4 -27.6 -10.4 -27.6 0.55 Q-27.6 5.6 -27.25 6.75 -26.95 7.85 -26.0 8.55 -25.1 9.2 -23.65 9.2 -22.05 9.2 -20.75 8.3 -19.5 7.4 -19.0 6.1 -18.55 4.8 -18.55 -0.35 M-50.05 -10.95 Q-44.65 -10.95 -41.2 -7.4 -37.75 -3.9 -37.75 1.45 -37.75 6.85 -41.2 10.45 -44.75 14.0 -50.05 14.0 -53.3 14.0 -56.25 12.5 -59.25 11.0 -60.8 8.15 -62.35 5.3 -62.35 1.2 -62.35 -1.95 -60.8 -4.9 -59.25 -7.85 -56.4 -9.4 -53.6 -10.95 -50.05 -10.95 M-50.05 -5.8 Q-52.5 -5.8 -54.2 -3.9 -55.9 -2.05 -55.9 1.5 -55.9 5.05 -54.2 6.95 -52.5 8.85 -50.05 8.85 -47.6 8.85 -45.9 6.95 -44.25 5.05 -44.25 1.5 -44.25 -2.05 -45.9 -3.9 -47.6 -5.8 -50.05 -5.8 M-90.5 -19.5 L-82.7 -19.5 -74.95 -6.45 -67.4 -19.5 -59.7 -19.5 -71.85 -0.35 -71.85 13.45 -78.45 13.45 -78.45 -0.4 -90.5 -19.5 M11.85 0.4 L20.85 0.4 16.3 -11.8 11.85 0.4 M163.8 -7.55 Q166.9 -10.95 171.65 -10.95 176.95 -10.95 180.05 -7.4 183.15 -3.9 183.0 3.35 L167.2 3.35 Q167.25 6.15 168.7 7.7 170.15 9.25 172.35 9.25 173.85 9.25 174.85 8.45 175.85 7.65 176.35 5.85 L182.65 6.9 Q181.45 10.35 178.85 12.2 176.2 14.0 172.3 14.0 166.05 14.0 163.05 9.9 160.7 6.65 160.7 1.7 160.7 -4.25 163.8 -7.55 M176.7 -0.5 Q176.65 -3.25 175.3 -4.7 173.95 -6.1 172.05 -6.1 169.95 -6.1 168.6 -4.6 167.25 -3.1 167.3 -0.5 L176.7 -0.5 M145.4 -10.4 L151.25 -10.4 151.25 -7.0 Q152.75 -9.4 153.95 -10.2 155.15 -10.95 156.7 -10.95 158.85 -10.95 160.85 -9.75 L158.9 -4.25 Q157.3 -5.3 155.9 -5.3 154.6 -5.3 153.65 -4.55 152.75 -3.8 152.25 -1.9 151.7 0.0 151.7 6.1 L151.7 13.45 145.4 13.45 145.4 -10.4 M130.55 -6.1 Q128.45 -6.1 127.1 -4.6 125.75 -3.1 125.8 -0.5 L135.2 -0.5 Q135.15 -3.25 133.8 -4.7 132.45 -6.1 130.55 -6.1 M122.3 -7.55 Q125.4 -10.95 130.15 -10.95 135.45 -10.95 138.55 -7.4 141.65 -3.9 141.5 3.35 L125.7 3.35 Q125.75 6.15 127.2 7.7 128.65 9.25 130.85 9.25 132.35 9.25 133.35 8.45 134.35 7.65 134.85 5.85 L141.15 6.9 Q139.95 10.35 137.35 12.2 134.7 14.0 130.8 14.0 124.55 14.0 121.55 9.9 119.2 6.65 119.2 1.7 119.2 -4.25 122.3 -7.55 M108.6 -0.95 L95.55 -0.95 95.55 13.45 88.9 13.45 88.9 -19.5 95.55 -19.5 95.55 -6.5 108.6 -6.5 108.6 -19.5 115.25 -19.5 115.25 13.45 108.6 13.45 108.6 -0.95 M61.6 -10.95 Q66.9 -10.95 70.0 -7.4 73.1 -3.9 72.95 3.35 L57.15 3.35 Q57.2 6.15 58.65 7.7 60.1 9.25 62.3 9.25 63.8 9.25 64.8 8.45 65.8 7.65 66.3 5.85 L72.6 6.9 Q71.4 10.35 68.8 12.2 66.15 14.0 62.25 14.0 56.0 14.0 53.0 9.9 50.65 6.65 50.65 1.7 50.65 -4.25 53.75 -7.55 56.85 -10.95 61.6 -10.95 M58.55 -4.6 Q57.2 -3.1 57.25 -0.5 L66.65 -0.5 Q66.6 -3.25 65.25 -4.7 63.9 -6.1 62.0 -6.1 59.9 -6.1 58.55 -4.6 M43.6 -4.55 Q42.7 -3.8 42.2 -1.9 41.65 0.0 41.65 6.1 L41.65 13.45 35.35 13.45 35.35 -10.4 41.2 -10.4 41.2 -7.0 Q42.7 -9.4 43.9 -10.2 45.1 -10.95 46.65 -10.95 48.8 -10.95 50.8 -9.75 L48.85 -4.25 Q47.25 -5.3 45.85 -5.3 44.55 -5.3 43.6 -4.55 M12.9 -19.5 L19.9 -19.5 33.1 13.45 25.85 13.45 23.0 5.95 9.8 5.95 7.1 13.45 0.05 13.45 12.9 -19.5"/></g></defs><g><g><use transform="matrix(1.0,0.0,0.0,1.0,0.0,0.0)" xlink:href="#c1"/></g></g></svg>