<svg width="985" height="424" viewBox="0 0 985 424" fill="none" xmlns="http://www.w3.org/2000/svg">
<path d="M460.635 159.369C450.365 165.965 436.836 169.79 414.716 168.293C340.062 163.194 272.023 138.583 194.308 147.396C154.413 151.942 122.221 165.854 99.9033 184.7C-5.26479 273.831 71.9572 350.435 116.394 372.662C161.918 395.443 233.314 379.258 278.343 364.403C333.841 346.111 387.955 323.607 453.327 318.563C522.353 313.241 677.686 294.562 742.07 275.549C787.495 262.135 847.337 231.039 847.337 202.216C847.337 173.393 789.964 147.452 753.525 127.165C717.087 106.877 833.611 10.8734 784.335 2.66986C718.074 -8.36061 649.345 25.0634 605.994 48.7872C562.05 72.8436 524.229 100.17 492.037 129.493C480.187 140.357 472.583 151.72 460.635 159.369Z" stroke="url(#paint0_linear_1_32)" stroke-opacity="0.4" stroke-miterlimit="10"/>
<path d="M106.125 376.764C154.611 401.042 230.747 383.748 278.739 367.95C337.89 348.495 395.559 324.438 465.276 319.117C538.845 313.463 689.833 299.772 758.463 279.485C806.949 265.184 864.421 232.425 864.421 201.662C864.421 174.169 813.269 149.336 780.089 129.326C745.922 108.706 844.672 22.0146 797.667 12.3699C732.591 -0.933236 663.368 25.3958 616.165 44.7407C568.766 64.141 527.291 87.9758 491.544 114.748C478.311 124.67 469.029 135.202 456.093 142.629C445.132 149.004 431.405 152.995 410.174 152.607C378.179 151.997 347.567 148.948 317.35 146.565C291.576 144.514 266 143.017 239.733 144.292C226.994 144.902 214.058 146.398 200.529 148.782C163.794 155.323 132.886 169.845 109.779 189.356C75.6112 218.346 56.9476 246.172 49.9364 271.669C36.704 319.449 71.76 359.58 106.125 376.764Z" stroke="url(#paint1_linear_1_32)" stroke-opacity="0.4" stroke-miterlimit="10"/>
<path d="M95.8547 380.921C147.303 406.695 228.179 388.348 279.134 371.553C341.938 350.878 403.163 325.38 477.225 319.671C555.336 313.685 702.077 304.982 774.954 283.476C826.403 268.288 881.604 233.811 881.604 201.218C881.604 175 836.574 151.276 806.752 131.599C774.856 110.591 855.929 33.1558 811.097 22.2362C747.206 6.6051 677.587 25.95 626.534 40.8605C575.777 55.7156 530.55 75.892 491.247 100.115C476.731 109.039 465.77 118.739 451.748 126C439.996 132.153 425.974 136.366 405.73 137.086C374.526 138.195 344.999 137.973 316.165 138.527C291.773 138.971 267.975 139.913 243.386 143.128C231.734 144.68 219.686 147.119 206.948 150.334C173.472 158.704 143.748 174.058 119.851 194.123C86.3747 222.281 64.1561 249.553 52.3062 275.272C31.5688 319.948 56.7499 361.354 95.8547 380.921Z" stroke="url(#paint2_linear_1_32)" stroke-opacity="0.4" stroke-miterlimit="10"/>
<path d="M85.5846 385.078C140.094 412.349 225.611 392.949 279.627 375.212C346.085 353.317 410.964 326.323 489.272 320.336C571.925 313.962 714.322 310.304 791.445 287.577C845.856 271.503 898.786 235.363 898.786 200.83C898.786 175.942 859.977 153.216 833.414 133.871C803.888 112.476 867.087 44.2973 824.526 32.0473C761.82 14.0327 691.906 26.449 636.804 36.9251C582.689 47.1796 533.709 63.753 490.753 85.426C474.953 93.4078 462.314 102.221 447.304 109.316C434.762 115.247 420.543 119.681 401.286 121.455C370.872 124.282 342.432 126.887 314.881 130.379C291.971 133.317 269.851 136.643 246.941 141.853C236.276 144.292 225.315 147.673 213.169 151.72C182.951 161.863 154.413 178.049 129.726 198.724C97.1383 226.106 71.5622 252.768 54.4785 278.764C27.3224 320.447 41.7398 363.128 85.5846 385.078Z" stroke="url(#paint3_linear_1_32)" stroke-opacity="0.4" stroke-miterlimit="10"/>
<path d="M75.3134 389.235C132.786 418.003 223.043 397.549 280.021 378.814C350.232 355.755 418.566 327.265 501.22 320.89C588.415 314.183 726.566 315.514 807.837 291.513C865.309 274.551 915.868 236.693 915.967 200.276C915.967 176.718 883.479 154.934 859.976 136.033C832.919 114.194 878.344 55.272 837.758 41.7472C776.237 21.2383 706.125 26.8921 646.974 32.8785C589.699 38.6432 536.868 51.5583 490.357 70.6815C473.274 77.6656 458.955 85.6474 442.957 92.5761C429.725 98.2854 415.209 102.941 396.841 105.824C367.118 110.48 339.962 115.746 313.694 122.231C292.167 127.552 271.726 133.372 250.692 140.634C241.015 143.959 231.041 148.283 219.685 153.216C192.628 165.022 165.373 182.206 139.896 203.435C108.098 230.041 79.6584 256.093 57.0448 282.367C23.6675 321.001 26.63 364.846 75.3134 389.235Z" stroke="url(#paint4_linear_1_32)" stroke-opacity="0.4" stroke-miterlimit="10"/>
<path d="M65.0442 393.392C125.479 423.657 220.476 402.15 280.417 382.417C354.281 358.139 426.171 328.152 513.07 321.5C604.808 314.461 738.614 320.835 824.229 295.559C884.664 277.711 932.952 238.19 933.051 199.833C933.051 177.605 906.883 156.764 886.54 138.306C861.952 115.968 889.503 66.3028 851.089 51.614C790.852 28.5553 720.444 27.613 657.244 28.9988C596.81 30.3291 540.127 39.5304 489.864 56.1038C471.595 62.1456 455.499 69.2406 438.416 75.9476C424.492 81.4351 409.679 86.3683 392.3 90.2484C363.366 96.7336 337.197 104.605 312.411 114.138C292.365 121.843 273.603 130.047 254.248 139.414C245.558 143.572 236.473 148.782 225.907 154.657C201.911 168.016 176.137 186.252 149.771 208.147C118.764 233.977 87.8553 259.586 59.2179 286.025C20.6069 321.722 11.6207 366.62 65.0442 393.392Z" stroke="url(#paint5_linear_1_32)" stroke-opacity="0.4" stroke-miterlimit="10"/>
<path d="M54.8725 397.494C118.27 429.255 217.908 406.695 280.811 386.02C358.329 360.523 433.774 329.094 525.018 322.055C621.299 314.627 750.759 326.045 840.621 299.55C904.018 280.815 950.134 239.575 950.134 199.389C950.134 178.437 930.385 158.593 913.103 140.578C891.082 117.741 900.76 77.2778 864.42 61.4249C805.565 35.761 734.663 28.278 667.415 25.0631C603.722 22.0145 543.188 27.4466 489.37 41.4148C469.817 46.5143 452.043 52.7779 433.971 59.2631C419.258 64.5289 404.248 69.7393 387.855 74.6171C359.712 82.987 334.629 93.3523 311.127 105.99C292.464 116.078 275.281 126.721 257.802 138.139C250.1 143.183 241.904 149.281 232.226 156.099C211.094 170.954 186.9 190.354 159.646 212.803C129.428 237.857 96.3472 263.188 61.4887 289.573C17.8415 322.664 -3.38964 368.394 54.8725 397.494Z" stroke="url(#paint6_linear_1_32)" stroke-opacity="0.4" stroke-miterlimit="10"/>
<path d="M44.6038 401.652C111.062 434.909 215.44 411.241 281.306 389.568C362.478 362.851 441.478 329.926 537.067 322.609C637.89 314.849 763.104 331.256 857.212 303.486C923.671 283.919 967.417 240.961 967.417 198.835C967.417 179.213 954.283 160.256 939.866 142.685C920.61 119.294 912.315 88.0868 877.95 71.07C820.675 42.8009 749.082 28.8327 677.884 21.0171C610.931 13.645 546.646 15.3079 489.174 26.6709C468.337 30.8281 448.884 36.2602 429.825 42.5238C414.42 47.6233 399.114 53.1108 383.61 58.9863C356.454 69.2408 332.063 82.1559 310.141 97.8425C292.761 110.259 277.257 123.34 261.754 136.865C255.039 142.74 247.633 149.724 238.844 157.54C220.476 173.892 197.962 194.456 169.917 217.459C140.292 241.737 105.335 267.013 63.9587 293.121C15.2752 323.773 -18.3983 370.168 44.6038 401.652Z" stroke="url(#paint7_linear_1_32)" stroke-opacity="0.4" stroke-miterlimit="10"/>
<path d="M265.209 135.59C235.585 169.679 186.506 232.592 66.3281 296.668C12.806 325.159 -33.4088 371.886 34.3333 405.809C103.754 440.563 212.872 415.842 281.701 393.226C366.526 365.345 449.081 330.924 549.015 323.219C654.381 315.071 775.25 336.522 873.605 307.532C943.025 287.079 984.5 242.403 984.5 198.392C984.5 154.38 946.778 111.921 891.182 80.9364C835.487 49.9513 763.104 29.664 687.956 17.137C535.388 -8.24977 394.077 11.4277 308.659 89.7497C292.563 104.494 278.738 120.014 265.209 135.59Z" stroke="url(#paint8_linear_1_32)" stroke-opacity="0.4" stroke-miterlimit="10"/>
<defs>
<linearGradient id="paint0_linear_1_32" x1="47.1742" y1="192.248" x2="847.337" y2="192.248" gradientUnits="userSpaceOnUse">
<stop offset="0.115385" stop-color="#B5C2FF"/>
<stop offset="0.903846" stop-color="#DFE4FF"/>
</linearGradient>
<linearGradient id="paint1_linear_1_32" x1="47.0756" y1="198.795" x2="864.421" y2="198.795" gradientUnits="userSpaceOnUse">
<stop offset="0.115385" stop-color="#B5C2FF"/>
<stop offset="0.903846" stop-color="#DFE4FF"/>
</linearGradient>
<linearGradient id="paint2_linear_1_32" x1="44.862" y1="205.089" x2="881.604" y2="205.089" gradientUnits="userSpaceOnUse">
<stop offset="0.115385" stop-color="#B5C2FF"/>
<stop offset="0.903846" stop-color="#DFE4FF"/>
</linearGradient>
<linearGradient id="paint3_linear_1_32" x1="40.7179" y1="210.775" x2="898.786" y2="210.775" gradientUnits="userSpaceOnUse">
<stop offset="0.115385" stop-color="#B5C2FF"/>
<stop offset="0.903846" stop-color="#DFE4FF"/>
</linearGradient>
<linearGradient id="paint4_linear_1_32" x1="34.8888" y1="215.442" x2="915.967" y2="215.442" gradientUnits="userSpaceOnUse">
<stop offset="0.115385" stop-color="#B5C2FF"/>
<stop offset="0.903846" stop-color="#DFE4FF"/>
</linearGradient>
<linearGradient id="paint5_linear_1_32" x1="27.608" y1="218.519" x2="933.051" y2="218.519" gradientUnits="userSpaceOnUse">
<stop offset="0.115385" stop-color="#B5C2FF"/>
<stop offset="0.903846" stop-color="#DFE4FF"/>
</linearGradient>
<linearGradient id="paint6_linear_1_32" x1="19.2684" y1="218.77" x2="950.134" y2="218.77" gradientUnits="userSpaceOnUse">
<stop offset="0.115385" stop-color="#B5C2FF"/>
<stop offset="0.903846" stop-color="#DFE4FF"/>
</linearGradient>
<linearGradient id="paint7_linear_1_32" x1="10.1601" y1="217.368" x2="967.417" y2="217.368" gradientUnits="userSpaceOnUse">
<stop offset="0.115385" stop-color="#B5C2FF"/>
<stop offset="0.903846" stop-color="#DFE4FF"/>
</linearGradient>
<linearGradient id="paint8_linear_1_32" x1="0.500114" y1="214.895" x2="984.5" y2="214.895" gradientUnits="userSpaceOnUse">
<stop offset="0.115385" stop-color="#B5C2FF"/>
<stop offset="0.903846" stop-color="#DFE4FF"/>
</linearGradient>
</defs>
</svg>
