<?xml version='1.0' encoding='UTF-8'?>
<svg xmlns:xlink="http://www.w3.org/1999/xlink" xmlns="http://www.w3.org/2000/svg" version="1.1" width="16px" height="70px" viewBox="-11.2 -40.5 24.0 77.9"><defs><g id="c1"><path fill="#333333" fill-opacity="0.0" d="M8.8 -35.5 L8.8 32.9 -7.2 32.9 -7.2 -35.5 8.8 -35.5"/><path fill="#000000" stroke="none" d="M0.6 4.95 L-0.95 4.75 -2.8 4.15 -4.8 2.7 Q-6.8 0.75 -7.05 -1.95 L-7.1 -2.55 -7.1 -2.75 -7.05 -3.35 Q-6.8 -6.0 -4.85 -8.0 -2.55 -10.2 0.6 -10.25 L2.15 -10.05 4.0 -9.45 6.0 -8.0 Q8.0 -6.0 8.25 -3.35 L8.3 -2.75 8.3 -2.55 8.25 -1.95 Q8.0 0.75 6.05 2.7 3.9 4.85 0.9 4.95 L0.6 4.95"/><path fill="none" stroke="#000000" stroke-width="2.0" d="M0.6 4.95 L-0.95 4.75 -2.8 4.15 -4.8 2.7 Q-6.8 0.75 -7.05 -1.95 L-7.1 -2.55 -7.1 -2.75 -7.05 -3.35 Q-6.8 -6.0 -4.85 -8.0 -2.55 -10.2 0.6 -10.25 L2.15 -10.05 4.0 -9.45 6.0 -8.0 Q8.0 -6.0 8.25 -3.35 L8.3 -2.75 8.3 -2.55 8.25 -1.95 Q8.0 0.75 6.05 2.7 3.9 4.85 0.9 4.95 L0.6 4.95 0.6 33.4"/><path fill="#000000" stroke="none" d="M3.9 -36.5 L5.0 -36.5 5.0 -29.15 3.9 -29.15 3.9 -32.2 -4.35 -32.2 -4.35 -33.45 3.9 -33.45 3.9 -36.5 M1.05 -26.65 L1.05 -21.5 -0.05 -21.5 -0.05 -26.65 -3.25 -26.65 -3.25 -20.95 -4.35 -20.95 -4.35 -27.9 5.0 -27.9 5.0 -21.2 3.9 -21.2 3.9 -26.65 1.05 -26.65 M5.0 -18.1 L-3.25 -18.1 -3.25 -13.55 -4.35 -13.55 -4.35 -19.3 5.0 -19.3 5.0 -18.1"/></g></defs><g><g><use transform="matrix(1.0,0.0,0.0,1.0,0.0,0.0)" xlink:href="#c1"/></g></g></svg>