<?xml version='1.0' encoding='UTF-8'?>
<svg xmlns:xlink="http://www.w3.org/1999/xlink" xmlns="http://www.w3.org/2000/svg" version="1.1" width="16px" height="70px" viewBox="-11.2 -40.5 24.0 77.9"><defs><g id="c1"><path fill="#333333" fill-opacity="0.0" d="M8.8 32.9 L-7.2 32.9 -7.2 -35.5 8.8 -35.5 8.8 32.9"/><path fill="#000000" stroke="none" d="M0.6 4.95 L-0.95 4.75 -2.8 4.15 -4.8 2.7 Q-6.8 0.75 -7.05 -1.95 L-7.1 -2.55 -7.1 -2.75 -7.05 -3.35 Q-6.8 -6.0 -4.85 -8.0 -2.55 -10.2 0.6 -10.25 L2.15 -10.05 4.0 -9.45 6.0 -8.0 Q8.0 -6.0 8.25 -3.35 L8.3 -2.75 8.3 -2.55 8.25 -1.95 Q8.0 0.75 6.05 2.7 3.9 4.85 0.9 4.95 L0.6 4.95"/><path fill="none" stroke="#000000" stroke-width="2.0" d="M0.6 4.95 L-0.95 4.75 -2.8 4.15 -4.8 2.7 Q-6.8 0.75 -7.05 -1.95 L-7.1 -2.55 -7.1 -2.75 -7.05 -3.35 Q-6.8 -6.0 -4.85 -8.0 -2.55 -10.2 0.6 -10.25 L2.15 -10.05 4.0 -9.45 6.0 -8.0 Q8.0 -6.0 8.25 -3.35 L8.3 -2.75 8.3 -2.55 8.25 -1.95 Q8.0 0.75 6.05 2.7 3.9 4.85 0.9 4.95 L0.6 4.95 0.6 33.4"/><path fill="#000000" stroke="none" d="M0.25 -35.2 L-1.85 -34.85 Q-2.8 -34.55 -3.2 -33.8 L-3.65 -32.15 Q-3.65 -31.1 -3.05 -30.4 -2.45 -29.65 -1.3 -29.4 L-1.6 -28.15 Q-3.1 -28.55 -3.9 -29.6 -4.7 -30.6 -4.7 -32.1 -4.7 -33.6 -4.1 -34.55 -3.5 -35.5 -2.35 -35.95 L0.25 -36.5 Q1.65 -36.5 2.8 -35.9 3.85 -35.4 4.4 -34.35 5.0 -33.3 5.0 -32.05 5.0 -30.65 4.3 -29.65 3.55 -28.75 2.25 -28.35 L2.0 -29.55 3.45 -30.55 Q3.9 -31.1 3.9 -32.1 3.9 -33.15 3.35 -33.85 2.9 -34.6 2.0 -34.9 L0.25 -35.2 M3.85 -23.45 L-0.7 -25.0 -0.7 -21.8 3.85 -23.45 M4.8 -22.8 L-4.55 -18.9 -4.55 -20.35 -1.75 -21.5 -1.75 -25.35 -4.55 -26.4 -4.55 -27.7 4.8 -24.1 4.8 -22.8 M4.8 -16.5 L-4.55 -16.5 -4.55 -17.75 4.8 -17.75 4.8 -16.5"/></g></defs><g><g><use transform="matrix(1.0,0.0,0.0,1.0,0.0,0.0)" xlink:href="#c1"/></g></g></svg>