<?xml version='1.0' encoding='UTF-8'?>
<svg xmlns:xlink="http://www.w3.org/1999/xlink" xmlns="http://www.w3.org/2000/svg" version="1.1" width="150px" height="73px" viewBox="-79.0 -40.7 158.0 81.4"><defs><g id="c1"><path fill="#cc0000" fill-opacity="0.0" d="M-50.35 -36.7 L-10.1 -36.7 30.25 -36.7 75.0 -36.7 75.0 0.0 75.0 36.7 30.25 36.7 -10.1 36.7 -50.35 36.7 -50.35 0.0 -50.35 -36.7 M30.25 -36.7 L30.25 36.7 30.25 -36.7 M10.05 18.55 L10.05 -18.5 10.05 18.55 M50.35 0.0 L50.35 -18.5 50.35 0.0 75.0 0.0 50.35 0.0 50.35 18.55 50.35 0.0 M-10.1 36.7 L-10.1 -36.7 -10.1 36.7 M-30.2 18.55 L-30.2 -18.5 -30.2 18.55"/><path fill="none" stroke="#c10000" stroke-width="4.0" d="M-50.35 36.7 L-50.35 0.0 -75.0 0.0 M75.0 0.0 L50.35 0.0 50.35 18.55 M50.35 -18.5 L50.35 0.0 M10.05 -18.5 L10.05 18.55 M30.25 36.7 L30.25 -36.7 M-50.35 0.0 L-50.35 -36.7 M-30.2 -18.5 L-30.2 18.55 M-10.1 -36.7 L-10.1 36.7"/></g></defs><g><g><use transform="matrix(1.0,0.0,0.0,1.0,0.0,0.0)" xlink:href="#c1"/></g></g></svg>