<?xml version='1.0' encoding='UTF-8'?>
<svg xmlns:xlink="http://www.w3.org/1999/xlink" xmlns="http://www.w3.org/2000/svg" version="1.1" width="50px" height="51px" viewBox="-29.0 -30.0 58.0 59.2"><defs><g id="c1"><path fill="#0099ff" fill-opacity="0.0" d="M-14.1 -0.45 L-24.7 -0.45 -24.7 -0.55 Q-24.7 -10.25 -17.85 -17.1 -10.95 -24.0 -1.25 -24.0 8.4 -24.0 15.3 -17.1 22.15 -10.25 22.15 -0.55 L22.15 -0.45 10.3 -0.45 -14.1 -0.45"/><path fill="none" stroke="#cc0000" stroke-width="2.0" d="M-14.1 -0.45 L-24.7 -0.45 -24.7 -0.55 Q-24.7 -10.25 -17.85 -17.1 -10.95 -24.0 -1.25 -24.0 8.4 -24.0 15.3 -17.1 22.15 -10.25 22.15 -0.55 L22.15 -0.45 10.3 -0.45 10.3 24.75 M-14.1 -0.45 L-14.1 24.1 M10.3 -0.45 L-14.1 -0.45"/><path fill="#cc0000" fill-opacity="0.0" d="M-25.0 -26.0 L25.0 -26.0 25.0 25.2 -25.0 25.2 -25.0 -26.0"/></g></defs><g><g><use transform="matrix(1.0,0.0,0.0,1.0,0.0,0.0)" xlink:href="#c1"/></g></g></svg>