<?xml version='1.0' encoding='UTF-8'?>
<svg xmlns:xlink="http://www.w3.org/1999/xlink" xmlns="http://www.w3.org/2000/svg" version="1.1" width="46px" height="46px" viewBox="-26.9 -26.95 53.85 53.9"><defs><g id="c1"><path fill="#ffffff" stroke="none" d="M14.15 -14.1 Q20.0 -8.25 20.0 0.0 20.0 8.3 14.15 14.15 L14.1 14.15 Q8.3 20.0 0.0 20.0 -8.3 20.0 -14.15 14.15 -20.0 8.3 -20.0 0.0 -20.0 -8.25 -14.15 -14.15 -8.3 -20.0 0.0 -20.0 8.3 -20.0 14.1 -14.15 L14.15 -14.1"/><path fill="none" stroke="#000000" stroke-width="2.0" d="M22.95 -22.95 L17.1 -17.05 14.15 -14.1 Q20.0 -8.25 20.0 0.0 20.0 8.3 14.15 14.15 L22.95 22.95 M-14.15 -14.15 Q-8.3 -20.0 0.0 -20.0 8.3 -20.0 14.1 -14.15 L14.15 -14.1 M-14.15 -14.15 L-22.9 -22.9 M-14.15 14.15 L-22.9 22.95 M-14.15 14.15 Q-20.0 8.3 -20.0 0.0 -20.0 -8.25 -14.15 -14.15 M14.15 14.15 L14.1 14.15 Q8.3 20.0 0.0 20.0 -8.3 20.0 -14.15 14.15"/></g></defs><g><g><use transform="matrix(1.0,0.0,0.0,1.0,0.0,0.0)" xlink:href="#c1"/></g></g></svg>