<?xml version='1.0' encoding='UTF-8'?>
<svg xmlns:xlink="http://www.w3.org/1999/xlink" xmlns="http://www.w3.org/2000/svg" version="1.1" width="50px" height="51px" viewBox="-29.0 -29.6 58.0 59.2"><defs><g id="c1"><path fill="#ffffff" stroke="none" d="M22.15 -23.0 L22.15 -22.9 Q22.15 -13.2 15.3 -6.35 13.0 -4.05 10.3 -2.45 5.1 0.5 -1.25 0.5 -8.45 0.5 -14.1 -3.2 L-17.85 -6.35 Q-24.7 -13.2 -24.7 -22.9 L-24.7 -23.0 22.15 -23.0"/><path fill="none" stroke="#cc0000" stroke-width="2.0" d="M22.15 -23.0 L-24.7 -23.0 -24.7 -22.9 Q-24.7 -13.2 -17.85 -6.35 L-14.1 -3.2 Q-8.45 0.5 -1.25 0.5 5.1 0.5 10.3 -2.45 13.0 -4.05 15.3 -6.35 22.15 -13.2 22.15 -22.9 L22.15 -23.0 M10.3 -2.45 L10.3 25.15 M-14.1 -3.2 L-14.1 24.5"/><path fill="#cc0000" fill-opacity="0.0" d="M-25.0 -25.6 L25.0 -25.6 25.0 25.6 -25.0 25.6 -25.0 -25.6"/></g></defs><g><g><use transform="matrix(1.0,0.0,0.0,1.0,0.0,0.0)" xlink:href="#c1"/></g></g></svg>