<?xml version="1.0" encoding="UTF-8"?>
<svg width="51px" height="71px" viewBox="0 0 51 71" version="1.1" xmlns="http://www.w3.org/2000/svg" xmlns:xlink="http://www.w3.org/1999/xlink">
    <!-- Generator: Sketch 48.1 (47250) - http://www.bohemiancoding.com/sketch -->
    <title>Cable Antenna Outlet</title>
    <desc>Created with Sketch.</desc>
    <defs>
        <polygon id="path-1" points="25.6599026 0.685028843 50.6347763 25.6599026 25.6599026 50.6347763 0.685028843 25.6599026"></polygon>
    </defs>
    <g id="Page-1" stroke="none" stroke-width="1" fill="none" fill-rule="evenodd">
        <g id="Cable-Antenna-Outlet">
            <polygon id="Rectangle" fill-opacity="0.02" fill="#FFFFFF" points="1 1 51 1 51 71 1 71"></polygon>
            <g id="Rectangle">
                <use fill="#FFFFFF" fill-rule="evenodd" xlink:href="#path-1"></use>
                <path stroke="#000000" stroke-width="2" d="M25.6599026,2.0992424 L2.0992424,25.6599026 L25.6599026,49.2205627 L49.2205627,25.6599026 L25.6599026,2.0992424 Z"></path>
            </g>
            <path d="M26,49 L26,69.3847656" id="Path-2" stroke="#000000" stroke-width="2"></path>
            <polygon id="TV" fill="#000000" points="19.1665039 33 19.1665039 21.6357422 14.9213867 21.6357422 14.9213867 20.1152344 25.1342773 20.1152344 25.1342773 21.6357422 20.871582 21.6357422 20.871582 33"></polygon>
            <path d="M30.565918,33 L25.5737305,20.1152344 L27.4194336,20.1152344 L30.7680664,29.4755859 C31.037599,30.2255897 31.2631827,30.9287077 31.4448242,31.5849609 C31.644044,30.8818324 31.875487,30.1787145 32.1391602,29.4755859 L35.6196289,20.1152344 L37.3598633,20.1152344 L32.3149414,33 L30.565918,33 Z" id="Path" fill="#000000"></path>
        </g>
    </g>
</svg>