<?xml version='1.0' encoding='UTF-8'?>
<svg xmlns:xlink="http://www.w3.org/1999/xlink" xmlns="http://www.w3.org/2000/svg" version="1.1" width="100px" height="40px" viewBox="-54.0 -24.0 108.0 48.0"><defs><g id="c1"><path fill="#333333" stroke="none" d="M0.2 -3.55 Q-1.1 -3.55 -1.7 -2.95 -2.25 -2.4 -2.25 -1.6 -2.25 -0.75 -1.6 -0.4 -1.15 -0.1 0.45 0.25 L2.0 0.6 Q3.1 0.9 3.75 1.35 4.8 2.15 4.8 3.7 4.8 5.6 3.45 6.45 2.1 7.25 0.3 7.25 -1.8 7.25 -3.0 6.15 -4.15 5.05 -4.15 3.2 L-2.7 3.2 Q-2.65 4.2 -2.25 4.8 -1.5 5.95 0.35 5.95 L1.9 5.7 Q3.25 5.2 3.25 3.9 3.25 2.95 2.65 2.55 2.1 2.15 0.85 1.9 L-0.65 1.55 -2.7 0.8 Q-3.75 0.05 -3.75 -1.35 -3.75 -2.9 -2.75 -3.9 -1.7 -4.85 0.25 -4.85 2.0 -4.85 3.25 -4.0 4.5 -3.1 4.5 -1.15 L3.05 -1.15 2.55 -2.65 Q1.85 -3.55 0.2 -3.55 M18.95 -1.65 Q20.45 -1.65 21.35 -1.1 22.3 -0.55 22.3 0.65 L22.3 5.45 22.35 5.8 Q22.45 5.95 22.7 5.95 L22.9 5.95 23.15 5.9 23.15 7.0 22.65 7.1 22.2 7.15 Q21.45 7.15 21.15 6.6 L20.9 5.8 19.7 6.85 17.9 7.25 Q16.75 7.25 16.0 6.55 15.3 5.85 15.3 4.75 15.3 3.55 16.0 2.9 16.75 2.25 17.9 2.1 L20.15 1.8 20.8 1.4 20.9 0.9 Q20.9 0.15 20.4 -0.15 L18.9 -0.5 Q17.8 -0.5 17.35 0.1 17.1 0.45 17.05 1.1 L15.7 1.1 Q15.75 -0.45 16.7 -1.05 17.7 -1.65 18.95 -1.65 M13.25 -0.15 L13.8 1.35 13.95 3.2 7.8 3.2 Q7.85 4.5 8.4 5.3 9.0 6.1 10.15 6.1 11.25 6.1 11.9 5.35 L12.45 4.35 13.8 4.35 13.45 5.35 12.75 6.3 11.2 7.15 10.05 7.25 Q8.5 7.25 7.4 6.1 6.3 4.95 6.3 2.9 6.3 0.85 7.4 -0.4 8.5 -1.65 10.25 -1.65 L12.0 -1.25 13.25 -0.15 M31.6 -1.65 Q32.5 -1.65 33.35 -1.25 L34.6 -0.15 35.15 1.35 35.3 3.2 29.15 3.2 Q29.2 4.5 29.75 5.3 30.35 6.1 31.5 6.1 32.6 6.1 33.25 5.35 L33.8 4.35 35.15 4.35 34.8 5.35 34.1 6.3 Q33.5 6.9 32.55 7.15 L31.4 7.25 Q29.85 7.25 28.75 6.1 27.65 4.95 27.65 2.9 27.65 0.85 28.75 -0.4 29.85 -1.65 31.6 -1.65 M39.95 -1.55 L41.55 -1.15 42.4 -0.35 42.4 -4.55 43.8 -4.55 43.8 6.95 42.45 6.95 42.45 5.85 41.3 6.95 39.8 7.25 Q38.45 7.25 37.45 6.1 36.45 4.9 36.45 2.95 36.45 1.15 37.35 -0.2 38.25 -1.55 39.95 -1.55 M26.0 -4.55 L26.0 6.95 24.55 6.95 24.55 -4.55 26.0 -4.55 M41.8 0.4 Q41.2 -0.35 40.25 -0.35 39.2 -0.35 38.6 0.45 37.95 1.3 37.95 2.9 37.95 4.25 38.5 5.15 39.05 6.1 40.25 6.1 41.2 6.1 41.85 5.2 42.45 4.35 42.45 2.8 42.45 1.2 41.8 0.4 M33.4 0.55 Q32.85 -0.5 31.5 -0.5 30.55 -0.5 29.9 0.25 29.25 0.95 29.25 2.1 L33.8 2.1 33.4 0.55 M20.85 2.65 L20.15 2.9 19.4 3.05 18.55 3.2 17.4 3.5 Q16.8 3.9 16.8 4.7 16.8 5.35 17.2 5.7 17.65 6.1 18.25 6.1 L19.7 5.7 Q20.85 5.1 20.85 3.75 L20.85 2.65 M12.05 0.55 Q11.5 -0.5 10.15 -0.5 9.2 -0.5 8.55 0.25 7.9 0.95 7.9 2.1 L12.45 2.1 Q12.35 1.15 12.05 0.55"/><path fill="#cccccc" fill-opacity="0.0" d="M50.0 20.0 L-10.0 20.0 -10.0 -20.0 50.0 -20.0 50.0 20.0"/><path fill="#ffffff" stroke="none" d="M-10.0 -20.0 L-10.0 20.0 -30.0 0.0 -10.0 -20.0 -30.0 0.0 -10.0 20.0 -50.0 20.0 -50.0 -20.0 -10.0 -20.0 M-50.0 -20.0 L-30.0 0.0 -50.0 20.0 -30.0 0.0 -50.0 -20.0"/><path fill="none" stroke="#000000" stroke-width="2.0" d="M-10.0 -20.0 L-30.0 0.0 -10.0 20.0 M-50.0 20.0 L-30.0 0.0 -50.0 -20.0"/></g></defs><g><g><use transform="matrix(1.0,0.0,0.0,1.0,0.0,0.0)" xlink:href="#c1"/></g></g></svg>