<?xml version='1.0' encoding='UTF-8'?>
<svg xmlns:xlink="http://www.w3.org/1999/xlink" xmlns="http://www.w3.org/2000/svg" version="1.1" width="74px" height="74px" viewBox="-41.0 -41.0 82.0 82.0"><defs><g id="c1"><path fill="#cc0000" fill-opacity="0.0" d="M26.15 -26.1 Q37.0 -15.3 37.0 0.0 37.0 15.3 26.1 26.15 15.3 37.0 0.0 37.0 -15.35 37.0 -26.15 26.2 L-26.2 26.15 Q-37.0 15.3 -37.0 0.0 -37.0 -15.3 -26.2 -26.15 -15.35 -37.0 0.0 -37.0 15.3 -37.0 26.1 -26.15 L26.15 -26.1 0.0 0.0 26.1 26.15 0.0 0.0 26.15 -26.1 M-26.15 26.2 L0.0 0.0 -26.2 -26.15 0.0 0.0 -26.15 26.2"/><path fill="none" stroke="#c10000" stroke-width="2.0" d="M26.15 -26.1 Q37.0 -15.3 37.0 0.0 37.0 15.3 26.1 26.15 15.3 37.0 0.0 37.0 -15.35 37.0 -26.15 26.2 L-26.2 26.15 Q-37.0 15.3 -37.0 0.0 -37.0 -15.3 -26.2 -26.15 -15.35 -37.0 0.0 -37.0 15.3 -37.0 26.1 -26.15 L26.15 -26.1 0.0 0.0 26.1 26.15 M-26.2 -26.15 L0.0 0.0 -26.15 26.2"/></g></defs><g><g><use transform="matrix(1.0,0.0,0.0,1.0,0.0,0.0)" xlink:href="#c1"/></g></g></svg>