<?xml version="1.0" encoding="UTF-8"?>
<svg width="42px" height="42px" viewBox="0 0 42 42" version="1.1" xmlns="http://www.w3.org/2000/svg" xmlns:xlink="http://www.w3.org/1999/xlink">
    <!-- Generator: Sketch 49.3 (51167) - http://www.bohemiancoding.com/sketch -->
    <title>Central Heating Symbol</title>
    <desc>Created with Sketch.</desc>
    <defs></defs>
    <g id="Page-1" stroke="none" stroke-width="1" fill="none" fill-rule="evenodd">
        <g id="Central-Heating-Symbol">
            <polygon id="Rectangle-path" fill-opacity="0.01" fill="#FFFFFF" points="0 0 42 0 42 42 0 42"></polygon>
            <path d="M28.7584436,20.1073699 L29.3543076,19.28917 L29.1843816,22.1900184 L28.7584436,23.8999512 C28.7584436,24.7440024 29.269592,25.2153379 30.2909755,25.3139911 L31.6535812,24.4957911 L32.7620018,23.0081851 C34.9764834,30.0993841 32.3643024,35.3060053 24.9248496,38.6280486 L23.4756634,38.9999335 C26.0878825,37.7605387 27.1680646,35.7765102 26.71385,33.0495093 L26.0314054,30.8924971 C25.633706,30.296624 25.2076919,30.296624 24.7535154,30.8924971 L24.3275774,31.1156547 C23.2492602,31.5109651 22.4825567,31.3888864 22.028304,30.7437698 C23.2209836,30.6944265 23.8451243,30.2222604 23.9016015,29.3305274 C22.5389957,26.4046253 21.9431316,23.3291983 22.1130578,20.1074031 C20.3527526,23.2798884 19.3295425,27.0247547 19.0466241,31.3380147 C19.1596163,31.9831646 18.9035664,32.1820659 18.2794258,31.9338546 L17.4275118,31.3380147 L15.8931532,26.0578273 C15.1560582,28.6854108 15.4389386,31.2644485 16.7450671,33.7933788 L16.064906,34.2396606 C15.3259462,34.4862769 14.7588155,34.0157056 14.361078,32.825654 C13.8499296,34.165297 14.0480943,35.529196 14.9565235,36.9165541 L16.3191291,39 C9.56078903,36.2236559 6.91983653,31.6606229 8.3977181,25.3140575 L9.41910147,28.2148727 C9.41910147,19.9335887 10.527522,14.6525707 12.7420037,12.3710541 C12.1743401,14.3057727 12.2595505,15.9671931 12.9980536,17.3553485 C13.7351486,18.6440865 14.7018816,19.0911659 15.8931912,18.6933965 C18.2229866,14.0325077 18.818394,8.80166363 17.6835616,3 C21.7718354,5.72700085 24.0729356,9.22285846 24.5840841,13.4867753 C26.059644,12.5950424 26.4856201,11.3055069 25.861936,9.61983027 C26.7703652,9.86721087 27.5658021,10.4622533 28.2459251,11.4049576 C28.8718926,12.8925636 28.8149588,14.3551159 28.0764937,15.7934121 L26.7986038,17.9496268 C26.6286776,18.9424385 26.8833575,19.6361008 27.5658021,20.0331059 L28.7584436,20.1073699 Z" id="Shape" stroke="#000000" stroke-linecap="round" stroke-linejoin="round"></path>
        </g>
    </g>
</svg>