<?xml version='1.0' encoding='UTF-8'?>
<svg xmlns:xlink="http://www.w3.org/1999/xlink" xmlns="http://www.w3.org/2000/svg" version="1.1" width="80px" height="40px" viewBox="-44.0 -24.0 88.0 48.0"><defs><g id="c1"><path fill="#cccccc" fill-opacity="0.0" d="M40.0 20.0 L0.0 20.0 0.0 -20.0 40.0 -20.0 40.0 20.0"/><path fill="#ffffff" stroke="none" d="M0.0 -20.0 L0.0 20.0 -40.0 20.0 -40.0 -20.0 0.0 -20.0"/><path fill="none" stroke="#000000" stroke-width="2.0" d="M0.0 -20.0 L-40.0 -20.0 -40.0 20.0 0.0 20.0 0.0 -20.0"/><path fill="#333333" stroke="none" d="M16.45 -3.7 Q17.65 -2.55 17.8 -1.1 L16.25 -1.1 Q15.95 -2.25 15.2 -2.9 14.45 -3.55 13.05 -3.55 11.35 -3.55 10.35 -2.35 9.3 -1.15 9.3 1.35 9.3 3.4 10.25 4.7 11.15 5.95 13.05 5.95 14.75 5.95 15.65 4.6 16.1 3.9 16.35 2.75 L17.9 2.75 Q17.7 4.55 16.55 5.8 15.2 7.25 12.9 7.25 10.85 7.25 9.5 6.05 7.75 4.45 7.75 1.1 7.75 -1.45 9.05 -3.1 10.5 -4.85 13.1 -4.85 15.25 -4.85 16.45 -3.7 M21.1 -0.4 L22.0 -1.25 Q22.65 -1.65 23.65 -1.65 25.45 -1.65 26.1 -0.4 26.45 0.3 26.45 1.55 L26.45 6.95 25.05 6.95 25.05 1.6 24.8 0.2 Q24.4 -0.5 23.35 -0.5 22.5 -0.5 21.8 0.1 21.1 0.75 21.1 2.45 L21.1 6.95 19.65 6.95 19.65 -4.55 21.1 -4.55 21.1 -0.4 M29.95 -1.4 L29.95 0.0 30.7 -1.05 Q31.35 -1.65 32.15 -1.65 L32.3 -1.65 32.6 -1.6 32.6 -0.1 32.4 -0.15 32.15 -0.15 Q31.1 -0.15 30.55 0.5 30.0 1.2 30.0 2.1 L30.0 6.95 28.55 6.95 28.55 -1.4 29.95 -1.4"/></g></defs><g><g><use transform="matrix(1.0,0.0,0.0,1.0,0.0,0.0)" xlink:href="#c1"/></g></g></svg>