<?xml version='1.0' encoding='UTF-8'?>
<svg xmlns:xlink="http://www.w3.org/1999/xlink" xmlns="http://www.w3.org/2000/svg" version="1.1" width="50px" height="50px" viewBox="-29.0 -29.0 58.0 58.0"><defs><g id="c1"><path fill="#0099ff" fill-opacity="0.0" d="M17.65 -17.7 Q25.0 -10.35 25.0 0.0 25.0 10.3 17.65 17.6 10.35 25.0 0.0 25.0 -10.3 25.0 -17.7 17.6 -25.0 10.3 -25.0 0.0 -25.0 -10.35 -17.7 -17.7 -10.3 -25.0 0.0 -25.0 10.35 -25.0 17.65 -17.7"/><path fill="none" stroke="#cc0000" stroke-width="2.0" d="M17.65 -17.7 Q25.0 -10.35 25.0 0.0 25.0 10.3 17.65 17.6 10.35 25.0 0.0 25.0 -10.3 25.0 -17.7 17.6 -25.0 10.3 -25.0 0.0 -25.0 -10.35 -17.7 -17.7 -10.3 -25.0 0.0 -25.0 10.35 -25.0 17.65 -17.7"/><path fill="none" stroke="#c10000" stroke-width="2.0" d="M0.0 -20.0 L0.0 0.0 -12.5 0.0"/></g></defs><g><g><use transform="matrix(1.0,0.0,0.0,1.0,0.0,0.0)" xlink:href="#c1"/></g></g></svg>