<?xml version='1.0' encoding='UTF-8'?>
<svg xmlns:xlink="http://www.w3.org/1999/xlink" xmlns="http://www.w3.org/2000/svg" version="1.1" width="60px" height="60px" viewBox="-34.0 -34.0 68.0 68.0"><defs><g id="c1"><path fill="#f6f6f6" stroke="none" d="M17.65 -17.65 Q25.0 -10.35 25.0 0.0 25.0 10.35 17.65 17.7 10.3 25.0 0.0 25.0 -10.35 25.0 -17.7 17.7 -25.0 10.35 -25.0 0.0 -25.0 -10.35 -17.7 -17.65 -10.35 -25.0 0.0 -25.0 10.3 -25.0 17.65 -17.65"/><path fill="none" stroke="#cc0000" stroke-width="2.0" d="M17.65 -17.65 Q25.0 -10.35 25.0 0.0 25.0 10.35 17.65 17.7 10.3 25.0 0.0 25.0 -10.35 25.0 -17.7 17.7 -25.0 10.35 -25.0 0.0 -25.0 -10.35 -17.7 -17.65 -10.35 -25.0 0.0 -25.0 10.3 -25.0 17.65 -17.65"/><path fill="#ffffff" fill-opacity="0.0" d="M30.0 30.0 L-30.0 30.0 -30.0 -30.0 30.0 -30.0 30.0 30.0"/><path fill="#ce0000" stroke="none" d="M-21.9 -0.2 Q-21.9 -3.7 -20.6 -6.3 -19.25 -8.9 -16.8 -10.25 -14.3 -11.6 -11.35 -11.6 -7.95 -11.6 -5.65 -9.9 -3.35 -8.2 -2.5 -5.05 L-5.45 -4.4 Q-6.2 -6.8 -7.7 -7.95 -9.15 -9.05 -11.4 -9.05 -14.0 -9.05 -15.7 -7.85 -17.45 -6.55 -18.15 -4.5 -18.9 -2.4 -18.9 -0.25 -18.9 2.65 -18.0 4.75 -17.2 6.9 -15.45 7.95 -13.7 9.0 -11.65 9.0 -9.15 9.0 -7.45 7.6 -5.65 6.1 -5.1 3.3 L-2.1 4.05 Q-3.05 7.7 -5.5 9.65 -7.85 11.55 -11.4 11.55 -15.0 11.55 -17.25 10.1 -19.55 8.6 -20.75 5.8 -21.9 3.0 -21.9 -0.2 M11.35 -11.6 Q14.5 -11.6 17.0 -10.15 19.5 -8.65 20.8 -6.0 22.1 -3.35 22.1 0.0 22.1 3.4 20.7 6.05 19.35 8.75 16.8 10.2 14.3 11.55 11.35 11.55 8.2 11.55 5.7 10.05 3.2 8.45 1.9 5.85 0.65 3.2 0.65 0.25 0.65 -5.3 3.65 -8.5 6.6 -11.6 11.35 -11.6 M19.05 -0.05 Q19.05 -2.75 18.1 -4.75 17.2 -6.8 15.4 -7.95 13.6 -9.05 11.4 -9.05 8.25 -9.05 6.0 -6.9 3.7 -4.75 3.7 0.3 3.7 4.35 5.9 6.65 8.1 9.0 11.35 9.0 14.7 9.0 16.9 6.65 19.05 4.3 19.05 -0.05"/></g></defs><g><g><use transform="matrix(1.0,0.0,0.0,1.0,0.0,0.0)" xlink:href="#c1"/></g></g></svg>