<?xml version='1.0' encoding='UTF-8'?>
<svg xmlns:xlink="http://www.w3.org/1999/xlink" xmlns="http://www.w3.org/2000/svg" version="1.1" width="50px" height="50px" viewBox="-29.0 -29.0 58.0 58.0"><defs><g id="c1"><path fill="#cc0000" fill-opacity="0.0" d="M24.05 -22.1 L24.05 -13.7 2.4 -13.7 24.05 -22.1 2.4 -13.7 24.05 -13.7 24.05 -22.1 M25.0 25.0 L-25.0 25.0 -25.0 -25.0 25.0 -25.0 25.0 25.0"/><path fill="none" stroke="#c10000" stroke-width="2.0" d="M24.05 -22.1 L2.4 -13.7 24.05 -13.7 24.05 -22.1"/><path fill="#cc0000" fill-opacity="0.0" d="M7.05 -4.25 L7.8 -3.55 7.9 -3.5 Q12.75 1.4 12.75 8.3 12.75 15.25 7.9 20.15 3.0 25.0 -3.95 25.0 -10.85 25.0 -15.75 20.15 -20.6 15.25 -20.6 8.3 -20.6 1.4 -15.75 -3.5 -10.85 -8.35 -3.95 -8.35 2.45 -8.35 7.05 -4.25"/><path fill="none" stroke="#c10000" stroke-width="2.0" d="M7.05 -4.25 L20.65 -23.25 M7.05 -4.25 L7.8 -3.55 7.9 -3.5 Q12.75 1.4 12.75 8.3 12.75 15.25 7.9 20.15 3.0 25.0 -3.95 25.0 -10.85 25.0 -15.75 20.15 -20.6 15.25 -20.6 8.3 -20.6 1.4 -15.75 -3.5 -10.85 -8.35 -3.95 -8.35 2.45 -8.35 7.05 -4.25"/></g></defs><g><g><use transform="matrix(1.0,0.0,0.0,1.0,0.0,0.0)" xlink:href="#c1"/></g></g></svg>