<?xml version='1.0' encoding='UTF-8'?>
<svg xmlns:xlink="http://www.w3.org/1999/xlink" xmlns="http://www.w3.org/2000/svg" version="1.1" width="29px" height="29px" viewBox="-19.0 -19.0 37.4 37.4"><defs><g id="c1"><path fill="#bfb5ae" fill-opacity="0.0" d="M-15.0 -15.0 L14.4 -15.0 14.4 14.4 -15.0 14.4 -15.0 -15.0"/><path fill="none" stroke="#000000" stroke-width="2.0" d="M-12.5 -9.0 L-12.5 0.0 -3.85 0.0 -3.85 -9.0 12.9 -9.0 12.9 9.0 -3.85 9.0 -3.85 0.0 M-12.5 0.0 L-12.5 9.0"/><path fill="#000000" stroke="none" d="M6.85 -0.75 L9.65 -0.75 9.65 -3.55 11.1 -3.55 11.1 3.6 9.65 3.6 9.65 0.45 6.85 0.45 6.85 3.6 5.4 3.6 5.4 -3.55 6.85 -3.55 6.85 -0.75 M2.7 -1.25 L2.2 -2.1 Q1.8 -2.45 1.2 -2.45 0.4 -2.45 -0.1 -1.85 -0.6 -1.3 -0.6 0.0 -0.6 1.35 -0.1 1.9 0.4 2.5 1.15 2.5 1.75 2.5 2.15 2.1 2.6 1.75 2.75 0.95 L4.15 1.4 Q3.85 2.6 3.1 3.15 2.35 3.7 1.2 3.7 -0.25 3.7 -1.15 2.75 -2.1 1.75 -2.1 0.1 -2.1 -1.7 -1.15 -2.7 -0.25 -3.7 1.25 -3.7 2.6 -3.7 3.4 -2.9 L4.15 -1.6 2.7 -1.25"/></g></defs><g><g><use transform="matrix(1.0,0.0,0.0,1.0,0.0,0.0)" xlink:href="#c1"/></g></g></svg>