<?xml version='1.0' encoding='UTF-8'?>
<svg xmlns:xlink="http://www.w3.org/1999/xlink" xmlns="http://www.w3.org/2000/svg" version="1.1" width="29px" height="29px" viewBox="-19.0 -19.0 37.4 37.4"><defs><g id="c1"><path fill="#000000" stroke="none" d="M3.05 0.9 L2.6 0.6 1.3 0.5 0.15 0.5 0.15 2.4 1.45 2.4 2.45 2.35 3.0 2.05 3.2 1.45 3.05 0.9 M7.5 -2.35 L5.35 -2.35 5.35 -3.55 11.05 -3.55 11.05 -2.35 8.95 -2.35 8.95 3.6 7.5 3.6 7.5 -2.35 M0.15 -0.7 L2.1 -0.75 2.7 -1.0 2.9 -1.55 2.75 -2.1 2.2 -2.35 0.15 -2.35 0.15 -0.7 M2.8 -3.5 L3.55 -3.2 4.1 -2.6 4.35 -1.75 4.05 -0.85 3.3 -0.2 Q4.0 0.0 4.35 0.45 4.7 0.9 4.7 1.5 L4.45 2.5 3.85 3.2 2.85 3.55 -1.3 3.6 -1.3 -3.55 1.55 -3.55 2.8 -3.5"/><path fill="#bfb5ae" fill-opacity="0.0" d="M14.4 -15.0 L14.4 14.4 -15.0 14.4 -15.0 -15.0 14.4 -15.0"/><path fill="none" stroke="#000000" stroke-width="2.0" d="M-12.5 -9.0 L-12.5 0.0 -3.85 0.0 -3.85 -9.0 12.9 -9.0 12.9 9.0 -3.85 9.0 -3.85 0.0 M-12.5 0.0 L-12.5 9.0"/></g></defs><g><g><use transform="matrix(1.0,0.0,0.0,1.0,0.0,0.0)" xlink:href="#c1"/></g></g></svg>