<?xml version="1.0" encoding="UTF-8"?>
<svg width="89px" height="42px" viewBox="0 0 89 42" version="1.1" xmlns="http://www.w3.org/2000/svg" xmlns:xlink="http://www.w3.org/1999/xlink">
    <!-- Generator: Sketch 49.3 (51167) - http://www.bohemiancoding.com/sketch -->
    <title>Double sink symbol</title>
    <desc>Created with Sketch.</desc>
    <defs></defs>
    <g id="Page-1" stroke="none" stroke-width="1" fill="none" fill-rule="evenodd">
        <g id="Double-sink-symbol">
            <rect id="Rectangle-8" fill-opacity="0.01" fill="#FFFFFF" x="0.5" y="0" width="88" height="42"></rect>
            <path d="M4.21402616,8 C2.56980551,8 1,9.38191372 1,11.1378845 L1,38.1621147 C1,39.9180855 2.56980551,41.2999992 4.21402616,41.2999992 L37.7859738,41.2999992 C39.4301945,41.2999992 41,39.9180855 41,38.1621147 L41,11.1378845 C41,9.38191372 39.4301945,8 37.7859738,8 L4.21402616,8 Z" id="Rectangle" stroke="#000000" fill="#FFFFFF"></path>
            <path d="M51.2140262,8 C49.5698055,8 48,9.38191372 48,11.1378845 L48,38.1621147 C48,39.9180855 49.5698055,41.2999992 51.2140262,41.2999992 L84.7859738,41.2999992 C86.4301945,41.2999992 88,39.9180855 88,38.1621147 L88,11.1378845 C88,9.38191372 86.4301945,8 84.7859738,8 L51.2140262,8 Z" id="Rectangle-Copy" stroke="#000000" fill="#FFFFFF"></path>
            <g id="Group-4" transform="translate(35.000000, 0.000000)">
                <g id="Rectangle-2" transform="translate(1.023360, 1.033262)">
                    <g id="path-2-link" fill="#FFFFFF">
                        <path d="M0,2.35850631 C0,1.05593924 1.11858404,0 2.49329023,0 L14.1608309,0 C15.5378371,0 16.6541211,1.05858971 16.6541211,2.35850631 C16.6541211,3.66107334 15.5355371,4.71701262 14.1608309,4.71701262 L2.49329023,4.71701262 C1.11628402,4.71701262 0,3.65842293 0,2.35850631 Z" id="path-2"></path>
                    </g>
                    <path d="M0.416353029,2.35850631 C0.416353029,3.44248194 1.34744947,4.32392823 2.49329023,4.32392823 L14.1608309,4.32392823 C15.3062651,4.32392823 16.2377681,3.44334201 16.2377681,2.35850631 C16.2377681,1.27453067 15.3066717,0.393084385 14.1608309,0.393084385 L2.49329023,0.393084385 C1.34785608,0.393084385 0.416353029,1.27367059 0.416353029,2.35850631 Z" id="Shape" stroke="#000000"></path>
                </g>
                <g id="path-3-link" transform="translate(6.852303, 1.033262)" fill="#FFFFFF">
                    <path d="M2.49811817,0 C3.8777907,0 4.99623634,1.05262825 4.99623634,2.35271534 L4.99623634,18.8738415 C4.99623634,20.1732102 3.8749834,21.2265568 2.49811817,21.2265568 C1.11844564,21.2265568 0,20.1739285 0,18.8738415 L0,2.35271534 C0,1.05334654 1.12125295,0 2.49811817,0 Z" id="path-3"></path>
                </g>
                <path d="M9.35042077,1.42634683 C8.20223053,1.42634683 7.26865562,2.30490104 7.26865562,3.38597779 L7.26865562,19.9071039 C7.26865562,20.9896132 8.20018174,21.8667348 9.35042077,21.8667348 C10.498611,21.8667348 11.4321859,20.9881806 11.4321859,19.9071039 L11.4321859,3.38597779 C11.4321859,2.30346851 10.5006598,1.42634683 9.35042077,1.42634683 Z" id="Shape" stroke="#000000"></path>
                <circle id="Oval" stroke="#000000" fill="#FFFFFF" fill-rule="nonzero" cx="15.7012195" cy="3.31943121" r="2.5"></circle>
                <circle id="Oval" stroke="#000000" fill="#FFFFFF" fill-rule="nonzero" cx="3.01395105" cy="3.31943121" r="2.5"></circle>
            </g>
        </g>
    </g>
</svg>