<?xml version='1.0' encoding='UTF-8'?>
<svg xmlns:xlink="http://www.w3.org/1999/xlink" xmlns="http://www.w3.org/2000/svg" version="1.1" width="50px" height="50px" viewBox="-29.0 -29.0 57.6 58.0"><defs><g id="c1"><path fill="#cc0000" fill-opacity="0.0" d="M22.7 -25.0 L23.3 -25.0 Q23.05 -15.65 16.35 -9.0 12.0 -4.6 6.5 -3.0 11.75 -4.7 15.9 -9.0 22.5 -15.65 22.7 -25.0 22.5 -15.65 15.9 -9.0 11.75 -4.7 6.5 -3.0 L-0.25 -2.1 -6.95 -3.0 Q-12.3 -4.7 -16.5 -9.0 L-17.6 -10.2 -17.85 -10.0 -17.6 -10.2 Q-20.85 -13.95 -22.2 -18.5 -23.15 -21.6 -23.2 -25.0 L22.7 -25.0 M-17.85 -10.0 Q-21.35 -13.85 -22.75 -18.5 -23.75 -21.6 -23.8 -25.0 L-23.2 -25.0 Q-23.15 -21.6 -22.2 -18.5 -20.85 -13.95 -17.6 -10.2 L-16.5 -9.0 Q-12.3 -4.7 -6.95 -3.0 -12.55 -4.6 -16.95 -9.0 L-17.85 -10.0 M-11.1 -14.8 L-17.6 -10.2 -11.1 -14.8"/><path fill="none" stroke="#c10000" stroke-width="2.0" d="M22.7 -25.0 Q22.5 -15.65 15.9 -9.0 11.75 -4.7 6.5 -3.0 L-0.25 -2.1 -0.25 25.0 M-17.85 -10.0 L-17.6 -10.2 Q-20.85 -13.95 -22.2 -18.5 -23.15 -21.6 -23.2 -25.0 M-6.95 -3.0 L-0.25 -2.1 M-17.6 -10.2 L-11.1 -14.8 M-6.95 -3.0 Q-12.3 -4.7 -16.5 -9.0 L-17.6 -10.2 M-24.05 -5.75 L-17.85 -10.0"/><path fill="#cc0000" fill-opacity="0.0" d="M24.6 -24.55 L24.6 25.0 -25.0 25.0 -25.0 -24.55 24.6 -24.55"/></g></defs><g><g><use transform="matrix(1.0,0.0,0.0,1.0,0.0,0.0)" xlink:href="#c1"/></g></g></svg>