<?xml version='1.0' encoding='UTF-8'?>
<svg xmlns:xlink="http://www.w3.org/1999/xlink" xmlns="http://www.w3.org/2000/svg" version="1.1" width="74px" height="74px" viewBox="-41.0 -41.0 82.0 82.0"><defs><g id="c1"><path fill="#cc0000" stroke="none" d="M-8.65 -8.6 Q-5.1 -12.15 0.0 -12.15 5.05 -12.15 8.55 -8.6 L8.6 -8.55 Q12.15 -5.05 12.15 0.0 12.15 5.1 8.55 8.6 5.05 12.2 0.0 12.2 -5.1 12.2 -8.6 8.65 L-8.65 8.6 Q-12.2 5.1 -12.2 0.0 -12.2 -5.05 -8.65 -8.6"/><path fill="none" stroke="#c10000" stroke-width="2.0" d="M8.6 -8.55 L37.0 -37.0 M-8.65 -8.6 Q-5.1 -12.15 0.0 -12.15 5.05 -12.15 8.55 -8.6 L8.6 -8.55 Q12.15 -5.05 12.15 0.0 12.15 5.1 8.55 8.6 L37.0 37.0 M8.55 8.6 Q5.05 12.2 0.0 12.2 -5.1 12.2 -8.6 8.65 L-37.0 37.0 M-8.65 -8.6 L-37.0 -37.0 M-8.6 8.65 L-8.65 8.6 Q-12.2 5.1 -12.2 0.0 -12.2 -5.05 -8.65 -8.6"/></g></defs><g><g><use transform="matrix(1.0,0.0,0.0,1.0,0.0,0.0)" xlink:href="#c1"/></g></g></svg>