<?xml version='1.0' encoding='UTF-8'?>
<svg xmlns:xlink="http://www.w3.org/1999/xlink" xmlns="http://www.w3.org/2000/svg" version="1.1" width="74px" height="74px" viewBox="-41.0 -41.0 82.0 82.0"><defs><g id="c1"><path fill="#cc0000" fill-opacity="0.0" d="M-37.0 -37.0 L37.0 -37.0 37.0 37.0 -37.0 37.0 -37.0 -37.0"/><path fill="none" stroke="#c10000" stroke-width="2.0" d="M-37.0 -37.0 L37.0 -37.0 37.0 37.0 -37.0 37.0 -37.0 -37.0"/><path fill="#cc0000" stroke="none" d="M0.35 24.75 Q4.75 24.75 7.0 22.3 9.25 19.8 9.25 16.15 9.25 12.0 6.9 9.35 4.45 6.85 -2.95 1.6 -6.3 3.65 -7.75 7.0 -9.25 10.25 -9.25 13.2 -9.25 18.5 -6.55 21.6 -3.8 24.75 0.35 24.75 M0.8 -4.55 Q4.4 -7.05 5.85 -8.8 8.2 -11.75 8.2 -15.9 8.2 -19.5 5.95 -22.1 3.75 -24.6 -0.85 -24.6 -4.45 -24.6 -6.7 -22.4 -9.0 -20.15 -9.0 -17.0 -9.0 -13.4 -6.3 -10.3 -3.6 -7.25 0.8 -4.55 M0.25 -26.75 Q6.5 -26.75 10.15 -23.4 13.75 -20.1 13.75 -15.7 13.75 -11.25 10.1 -7.65 7.85 -5.6 3.1 -3.0 9.55 1.8 12.45 5.45 15.25 9.0 15.25 13.9 15.25 19.4 11.1 23.15 6.95 26.9 -0.05 26.9 -6.3 26.9 -10.75 23.5 -15.25 19.95 -15.25 14.3 -15.25 9.4 -12.15 5.75 -10.1 3.3 -5.05 -0.05 -10.15 -4.15 -12.0 -6.55 -14.75 -10.25 -14.75 -14.7 -14.75 -19.75 -10.6 -23.25 -6.4 -26.75 0.25 -26.75"/></g></defs><g><g><use transform="matrix(1.0,0.0,0.0,1.0,0.0,0.0)" xlink:href="#c1"/></g></g></svg>