<?xml version='1.0' encoding='UTF-8'?>
<svg xmlns:xlink="http://www.w3.org/1999/xlink" xmlns="http://www.w3.org/2000/svg" version="1.1" width="74px" height="74px" viewBox="-41.0 -41.0 82.0 82.0"><defs><g id="c1"><path fill="#cc0000" fill-opacity="0.0" d="M26.15 -26.15 L18.0 -17.95 17.95 -18.0 Q10.5 -25.45 0.0 -25.45 -10.5 -25.45 -18.0 -18.0 L-26.2 -26.2 -18.0 -18.0 Q-10.5 -25.45 0.0 -25.45 10.5 -25.45 17.95 -18.0 L18.0 -17.95 26.15 -26.15 Q37.0 -15.35 37.0 0.0 L36.55 6.2 Q34.75 17.55 26.1 26.1 15.3 37.0 0.0 37.0 -15.3 37.0 -26.15 26.15 L-26.2 26.1 Q-34.75 17.55 -36.5 6.2 -37.0 3.15 -37.0 0.0 -37.0 -15.35 -26.2 -26.2 -15.3 -37.0 0.0 -37.0 15.3 -37.0 26.1 -26.2 L26.15 -26.15 M17.95 17.9 L0.0 0.0 -18.0 -18.0 Q-25.4 -10.55 -25.4 0.0 -25.4 10.5 -18.0 17.9 L-17.95 17.95 Q-10.45 25.4 0.0 25.4 10.5 25.4 17.95 17.9 25.4 10.5 25.4 0.0 25.4 -10.5 18.0 -17.95 25.4 -10.5 25.4 0.0 25.4 10.5 17.95 17.9 10.5 25.4 0.0 25.4 -10.45 25.4 -17.95 17.95 L-18.0 17.9 Q-25.4 10.5 -25.4 0.0 -25.4 -10.55 -18.0 -18.0 L0.0 0.0 18.0 -17.95 0.0 0.0 17.95 17.9 M-17.95 17.95 L0.0 0.0 -17.95 17.95"/><path fill="none" stroke="#c10000" stroke-width="2.0" d="M-26.2 -26.2 L-18.0 -18.0 Q-10.5 -25.45 0.0 -25.45 10.5 -25.45 17.95 -18.0 L18.0 -17.95 26.15 -26.15 26.1 -26.2 M-26.2 -26.2 L-35.15 -35.15 -31.25 -27.35 M28.3 -32.7 L36.1 -36.6 32.7 -28.25 M35.15 -35.1 L26.15 -26.15 M36.55 6.2 Q34.75 17.55 26.1 26.1 15.3 37.0 0.0 37.0 -15.3 37.0 -26.15 26.15 L-26.2 26.1 Q-34.75 17.55 -36.5 6.2 M18.0 -17.95 Q25.4 -10.5 25.4 0.0 25.4 10.5 17.95 17.9 10.5 25.4 0.0 25.4 -10.45 25.4 -17.95 17.95 L-18.0 17.9 Q-25.4 10.5 -25.4 0.0 -25.4 -10.55 -18.0 -18.0 L0.0 0.0 18.0 -17.95 M0.0 0.0 L17.95 17.9 M-35.15 -35.15 L-26.8 -31.75 M0.0 0.0 L-17.95 17.95"/></g></defs><g><g><use transform="matrix(1.0,0.0,0.0,1.0,0.0,0.0)" xlink:href="#c1"/></g></g></svg>