<?xml version='1.0' encoding='UTF-8'?>
<svg xmlns:xlink="http://www.w3.org/1999/xlink" xmlns="http://www.w3.org/2000/svg" version="1.1" width="120px" height="40px" viewBox="-64.0 -24.0 128.0 48.0"><defs><g id="c1"><path fill="#cccccc" fill-opacity="0.0" d="M60.0 20.0 L20.0 20.0 20.0 -20.0 60.0 -20.0 60.0 20.0"/><path fill="#ffffff" stroke="none" d="M0.0 -20.0 L20.0 -20.0 20.0 20.0 0.0 20.0 0.0 -20.0 0.0 20.0 -20.0 20.0 -40.0 20.0 -60.0 20.0 -60.0 -20.0 -40.0 -20.0 -20.0 -20.0 0.0 -20.0 M-20.0 20.0 L-20.0 -20.0 -20.0 20.0 M-40.0 20.0 L-40.0 -20.0 -40.0 20.0"/><path fill="none" stroke="#000000" stroke-width="2.0" d="M0.0 20.0 L20.0 20.0 20.0 -20.0 0.0 -20.0 0.0 20.0 -20.0 20.0 -40.0 20.0 -60.0 20.0 -60.0 -20.0 -40.0 -20.0 -20.0 -20.0 0.0 -20.0 M-40.0 -20.0 L-40.0 20.0 M-20.0 -20.0 L-20.0 20.0"/><path fill="#333333" stroke="none" d="M39.85 -4.85 Q41.45 -4.85 42.6 -4.25 44.3 -3.35 44.7 -1.1 L43.15 -1.1 Q42.85 -2.4 42.0 -2.95 41.1 -3.55 39.8 -3.55 38.2 -3.55 37.15 -2.35 36.05 -1.15 36.05 1.25 36.05 3.35 36.95 4.65 37.85 5.95 39.85 5.95 41.4 5.95 42.4 5.05 43.4 4.1 43.45 2.1 L39.8 2.1 39.8 0.75 44.9 0.75 44.9 6.95 43.9 6.95 43.5 5.5 42.15 6.7 Q41.1 7.25 39.55 7.25 37.55 7.25 36.1 5.95 34.5 4.3 34.5 1.35 34.5 -1.5 36.05 -3.25 37.5 -4.85 39.85 -4.85"/></g></defs><g><g><use transform="matrix(1.0,0.0,0.0,1.0,0.0,0.0)" xlink:href="#c1"/></g></g></svg>