<?xml version='1.0' encoding='UTF-8'?>
<svg xmlns:xlink="http://www.w3.org/1999/xlink" xmlns="http://www.w3.org/2000/svg" version="1.1" width="50px" height="50px" viewBox="-29.0 -29.0 58.0 58.4"><defs><g id="c1"><path fill="#cc0000" fill-opacity="0.0" d="M-25.0 -24.6 L25.0 -24.6 25.0 25.4 -25.0 25.4 -25.0 -24.6"/><path fill="#cc0000" fill-opacity="0.0" d="M6.75 -2.85 Q12.05 -4.55 16.25 -8.9 18.4 -11.05 19.85 -13.5 22.95 -18.65 23.05 -25.0 22.95 -18.65 19.85 -13.5 18.4 -11.05 16.25 -8.9 12.05 -4.55 6.75 -2.85 L-0.05 -1.9 -6.8 -2.85 Q-12.2 -4.55 -16.45 -8.9 L-17.55 -10.1 -20.0 -13.5 Q-21.4 -15.85 -22.2 -18.45 -23.1 -21.6 -23.2 -25.0 -23.1 -21.6 -22.2 -18.45 -21.4 -15.85 -20.0 -13.5 L-17.55 -10.1 -16.45 -8.9 Q-12.2 -4.55 -6.8 -2.85 -12.45 -4.45 -16.85 -8.9 L-17.8 -9.9 -20.5 -13.5 Q-21.95 -15.85 -22.75 -18.45 -23.75 -21.6 -23.8 -25.0 L-23.2 -25.0 23.05 -25.0 23.7 -25.0 Q23.55 -18.65 20.4 -13.5 18.9 -11.05 16.7 -8.9 12.3 -4.45 6.75 -2.85 M-17.55 -10.1 L-17.8 -9.9 -17.55 -10.1"/><path fill="none" stroke="#c10000" stroke-width="2.0" d="M23.05 -25.0 Q22.95 -18.65 19.85 -13.5 18.4 -11.05 16.25 -8.9 12.05 -4.55 6.75 -2.85 M-23.2 -25.0 Q-23.1 -21.6 -22.2 -18.45 -21.4 -15.85 -20.0 -13.5 L-17.55 -10.1 -16.45 -8.9 Q-12.2 -4.55 -6.8 -2.85 L-0.05 -1.9 6.75 -2.85 M-17.8 -9.9 L-17.55 -10.1 M-0.05 -0.5 L-0.05 -1.9 -0.85 -0.5 -14.05 22.2 -19.7 18.45 M-0.05 25.4 L-0.05 -0.5"/><path fill="none" stroke="#cc0000" stroke-width="2.0" d="M-0.85 -0.5 L-0.05 -0.5 24.0 -0.5 M-0.85 -0.5 L-24.05 -0.5"/></g></defs><g><g><use transform="matrix(1.0,0.0,0.0,1.0,0.0,0.0)" xlink:href="#c1"/></g></g></svg>