<?xml version='1.0' encoding='UTF-8'?>
<svg xmlns:xlink="http://www.w3.org/1999/xlink" xmlns="http://www.w3.org/2000/svg" version="1.1" width="74px" height="103px" viewBox="-41.0 -55.6 82.0 111.2"><defs><g id="c1"><path fill="#cc0000" fill-opacity="0.0" d="M0.0 -51.6 L37.0 -51.6 37.0 5.75 0.0 5.75 0.0 -51.6 0.0 5.75 37.0 5.75 27.75 17.25 18.5 28.7 9.25 40.15 0.0 51.6 -9.25 40.15 -18.5 28.7 -27.75 17.25 -37.0 5.75 -37.0 -51.6 0.0 -51.6 M9.25 40.15 L-9.25 40.15 9.25 40.15 M18.5 28.7 L-18.5 28.7 18.5 28.7 M0.0 5.75 L-37.0 5.75 0.0 5.75 M27.75 17.25 L-27.75 17.25 27.75 17.25"/><path fill="none" stroke="#c10000" stroke-width="2.0" d="M0.0 -51.6 L0.0 5.75 37.0 5.75 M-27.75 17.25 L27.75 17.25 M-37.0 5.75 L0.0 5.75 M-18.5 28.7 L18.5 28.7 M-9.25 40.15 L9.25 40.15"/></g></defs><g><g><use transform="matrix(1.0,0.0,0.0,1.0,0.0,0.0)" xlink:href="#c1"/></g></g></svg>