<?xml version='1.0' encoding='UTF-8'?>
<svg xmlns:xlink="http://www.w3.org/1999/xlink" xmlns="http://www.w3.org/2000/svg" version="1.1" width="82px" height="40px" viewBox="-44.0 -24.0 89.9 48.0"><defs><g id="c1"><path fill="#cccccc" fill-opacity="0.0" d="M40.0 20.0 L0.0 20.0 0.0 -20.0 40.0 -20.0 40.0 20.0"/><path fill="#ffffff" stroke="none" d="M0.0 -20.0 L0.0 20.0 -20.0 0.0 0.0 -20.0 -20.0 0.0 0.0 20.0 -40.0 20.0 -40.0 -20.0 0.0 -20.0 M-40.0 -20.0 L-20.0 0.0 -40.0 20.0 -20.0 0.0 -40.0 -20.0"/><path fill="none" stroke="#000000" stroke-width="2.0" d="M0.0 20.0 L0.0 -20.0 -20.0 0.0 0.0 20.0 -40.0 20.0 -40.0 -20.0 0.0 -20.0 M-40.0 20.0 L-20.0 0.0 -40.0 -20.0"/><path fill="#333333" stroke="none" d="M17.4 -2.9 Q18.55 -1.4 18.55 1.0 18.55 3.55 17.25 5.25 15.75 7.25 12.9 7.25 10.25 7.25 8.75 5.5 7.4 3.85 7.4 1.25 7.4 -1.1 8.55 -2.75 10.0 -4.85 12.9 -4.85 15.95 -4.85 17.4 -2.9 M13.0 -3.55 Q11.2 -3.55 10.05 -2.3 8.95 -1.05 8.95 1.35 8.95 3.3 9.9 4.6 10.9 5.95 13.05 5.95 15.15 5.95 16.05 4.45 17.0 2.95 17.0 1.0 17.0 -1.05 15.95 -2.3 14.85 -3.55 13.0 -3.55 M27.85 -4.15 Q29.45 -3.45 29.45 -1.45 29.45 -0.4 29.0 0.25 28.6 0.9 27.8 1.3 28.5 1.55 28.85 2.0 L29.2 3.45 29.25 5.0 29.35 6.0 Q29.5 6.55 29.9 6.7 L29.9 6.95 28.0 6.95 27.85 6.55 27.7 5.65 27.65 3.75 Q27.6 2.6 26.85 2.2 L25.5 2.0 22.15 2.0 22.15 6.95 20.6 6.95 20.6 -4.55 25.75 -4.55 27.85 -4.15 M22.15 -3.25 L22.15 0.7 25.6 0.7 27.25 0.25 Q27.9 -0.15 27.9 -1.3 27.9 -2.55 27.05 -3.0 L25.8 -3.25 22.15 -3.25 M39.6 -4.25 Q41.3 -3.35 41.7 -1.1 L40.15 -1.1 Q39.85 -2.4 39.0 -2.95 38.1 -3.55 36.8 -3.55 35.2 -3.55 34.15 -2.35 33.05 -1.15 33.05 1.25 33.05 3.35 33.95 4.65 34.85 5.95 36.85 5.95 38.4 5.95 39.4 5.05 40.4 4.1 40.45 2.1 L36.8 2.1 36.8 0.75 41.9 0.75 41.9 6.95 40.9 6.95 40.5 5.5 39.15 6.7 Q38.1 7.25 36.55 7.25 34.55 7.25 33.1 5.95 31.5 4.3 31.5 1.35 31.5 -1.5 33.05 -3.25 34.5 -4.85 36.85 -4.85 38.45 -4.85 39.6 -4.25"/></g></defs><g><g><use transform="matrix(1.0,0.0,0.0,1.0,0.0,0.0)" xlink:href="#c1"/></g></g></svg>