<?xml version='1.0' encoding='UTF-8'?>
<svg xmlns:xlink="http://www.w3.org/1999/xlink" xmlns="http://www.w3.org/2000/svg" version="1.1" width="60px" height="60px" viewBox="-34.0 -34.0 68.0 68.0"><defs><g id="c1"><path fill="#ffffff" fill-opacity="0.0" d="M-30.0 -30.0 L30.0 -30.0 30.0 30.0 -30.0 30.0 -30.0 -30.0"/><path fill="#f6f6f6" stroke="none" d="M17.65 -17.65 Q25.0 -10.35 25.0 0.0 25.0 10.35 17.65 17.7 10.3 25.0 0.0 25.0 -10.35 25.0 -17.7 17.7 -25.0 10.35 -25.0 0.0 -25.0 -10.35 -17.7 -17.65 -10.35 -25.0 0.0 -25.0 10.3 -25.0 17.65 -17.65"/><path fill="none" stroke="#cc0000" stroke-width="2.0" d="M17.65 -17.65 Q25.0 -10.35 25.0 0.0 25.0 10.35 17.65 17.7 10.3 25.0 0.0 25.0 -10.35 25.0 -17.7 17.7 -25.0 10.35 -25.0 0.0 -25.0 -10.35 -17.7 -17.65 -10.35 -25.0 0.0 -25.0 10.3 -25.0 17.65 -17.65"/><path fill="#fafafa" stroke="none" d="M-3.3 -7.75 L-3.3 -14.15 Q-3.3 -15.55 -2.35 -16.55 -1.4 -17.5 0.0 -17.5 1.3 -17.5 2.35 -16.55 3.3 -15.55 3.3 -14.15 L3.3 -7.75 -3.3 -7.75"/><path fill="#d00000" stroke="none" d="M-3.3 -7.75 L3.3 -7.75 3.3 4.65 Q4.1 5.05 4.75 5.75 6.85 7.8 6.85 10.65 6.85 13.5 4.75 15.45 2.85 17.5 0.0 17.5 -2.85 17.5 -4.9 15.45 -6.85 13.5 -6.85 10.65 -6.85 7.8 -4.9 5.75 L-3.3 4.65 -3.3 -7.75"/><path fill="none" stroke="#d20000" stroke-width="2.0" d="M3.3 -7.75 L3.3 -14.15 Q3.3 -15.55 2.35 -16.55 1.3 -17.5 0.0 -17.5 -1.4 -17.5 -2.35 -16.55 -3.3 -15.55 -3.3 -14.15 L-3.3 -7.75 3.3 -7.75 3.3 4.65 Q4.1 5.05 4.75 5.75 6.85 7.8 6.85 10.65 6.85 13.5 4.75 15.45 2.85 17.5 0.0 17.5 -2.85 17.5 -4.9 15.45 -6.85 13.5 -6.85 10.65 -6.85 7.8 -4.9 5.75 L-3.3 4.65 -3.3 -7.75"/></g></defs><g><g><use transform="matrix(1.0,0.0,0.0,1.0,0.0,0.0)" xlink:href="#c1"/></g></g></svg>