<?xml version='1.0' encoding='UTF-8'?>
<svg xmlns:xlink="http://www.w3.org/1999/xlink" xmlns="http://www.w3.org/2000/svg" version="1.1" width="100px" height="40px" viewBox="-54.0 -24.0 108.0 48.0"><defs><g id="c1"><path fill="none" stroke="#000000" stroke-width="2.0" d="M50.0 0.0 L-50.0 0.0"/><path fill="#ffffff" stroke="none" d="M17.05 -14.1 Q24.35 -8.25 24.35 0.0 24.35 8.3 17.05 14.15 L17.0 14.15 Q9.75 20.0 -0.65 20.0 -11.0 20.0 -18.35 14.15 -25.65 8.3 -25.65 0.0 -25.65 -8.25 -18.35 -14.15 -11.0 -20.0 -0.65 -20.0 9.75 -20.0 17.0 -14.15 L17.05 -14.1"/><path fill="none" stroke="#000000" stroke-width="2.0" d="M17.05 -14.1 Q24.35 -8.25 24.35 0.0 24.35 8.3 17.05 14.15 L17.0 14.15 Q9.75 20.0 -0.65 20.0 -11.0 20.0 -18.35 14.15 -25.65 8.3 -25.65 0.0 -25.65 -8.25 -18.35 -14.15 -11.0 -20.0 -0.65 -20.0 9.75 -20.0 17.0 -14.15 L17.05 -14.1"/></g></defs><g><g><use transform="matrix(1.0,0.0,0.0,1.0,0.0,0.0)" xlink:href="#c1"/></g></g></svg>