<?xml version='1.0' encoding='UTF-8'?>
<svg xmlns:xlink="http://www.w3.org/1999/xlink" xmlns="http://www.w3.org/2000/svg" version="1.1" width="50px" height="60px" viewBox="-29.0 -34.0 58.0 67.7"><defs><g id="c1"><path fill="#0099ff" fill-opacity="0.0" d="M-18.0 -18.55 Q-16.6 -16.0 -14.35 -13.75 -8.3 -7.7 0.35 -7.7 8.95 -7.7 15.0 -13.75 17.25 -16.0 18.7 -18.55 17.25 -16.0 15.0 -13.75 8.95 -7.7 0.35 -7.7 -8.3 -7.7 -14.35 -13.75 -16.6 -16.0 -18.0 -18.55 -16.6 -21.2 -14.35 -23.45 -8.3 -29.5 0.35 -29.5 8.95 -29.5 15.0 -23.45 17.25 -21.2 18.7 -18.55 21.1 -14.2 21.1 -8.75 21.1 -0.15 15.0 5.95 8.95 12.0 0.35 12.0 L0.0 12.0 -0.3 12.0 Q-8.55 11.75 -14.35 5.95 -20.4 -0.15 -20.4 -8.75 -20.4 -14.2 -18.0 -18.55"/><path fill="none" stroke="#cc0000" stroke-width="2.0" d="M18.7 -18.55 Q17.25 -16.0 15.0 -13.75 8.95 -7.7 0.35 -7.7 -8.3 -7.7 -14.35 -13.75 -16.6 -16.0 -18.0 -18.55 -20.4 -14.2 -20.4 -8.75 -20.4 -0.15 -14.35 5.95 -8.55 11.75 -0.3 12.0 L0.0 12.0 0.35 12.0 Q8.95 12.0 15.0 5.95 21.1 -0.15 21.1 -8.75 21.1 -14.2 18.7 -18.55 17.25 -21.2 15.0 -23.45 8.95 -29.5 0.35 -29.5 -8.3 -29.5 -14.35 -23.45 -16.6 -21.2 -18.0 -18.55 -20.4 -23.0 -20.4 -28.45 L-20.35 -30.0 M21.0 -30.0 L21.1 -28.45 Q21.1 -23.0 18.7 -18.55 M0.0 12.0 L0.0 29.7"/><path fill="#cc0000" fill-opacity="0.0" d="M-25.0 -30.0 L25.0 -30.0 25.0 29.7 -25.0 29.7 -25.0 -30.0"/></g></defs><g><g><use transform="matrix(1.0,0.0,0.0,1.0,0.0,0.0)" xlink:href="#c1"/></g></g></svg>