<?xml version="1.0" encoding="UTF-8"?>
<svg width="43px" height="43px" viewBox="0 0 43 43" version="1.1" xmlns="http://www.w3.org/2000/svg" xmlns:xlink="http://www.w3.org/1999/xlink">
    <!-- Generator: Sketch 49.3 (51167) - http://www.bohemiancoding.com/sketch -->
    <title>Microwave oven symbol</title>
    <desc>Created with Sketch.</desc>
    <defs></defs>
    <g id="Page-1" stroke="none" stroke-width="1" fill="none" fill-rule="evenodd">
        <g id="Microwave-oven-symbol" transform="translate(1.000000, 0.000000)">
            <rect id="Rectangle-5" fill-opacity="0.00999999978" fill="#FFFFFF" x="0" y="0" width="42" height="42"></rect>
            <g id="Group-11" transform="translate(9.000000, 8.000000)" stroke="#000000">
                <g id="Group-10" transform="translate(2.000000, 6.010000)">
                    <path d="M0,1.82628947 C3.03801765,4.26134211 6.27734318,4.26134211 9.71797658,1.82628947 C13.15861,-0.608763158 16.5415067,-0.608763158 19.8666668,1.82628947" id="Path-8"></path>
                    <path d="M0,6.79416579 C3.03801765,9.22921842 6.27734318,9.22921842 9.71797658,6.79416579 C13.15861,4.35911316 16.5415067,4.35911316 19.8666668,6.79416579" id="Path-8-Copy"></path>
                    <path d="M0,11.7620421 C3.03801765,14.1970947 6.27734318,14.1970947 9.71797658,11.7620421 C13.15861,9.32698947 16.5415067,9.32698947 19.8666668,11.7620421" id="Path-8-Copy-2"></path>
                </g>
                <path d="M0,1 L24,1" id="Path-5"></path>
                <path d="M0,26 L24,26" id="Path-5"></path>
            </g>
            <rect id="Rectangle-4" stroke="#000000" x="0" y="1" width="41" height="41" rx="8"></rect>
        </g>
    </g>
</svg>