<?xml version='1.0' encoding='UTF-8'?>
<svg xmlns:xlink="http://www.w3.org/1999/xlink" xmlns="http://www.w3.org/2000/svg" version="1.1" width="60px" height="60px" viewBox="-34.0 -34.0 68.0 68.0"><defs><g id="c1"><path fill="#ffffff" fill-opacity="0.0" d="M30.0 30.0 L-30.0 30.0 -30.0 -30.0 30.0 -30.0 30.0 30.0"/><path fill="#f6f6f6" stroke="none" d="M-16.7 3.4 Q-15.4 0.6 -13.3 -1.8 -7.8 -8.25 0.0 -8.25 7.8 -8.25 13.35 -1.8 15.4 0.55 16.75 3.4 L0.0 22.8 -16.7 3.4"/><path fill="none" stroke="#cc0000" stroke-width="2.0" d="M-25.8 -7.15 Q-24.2 -9.8 -22.2 -12.1 -13.0 -22.85 0.0 -22.85 12.95 -22.85 22.15 -12.1 L25.8 -7.15 M-21.25 -1.95 Q-19.8 -4.6 -17.8 -7.0 -10.4 -15.55 0.0 -15.55 10.4 -15.55 17.8 -7.0 19.85 -4.6 21.35 -1.95 M-16.7 3.4 Q-15.4 0.6 -13.3 -1.8 -7.8 -8.25 0.0 -8.25 7.8 -8.25 13.35 -1.8 15.4 0.55 16.75 3.4"/><path fill="none" stroke="#d20000" stroke-width="2.0" d="M16.75 3.4 L0.0 22.8 -16.7 3.4"/><path fill="#ce0000" stroke="none" d="M4.3 -1.85 L6.85 -1.85 6.85 10.85 5.0 10.85 5.0 0.2 0.85 10.85 -0.85 10.85 -5.0 0.0 -5.0 10.85 -6.8 10.85 -6.8 -1.85 -3.95 -1.85 0.1 9.0 4.3 -1.85"/></g></defs><g><g><use transform="matrix(1.0,0.0,0.0,1.0,0.0,0.0)" xlink:href="#c1"/></g></g></svg>