<?xml version='1.0' encoding='UTF-8'?>
<svg xmlns:xlink="http://www.w3.org/1999/xlink" xmlns="http://www.w3.org/2000/svg" version="1.1" width="74px" height="74px" viewBox="-41.0 -41.0 82.0 82.0"><defs><g id="c1"><path fill="#cc0000" fill-opacity="0.0" d="M26.1 -26.15 Q37.0 -15.3 37.0 0.0 37.0 15.3 26.1 26.15 15.3 37.0 0.0 37.0 -15.35 37.0 -26.2 26.15 -37.0 15.3 -37.0 0.0 -37.0 -15.3 -26.2 -26.15 -15.35 -37.0 0.0 -37.0 15.3 -37.0 26.1 -26.15"/><path fill="none" stroke="#c10000" stroke-width="2.0" d="M26.1 -26.15 Q37.0 -15.3 37.0 0.0 37.0 15.3 26.1 26.15 15.3 37.0 0.0 37.0 -15.35 37.0 -26.2 26.15 -37.0 15.3 -37.0 0.0 -37.0 -15.3 -26.2 -26.15 -15.35 -37.0 0.0 -37.0 15.3 -37.0 26.1 -26.15"/><path fill="#cc0000" stroke="none" d="M12.75 -23.55 L20.65 -23.55 20.65 20.7 15.0 20.7 15.0 -16.35 2.15 20.7 -3.15 20.7 -15.95 -16.95 -15.95 20.7 -21.6 20.7 -21.6 -23.55 -12.8 -23.55 -0.25 14.35 12.75 -23.55"/></g></defs><g><g><use transform="matrix(1.0,0.0,0.0,1.0,0.0,0.0)" xlink:href="#c1"/></g></g></svg>