<?xml version='1.0' encoding='UTF-8'?>
<svg xmlns:xlink="http://www.w3.org/1999/xlink" xmlns="http://www.w3.org/2000/svg" version="1.1" width="50px" height="40px" viewBox="-29.0 -24.0 58.0 48.0"><defs><g id="c1"><path fill="#ffffff" stroke="none" d="M25.0 -20.0 L25.0 20.0 -25.0 20.0 -25.0 -20.0 25.0 -20.0"/><path fill="none" stroke="#000000" stroke-width="2.0" d="M25.0 -20.0 L-25.0 -20.0 -25.0 20.0 25.0 20.0 25.0 -20.0"/><path fill="#cccccc" fill-opacity="0.0" d="M-25.0 -20.0 L25.0 -20.0 25.0 20.0 -25.0 20.0 -25.0 -20.0"/><path fill="#333333" stroke="none" d="M9.05 -0.4 Q9.5 -0.1 11.1 0.25 L12.65 0.6 Q13.75 0.9 14.4 1.35 15.45 2.15 15.45 3.7 15.45 5.6 14.1 6.45 12.75 7.25 10.95 7.25 8.85 7.25 7.65 6.15 6.5 5.05 6.5 3.2 L7.95 3.2 Q8.0 4.2 8.4 4.8 9.15 5.95 11.0 5.95 L12.55 5.7 Q13.9 5.2 13.9 3.9 13.9 2.95 13.3 2.55 12.75 2.15 11.5 1.9 L10.0 1.55 7.95 0.8 Q6.9 0.05 6.9 -1.35 6.9 -2.9 7.9 -3.9 8.95 -4.85 10.9 -4.85 12.65 -4.85 13.9 -4.0 15.15 -3.1 15.15 -1.15 L13.7 -1.15 13.2 -2.65 Q12.5 -3.55 10.85 -3.55 9.55 -3.55 8.95 -2.95 8.4 -2.4 8.4 -1.6 8.4 -0.75 9.05 -0.4 M1.65 -3.25 L1.65 6.95 0.05 6.95 0.05 -3.25 -3.8 -3.25 -3.8 -4.55 5.5 -4.55 5.5 -3.25 1.65 -3.25 M-13.15 -2.3 Q-14.25 -1.05 -14.25 1.35 -14.25 3.3 -13.3 4.6 -12.3 5.95 -10.15 5.95 -8.05 5.95 -7.15 4.45 -6.2 2.95 -6.2 1.0 -6.2 -1.05 -7.25 -2.3 -8.35 -3.55 -10.2 -3.55 -12.0 -3.55 -13.15 -2.3 M-10.3 -4.85 Q-7.25 -4.85 -5.8 -2.9 -4.65 -1.4 -4.65 1.0 -4.65 3.55 -5.95 5.25 -7.45 7.25 -10.3 7.25 -12.95 7.25 -14.45 5.5 -15.8 3.85 -15.8 1.25 -15.8 -1.1 -14.65 -2.75 -13.2 -4.85 -10.3 -4.85"/></g></defs><g><g><use transform="matrix(1.0,0.0,0.0,1.0,0.0,0.0)" xlink:href="#c1"/></g></g></svg>