<?xml version='1.0' encoding='UTF-8'?>
<svg xmlns:xlink="http://www.w3.org/1999/xlink" xmlns="http://www.w3.org/2000/svg" version="1.1" width="80px" height="40px" viewBox="-44.0 -24.0 88.0 48.0"><defs><g id="c1"><path fill="#333333" stroke="none" d="M17.1 -4.55 Q18.6 -4.55 19.55 -3.7 20.45 -2.8 20.45 -1.25 20.45 0.1 19.65 1.1 18.8 2.1 17.1 2.1 L13.55 2.1 13.55 6.95 11.95 6.95 11.95 -4.55 17.1 -4.55 M18.0 -3.0 L16.6 -3.25 13.55 -3.25 13.55 0.75 16.6 0.75 18.25 0.3 Q18.9 -0.15 18.9 -1.25 18.9 -2.55 18.0 -3.0 M25.0 -1.4 L26.1 -1.4 26.1 -3.75 27.55 -3.75 27.55 -1.4 28.9 -1.4 28.9 -0.25 27.55 -0.25 27.55 5.15 Q27.55 5.6 27.85 5.75 L28.4 5.85 28.65 5.8 28.9 5.75 28.9 6.95 28.4 7.05 27.8 7.1 Q26.8 7.1 26.45 6.6 26.1 6.1 26.1 5.25 L26.1 -0.25 25.0 -0.25 25.0 -1.4 M22.3 -3.0 L22.3 -4.55 23.75 -4.55 23.75 -3.0 22.3 -3.0 M23.75 -1.4 L23.75 6.95 22.3 6.95 22.3 -1.4 23.75 -1.4"/><path fill="#cccccc" fill-opacity="0.0" d="M40.0 20.0 L0.0 20.0 0.0 -20.0 40.0 -20.0 40.0 20.0"/><path fill="#ffffff" stroke="none" d="M0.0 -20.0 L0.0 20.0 -40.0 20.0 -40.0 -20.0 0.0 -20.0"/><path fill="none" stroke="#000000" stroke-width="2.0" d="M0.0 -20.0 L-40.0 -20.0 -40.0 20.0 0.0 20.0 0.0 -20.0"/></g></defs><g><g><use transform="matrix(1.0,0.0,0.0,1.0,0.0,0.0)" xlink:href="#c1"/></g></g></svg>