<?xml version='1.0' encoding='UTF-8'?>
<svg xmlns:xlink="http://www.w3.org/1999/xlink" xmlns="http://www.w3.org/2000/svg" version="1.1" width="55px" height="46px" viewBox="-30.95 -26.75 62.6 53.7"><defs><g id="c1"><path fill="#333333" fill-opacity="0.0" d="M-26.95 -22.75 L26.9 -22.75 26.9 22.95 -26.95 22.95 -26.95 -22.75"/><path fill="#000000" stroke="none" d="M-0.65 -16.3 L26.9 0.1 -1.05 15.7 -0.65 -16.3"/><path fill="none" stroke="#000000" stroke-width="2.0" d="M-26.95 0.1 L-10.85 0.1 -10.85 -0.15 Q-10.75 -7.95 -5.2 -13.5 -3.2 -15.5 -0.9 -16.8 3.25 -19.15 8.4 -19.15 16.35 -19.15 22.0 -13.5 27.65 -7.85 27.65 0.1 27.65 8.05 22.0 13.7 16.35 19.35 8.4 19.35 3.9 19.35 0.15 17.55 -2.75 16.15 -5.2 13.7 -10.85 8.05 -10.85 0.1"/></g></defs><g><g><use transform="matrix(1.0,0.0,0.0,1.0,0.0,0.0)" xlink:href="#c1"/></g></g></svg>