<?xml version='1.0' encoding='UTF-8'?>
<svg xmlns:xlink="http://www.w3.org/1999/xlink" xmlns="http://www.w3.org/2000/svg" version="1.1" width="74px" height="74px" viewBox="-41.0 -41.0 82.0 82.0"><defs><g id="c1"><path fill="#cc0000" fill-opacity="0.0" d="M-36.5 6.25 Q-37.0 3.2 -37.0 0.0 -37.0 -15.3 -26.2 -26.15 -19.4 -32.95 -10.85 -35.45 -5.75 -37.0 0.0 -37.0 4.5 -37.0 8.7 -36.0 18.5 -33.8 26.1 -26.15 L26.15 -26.1 Q37.0 -15.3 37.0 0.0 37.0 3.2 36.5 6.25 34.7 17.6 26.1 26.15 15.3 37.0 0.0 37.0 -15.35 37.0 -26.15 26.2 L-26.2 26.15 Q-34.75 17.6 -36.5 6.25 M17.95 -17.9 L0.0 0.0 -18.0 -17.95 Q-25.45 -10.5 -25.45 0.0 -25.45 10.55 -18.0 17.95 L-17.95 18.0 Q-10.5 25.4 0.0 25.4 10.5 25.4 17.9 17.95 25.4 10.55 25.4 0.0 25.4 -10.45 17.95 -17.9 L17.9 -17.95 17.95 -17.9 Q25.4 -10.45 25.4 0.0 25.4 10.55 17.9 17.95 10.5 25.4 0.0 25.4 -10.5 25.4 -17.95 18.0 L-18.0 17.95 Q-25.45 10.55 -25.45 0.0 -25.45 -10.5 -18.0 -17.95 -10.55 -25.4 0.0 -25.4 10.5 -25.4 17.9 -17.95 10.5 -25.4 0.0 -25.4 -10.55 -25.4 -18.0 -17.95 L0.0 0.0 17.95 -17.9 M-17.95 18.0 L0.0 0.0 17.9 17.95 0.0 0.0 -17.95 18.0"/><path fill="none" stroke="#c10000" stroke-width="2.0" d="M36.5 6.25 Q34.7 17.6 26.1 26.15 15.3 37.0 0.0 37.0 -15.35 37.0 -26.15 26.2 L-26.2 26.15 Q-34.75 17.6 -36.5 6.25 M17.9 -17.95 L17.95 -17.9 Q25.4 -10.45 25.4 0.0 25.4 10.55 17.9 17.95 10.5 25.4 0.0 25.4 -10.5 25.4 -17.95 18.0 L-18.0 17.95 Q-25.45 10.55 -25.45 0.0 -25.45 -10.5 -18.0 -17.95 -10.55 -25.4 0.0 -25.4 10.5 -25.4 17.9 -17.95 M17.9 17.95 L0.0 0.0 -17.95 18.0 M-18.0 -17.95 L0.0 0.0 17.95 -17.9"/></g></defs><g><g><use transform="matrix(1.0,0.0,0.0,1.0,0.0,0.0)" xlink:href="#c1"/></g></g></svg>