<?xml version='1.0' encoding='UTF-8'?>
<svg xmlns:xlink="http://www.w3.org/1999/xlink" xmlns="http://www.w3.org/2000/svg" version="1.1" width="90px" height="40px" viewBox="-49.0 -24.0 98.0 48.0"><defs><g id="c1"><path fill="#cccccc" fill-opacity="0.0" d="M45.0 20.0 L-5.0 20.0 -5.0 -20.0 45.0 -20.0 45.0 20.0"/><path fill="#ffffff" stroke="none" d="M-25.0 -20.0 Q-16.7 -20.0 -10.9 -14.15 -5.0 -8.25 -5.0 0.0 -5.0 8.3 -10.9 14.15 -16.7 20.0 -25.0 20.0 -33.3 20.0 -39.15 14.15 -45.0 8.3 -45.0 0.0 -45.0 -8.25 -39.15 -14.15 -33.3 -20.0 -25.0 -20.0"/><path fill="none" stroke="#000000" stroke-width="2.0" d="M-25.0 -20.0 Q-16.7 -20.0 -10.9 -14.15 -5.0 -8.25 -5.0 0.0 -5.0 8.3 -10.9 14.15 -16.7 20.0 -25.0 20.0 -33.3 20.0 -39.15 14.15 -45.0 8.3 -45.0 0.0 -45.0 -8.25 -39.15 -14.15 -33.3 -20.0 -25.0 -20.0"/><path fill="#333333" stroke="none" d="M6.45 -3.25 L6.45 0.75 9.5 0.75 11.15 0.3 Q11.8 -0.15 11.8 -1.25 11.8 -2.55 10.9 -3.0 L9.5 -3.25 6.45 -3.25 M10.0 -4.55 Q11.5 -4.55 12.45 -3.7 13.35 -2.8 13.35 -1.25 13.35 0.1 12.55 1.1 11.7 2.1 10.0 2.1 L6.45 2.1 6.45 6.95 4.85 6.95 4.85 -4.55 10.0 -4.55 M16.6 -1.4 L16.6 0.0 17.35 -1.05 Q18.0 -1.65 18.8 -1.65 L18.95 -1.65 19.25 -1.6 19.25 -0.1 19.05 -0.15 18.8 -0.15 Q17.75 -0.15 17.2 0.5 16.65 1.2 16.65 2.1 L16.65 6.95 15.2 6.95 15.2 -1.4 16.6 -1.4 M36.3 -1.4 L33.15 6.95 31.65 6.95 28.55 -1.4 30.2 -1.4 32.4 5.4 34.75 -1.4 36.3 -1.4 M23.9 -1.65 Q25.5 -1.65 26.65 -0.6 27.75 0.5 27.75 2.6 27.75 4.6 26.75 5.95 25.8 7.25 23.7 7.25 22.0 7.25 21.0 6.1 20.0 4.9 20.0 2.95 20.0 0.85 21.05 -0.4 22.1 -1.65 23.9 -1.65 M25.85 0.7 Q25.3 -0.5 23.9 -0.5 22.65 -0.5 22.05 0.5 21.5 1.5 21.5 2.9 21.5 4.25 22.05 5.2 22.65 6.1 23.85 6.1 25.25 6.1 25.75 5.0 26.25 3.95 26.25 2.6 26.25 1.45 25.85 0.7"/></g></defs><g><g><use transform="matrix(1.0,0.0,0.0,1.0,0.0,0.0)" xlink:href="#c1"/></g></g></svg>