<?xml version='1.0' encoding='UTF-8'?>
<svg xmlns:xlink="http://www.w3.org/1999/xlink" xmlns="http://www.w3.org/2000/svg" version="1.1" width="50px" height="51px" viewBox="-29.0 -29.05 58.0 59.3"><defs><g id="c1"><path fill="#0099ff" fill-opacity="0.0" d="M3.65 -2.45 L4.1 -2.05 Q8.7 2.6 8.7 9.1 8.7 15.6 4.1 20.25 -0.55 24.85 -7.05 24.85 -13.55 24.85 -18.2 20.25 -22.8 15.6 -22.8 9.1 -22.8 2.6 -18.2 -2.05 -13.55 -6.65 -7.05 -6.65 -0.85 -6.65 3.65 -2.45"/><path fill="none" stroke="#c10000" stroke-width="2.0" d="M3.65 -2.45 L18.0 -23.4 22.5 -19.9 M18.0 -23.4 L18.0 -4.15 22.25 -8.65 M18.0 -4.15 L13.25 -8.65 M3.65 -2.45 L4.1 -2.05 Q8.7 2.6 8.7 9.1 8.7 15.6 4.1 20.25 -0.55 24.85 -7.05 24.85 -13.55 24.85 -18.2 20.25 -22.8 15.6 -22.8 9.1 -22.8 2.6 -18.2 -2.05 -13.55 -6.65 -7.05 -6.65 -0.85 -6.65 3.65 -2.45"/><path fill="#cc0000" fill-opacity="0.0" d="M25.0 -25.05 L25.0 26.25 -25.0 26.25 -25.0 -25.05 25.0 -25.05"/></g></defs><g><g><use transform="matrix(1.0,0.0,0.0,1.0,0.0,0.0)" xlink:href="#c1"/></g></g></svg>