<?xml version='1.0' encoding='UTF-8'?>
<svg xmlns:xlink="http://www.w3.org/1999/xlink" xmlns="http://www.w3.org/2000/svg" version="1.1" width="96px" height="30px" viewBox="-54.0 -19.0 104.35 38.0"><defs><g id="c1"><path fill="none" stroke="#000000" stroke-width="2.0" d="M16.0 0.0 L-50.0 0.0"/><path fill="none" stroke="#000000" stroke-width="2.0" d="M28.0 0.0 L34.0 0.0 M16.0 0.0 L22.0 0.0 M40.0 0.0 L46.0 0.0"/><path fill="#ffffff" stroke="none" d="M10.6 -10.55 Q15.0 -6.2 15.0 0.0 15.0 6.25 10.6 10.6 6.25 15.0 0.0 15.0 -6.2 15.0 -10.6 10.6 -15.0 6.25 -15.0 0.0 -15.0 -6.2 -10.6 -10.6 -6.2 -15.0 0.0 -15.0 6.25 -15.0 10.6 -10.6 L10.6 -10.55"/><path fill="none" stroke="#000000" stroke-width="2.0" d="M10.6 -10.55 Q15.0 -6.2 15.0 0.0 15.0 6.25 10.6 10.6 6.25 15.0 0.0 15.0 -6.2 15.0 -10.6 10.6 -15.0 6.25 -15.0 0.0 -15.0 -6.2 -10.6 -10.6 -6.2 -15.0 0.0 -15.0 6.25 -15.0 10.6 -10.6 L10.6 -10.55"/><path fill="#000000" stroke="none" d="M5.3 5.3 Q3.15 7.5 0.0 7.5 -3.1 7.5 -5.3 5.3 -7.5 3.15 -7.5 0.0 -7.5 -3.1 -5.3 -5.3 -3.1 -7.5 0.0 -7.5 3.15 -7.5 5.3 -5.3 L5.3 -5.25 Q7.5 -3.1 7.5 0.0 7.5 3.15 5.3 5.3"/><path fill="#cccccc" fill-opacity="0.0" d="M46.35 -15.0 L46.35 15.0 -49.95 15.0 -49.95 -15.0 46.35 -15.0"/></g></defs><g><g><use transform="matrix(1.0,0.0,0.0,1.0,0.0,0.0)" xlink:href="#c1"/></g></g></svg>