<?xml version='1.0' encoding='UTF-8'?>
<svg xmlns:xlink="http://www.w3.org/1999/xlink" xmlns="http://www.w3.org/2000/svg" version="1.1" width="50px" height="50px" viewBox="-29.0 -29.0 58.0 58.0"><defs><g id="c1"><path fill="#0099ff" fill-opacity="0.0" d="M11.05 -10.5 L10.45 -11.1 Q6.0 -15.6 -0.3 -15.6 -6.65 -15.6 -11.1 -11.1 -15.6 -6.65 -15.6 -0.3 -15.6 6.0 -11.1 10.45 L-10.5 11.05 Q-6.25 14.95 -0.3 14.95 6.0 14.95 10.45 10.45 14.95 6.0 14.95 -0.3 14.95 -6.25 11.05 -10.5 14.95 -6.25 14.95 -0.3 14.95 6.0 10.45 10.45 6.0 14.95 -0.3 14.95 -6.25 14.95 -10.5 11.05 L-11.1 10.45 Q-15.6 6.0 -15.6 -0.3 -15.6 -6.65 -11.1 -11.1 -6.65 -15.6 -0.3 -15.6 6.0 -15.6 10.45 -11.1 L11.05 -10.5 0.25 0.25 10.45 10.45 0.25 0.25 11.05 -10.5 M17.65 -17.7 Q25.0 -10.3 25.0 0.0 25.0 10.35 17.65 17.65 10.35 25.0 0.0 25.0 -10.3 25.0 -17.7 17.65 -25.0 10.35 -25.0 0.0 -25.0 -10.3 -17.7 -17.7 -10.3 -25.0 0.0 -25.0 10.35 -25.0 17.65 -17.7 M-10.5 11.05 L0.25 0.25 -11.1 -11.1 0.25 0.25 -10.5 11.05"/><path fill="none" stroke="#cc0000" stroke-width="2.0" d="M11.05 -10.5 Q14.95 -6.25 14.95 -0.3 14.95 6.0 10.45 10.45 6.0 14.95 -0.3 14.95 -6.25 14.95 -10.5 11.05 L-11.1 10.45 Q-15.6 6.0 -15.6 -0.3 -15.6 -6.65 -11.1 -11.1 -6.65 -15.6 -0.3 -15.6 6.0 -15.6 10.45 -11.1 L11.05 -10.5 M17.65 -17.7 Q25.0 -10.3 25.0 0.0 25.0 10.35 17.65 17.65 10.35 25.0 0.0 25.0 -10.3 25.0 -17.7 17.65 -25.0 10.35 -25.0 0.0 -25.0 -10.3 -17.7 -17.7 -10.3 -25.0 0.0 -25.0 10.35 -25.0 17.65 -17.7"/><path fill="none" stroke="#c10000" stroke-width="2.0" d="M11.05 -10.5 L0.25 0.25 10.45 10.45 M-11.1 -11.1 L0.25 0.25 -10.5 11.05"/></g></defs><g><g><use transform="matrix(1.0,0.0,0.0,1.0,0.0,0.0)" xlink:href="#c1"/></g></g></svg>