<?xml version='1.0' encoding='UTF-8'?>
<svg xmlns:xlink="http://www.w3.org/1999/xlink" xmlns="http://www.w3.org/2000/svg" version="1.1" width="100px" height="35px" viewBox="-54.0 -23.7 108.0 42.7"><defs><g id="c1"><path fill="#cccccc" fill-opacity="0.0" d="M46.35 15.0 L-49.95 15.0 -49.95 -15.0 46.35 -15.0 46.35 15.0"/><path fill="#ffffff" stroke="none" d="M0.5 0.0 L-0.2 0.5 -0.2 0.0 -0.2 -0.45 0.5 0.0"/><path fill="none" stroke="#000000" stroke-width="2.0" d="M50.0 0.0 L0.5 0.0 -0.2 0.5 -0.2 15.0 M-0.2 -15.0 L-0.2 -0.45 0.5 0.0 M-0.2 -0.45 L-22.0 -15.0 -22.0 0.0 -0.2 0.0 -0.2 -0.45 M-22.0 0.0 L-22.0 15.0 -0.2 0.5 -0.2 0.0 M-22.0 0.0 L-50.0 0.0"/><path fill="#000000" stroke="none" d="M11.0 -13.15 L11.0 -8.2 9.45 -8.2 9.45 -19.7 14.6 -19.7 16.7 -19.3 Q18.3 -18.6 18.3 -16.6 18.3 -15.55 17.85 -14.9 17.45 -14.25 16.65 -13.85 17.35 -13.6 17.7 -13.15 L18.05 -11.7 18.1 -10.15 18.2 -9.15 Q18.35 -8.6 18.75 -8.45 L18.75 -8.2 16.85 -8.2 16.7 -8.6 16.55 -9.5 16.5 -11.4 Q16.45 -12.55 15.7 -12.95 L14.35 -13.15 11.0 -13.15 M14.45 -14.45 Q15.5 -14.45 16.1 -14.9 16.75 -15.3 16.75 -16.45 16.75 -17.7 15.9 -18.15 L14.65 -18.4 11.0 -18.4 11.0 -14.45 14.45 -14.45"/></g></defs><g><g><use transform="matrix(1.0,0.0,0.0,1.0,0.0,0.0)" xlink:href="#c1"/></g></g></svg>