<?xml version='1.0' encoding='UTF-8'?>
<svg xmlns:xlink="http://www.w3.org/1999/xlink" xmlns="http://www.w3.org/2000/svg" version="1.1" width="49px" height="50px" viewBox="-28.85 -29.0 56.75 58.0"><defs><g id="c1"><path fill="none" stroke="#c10000" stroke-width="2.0" d="M11.85 -24.7 L11.85 -18.6 16.1 -18.6 16.1 18.65 11.85 18.65 11.85 24.75"/><path fill="#0099ff" fill-opacity="0.0" d="M13.2 -0.65 Q13.2 5.55 8.75 10.0 4.35 14.45 -1.95 14.45 -8.15 14.45 -12.6 10.0 -17.05 5.55 -17.05 -0.65 -17.05 -6.9 -12.6 -11.4 -8.15 -15.8 -1.95 -15.8 4.35 -15.8 8.75 -11.4 13.2 -6.9 13.2 -0.65 M7.1 -0.85 Q7.1 -4.7 4.4 -7.35 1.75 -10.1 -2.1 -10.1 -5.95 -10.1 -8.65 -7.35 -11.3 -4.7 -11.3 -0.85 -11.3 2.95 -8.65 5.7 -5.95 8.35 -2.1 8.35 1.75 8.35 4.4 5.7 7.1 2.95 7.1 -0.85 7.1 2.95 4.4 5.7 1.75 8.35 -2.1 8.35 -5.95 8.35 -8.65 5.7 -11.3 2.95 -11.3 -0.85 -11.3 -4.7 -8.65 -7.35 -5.95 -10.1 -2.1 -10.1 1.75 -10.1 4.4 -7.35 7.1 -4.7 7.1 -0.85"/><path fill="none" stroke="#cc0000" stroke-width="2.0" d="M13.2 -0.65 Q13.2 5.55 8.75 10.0 4.35 14.45 -1.95 14.45 -8.15 14.45 -12.6 10.0 -17.05 5.55 -17.05 -0.65 -17.05 -6.9 -12.6 -11.4 -8.15 -15.8 -1.95 -15.8 4.35 -15.8 8.75 -11.4 13.2 -6.9 13.2 -0.65 M7.1 -0.85 Q7.1 2.95 4.4 5.7 1.75 8.35 -2.1 8.35 -5.95 8.35 -8.65 5.7 -11.3 2.95 -11.3 -0.85 -11.3 -4.7 -8.65 -7.35 -5.95 -10.1 -2.1 -10.1 1.75 -10.1 4.4 -7.35 7.1 -4.7 7.1 -0.85"/><path fill="#cc0000" fill-opacity="0.0" d="M-24.85 -25.0 L23.9 -25.0 23.9 25.0 -24.85 25.0 -24.85 -25.0"/></g></defs><g><g><use transform="matrix(1.0,0.0,0.0,1.0,0.0,0.0)" xlink:href="#c1"/></g></g></svg>