<?xml version='1.0' encoding='UTF-8'?>
<svg xmlns:xlink="http://www.w3.org/1999/xlink" xmlns="http://www.w3.org/2000/svg" version="1.1" width="60px" height="60px" viewBox="-34.0 -34.0 68.0 68.0"><defs><g id="c1"><path fill="none" stroke="#d20000" stroke-width="2.0" d="M0.0 -4.6 L0.0 30.0"/><path fill="#ffffff" fill-opacity="0.0" d="M30.0 -30.0 L30.0 30.0 -30.0 30.0 -30.0 -30.0 30.0 -30.0"/><path fill="#f6f6f6" stroke="none" d="M20.15 7.2 L-20.1 7.2 -20.1 -21.2 20.15 -21.2 20.15 7.2"/><path fill="none" stroke="#d20000" stroke-width="2.0" d="M20.15 7.2 L-20.1 7.2 -20.1 -21.2 20.15 -21.2 20.15 7.2"/><path fill="#ce0000" stroke="none" d="M-4.35 -15.1 Q-2.9 -14.5 -2.15 -13.25 -1.35 -12.05 -1.25 -10.55 L-3.45 -10.4 Q-3.65 -12.0 -4.65 -12.85 -5.7 -13.7 -7.7 -13.7 -9.8 -13.7 -10.75 -12.9 -11.7 -12.15 -11.7 -11.1 -11.7 -10.15 -11.0 -9.55 -10.35 -8.95 -7.55 -8.3 L-3.7 -7.2 Q-2.2 -6.5 -1.5 -5.4 -0.75 -4.35 -0.75 -2.95 -0.75 -1.55 -1.5 -0.3 -2.3 0.9 -3.8 1.6 -5.3 2.25 -7.15 2.25 L-11.1 1.6 Q-12.7 0.9 -13.6 -0.5 -14.55 -1.85 -14.55 -3.6 L-12.4 -3.8 Q-12.25 -2.5 -11.7 -1.7 -11.1 -0.85 -9.95 -0.3 L-7.3 0.2 -4.95 -0.2 Q-3.95 -0.6 -3.45 -1.25 -2.95 -1.95 -2.95 -2.75 -2.95 -3.6 -3.4 -4.2 L-5.0 -5.2 -8.1 -6.05 Q-10.45 -6.65 -11.45 -7.15 -12.7 -7.8 -13.25 -8.75 -13.9 -9.75 -13.9 -10.95 -13.9 -12.25 -13.15 -13.4 -12.4 -14.55 -11.0 -15.15 -9.55 -15.75 -7.8 -15.75 -5.9 -15.75 -4.35 -15.1"/><path fill="#ce0000" stroke="none" d="M10.85 -15.1 Q12.3 -14.5 13.05 -13.25 13.85 -12.05 13.95 -10.55 L11.75 -10.4 Q11.55 -12.0 10.55 -12.85 9.5 -13.7 7.5 -13.7 5.4 -13.7 4.45 -12.9 3.5 -12.15 3.5 -11.1 3.5 -10.15 4.2 -9.55 4.85 -8.95 7.65 -8.3 L11.5 -7.2 Q13.0 -6.5 13.7 -5.4 14.45 -4.35 14.45 -2.95 14.45 -1.55 13.7 -0.3 12.9 0.9 11.4 1.6 9.9 2.25 8.05 2.25 L4.1 1.6 Q2.5 0.9 1.6 -0.5 0.65 -1.85 0.65 -3.6 L2.8 -3.8 Q2.95 -2.5 3.5 -1.7 4.1 -0.85 5.25 -0.3 L7.9 0.2 10.25 -0.2 Q11.25 -0.6 11.75 -1.25 12.25 -1.95 12.25 -2.75 12.25 -3.6 11.8 -4.2 11.3 -4.8 10.2 -5.2 L7.1 -6.05 Q4.75 -6.65 3.75 -7.15 2.5 -7.8 1.95 -8.75 1.3 -9.75 1.3 -10.95 1.3 -12.25 2.05 -13.4 2.8 -14.55 4.2 -15.15 5.65 -15.75 7.4 -15.75 L10.85 -15.1"/><path fill="none" stroke="#d20000" stroke-width="2.0" d="M-8.6 13.55 L8.6 13.55"/></g></defs><g><g><use transform="matrix(1.0,0.0,0.0,1.0,0.0,0.0)" xlink:href="#c1"/></g></g></svg>