<?xml version='1.0' encoding='UTF-8'?>
<svg xmlns:xlink="http://www.w3.org/1999/xlink" xmlns="http://www.w3.org/2000/svg" version="1.1" width="74px" height="74px" viewBox="-41.0 -41.0 82.0 82.0"><defs><g id="c1"><path fill="#cc0000" fill-opacity="0.0" d="M-37.0 -37.0 L37.0 -37.0 37.0 37.0 -37.0 37.0 -37.0 -37.0"/><path fill="none" stroke="#c10000" stroke-width="2.0" d="M-37.0 -37.0 L37.0 -37.0 37.0 37.0 -37.0 37.0 -37.0 -37.0"/><path fill="#cc0000" stroke="none" d="M-6.7 -7.15 Q-3.75 -10.1 0.5 -10.1 4.7 -10.1 7.6 -7.15 L7.65 -7.1 Q10.6 -4.15 10.6 0.05 10.6 4.25 7.6 7.2 4.7 10.15 0.5 10.15 -3.75 10.15 -6.65 7.2 L-6.7 7.2 Q-9.65 4.25 -9.65 0.05 -9.65 -4.15 -6.7 -7.15"/><path fill="none" stroke="#c10000" stroke-width="2.0" d="M7.65 -7.1 L31.25 -30.8 M-6.7 -7.15 Q-3.75 -10.1 0.5 -10.1 4.7 -10.1 7.6 -7.15 L7.65 -7.1 Q10.6 -4.15 10.6 0.05 10.6 4.25 7.6 7.2 L31.25 30.85 M7.6 7.2 Q4.7 10.15 0.5 10.15 -3.75 10.15 -6.65 7.2 L-30.3 30.85 M-6.7 -7.15 L-30.3 -30.8 M-6.65 7.2 L-6.7 7.2 Q-9.65 4.25 -9.65 0.05 -9.65 -4.15 -6.7 -7.15"/></g></defs><g><g><use transform="matrix(1.0,0.0,0.0,1.0,0.0,0.0)" xlink:href="#c1"/></g></g></svg>