<?xml version='1.0' encoding='UTF-8'?>
<svg xmlns:xlink="http://www.w3.org/1999/xlink" xmlns="http://www.w3.org/2000/svg" version="1.1" width="60px" height="60px" viewBox="-34.0 -34.0 68.0 68.0"><defs><g id="c1"><path fill="#ffffff" fill-opacity="0.0" d="M30.0 -30.0 L30.0 30.0 -30.0 30.0 -30.0 -30.0 30.0 -30.0"/><path fill="#f6f6f6" stroke="none" d="M17.65 -17.65 Q25.0 -10.35 25.0 0.0 25.0 10.35 17.65 17.7 10.3 25.0 0.0 25.0 -10.35 25.0 -17.7 17.7 -25.0 10.35 -25.0 0.0 -25.0 -10.35 -17.7 -17.65 -10.35 -25.0 0.0 -25.0 10.3 -25.0 17.65 -17.65"/><path fill="none" stroke="#cc0000" stroke-width="2.0" d="M17.65 -17.65 Q25.0 -10.35 25.0 0.0 25.0 10.35 17.65 17.7 10.3 25.0 0.0 25.0 -10.35 25.0 -17.7 17.7 -25.0 10.35 -25.0 0.0 -25.0 -10.35 -17.7 -17.65 -10.35 -25.0 0.0 -25.0 10.3 -25.0 17.65 -17.65"/><path fill="#ce0000" stroke="none" d="M0.15 -2.05 Q3.85 -1.25 5.2 -0.6 7.2 0.3 8.15 1.75 9.1 3.15 9.1 5.0 9.1 6.8 8.1 8.45 7.05 10.05 5.1 10.95 3.1 11.85 0.65 11.85 -2.45 11.85 -4.55 10.95 -6.65 10.05 -7.85 8.2 -9.05 6.4 -9.1 4.1 L-6.25 3.85 Q-6.05 5.55 -5.3 6.65 -4.55 7.75 -3.0 8.45 -1.45 9.1 0.5 9.1 L3.6 8.6 Q4.9 8.1 5.55 7.2 6.2 6.3 6.2 5.25 6.2 4.15 5.6 3.35 4.95 2.55 3.5 2.0 L-0.55 0.9 -5.0 -0.55 Q-6.65 -1.4 -7.4 -2.65 -8.25 -3.95 -8.25 -5.55 -8.25 -7.25 -7.25 -8.75 -6.25 -10.3 -4.4 -11.05 -2.5 -11.85 -0.15 -11.85 2.35 -11.85 4.35 -11.0 6.25 -10.2 7.3 -8.6 8.35 -7.0 8.45 -5.0 L5.55 -4.8 Q5.3 -6.95 3.95 -8.05 2.6 -9.15 -0.05 -9.15 -2.8 -9.15 -4.05 -8.15 -5.3 -7.15 -5.3 -5.75 -5.3 -4.5 -4.4 -3.7 -3.55 -2.9 0.15 -2.05"/></g></defs><g><g><use transform="matrix(1.0,0.0,0.0,1.0,0.0,0.0)" xlink:href="#c1"/></g></g></svg>