<?xml version='1.0' encoding='UTF-8'?>
<svg xmlns:xlink="http://www.w3.org/1999/xlink" xmlns="http://www.w3.org/2000/svg" version="1.1" width="19px" height="43px" viewBox="-13.5 -25.4 26.7 50.8"><defs><g id="c1"><path fill="#ffffff" fill-opacity="0.0" d="M-9.3 -21.4 L9.2 -21.4 9.2 21.4 -9.3 21.4 -9.3 -21.4"/><path fill="#ffffff" stroke="none" d="M9.2 12.1 Q9.2 15.95 6.5 18.65 3.8 21.35 -0.05 21.35 -3.9 21.35 -6.6 18.65 -9.3 15.95 -9.3 12.1 -9.3 8.25 -6.6 5.55 -3.95 2.9 -0.2 2.85 L-0.05 2.85 Q3.8 2.85 6.5 5.55 9.2 8.25 9.2 12.1"/><path fill="none" stroke="#000000" stroke-width="2.0" d="M9.2 12.1 Q9.2 15.95 6.5 18.65 3.8 21.35 -0.05 21.35 -3.9 21.35 -6.6 18.65 -9.3 15.95 -9.3 12.1 -9.3 8.25 -6.6 5.55 -3.95 2.9 -0.2 2.85 L-0.05 2.85 Q3.8 2.85 6.5 5.55 9.2 8.25 9.2 12.1"/><path fill="none" stroke="#000000" stroke-width="2.0" d="M0.25 2.3 L-5.65 0.85 Q-9.5 0.15 -8.35 -3.35 -7.25 -6.6 -1.3 -6.55 2.6 -6.3 2.75 -10.85 2.8 -14.7 -2.7 -14.15 -6.85 -14.0 -5.95 -20.4"/></g></defs><g><g><use transform="matrix(1.0,0.0,0.0,1.0,0.0,0.0)" xlink:href="#c1"/></g></g></svg>