<?xml version='1.0' encoding='UTF-8'?>
<svg xmlns:xlink="http://www.w3.org/1999/xlink" xmlns="http://www.w3.org/2000/svg" version="1.1" width="50px" height="51px" viewBox="-29.0 -30.0 58.0 59.2"><defs><g id="c1"><path fill="#ffffff" stroke="none" d="M-12.35 -0.45 L-22.95 -0.45 -22.95 -0.55 Q-22.95 -10.25 -16.1 -17.1 -9.4 -23.8 -0.05 -24.0 L0.5 -24.0 Q10.15 -24.0 17.05 -17.1 23.9 -10.25 23.9 -0.55 L23.9 -0.45 12.05 -0.45 -0.05 -0.45 -12.35 -0.45 M-0.05 -24.0 L-0.05 -0.45 -0.05 -24.0"/><path fill="none" stroke="#cc0000" stroke-width="2.0" d="M-12.35 -0.45 L-22.95 -0.45 -22.95 -0.55 Q-22.95 -10.25 -16.1 -17.1 -9.4 -23.8 -0.05 -24.0 L0.5 -24.0 Q10.15 -24.0 17.05 -17.1 23.9 -10.25 23.9 -0.55 L23.9 -0.45 12.05 -0.45 12.05 24.75 M12.05 -0.45 L-0.05 -0.45 -12.35 -0.45 -12.35 24.1"/><path fill="none" stroke="#c10000" stroke-width="2.0" d="M-0.05 -0.45 L-0.05 -24.0"/><path fill="#cc0000" fill-opacity="0.0" d="M25.0 -26.0 L25.0 25.2 -25.0 25.2 -25.0 -26.0 25.0 -26.0"/></g></defs><g><g><use transform="matrix(1.0,0.0,0.0,1.0,0.0,0.0)" xlink:href="#c1"/></g></g></svg>