<?xml version='1.0' encoding='UTF-8'?>
<svg xmlns:xlink="http://www.w3.org/1999/xlink" xmlns="http://www.w3.org/2000/svg" version="1.1" width="50px" height="50px" viewBox="-29.0 -29.0 58.0 58.4"><defs><g id="c1"><path fill="#cc0000" fill-opacity="0.0" d="M23.1 -25.0 L23.7 -25.0 Q23.45 -15.55 16.7 -8.85 12.35 -4.45 6.75 -2.8 12.1 -4.5 16.25 -8.85 22.9 -15.55 23.1 -25.0 22.9 -15.55 16.25 -8.85 12.1 -4.5 6.75 -2.8 L-0.05 -1.9 -6.8 -2.8 Q-12.4 -4.45 -16.85 -8.85 -23.55 -15.55 -23.8 -25.0 L-23.15 -25.0 Q-23.0 -15.55 -16.4 -8.85 -12.15 -4.5 -6.8 -2.8 -12.15 -4.5 -16.4 -8.85 -23.0 -15.55 -23.15 -25.0 L23.1 -25.0"/><path fill="none" stroke="#c10000" stroke-width="2.0" d="M23.1 -25.0 Q22.9 -15.55 16.25 -8.85 12.1 -4.5 6.75 -2.8 L-0.05 -1.9 -0.05 25.4 M-6.8 -2.8 Q-12.15 -4.5 -16.4 -8.85 -23.0 -15.55 -23.15 -25.0 M-0.05 -1.9 L-6.8 -2.8"/><path fill="#cc0000" fill-opacity="0.0" d="M-25.0 -24.55 L25.0 -24.55 25.0 25.4 -25.0 25.4 -25.0 -24.55"/></g></defs><g><g><use transform="matrix(1.0,0.0,0.0,1.0,0.0,0.0)" xlink:href="#c1"/></g></g></svg>