<?xml version='1.0' encoding='UTF-8'?>
<svg xmlns:xlink="http://www.w3.org/1999/xlink" xmlns="http://www.w3.org/2000/svg" version="1.1" width="29px" height="29px" viewBox="-19.0 -19.0 37.4 37.4"><defs><g id="c1"><path fill="#bfb5ae" fill-opacity="0.0" d="M-15.0 -15.0 L14.4 -15.0 14.4 14.4 -15.0 14.4 -15.0 -15.0"/><path fill="none" stroke="#000000" stroke-width="2.0" d="M7.1 -7.15 Q10.0 -4.15 10.0 0.0 10.0 4.15 7.1 7.1 4.2 10.0 0.0 10.0 -4.05 10.0 -7.05 7.1 -10.0 4.15 -10.0 0.0 -10.0 -4.15 -7.05 -7.15 -4.05 -10.0 0.0 -10.0 4.2 -10.0 7.1 -7.15"/><path fill="#000000" stroke="none" d="M-3.05 -2.05 Q-3.85 -2.05 -4.35 -1.45 -4.85 -0.9 -4.85 0.4 -4.85 1.75 -4.35 2.3 -3.85 2.9 -3.1 2.9 -2.5 2.9 -2.1 2.5 -1.65 2.15 -1.5 1.35 L-0.1 1.8 Q-0.4 3.0 -1.15 3.55 -1.9 4.1 -3.05 4.1 -4.5 4.1 -5.4 3.15 -6.35 2.15 -6.35 0.5 -6.35 -1.3 -5.4 -2.3 -4.5 -3.3 -3.0 -3.3 -1.65 -3.3 -0.85 -2.5 -0.35 -2.05 -0.1 -1.2 L-1.55 -0.85 Q-1.65 -1.4 -2.05 -1.7 -2.45 -2.05 -3.05 -2.05 M1.1 -3.15 L3.75 -3.15 5.15 -3.0 6.2 -2.35 6.9 -1.2 7.1 0.5 6.9 2.0 6.15 3.3 5.1 3.85 3.85 4.0 1.1 4.0 1.1 -3.15 M3.2 -1.95 L2.55 -1.95 2.55 2.8 3.65 2.8 4.5 2.75 5.1 2.45 5.5 1.75 5.65 0.45 5.5 -0.85 5.05 -1.55 4.4 -1.9 3.2 -1.95"/></g></defs><g><g><use transform="matrix(1.0,0.0,0.0,1.0,0.0,0.0)" xlink:href="#c1"/></g></g></svg>