<?xml version='1.0' encoding='UTF-8'?>
<svg xmlns:xlink="http://www.w3.org/1999/xlink" xmlns="http://www.w3.org/2000/svg" version="1.1" width="60px" height="60px" viewBox="-34.0 -34.0 68.0 68.0"><defs><g id="c1"><path fill="#ffffff" fill-opacity="0.0" d="M-30.0 -30.0 L30.0 -30.0 30.0 30.0 -30.0 30.0 -30.0 -30.0"/><path fill="#f6f6f6" stroke="none" d="M17.65 -17.65 Q25.0 -10.35 25.0 0.0 25.0 10.35 17.65 17.7 10.3 25.0 0.0 25.0 -10.35 25.0 -17.7 17.7 -25.0 10.35 -25.0 0.0 -25.0 -10.35 -17.7 -17.65 -10.35 -25.0 0.0 -25.0 10.3 -25.0 17.65 -17.65"/><path fill="none" stroke="#cc0000" stroke-width="2.0" d="M17.65 -17.65 Q25.0 -10.35 25.0 0.0 25.0 10.35 17.65 17.7 10.3 25.0 0.0 25.0 -10.35 25.0 -17.7 17.7 -25.0 10.35 -25.0 0.0 -25.0 -10.35 -17.7 -17.65 -10.35 -25.0 0.0 -25.0 10.3 -25.0 17.65 -17.65"/><path fill="#f6f6f6" stroke="none" d="M11.7 -11.75 Q16.6 -6.9 16.6 0.0 16.6 6.85 11.7 11.7 6.8 16.55 0.0 16.55 -6.9 16.55 -11.75 11.7 -16.6 6.85 -16.6 0.0 -16.6 -6.9 -11.75 -11.75 -6.9 -16.6 0.0 -16.6 6.8 -16.6 11.7 -11.75"/><path fill="none" stroke="#cc0000" stroke-width="2.0" d="M11.7 -11.75 Q16.6 -6.9 16.6 0.0 16.6 6.85 11.7 11.7 6.8 16.55 0.0 16.55 -6.9 16.55 -11.75 11.7 -16.6 6.85 -16.6 0.0 -16.6 -6.9 -11.75 -11.75 -6.9 -16.6 0.0 -16.6 6.8 -16.6 11.7 -11.75"/><path fill="#ce0000" stroke="none" d="M5.6 -5.6 Q8.0 -3.3 8.0 0.0 8.0 3.35 5.6 5.65 3.2 8.0 0.0 8.0 -3.35 8.0 -5.7 5.65 -8.0 3.35 -8.0 0.0 -8.0 -3.3 -5.7 -5.6 -3.35 -7.95 0.0 -7.95 3.2 -7.95 5.6 -5.6"/></g></defs><g><g><use transform="matrix(1.0,0.0,0.0,1.0,0.0,0.0)" xlink:href="#c1"/></g></g></svg>