<?xml version='1.0' encoding='UTF-8'?>
<svg xmlns:xlink="http://www.w3.org/1999/xlink" xmlns="http://www.w3.org/2000/svg" version="1.1" width="74px" height="87px" viewBox="-41.0 -47.35 82.0 94.7"><defs><g id="c1"><path fill="#cc0000" fill-opacity="0.0" d="M-10.8 -29.1 Q-5.7 -30.65 0.0 -30.65 4.55 -30.65 8.7 -29.7 15.8 -28.1 21.7 -23.7 24.0 -22.0 26.15 -19.85 L26.2 -19.8 Q37.0 -8.95 37.0 6.35 37.0 9.55 36.55 12.6 34.75 23.9 26.15 32.5 21.8 36.8 16.75 39.45 9.2 43.35 0.0 43.35 -9.2 43.35 -16.8 39.45 -21.8 36.85 -26.1 32.55 L-26.15 32.5 Q-34.7 23.9 -36.45 12.6 -37.0 9.55 -37.0 6.35 -37.0 -7.0 -28.8 -16.95 L-27.65 -18.25 -26.15 -19.85 Q-24.0 -22.0 -21.7 -23.7 -16.65 -27.4 -10.8 -29.1 L-10.8 -23.25 -10.8 -29.1 M17.95 24.3 L0.0 6.35 18.0 -11.6 17.95 -11.65 18.0 -11.6 Q25.4 -4.1 25.4 6.35 25.4 16.85 17.95 24.3 10.55 31.75 0.0 31.75 -10.45 31.75 -17.9 24.35 L-17.95 24.3 Q-25.4 16.85 -25.4 6.35 -25.4 -4.15 -17.95 -11.65 -10.5 -19.05 0.0 -19.05 10.55 -19.05 17.95 -11.65 10.55 -19.05 0.0 -19.05 -10.5 -19.05 -17.95 -11.65 -25.4 -4.15 -25.4 6.35 -25.4 16.85 -17.95 24.3 L-17.9 24.35 Q-10.45 31.75 0.0 31.75 10.55 31.75 17.95 24.3 25.4 16.85 25.4 6.35 25.4 -4.1 18.0 -11.6 L0.0 6.35 17.95 24.3 M8.7 -29.7 L8.7 -23.25 8.7 -29.7 M0.0 6.35 L-17.95 -11.65 0.0 6.35 -17.9 24.35 0.0 6.35"/><path fill="none" stroke="#c10000" stroke-width="2.0" d="M5.95 -35.05 L8.7 -43.35 11.45 -35.2 M8.7 -29.7 L8.7 -43.35 M36.55 12.6 Q34.75 23.9 26.15 32.5 21.8 36.8 16.75 39.45 9.2 43.35 0.0 43.35 -9.2 43.35 -16.8 39.45 -21.8 36.85 -26.1 32.55 L-26.15 32.5 Q-34.7 23.9 -36.45 12.6 M-10.8 -29.1 L-10.8 -43.35 -13.6 -35.05 M17.95 -11.65 L18.0 -11.6 Q25.4 -4.1 25.4 6.35 25.4 16.85 17.95 24.3 10.55 31.75 0.0 31.75 -10.45 31.75 -17.9 24.35 L-17.95 24.3 Q-25.4 16.85 -25.4 6.35 -25.4 -4.15 -17.95 -11.65 -10.5 -19.05 0.0 -19.05 10.55 -19.05 17.95 -11.65 M8.7 -23.25 L8.7 -29.7 M18.0 -11.6 L0.0 6.35 17.95 24.3 M-10.8 -23.25 L-10.8 -29.1 M-10.8 -43.35 L-8.1 -35.2 M0.0 6.35 L-17.9 24.35 M-17.95 -11.65 L0.0 6.35"/></g></defs><g><g><use transform="matrix(1.0,0.0,0.0,1.0,0.0,0.0)" xlink:href="#c1"/></g></g></svg>