<?xml version='1.0' encoding='UTF-8'?>
<svg xmlns:xlink="http://www.w3.org/1999/xlink" xmlns="http://www.w3.org/2000/svg" version="1.1" width="29px" height="29px" viewBox="-19.0 -19.0 37.4 37.4"><defs><g id="c1"><path fill="#000000" stroke="none" d="M2.65 -4.1 L4.35 -4.4 Q5.95 -4.4 6.75 -3.7 7.6 -2.95 7.6 -1.8 L5.9 -1.7 5.4 -2.65 Q5.05 -2.95 4.3 -2.95 L3.15 -2.65 Q2.85 -2.45 2.85 -2.1 2.85 -1.8 3.1 -1.6 3.45 -1.3 4.7 -1.0 L6.6 -0.4 7.55 0.5 7.85 1.85 Q7.85 2.6 7.45 3.25 7.05 3.9 6.3 4.2 L4.45 4.5 Q2.8 4.5 1.95 3.75 1.05 3.0 0.9 1.55 L2.55 1.4 Q2.7 2.25 3.2 2.65 3.65 3.05 4.45 3.05 L5.7 2.7 6.15 1.85 5.95 1.35 Q5.8 1.1 5.35 0.95 L3.95 0.6 Q2.55 0.25 2.0 -0.25 1.2 -0.95 1.2 -2.0 1.2 -2.65 1.55 -3.2 L2.65 -4.1"/><path fill="#bfb5ae" fill-opacity="0.0" d="M-15.0 -15.0 L14.4 -15.0 14.4 14.4 -15.0 14.4 -15.0 -15.0"/><path fill="none" stroke="#000000" stroke-width="2.0" d="M-12.5 -9.0 L-12.5 0.0 -3.85 0.0 -3.85 -9.0 12.9 -9.0 12.9 9.0 -3.85 9.0 -3.85 0.0 M-12.5 0.0 L-12.5 9.0"/></g></defs><g><g><use transform="matrix(1.0,0.0,0.0,1.0,0.0,0.0)" xlink:href="#c1"/></g></g></svg>