<?xml version='1.0' encoding='UTF-8'?>
<svg xmlns:xlink="http://www.w3.org/1999/xlink" xmlns="http://www.w3.org/2000/svg" version="1.1" width="14px" height="23px" viewBox="-11.0 -11.0 22.0 31.1"><defs><radialGradient gradientUnits="userSpaceOnUse" r="819.2" cx="0" cy="0" spreadMethod="pad" gradientTransform="matrix(0.00608825683594,-0.00482177734375,0.00482177734375,0.00608825683594,2.0,2.9)" id="gradient1"><stop offset="0.0" stop-color="#d0d0d0"/><stop offset="1.0" stop-color="#ffffff"/></radialGradient><radialGradient gradientUnits="userSpaceOnUse" r="819.2" cx="0" cy="0" spreadMethod="pad" gradientTransform="matrix(0.0203094482422,0.0,0.0,0.0203094482422,5.0,-5.7)" id="gradient2"><stop offset="0.0" stop-color="#d0d0d0"/><stop offset="1.0" stop-color="#ffffff"/></radialGradient><radialGradient gradientUnits="userSpaceOnUse" r="819.2" cx="0" cy="0" spreadMethod="pad" gradientTransform="matrix(0.00172424316406,0.0,0.0,0.00172424316406,-2.1,0.05)" id="gradient3"><stop offset="0.329411764706"/><stop offset="1.0" stop-color="#737373"/></radialGradient><radialGradient gradientUnits="userSpaceOnUse" r="819.2" cx="0" cy="0" spreadMethod="pad" gradientTransform="matrix(0.00172424316406,0.0,0.0,0.00172424316406,2.2,0.05)" id="gradient4"><stop offset="0.329411764706"/><stop offset="1.0" stop-color="#737373"/></radialGradient><g id="c1"><path stroke="none" fill="url(#gradient1)" d="M4.6 -0.05 Q4.6 1.9 3.2 3.3 1.8 4.7 -0.2 4.7 -1.6 4.7 -2.75 3.95 L-3.15 3.65 -3.55 3.3 Q-4.95 1.9 -4.95 -0.05 -4.95 -2.05 -3.55 -3.45 -2.15 -4.85 -0.2 -4.85 1.75 -4.85 3.15 -3.5 L3.2 -3.45 3.9 -2.55 Q4.6 -1.45 4.6 -0.05"/><path stroke="none" fill="url(#gradient2)" d="M4.6 -0.05 Q4.6 -1.45 3.9 -2.55 L3.2 -3.45 3.15 -3.5 Q1.75 -4.85 -0.2 -4.85 -2.15 -4.85 -3.55 -3.45 -4.95 -2.05 -4.95 -0.05 -4.95 1.9 -3.55 3.3 L-3.15 3.65 -2.75 3.95 Q-1.6 4.7 -0.2 4.7 1.8 4.7 3.2 3.3 4.6 1.9 4.6 -0.05 M7.0 7.0 L-7.0 7.0 -7.0 -7.0 7.0 -7.0 7.0 7.0"/><path fill="none" stroke="#000000" stroke-width="1.0" d="M7.0 7.0 L-7.0 7.0 -7.0 -7.0 7.0 -7.0 7.0 7.0"/><path fill="#000000" fill-opacity="0.4" d="M-0.2 -4.85 Q1.8 -4.85 3.2 -3.45 L3.95 -2.55 Q2.65 -3.6 0.9 -3.6 -1.05 -3.6 -2.45 -2.2 -3.85 -0.8 -3.85 1.15 -3.85 2.55 -3.15 3.65 L-3.55 3.3 Q-4.95 1.9 -4.95 -0.1 -4.95 -2.05 -3.55 -3.45 -2.15 -4.85 -0.2 -4.85"/><path stroke="none" fill="url(#gradient3)" d="M-1.65 0.7 Q-2.0 1.05 -2.4 1.05 -2.9 1.05 -3.2 0.7 -3.55 0.4 -3.55 -0.05 -3.55 -0.55 -3.2 -0.85 L-2.4 -1.15 -1.65 -0.85 Q-1.35 -0.55 -1.35 -0.05 -1.35 0.4 -1.65 0.7"/><path stroke="none" fill="url(#gradient4)" d="M2.65 0.7 Q2.3 1.05 1.9 1.05 1.4 1.05 1.1 0.7 0.75 0.4 0.75 -0.05 0.75 -0.55 1.1 -0.85 L1.9 -1.15 2.65 -0.85 2.95 -0.05 2.65 0.7"/><path fill="none" stroke="#ffffff" stroke-width="1.0" d="M0.05 15.75 L0.05 16.1"/></g></defs><g><g><use transform="matrix(1.0,0.0,0.0,1.0,0.0,0.0)" xlink:href="#c1"/></g></g></svg>