<?xml version='1.0' encoding='UTF-8'?>
<svg xmlns:xlink="http://www.w3.org/1999/xlink" xmlns="http://www.w3.org/2000/svg" version="1.1" width="60px" height="60px" viewBox="-34.0 -34.0 68.0 68.0"><defs><g id="c1"><path fill="#ffffff" fill-opacity="0.0" d="M-30.0 -30.0 L30.0 -30.0 30.0 30.0 -30.0 30.0 -30.0 -30.0"/><path fill="#ce0000" stroke="none" d="M4.25 19.6 L4.25 25.0 -5.9 25.0 -5.9 19.6 4.25 19.6 M-5.85 -10.0 L-5.85 -13.85 4.35 -13.85 4.35 -10.0 -5.85 -10.0"/><path fill="#ffffff" stroke="none" d="M4.35 -10.0 L11.9 -10.0 11.9 19.6 4.25 19.6 -5.9 19.6 -13.45 19.6 -13.45 -10.0 -5.85 -10.0 4.35 -10.0"/><path fill="none" stroke="#cc0000" stroke-width="2.0" d="M4.35 -10.0 L11.9 -10.0 11.9 19.6 4.25 19.6 4.25 25.0 -5.9 25.0 -5.9 19.6 -13.45 19.6 -13.45 -10.0 -5.85 -10.0 -5.85 -13.85 4.35 -13.85 4.35 -10.0 -5.85 -10.0 M4.6 -17.6 L12.85 -25.85 M-6.1 -17.6 L-14.35 -25.85 M-0.75 -17.6 L-0.75 -26.35 M-5.9 19.6 L4.25 19.6"/></g></defs><g><g><use transform="matrix(1.0,0.0,0.0,1.0,0.0,0.0)" xlink:href="#c1"/></g></g></svg>