<?xml version='1.0' encoding='UTF-8'?>
<svg xmlns:xlink="http://www.w3.org/1999/xlink" xmlns="http://www.w3.org/2000/svg" version="1.1" width="50px" height="51px" viewBox="-29.0 -29.0 58.0 59.3"><defs><g id="c1"><path fill="#0099ff" fill-opacity="0.0" d="M3.4 -2.45 L3.85 -2.05 Q8.45 2.6 8.45 9.1 8.45 15.6 3.85 20.25 -0.8 24.85 -7.3 24.85 -13.8 24.85 -18.45 20.25 -23.1 15.6 -23.1 9.1 -23.1 2.6 -18.45 -2.05 -13.8 -6.65 -7.3 -6.65 -1.1 -6.65 3.4 -2.45"/><path fill="none" stroke="#c10000" stroke-width="2.0" d="M22.2 -19.9 L17.7 -23.4 15.1 -19.6 19.6 -16.1 M3.4 -2.45 L15.1 -19.6 M3.4 -2.45 L3.85 -2.05 Q8.45 2.6 8.45 9.1 8.45 15.6 3.85 20.25 -0.8 24.85 -7.3 24.85 -13.8 24.85 -18.45 20.25 -23.1 15.6 -23.1 9.1 -23.1 2.6 -18.45 -2.05 -13.8 -6.65 -7.3 -6.65 -1.1 -6.65 3.4 -2.45"/><path fill="#cc0000" fill-opacity="0.0" d="M25.0 -25.0 L25.0 26.3 -25.0 26.3 -25.0 -25.0 25.0 -25.0"/></g></defs><g><g><use transform="matrix(1.0,0.0,0.0,1.0,0.0,0.0)" xlink:href="#c1"/></g></g></svg>