<?xml version='1.0' encoding='UTF-8'?>
<svg xmlns:xlink="http://www.w3.org/1999/xlink" xmlns="http://www.w3.org/2000/svg" version="1.1" width="50px" height="51px" viewBox="-29.0 -29.0 58.0 59.3"><defs><g id="c1"><path fill="#0099ff" fill-opacity="0.0" d="M-8.15 10.15 L-9.2 9.15 Q-12.9 5.55 -12.9 0.35 -12.9 -4.8 -9.2 -8.45 -5.55 -12.15 -0.35 -12.15 4.5 -12.15 8.1 -8.8 L8.45 -8.45 Q12.15 -4.8 12.15 0.35 12.15 5.55 8.45 9.15 4.75 12.85 -0.35 12.85 -4.8 12.85 -8.15 10.15"/><path fill="none" stroke="#c10000" stroke-width="2.0" d="M-8.15 10.15 L-9.2 9.15 Q-12.9 5.55 -12.9 0.35 -12.9 -4.8 -9.2 -8.45 -5.55 -12.15 -0.35 -12.15 4.5 -12.15 8.1 -8.8 L17.4 -22.4 20.95 -19.6 M8.1 -8.8 L8.45 -8.45 Q12.15 -4.8 12.15 0.35 12.15 5.55 8.45 9.15 4.75 12.85 -0.35 12.85 -4.8 12.85 -8.15 10.15 L-17.45 23.8 -21.0 21.0"/><path fill="#cc0000" fill-opacity="0.0" d="M25.0 -25.0 L25.0 26.3 -25.0 26.3 -25.0 -25.0 25.0 -25.0"/></g></defs><g><g><use transform="matrix(1.0,0.0,0.0,1.0,0.0,0.0)" xlink:href="#c1"/></g></g></svg>