<?xml version='1.0' encoding='UTF-8'?>
<svg xmlns:xlink="http://www.w3.org/1999/xlink" xmlns="http://www.w3.org/2000/svg" version="1.1" width="44px" height="29px" viewBox="-25.8 -19.0 51.6 37.4"><defs><g id="c1"><path fill="#bfb5ae" fill-opacity="0.0" d="M21.8 -15.0 L21.8 14.4 -21.8 14.4 -21.8 -15.0 21.8 -15.0"/><path fill="none" stroke="#000000" stroke-width="2.0" d="M-6.75 -10.35 Q-8.8 -12.35 -12.6 -11.65 L-12.6 -5.5 Q-6.2 -7.4 -5.95 -4.65 -5.95 -0.75 -12.6 1.65 L-12.6 12.1 M-18.0 -1.3 Q-18.6 2.15 -12.6 1.65 L-12.6 -5.5 Q-18.9 -4.0 -19.0 -6.95 -19.1 -9.95 -12.6 -11.65"/><path fill="#000000" stroke="none" d="M0.8 11.65 Q0.8 12.8 0.0 13.6 -0.85 14.4 -2.05 14.4 -3.2 14.4 -3.95 13.7 -4.7 13.05 -4.85 11.9 L-3.25 11.7 -2.85 12.7 Q-2.55 13.05 -2.1 13.05 -1.6 13.05 -1.25 12.65 -0.95 12.25 -0.95 11.6 -0.95 10.95 -1.25 10.6 -1.55 10.2 -2.0 10.2 L-2.65 10.35 -2.5 9.0 Q-1.9 9.0 -1.55 8.7 -1.2 8.4 -1.2 7.9 -1.2 7.45 -1.45 7.2 -1.7 6.95 -2.1 6.95 -2.5 6.95 -2.8 7.25 L-3.15 8.1 -4.65 7.85 -4.2 6.6 -3.3 5.85 -2.05 5.6 Q-0.9 5.6 -0.15 6.35 0.4 7.0 0.4 7.8 0.4 8.9 -0.8 9.6 -0.1 9.75 0.35 10.3 0.8 10.85 0.8 11.65"/><path fill="#000000" stroke="none" d="M17.3 14.4 L15.7 14.4 13.9 7.6 13.9 14.4 12.25 14.4 12.25 5.8 14.9 5.8 16.5 11.65 18.05 5.8 20.7 5.8 20.7 14.4 19.05 14.4 19.0 7.6 17.3 14.4 M9.75 6.75 L10.6 8.15 10.85 10.15 10.6 12.0 Q10.3 12.95 9.7 13.55 L8.45 14.2 6.95 14.4 3.7 14.4 3.7 5.8 6.85 5.8 8.5 5.95 Q9.25 6.15 9.75 6.75 M8.45 12.5 L8.9 11.65 9.1 10.1 8.9 8.55 8.4 7.7 Q8.1 7.4 7.6 7.3 L6.2 7.25 5.45 7.25 5.45 12.95 6.7 12.95 7.75 12.85 Q8.2 12.75 8.45 12.5"/></g></defs><g><g><use transform="matrix(1.0,0.0,0.0,1.0,0.0,0.0)" xlink:href="#c1"/></g></g></svg>