<?xml version='1.0' encoding='UTF-8'?>
<svg xmlns:xlink="http://www.w3.org/1999/xlink" xmlns="http://www.w3.org/2000/svg" version="1.1" width="60px" height="60px" viewBox="-34.0 -34.0 68.0 68.0"><defs><g id="c1"><path fill="none" stroke="#d20000" stroke-width="2.0" d="M0.0 -4.6 L0.0 30.0"/><path fill="#ffffff" fill-opacity="0.0" d="M30.0 -30.0 L30.0 30.0 -30.0 30.0 -30.0 -30.0 30.0 -30.0"/><path fill="#f6f6f6" stroke="none" d="M19.95 -6.35 Q19.95 1.9 14.1 7.8 8.2 13.65 -0.05 13.65 -8.3 13.65 -14.2 7.8 -20.05 1.9 -20.05 -6.35 -20.05 -14.65 -14.2 -20.5 -8.3 -26.35 -0.05 -26.35 8.2 -26.35 14.1 -20.5 19.95 -14.65 19.95 -6.35"/><path fill="none" stroke="#cc0000" stroke-width="2.0" d="M19.95 -6.35 Q19.95 1.9 14.1 7.8 8.2 13.65 -0.05 13.65 -8.3 13.65 -14.2 7.8 -20.05 1.9 -20.05 -6.35 -20.05 -14.65 -14.2 -20.5 -8.3 -26.35 -0.05 -26.35 8.2 -26.35 14.1 -20.5 19.95 -14.65 19.95 -6.35"/><path fill="#ce0000" stroke="none" d="M7.9 -15.8 L7.9 -13.45 1.35 -13.45 1.35 4.2 -1.35 4.2 -1.35 -13.45 -7.9 -13.45 -7.9 -15.8 7.9 -15.8"/></g></defs><g><g><use transform="matrix(1.0,0.0,0.0,1.0,0.0,0.0)" xlink:href="#c1"/></g></g></svg>