<?xml version='1.0' encoding='UTF-8'?>
<svg xmlns:xlink="http://www.w3.org/1999/xlink" xmlns="http://www.w3.org/2000/svg" version="1.1" width="21px" height="15px" viewBox="-14.5 -11.5 29.1 23.1"><defs><radialGradient gradientUnits="userSpaceOnUse" r="819.2" cx="0" cy="0" spreadMethod="pad" gradientTransform="matrix(0.0305938720703,0.0,0.0,0.0218811035156,7.6,-6.1)" id="gradient1"><stop offset="0.0" stop-color="#d0d0d0"/><stop offset="1.0" stop-color="#ffffff"/></radialGradient><radialGradient gradientUnits="userSpaceOnUse" r="819.2" cx="0" cy="0" spreadMethod="pad" gradientTransform="matrix(-0.00494384765625,0.0,0.0,0.00495910644531,6.05,2.9)" id="gradient2"><stop offset="0.00392156862745" stop-color="#333333"/><stop offset="0.611764705882"/></radialGradient><radialGradient gradientUnits="userSpaceOnUse" r="819.2" cx="0" cy="0" spreadMethod="pad" gradientTransform="matrix(0.00694274902344,0.0,0.0,0.0069580078125,7.0,5.65)" id="gradient3"><stop offset="0.0" stop-color="#ffffff" stop-opacity="0.2"/><stop offset="1.0" stop-opacity="0.2"/></radialGradient><radialGradient gradientUnits="userSpaceOnUse" r="819.2" cx="0" cy="0" spreadMethod="pad" gradientTransform="matrix(-0.00381469726562,0.0,0.0,0.00382995605469,-4.95,3.6)" id="gradient4"><stop offset="0.00392156862745" stop-color="#333333"/><stop offset="0.611764705882"/></radialGradient><radialGradient gradientUnits="userSpaceOnUse" r="819.2" cx="0" cy="0" spreadMethod="pad" gradientTransform="matrix(0.00770568847656,0.0,0.0,0.00772094726562,-3.45,5.5)" id="gradient5"><stop offset="0.0" stop-color="#ffffff" stop-opacity="0.2"/><stop offset="1.0" stop-opacity="0.2"/></radialGradient><g id="c1"><path stroke="none" fill="url(#gradient1)" d="M10.6 7.6 L-10.5 7.6 -10.5 -7.5 10.6 -7.5 10.6 7.6"/><path fill="none" stroke="#000000" stroke-width="1.0" d="M10.6 7.6 L-10.5 7.6 -10.5 -7.5 10.6 -7.5 10.6 7.6"/><path stroke="none" fill="url(#gradient2)" d="M4.35 2.0 L4.35 1.7 5.6 1.7 5.6 2.0 6.4 2.0 6.4 2.65 6.95 2.65 6.95 5.45 2.9 5.45 2.9 2.65 3.55 2.65 3.55 2.0 4.35 2.0"/><path stroke="none" fill="url(#gradient3)" d="M4.35 2.0 L3.55 2.0 3.55 2.65 2.9 2.65 2.9 5.45 6.95 5.45 6.95 2.65 6.4 2.65 6.4 2.0 5.6 2.0 5.6 1.7 4.35 1.7 4.35 2.0 M3.85 1.55 L3.85 1.2 6.05 1.2 6.05 1.55 6.85 1.55 6.85 2.15 7.45 2.15 7.45 5.9 2.5 5.9 2.5 2.15 3.05 2.15 3.05 1.55 3.85 1.55"/><path fill="none" stroke="#000000" stroke-width="1.0" d="M4.35 2.0 L3.55 2.0 3.55 2.65 2.9 2.65 2.9 5.45 6.95 5.45 6.95 2.65 6.4 2.65 6.4 2.0 5.6 2.0 5.6 1.7 4.35 1.7 4.35 2.0"/><path stroke="none" fill="url(#gradient4)" d="M-6.65 1.95 Q-5.95 1.15 -4.95 1.15 -4.1 1.15 -3.3 1.95 -2.6 2.65 -2.55 3.6 -2.6 4.5 -3.3 5.25 -4.1 5.95 -4.95 5.95 -5.95 5.95 -6.65 5.25 -7.35 4.5 -7.35 3.6 -7.35 2.65 -6.65 1.95"/><path stroke="none" fill="url(#gradient5)" d="M-4.95 0.6 Q-3.9 0.6 -2.95 1.5 -2.05 2.4 -1.95 3.6 -2.05 4.75 -2.95 5.65 -3.9 6.55 -4.95 6.6 -6.2 6.55 -7.1 5.65 -7.95 4.75 -7.95 3.6 -7.95 2.4 -7.1 1.5 -6.2 0.6 -4.95 0.6 M-6.65 1.95 Q-7.35 2.65 -7.35 3.6 -7.35 4.5 -6.65 5.25 -5.95 5.95 -4.95 5.95 -4.1 5.95 -3.3 5.25 -2.6 4.5 -2.55 3.6 -2.6 2.65 -3.3 1.95 -4.1 1.15 -4.95 1.15 -5.95 1.15 -6.65 1.95"/><path fill="#666666" stroke="none" d="M5.75 -2.7 Q6.5 -4.0 6.15 -4.2 L7.1 -5.9 Q8.5 -5.2 6.7 -2.15 5.0 0.9 3.7 0.05 L4.65 -1.6 Q5.0 -1.4 5.75 -2.7 M6.65 -6.15 L6.9 -6.0 5.95 -4.35 5.65 -4.5 Q5.35 -4.7 5.55 -5.0 L6.15 -6.0 Q6.3 -6.35 6.65 -6.15 M4.2 -1.85 L4.45 -1.75 3.45 -0.1 3.2 -0.25 Q2.9 -0.45 3.1 -0.75 L3.7 -1.75 4.2 -1.85"/><path fill="#666666" stroke="none" d="M-4.85 -3.3 L-6.15 -3.3 -6.15 0.05 -7.25 0.05 -7.25 -3.3 -8.5 -3.3 -8.5 -4.05 -4.85 -4.05 -4.85 -3.3 M-1.95 0.05 L-3.15 0.05 -4.65 -4.05 -3.5 -4.05 -2.55 -1.2 -1.55 -4.05 -0.5 -4.05 -1.95 0.05"/></g></defs><g><g><use transform="matrix(1.0,0.0,0.0,1.0,0.0,0.0)" xlink:href="#c1"/></g></g></svg>