<?xml version='1.0' encoding='UTF-8'?>
<svg xmlns:xlink="http://www.w3.org/1999/xlink" xmlns="http://www.w3.org/2000/svg" version="1.1" width="29px" height="29px" viewBox="-19.0 -19.0 37.4 37.4"><defs><g id="c1"><path fill="#000000" stroke="none" d="M4.3 -3.3 L5.85 -3.3 7.65 2.0 9.45 -3.3 10.95 -3.3 8.4 3.85 6.85 3.85 4.3 -3.3 M4.1 -3.3 L4.1 -2.1 2.0 -2.1 2.0 3.85 0.55 3.85 0.55 -2.1 -1.6 -2.1 -1.6 -3.3 4.1 -3.3"/><path fill="#bfb5ae" fill-opacity="0.0" d="M-15.0 -15.0 L14.4 -15.0 14.4 14.4 -15.0 14.4 -15.0 -15.0"/><path fill="none" stroke="#000000" stroke-width="2.0" d="M-12.5 -9.0 L-12.5 0.0 -3.85 0.0 -3.85 -9.0 12.9 -9.0 12.9 9.0 -3.85 9.0 -3.85 0.0 M-12.5 0.0 L-12.5 9.0"/></g></defs><g><g><use transform="matrix(1.0,0.0,0.0,1.0,0.0,0.0)" xlink:href="#c1"/></g></g></svg>