<?xml version='1.0' encoding='UTF-8'?>
<svg xmlns:xlink="http://www.w3.org/1999/xlink" xmlns="http://www.w3.org/2000/svg" version="1.1" width="54px" height="46px" viewBox="-30.95 -26.75 61.85 53.7"><defs><g id="c1"><path fill="#333333" fill-opacity="0.0" d="M-26.95 -22.75 L26.9 -22.75 26.9 22.95 -26.95 22.95 -26.95 -22.75"/><path fill="none" stroke="#000000" stroke-width="1.0" d="M-6.7 -5.15 Q-6.7 -7.85 -4.85 -9.7 -2.95 -11.6 -0.25 -11.6 2.35 -11.6 4.2 -9.7 5.2 -8.8 5.7 -7.6 L6.5 -6.6 Q8.45 -4.65 11.1 -4.65 13.7 -4.65 15.6 -6.6 17.55 -8.4 17.55 -11.1 M-6.7 11.95 Q-6.7 9.3 -4.85 7.4 -2.95 5.55 -0.25 5.55 2.35 5.55 4.2 7.4 5.2 8.35 5.7 9.5 L6.5 10.55 Q8.45 12.45 11.1 12.45 13.7 12.45 15.6 10.55 17.55 8.7 17.55 6.05 M-6.7 3.35 Q-6.7 0.75 -4.85 -1.15 -2.95 -3.05 -0.25 -3.05 2.35 -3.05 4.2 -1.15 5.2 -0.2 5.7 0.95 L6.5 2.0 Q8.45 3.85 11.1 3.85 13.7 3.85 15.6 2.0 17.55 0.1 17.55 -2.55"/><path fill="none" stroke="#000000" stroke-width="2.0" d="M-25.95 0.1 L-12.9 0.1 -12.9 -18.7 24.65 -18.7 24.65 18.9 -12.9 18.9 -12.9 0.1"/></g></defs><g><g><use transform="matrix(1.0,0.0,0.0,1.0,0.0,0.0)" xlink:href="#c1"/></g></g></svg>