<?xml version='1.0' encoding='UTF-8'?>
<svg xmlns:xlink="http://www.w3.org/1999/xlink" xmlns="http://www.w3.org/2000/svg" version="1.1" width="29px" height="29px" viewBox="-19.0 -19.0 37.4 37.4"><defs><g id="c1"><path fill="#bfb5ae" fill-opacity="0.0" d="M14.4 14.4 L-15.0 14.4 -15.0 -15.0 14.4 -15.0 14.4 14.4"/><path fill="none" stroke="#000000" stroke-width="2.0" d="M-3.4 7.7 Q-4.7 7.1 -5.9 6.0 -8.3 3.5 -8.3 0.05 -8.3 -3.3 -5.9 -5.8 -4.3 -7.4 -2.5 -7.9 L-2.2 -8.0 -0.1 -8.3 2.1 -8.0 2.4 -7.9 Q4.2 -7.3 5.7 -5.8 8.1 -3.3 8.1 0.05 8.1 3.5 5.7 6.0 4.6 7.1 3.35 7.7 L2.4 8.05 -0.1 8.4 -2.5 8.05 -2.5 -7.9 M2.4 -7.9 L2.4 8.05"/><path fill="none" stroke="#000000" stroke-width="2.0" d="M8.5 -8.5 L-8.5 -8.5 -8.5 8.5 8.5 8.5 8.5 -8.5"/></g></defs><g><g><use transform="matrix(1.0,0.0,0.0,1.0,0.0,0.0)" xlink:href="#c1"/></g></g></svg>