<?xml version='1.0' encoding='UTF-8'?>
<svg xmlns:xlink="http://www.w3.org/1999/xlink" xmlns="http://www.w3.org/2000/svg" version="1.1" width="48px" height="26px" viewBox="-28.15 -16.75 56.15 33.85"><defs><g id="c1"><path fill="none" stroke="#000000" stroke-width="2.0" d="M13.25 -5.5 Q15.5 -5.5 17.1 -3.95 18.75 -2.3 18.75 -0.05 18.75 2.2 17.1 3.8 15.5 5.4 13.25 5.45 11.0 5.4 9.35 3.8 7.8 2.2 7.8 -0.05 7.8 -2.3 9.35 -3.95 11.0 -5.5 13.25 -5.5 M7.7 -0.05 Q7.7 2.2 6.05 3.8 4.5 5.4 2.25 5.45 0.0 5.4 -1.65 3.8 -3.25 2.2 -3.25 -0.05 -3.25 -2.3 -1.65 -3.95 0.0 -5.5 2.25 -5.5 4.5 -5.5 6.05 -3.95 7.7 -2.3 7.7 -0.05 M-24.1 0.05 L-8.55 0.05 -8.55 -12.75 24.0 -12.75 24.0 12.85 -8.55 12.85 -8.55 0.05"/><path fill="#333333" fill-opacity="0.0" d="M23.35 -12.6 L23.35 13.1 -24.15 13.1 -24.15 -12.6 23.35 -12.6"/></g></defs><g><g><use transform="matrix(1.0,0.0,0.0,1.0,0.0,0.0)" xlink:href="#c1"/></g></g></svg>