<?xml version='1.0' encoding='UTF-8'?>
<svg xmlns:xlink="http://www.w3.org/1999/xlink" xmlns="http://www.w3.org/2000/svg" version="1.1" width="38px" height="35px" viewBox="-22.95 -21.45 45.7 42.9"><defs><g id="c1"><path fill="#000000" stroke="none" d="M2.25 16.65 L2.25 17.45 1.15 17.45 1.15 -0.05 1.15 -17.45 2.25 -17.45 2.25 -16.7 2.25 16.65"/><path fill="none" stroke="#000000" stroke-width="2.0" d="M2.25 -16.7 L3.8 -16.65 Q9.6 -16.1 13.9 -11.85 18.7 -6.95 18.75 -0.05 L18.4 3.35 Q18.0 5.5 17.05 7.4 15.9 9.7 13.9 11.7 9.6 16.0 3.8 16.55 L2.25 16.65 M1.15 -0.05 L-18.8 -0.05"/><path fill="#333333" fill-opacity="0.0" d="M18.15 -16.0 L18.15 16.55 -18.95 16.55 -18.95 -16.0 18.15 -16.0"/></g></defs><g><g><use transform="matrix(1.0,0.0,0.0,1.0,0.0,0.0)" xlink:href="#c1"/></g></g></svg>