<?xml version='1.0' encoding='UTF-8'?>
<svg xmlns:xlink="http://www.w3.org/1999/xlink" xmlns="http://www.w3.org/2000/svg" version="1.1" width="30px" height="30px" viewBox="-19.0 -19.0 38.0 38.0"><defs><g id="c1"><path fill="none" stroke="#000000" stroke-width="2.0" d="M0.0 -15.0 L0.0 -7.25 Q3.05 -7.25 5.15 -5.2 7.25 -3.0 7.25 0.0 L15.0 0.0 M7.25 0.0 Q7.25 3.0 5.15 5.15 3.05 7.25 0.0 7.25 L0.0 15.0 M0.0 7.25 Q-2.95 7.25 -5.1 5.15 -7.25 3.0 -7.25 0.0 L-15.0 0.0 M-7.25 0.0 Q-7.25 -3.0 -5.1 -5.2 -2.95 -7.25 0.0 -7.25"/><path fill="#bfb5ae" fill-opacity="0.0" d="M14.4 -15.0 L14.4 14.4 -15.0 14.4 -15.0 -15.0 14.4 -15.0"/><path fill="#000000" stroke="none" d="M1.1 -3.25 L2.15 -2.6 2.8 -1.5 3.05 0.15 2.8 1.6 Q2.55 2.4 2.1 2.8 L1.1 3.4 -0.15 3.55 -2.7 3.55 -2.7 -3.35 -0.2 -3.35 1.1 -3.25 M-1.35 2.4 L-0.3 2.4 0.5 2.35 1.05 2.05 1.4 1.35 1.6 0.1 1.4 -1.15 1.05 -1.8 0.4 -2.15 -0.75 -2.25 -1.35 -2.25 -1.35 2.4"/></g></defs><g><g><use transform="matrix(1.0,0.0,0.0,1.0,0.0,0.0)" xlink:href="#c1"/></g></g></svg>