<?xml version='1.0' encoding='UTF-8'?>
<svg xmlns:xlink="http://www.w3.org/1999/xlink" xmlns="http://www.w3.org/2000/svg" version="1.1" width="29px" height="29px" viewBox="-19.0 -19.0 37.4 37.4"><defs><g id="c1"><path fill="none" stroke="#000000" stroke-width="2.0" d="M11.35 -6.7 Q14.15 -3.9 14.15 0.1 14.15 4.1 11.35 6.9 8.55 9.7 4.55 9.7 0.55 9.7 -2.25 6.9 -5.05 4.1 -5.05 0.1 -5.05 -3.9 -2.25 -6.7 0.55 -9.5 4.55 -9.5 8.55 -9.5 11.35 -6.7"/><path fill="#bfb5ae" fill-opacity="0.0" d="M14.4 14.4 L-15.0 14.4 -15.0 -15.0 14.4 -15.0 14.4 14.4"/></g><g id="c4"><path fill="none" stroke="#000000" stroke-width="2.0" d="M-5.6 0.0 L-12.5 0.0 -12.5 9.0 M-12.5 -9.0 L-12.5 0.0"/></g></defs><g><g><use transform="matrix(1.0,0.0,0.0,1.0,0.0,0.0)" xlink:href="#c1"/></g><g><use transform="matrix(1.0,0.0,0.0,1.0,0.45,-5.9)" xlink:href="#c3"/></g><g><use transform="matrix(1.0,0.0,0.0,1.0,0.0,0.0)" xlink:href="#c4"/></g></g></svg>