<?xml version='1.0' encoding='UTF-8'?>
<svg xmlns:xlink="http://www.w3.org/1999/xlink" xmlns="http://www.w3.org/2000/svg" version="1.1" width="54px" height="39px" viewBox="-31.1 -23.25 62.1 46.5"><defs><g id="c1"><path fill="#000000" stroke="none" d="M6.75 -0.75 Q6.2 -5.45 6.2 -7.25 L10.05 -7.25 9.45 -0.75 Q12.15 -2.1 15.65 -3.3 L16.85 0.45 Q13.5 1.55 10.25 1.95 L14.85 6.9 11.7 9.15 Q10.1 7.05 8.0 3.55 L4.65 9.15 1.5 6.9 Q4.55 3.15 5.9 1.95 L-0.55 0.45 0.65 -3.3 Q4.85 -1.8 6.75 -0.75"/><path fill="none" stroke="#000000" stroke-width="2.0" d="M-27.1 0.7 L-11.55 0.7 -11.55 -19.25 27.0 -19.25 27.0 19.25 -11.55 19.25 -11.55 0.7"/><path fill="#333333" fill-opacity="0.0" d="M25.7 -18.7 L25.7 19.25 -26.35 19.25 -26.35 -18.7 25.7 -18.7"/></g></defs><g><g><use transform="matrix(1.0,0.0,0.0,1.0,0.0,0.0)" xlink:href="#c1"/></g></g></svg>