<?xml version='1.0' encoding='UTF-8'?>
<svg xmlns:xlink="http://www.w3.org/1999/xlink" xmlns="http://www.w3.org/2000/svg" version="1.1" width="29px" height="29px" viewBox="-19.0 -19.0 37.4 37.4"><defs><g id="c1"><path fill="#bfb5ae" fill-opacity="0.0" d="M14.4 14.4 L-15.0 14.4 -15.0 -15.0 14.4 -15.0 14.4 14.4"/><path fill="none" stroke="#000000" stroke-width="2.0" d="M-7.15 11.2 L-7.15 3.55 Q-8.95 3.0 -10.55 1.5 -12.0 0.0 -12.55 -1.85 -12.95 -3.05 -12.95 -4.45 L-12.65 -6.75 Q-12.1 -8.7 -10.55 -10.3 -8.95 -11.9 -7.15 -12.4 L-4.75 -12.8 -2.25 -12.4 Q-0.45 -11.8 1.05 -10.3 2.6 -8.7 3.15 -6.75 L3.45 -4.45 Q3.45 -3.05 3.1 -1.85 2.5 0.0 1.05 1.5 -0.45 3.0 -2.25 3.55 L-2.25 11.2 M-7.15 -1.85 L-7.15 3.55 -4.75 3.9 -2.25 3.55 -2.25 -1.85 -7.15 -1.85 -7.15 -6.75 -12.65 -6.75 M3.15 -6.75 L-2.25 -6.75 -2.25 -1.85 3.1 -1.85 M-2.25 -6.75 L-7.15 -6.75 -7.15 -12.4 M-7.15 -1.85 L-12.55 -1.85 M-2.25 -12.4 L-2.25 -6.75"/></g></defs><g><g><use transform="matrix(1.0,0.0,0.0,1.0,0.0,0.0)" xlink:href="#c1"/></g><g><use transform="matrix(1.0,0.0,0.0,1.0,4.25,1.25)" xlink:href="#c3"/></g></g></svg>