<?xml version='1.0' encoding='UTF-8'?>
<svg xmlns:xlink="http://www.w3.org/1999/xlink" xmlns="http://www.w3.org/2000/svg" version="1.1" width="26px" height="52px" viewBox="-17.2 -29.8 33.7 60.05"><defs><g id="c1"><path fill="none" stroke="#000000" stroke-width="2.0" d="M0.1 -25.25 L0.1 6.05 1.85 6.25 Q3.05 6.45 4.15 7.0 5.5 7.65 6.65 8.8 9.15 11.3 9.45 14.65 L9.5 15.65 M-9.6 25.25 L-9.55 24.25 Q-9.25 20.9 -6.85 18.4 -4.0 15.6 0.0 15.65 L1.95 15.85 Q3.15 16.05 4.25 16.6 5.6 17.25 6.75 18.4 9.25 20.9 9.55 24.25 L9.6 25.25 M0.1 6.05 L0.1 15.05 M-9.7 15.65 L-9.65 14.65 Q-9.35 11.3 -6.95 8.8 -4.1 6.0 -0.1 6.05 L0.1 6.05"/><path fill="#333333" fill-opacity="0.0" d="M-13.2 -25.8 L12.5 -25.8 12.5 26.25 -13.2 26.25 -13.2 -25.8"/></g></defs><g><g><use transform="matrix(1.0,0.0,0.0,1.0,0.0,0.0)" xlink:href="#c1"/></g></g></svg>