<?xml version='1.0' encoding='UTF-8'?>
<svg xmlns:xlink="http://www.w3.org/1999/xlink" xmlns="http://www.w3.org/2000/svg" version="1.1" width="54px" height="39px" viewBox="-31.1 -23.25 62.1 46.5"><defs><g id="c1"><path fill="#000000" stroke="none" d="M3.85 12.1 Q2.4 10.6 2.4 8.55 2.4 6.45 3.85 4.95 5.4 3.45 7.45 3.45 9.5 3.45 11.0 4.95 12.5 6.45 12.5 8.55 12.5 10.6 11.0 12.1 9.5 13.6 7.45 13.6 5.4 13.6 3.85 12.1"/><path fill="none" stroke="#000000" stroke-width="2.0" d="M9.05 -10.2 Q10.7 -11.75 12.95 -11.75 15.2 -11.75 16.8 -10.2 18.45 -8.55 18.45 -6.3 18.45 -4.1 16.8 -2.5 15.2 -0.85 12.95 -0.85 10.7 -0.85 9.05 -2.5 7.5 -4.1 7.5 -6.3 7.5 -8.55 9.05 -10.2 M7.4 -6.3 Q7.4 -4.1 5.75 -2.5 4.2 -0.85 1.95 -0.85 -0.3 -0.85 -1.95 -2.5 -3.55 -4.1 -3.55 -6.3 -3.55 -8.55 -1.95 -10.2 -0.3 -11.75 1.95 -11.75 4.2 -11.75 5.75 -10.2 7.4 -8.55 7.4 -6.3 M3.85 12.1 Q2.4 10.6 2.4 8.55 2.4 6.45 3.85 4.95 5.4 3.45 7.45 3.45 9.5 3.45 11.0 4.95 12.5 6.45 12.5 8.55 12.5 10.6 11.0 12.1 9.5 13.6 7.45 13.6 5.4 13.6 3.85 12.1 M-27.1 0.65 L-11.55 0.65 -11.55 -19.25 27.0 -19.25 27.0 19.25 -11.55 19.25 -11.55 0.65"/><path fill="#333333" fill-opacity="0.0" d="M25.7 -18.7 L25.7 19.25 -26.35 19.25 -26.35 -18.7 25.7 -18.7"/></g></defs><g><g><use transform="matrix(1.0,0.0,0.0,1.0,0.0,0.0)" xlink:href="#c1"/></g></g></svg>