<?xml version='1.0' encoding='UTF-8'?>
<svg xmlns:xlink="http://www.w3.org/1999/xlink" xmlns="http://www.w3.org/2000/svg" version="1.1" width="29px" height="29px" viewBox="-19.0 -19.0 37.4 37.4"><defs><g id="c1"><path fill="#000000" stroke="none" d="M11.05 11.7 L11.05 13.45 9.4 13.45 9.4 11.7 6.0 11.7 6.0 10.25 9.6 4.85 11.05 4.85 11.05 10.25 12.15 10.25 12.15 11.7 11.05 11.7 M7.5 10.25 L9.4 10.25 9.4 7.4 7.5 10.25"/><path fill="#bfb5ae" fill-opacity="0.0" d="M14.4 -15.0 L14.4 14.4 -15.0 14.4 -15.0 -15.0 14.4 -15.0"/><path fill="none" stroke="#000000" stroke-width="2.0" d="M5.85 -10.35 Q3.8 -12.35 0.0 -11.65 L0.0 -5.5 Q6.4 -7.4 6.65 -4.65 6.65 -0.75 0.0 1.65 L0.0 12.1 M-5.4 -1.3 Q-6.0 2.15 0.0 1.65 L0.0 -5.5 Q-6.3 -4.0 -6.4 -6.95 -6.5 -9.95 0.0 -11.65"/></g></defs><g><g><use transform="matrix(1.0,0.0,0.0,1.0,0.0,0.0)" xlink:href="#c1"/></g></g></svg>