<?xml version='1.0' encoding='UTF-8'?>
<svg xmlns:xlink="http://www.w3.org/1999/xlink" xmlns="http://www.w3.org/2000/svg" version="1.1" width="39px" height="29px" viewBox="-19.0 -19.0 46.55 37.4"><defs><g id="c1"><path fill="#bfb5ae" fill-opacity="0.0" d="M14.4 14.4 L-15.0 14.4 -15.0 -15.0 14.4 -15.0 14.4 14.4"/><path fill="none" stroke="#000000" stroke-width="2.0" d="M-7.15 11.2 L-7.15 3.55 Q-8.95 3.0 -10.55 1.5 -12.95 -1.0 -12.95 -4.45 -12.95 -7.8 -10.55 -10.3 -8.95 -11.9 -7.15 -12.4 L-4.75 -12.8 -2.25 -12.4 Q-0.45 -11.8 1.05 -10.3 3.45 -7.8 3.45 -4.45 3.45 -1.0 1.05 1.5 -0.45 3.0 -2.25 3.55 L-2.25 11.2 M-2.25 3.55 L-4.75 3.9 -7.15 3.55 -7.15 -12.4 M-2.25 -12.4 L-2.25 3.55"/><path fill="#000000" stroke="none" d="M21.8 12.25 L21.8 3.65 23.55 3.65 23.55 12.25 21.8 12.25 M20.3 5.1 L16.25 5.1 16.25 7.15 19.8 7.15 19.8 8.6 16.25 8.6 16.25 12.25 14.5 12.25 14.5 3.65 20.3 3.65 20.3 5.1 M12.75 6.0 L11.0 6.35 Q10.8 5.7 10.3 5.35 9.8 5.0 9.05 5.0 7.9 5.0 7.25 5.7 6.55 6.45 6.55 7.85 6.55 9.35 7.25 10.15 7.9 10.9 9.0 10.9 L10.1 10.65 11.05 10.15 11.05 9.05 9.1 9.05 9.1 7.6 12.8 7.6 12.8 11.05 Q12.25 11.6 11.2 12.0 L9.1 12.4 Q7.75 12.4 6.75 11.8 5.75 11.25 5.25 10.2 4.75 9.15 4.75 7.9 4.75 6.55 5.35 5.5 5.9 4.45 7.0 3.9 L9.05 3.5 Q10.65 3.5 11.55 4.15 12.5 4.85 12.75 6.0"/></g></defs><g><g><use transform="matrix(1.0,0.0,0.0,1.0,0.0,0.0)" xlink:href="#c1"/></g></g></svg>