<?xml version='1.0' encoding='UTF-8'?>
<svg xmlns:xlink="http://www.w3.org/1999/xlink" xmlns="http://www.w3.org/2000/svg" version="1.1" width="16px" height="62px" viewBox="-12.1 -36.6 24.0 70.15"><defs><g id="c1"><path fill="#333333" fill-opacity="0.0" d="M7.9 -32.6 L7.9 29.55 -8.1 29.55 -8.1 -32.6 7.9 -32.6"/><path fill="#000000" stroke="none" d="M0.2 -3.0 L1.75 -2.8 Q2.75 -2.65 3.6 -2.2 L5.6 -0.75 Q7.6 1.2 7.85 3.9 L7.9 4.5 7.9 4.7 7.85 5.3 Q7.6 7.95 5.65 9.95 3.35 12.15 0.2 12.2 L-1.35 12.0 -3.2 11.4 -5.2 9.95 Q-7.2 7.95 -7.45 5.3 L-7.5 4.7 -7.5 4.5 -7.45 3.9 Q-7.2 1.2 -5.25 -0.75 -3.1 -2.9 -0.1 -3.0 L0.2 -3.0 M2.0 14.75 Q2.8 15.15 3.25 15.95 3.7 16.75 3.7 17.7 3.7 18.75 3.15 19.5 2.6 20.2 1.6 20.5 L1.4 19.6 2.5 18.85 Q2.85 18.4 2.85 17.65 2.85 16.85 2.45 16.3 2.1 15.75 1.4 15.5 L0.05 15.3 -1.55 15.55 Q-2.25 15.8 -2.55 16.35 L-2.9 17.6 Q-2.9 18.4 -2.45 18.95 -2.0 19.5 -1.1 19.7 L-1.35 20.65 Q-2.5 20.35 -3.1 19.55 -3.7 18.8 -3.7 17.65 -3.7 16.5 -3.25 15.8 -2.8 15.05 -1.9 14.7 L0.05 14.3 Q1.15 14.3 2.0 14.75 M3.55 29.55 L-3.6 29.55 -3.6 28.6 3.55 28.6 3.55 29.55 M3.55 24.75 L-3.6 27.7 -3.6 26.6 -1.45 25.75 -1.45 22.8 -3.6 22.0 -3.6 21.0 3.55 23.75 3.55 24.75 M-0.65 25.5 L2.8 24.25 -0.65 23.05 -0.65 25.5"/><path fill="none" stroke="#000000" stroke-width="2.0" d="M0.2 -3.0 L1.75 -2.8 Q2.75 -2.65 3.6 -2.2 L5.6 -0.75 Q7.6 1.2 7.85 3.9 L7.9 4.5 7.9 4.7 7.85 5.3 Q7.6 7.95 5.65 9.95 3.35 12.15 0.2 12.2 L-1.35 12.0 -3.2 11.4 -5.2 9.95 Q-7.2 7.95 -7.45 5.3 L-7.5 4.7 -7.5 4.5 -7.45 3.9 Q-7.2 1.2 -5.25 -0.75 -3.1 -2.9 -0.1 -3.0 L0.2 -3.0 0.2 -32.6"/></g></defs><g><g><use transform="matrix(1.0,0.0,0.0,1.0,0.0,0.0)" xlink:href="#c1"/></g></g></svg>