<?xml version='1.0' encoding='UTF-8'?>
<svg xmlns:xlink="http://www.w3.org/1999/xlink" xmlns="http://www.w3.org/2000/svg" version="1.1" width="30px" height="30px" viewBox="-19.0 -18.95 38.0 37.95"><defs><radialGradient gradientUnits="userSpaceOnUse" r="819.2" cx="0" cy="0" spreadMethod="pad" gradientTransform="matrix(0.0126953125,0.0,0.0,0.0244598388672,-7.05,7.35)" id="gradient1"><stop offset="0.0" stop-color="#d0d0d0"/><stop offset="1.0" stop-color="#ffffff"/></radialGradient><linearGradient gradientUnits="userSpaceOnUse" x1="-819.2" x2="819.2" spreadMethod="pad" color-interpolation="linearRGB" gradientTransform="matrix(-0.00234985351562,-0.00042724609375,-0.000503540039062,0.00126647949219,0.25,3.5)" id="gradient2"><stop offset="0.0" stop-color="#201120" stop-opacity="0.0"/><stop offset="1.0" stop-color="#201120"/></linearGradient><linearGradient gradientUnits="userSpaceOnUse" x1="-819.2" x2="819.2" spreadMethod="pad" color-interpolation="linearRGB" gradientTransform="matrix(-0.000335693359375,-0.00143432617188,0.00103759765625,-0.00030517578125,-3.2,8.15)" id="gradient3"><stop offset="0.0" stop-color="#ada5a4" stop-opacity="0.0"/><stop offset="1.0" stop-color="#ada5a4"/></linearGradient><linearGradient gradientUnits="userSpaceOnUse" x1="-819.2" x2="819.2" spreadMethod="pad" color-interpolation="linearRGB" gradientTransform="matrix(-0.000335693359375,-0.00143432617188,0.00103759765625,-0.00030517578125,1.55,8.15)" id="gradient4"><stop offset="0.0" stop-color="#ada5a4" stop-opacity="0.0"/><stop offset="1.0" stop-color="#ada5a4"/></linearGradient><radialGradient gradientUnits="userSpaceOnUse" r="819.2" cx="0" cy="0" spreadMethod="pad" gradientTransform="matrix(0.00592041015625,0.0,0.0,0.00666809082031,3.65,0.05)" id="gradient5"><stop offset="0.0" stop-color="#d0d0d0"/><stop offset="1.0" stop-color="#ffffff"/></radialGradient><g id="c1"><path fill="#010101" fill-opacity="0.0" d="M15.0 15.0 L-15.0 15.0 -15.0 -14.95 15.0 -14.95 15.0 15.0"/><path stroke="none" fill="url(#gradient1)" d="M-7.95 -4.2 L7.05 -4.2 7.05 12.65 -7.95 12.65 -7.95 -4.2"/><path fill="none" stroke="#000000" stroke-width="1.0" d="M-7.95 -4.2 L7.05 -4.2 7.05 12.65 -7.95 12.65 -7.95 -4.2"/><path stroke="none" fill="url(#gradient2)" d="M-0.4 2.15 L-0.4 4.35 -1.8 4.35 -1.8 2.15 -0.4 2.15"/><path fill="none" stroke="#000000" stroke-width="1.0" d="M-0.4 2.15 L-1.8 2.15 -1.8 4.35"/><path fill="none" stroke="#cccccc" stroke-width="1.0" d="M-1.8 4.35 L-0.4 4.35 -0.4 2.15"/><path stroke="none" fill="url(#gradient3)" d="M-2.5 6.9 L-4.25 6.9 -4.25 7.8 -2.5 7.8 -2.5 6.9"/><path fill="none" stroke="#000000" stroke-width="1.0" d="M-4.25 7.8 L-4.25 6.9 -2.5 6.9"/><path fill="none" stroke="#cccccc" stroke-width="1.0" d="M-2.5 6.9 L-2.5 7.8 -4.25 7.8"/><path stroke="none" fill="url(#gradient4)" d="M0.5 7.8 L2.25 7.8 2.25 6.9 0.5 6.9 0.5 7.8"/><path fill="none" stroke="#000000" stroke-width="1.0" d="M0.5 7.8 L0.5 6.9 2.25 6.9"/><path fill="none" stroke="#cccccc" stroke-width="1.0" d="M2.25 6.9 L2.25 7.8 0.5 7.8"/><path fill="#000000" fill-opacity="0.4" d="M3.1 3.7 L4.75 3.7 4.6 0.1 4.8 -0.2 4.8 4.0 3.25 4.0 3.1 3.7"/><path fill="#ffffff" stroke="none" d="M4.8 -0.2 L4.6 0.1 2.95 0.1 3.2 -0.2 4.8 -0.2"/><path stroke="none" fill="url(#gradient5)" d="M4.6 0.1 L4.75 3.7 3.1 3.7 2.95 0.1 4.6 0.1"/></g></defs><g><g><use transform="matrix(1.0,0.0,0.0,1.0,0.0,0.0)" xlink:href="#c1"/></g><g><use transform="matrix(1.0,0.0,0.0,0.998352050781,-72.65,-13.2)" xlink:href="#c3"/></g></g></svg>