<?xml version='1.0' encoding='UTF-8'?>
<svg xmlns:xlink="http://www.w3.org/1999/xlink" xmlns="http://www.w3.org/2000/svg" version="1.1" width="69px" height="29px" viewBox="-38.95 -18.55 77.3 37.1"><defs><g id="c1"><path fill="none" stroke="#000000" stroke-width="2.0" d="M7.6 -10.65 L12.4 -10.65 16.1 -10.65 20.45 -10.65 24.1 -10.65 26.65 -10.65 26.65 11.15 24.1 11.15 20.45 11.15 16.1 11.15 12.4 11.15 7.6 11.15 3.95 11.15 -1.3 11.15 -5.0 11.15 -10.3 11.15 -14.0 11.15 -17.7 11.15 -17.7 -10.65 -14.0 -10.65 -10.3 -10.65 -5.0 -10.65 -1.3 -10.65 3.95 -10.65 7.6 -10.65 7.6 11.15 M3.95 -10.65 L3.95 11.15 M24.1 -10.65 L24.1 11.15 M20.45 -10.65 L20.45 11.15 M16.1 -10.65 L16.1 11.15 M12.4 -10.65 L12.4 11.15 M-34.4 0.0 L-24.8 0.0 -24.8 -14.55 34.3 -14.55 34.3 14.55 -24.8 14.55 -24.8 0.0 M-1.3 -10.65 L-1.3 11.15 M-5.0 -10.65 L-5.0 11.15 M-14.0 -10.65 L-14.0 11.15 M-10.3 -10.65 L-10.3 11.15"/><path fill="#333333" fill-opacity="0.0" d="M34.35 -12.6 L34.35 13.1 -34.95 13.1 -34.95 -12.6 34.35 -12.6"/></g></defs><g><g><use transform="matrix(1.0,0.0,0.0,1.0,0.0,0.0)" xlink:href="#c1"/></g></g></svg>