<?xml version='1.0' encoding='UTF-8'?>
<svg xmlns:xlink="http://www.w3.org/1999/xlink" xmlns="http://www.w3.org/2000/svg" version="1.1" width="55px" height="39px" viewBox="-31.4 -23.25 62.7 46.55"><defs><g id="c1"><path fill="none" stroke="#000000" stroke-width="2.0" d="M1.8 -6.2 L-11.25 -19.25 -11.25 19.3 2.15 5.85 Q-0.1 3.45 -0.1 0.15 -0.1 -3.35 2.35 -5.85 4.9 -8.3 8.35 -8.3 11.55 -8.3 13.85 -6.25 L14.1 -6.05 27.3 -19.25 -11.25 -19.25 M14.1 -6.05 L14.3 -5.85 Q16.8 -3.35 16.8 0.15 16.8 3.6 14.3 6.05 L14.15 6.15 27.3 19.3 27.3 -19.25 M14.15 6.15 L13.85 6.45 Q11.55 8.55 8.35 8.55 4.9 8.55 2.35 6.05 L2.15 5.85 M-27.4 0.15 L-11.85 0.15 M27.3 19.3 L-11.25 19.3"/><path fill="#333333" fill-opacity="0.0" d="M25.7 -18.8 L25.7 19.3 -26.35 19.3 -26.35 -18.8 25.7 -18.8"/></g></defs><g><g><use transform="matrix(1.0,0.0,0.0,1.0,0.0,0.0)" xlink:href="#c1"/></g></g></svg>