<?xml version='1.0' encoding='UTF-8'?>
<svg xmlns:xlink="http://www.w3.org/1999/xlink" xmlns="http://www.w3.org/2000/svg" version="1.1" width="30px" height="30px" viewBox="-19.0 -18.95 38.0 37.95"><defs><radialGradient gradientUnits="userSpaceOnUse" r="819.2" cx="0" cy="0" spreadMethod="pad" gradientTransform="matrix(0.0238037109375,0.0,0.0,0.0244598388672,-12.4,7.35)" id="gradient1"><stop offset="0.0" stop-color="#d0d0d0"/><stop offset="1.0" stop-color="#ffffff"/></radialGradient><linearGradient gradientUnits="userSpaceOnUse" x1="-819.2" x2="819.2" spreadMethod="pad" color-interpolation="linearRGB" gradientTransform="matrix(-0.00234985351562,-0.00042724609375,-0.000503540039062,0.00126647949219,-6.0,3.5)" id="gradient2"><stop offset="0.0" stop-color="#201120" stop-opacity="0.0"/><stop offset="1.0" stop-color="#201120"/></linearGradient><linearGradient gradientUnits="userSpaceOnUse" x1="-819.2" x2="819.2" spreadMethod="pad" color-interpolation="linearRGB" gradientTransform="matrix(-0.000335693359375,-0.00143432617188,0.00103759765625,-0.00030517578125,-9.5,8.2)" id="gradient3"><stop offset="0.0" stop-color="#ada5a4" stop-opacity="0.0"/><stop offset="1.0" stop-color="#ada5a4"/></linearGradient><linearGradient gradientUnits="userSpaceOnUse" x1="-819.2" x2="819.2" spreadMethod="pad" color-interpolation="linearRGB" gradientTransform="matrix(-0.000335693359375,-0.00143432617188,0.00103759765625,-0.00030517578125,-4.7,8.2)" id="gradient4"><stop offset="0.0" stop-color="#ada5a4" stop-opacity="0.0"/><stop offset="1.0" stop-color="#ada5a4"/></linearGradient><radialGradient gradientUnits="userSpaceOnUse" r="819.2" cx="0" cy="0" spreadMethod="pad" gradientTransform="matrix(0.00592041015625,0.0,0.0,0.00666809082031,-2.1,0.05)" id="gradient5"><stop offset="0.0" stop-color="#d0d0d0"/><stop offset="1.0" stop-color="#ffffff"/></radialGradient><radialGradient gradientUnits="userSpaceOnUse" r="819.2" cx="0" cy="0" spreadMethod="pad" gradientTransform="matrix(0.00592041015625,0.0,0.0,0.00666809082031,1.35,0.05)" id="gradient6"><stop offset="0.0" stop-color="#d0d0d0"/><stop offset="1.0" stop-color="#ffffff"/></radialGradient><linearGradient gradientUnits="userSpaceOnUse" x1="-819.2" x2="819.2" spreadMethod="pad" color-interpolation="linearRGB" gradientTransform="matrix(-0.00234985351562,-0.00042724609375,-0.000503540039062,0.00126647949219,8.2,3.5)" id="gradient7"><stop offset="0.0" stop-color="#201120" stop-opacity="0.0"/><stop offset="1.0" stop-color="#201120"/></linearGradient><linearGradient gradientUnits="userSpaceOnUse" x1="-819.2" x2="819.2" spreadMethod="pad" color-interpolation="linearRGB" gradientTransform="matrix(-0.000335693359375,-0.00143432617188,0.00103759765625,-0.00030517578125,4.75,8.2)" id="gradient8"><stop offset="0.0" stop-color="#ada5a4" stop-opacity="0.0"/><stop offset="1.0" stop-color="#ada5a4"/></linearGradient><linearGradient gradientUnits="userSpaceOnUse" x1="-819.2" x2="819.2" spreadMethod="pad" color-interpolation="linearRGB" gradientTransform="matrix(-0.000335693359375,-0.00143432617188,0.00103759765625,-0.00030517578125,9.55,8.2)" id="gradient9"><stop offset="0.0" stop-color="#ada5a4" stop-opacity="0.0"/><stop offset="1.0" stop-color="#ada5a4"/></linearGradient><g id="c1"><path fill="#010101" fill-opacity="0.0" d="M15.0 -14.95 L15.0 15.0 -15.0 15.0 -15.0 -14.95 15.0 -14.95"/><path stroke="none" fill="url(#gradient1)" d="M-14.05 -4.2 L14.05 -4.2 14.05 12.65 -14.05 12.65 -14.05 -4.2"/><path fill="none" stroke="#000000" stroke-width="1.0" d="M-14.05 -4.2 L14.05 -4.2 14.05 12.65 -14.05 12.65 -14.05 -4.2"/><path stroke="none" fill="url(#gradient2)" d="M-8.05 4.35 L-8.05 2.15 -6.65 2.15 -6.65 4.35 -8.05 4.35"/><path fill="none" stroke="#000000" stroke-width="1.0" d="M-6.65 2.15 L-8.05 2.15 -8.05 4.35"/><path fill="none" stroke="#cccccc" stroke-width="1.0" d="M-8.05 4.35 L-6.65 4.35 -6.65 2.15"/><path stroke="none" fill="url(#gradient3)" d="M-10.55 7.85 L-8.8 7.85 -8.8 6.95 -10.55 6.95 -10.55 7.85"/><path fill="none" stroke="#000000" stroke-width="1.0" d="M-10.55 7.85 L-10.55 6.95 -8.8 6.95"/><path fill="none" stroke="#cccccc" stroke-width="1.0" d="M-8.8 6.95 L-8.8 7.85 -10.55 7.85"/><path stroke="none" fill="url(#gradient4)" d="M-4.0 6.95 L-5.75 6.95 -5.75 7.85 -4.0 7.85 -4.0 6.95"/><path fill="none" stroke="#000000" stroke-width="1.0" d="M-5.75 7.85 L-5.75 6.95 -4.0 6.95"/><path fill="none" stroke="#cccccc" stroke-width="1.0" d="M-4.0 6.95 L-4.0 7.85 -5.75 7.85"/><path fill="#000000" fill-opacity="0.4" d="M-2.65 3.7 L-1.0 3.7 -1.15 0.1 -0.95 -0.2 -0.95 4.0 -2.5 4.0 -2.65 3.7"/><path fill="#ffffff" stroke="none" d="M-0.95 -0.2 L-1.15 0.1 -2.8 0.1 -2.55 -0.2 -0.95 -0.2"/><path stroke="none" fill="url(#gradient5)" d="M-1.15 0.1 L-1.0 3.7 -2.65 3.7 -2.8 0.1 -1.15 0.1"/><path fill="#000000" fill-opacity="0.4" d="M0.8 3.7 L2.45 3.7 2.3 0.1 2.5 -0.2 2.5 4.0 0.95 4.0 0.8 3.7"/><path fill="#ffffff" stroke="none" d="M2.5 -0.2 L2.3 0.1 0.65 0.1 0.9 -0.2 2.5 -0.2"/><path stroke="none" fill="url(#gradient6)" d="M2.3 0.1 L2.45 3.7 0.8 3.7 0.65 0.1 2.3 0.1"/><path stroke="none" fill="url(#gradient7)" d="M6.15 4.35 L6.15 2.15 7.55 2.15 7.55 4.35 6.15 4.35"/><path fill="none" stroke="#000000" stroke-width="1.0" d="M7.55 2.15 L6.15 2.15 6.15 4.35"/><path fill="none" stroke="#cccccc" stroke-width="1.0" d="M6.15 4.35 L7.55 4.35 7.55 2.15"/><path stroke="none" fill="url(#gradient8)" d="M3.7 7.85 L5.45 7.85 5.45 6.95 3.7 6.95 3.7 7.85"/><path fill="none" stroke="#000000" stroke-width="1.0" d="M3.7 7.85 L3.7 6.95 5.45 6.95"/><path fill="none" stroke="#cccccc" stroke-width="1.0" d="M5.45 6.95 L5.45 7.85 3.7 7.85"/><path stroke="none" fill="url(#gradient9)" d="M10.25 6.95 L8.5 6.95 8.5 7.85 10.25 7.85 10.25 6.95"/><path fill="none" stroke="#000000" stroke-width="1.0" d="M8.5 7.85 L8.5 6.95 10.25 6.95"/><path fill="none" stroke="#cccccc" stroke-width="1.0" d="M10.25 6.95 L10.25 7.85 8.5 7.85"/></g></defs><g><g><use transform="matrix(1.0,0.0,0.0,1.0,0.0,0.0)" xlink:href="#c1"/></g><g><use transform="matrix(1.0,0.0,0.0,0.998352050781,-72.65,-13.2)" xlink:href="#c3"/></g></g></svg>