<?xml version='1.0' encoding='UTF-8'?>
<svg xmlns:xlink="http://www.w3.org/1999/xlink" xmlns="http://www.w3.org/2000/svg" version="1.1" width="55px" height="40px" viewBox="-31.65 -23.6 63.05 47.85"><defs><g id="c1"><path fill="#000000" stroke="none" d="M3.95 -5.65 L7.65 5.4 11.4 -5.65 13.7 -5.65 13.7 7.3 12.05 7.3 12.05 -3.55 8.3 7.3 6.75 7.3 3.05 -3.7 3.05 7.3 1.4 7.3 1.4 -5.65 3.95 -5.65"/><path fill="none" stroke="#000000" stroke-width="2.0" d="M-27.6 0.6 L-12.0 0.6 -12.0 0.5 Q-12.0 -7.7 -6.25 -13.45 -0.45 -19.25 7.7 -19.25 15.85 -19.25 21.65 -13.45 27.4 -7.7 27.4 0.5 27.4 8.7 21.65 14.5 15.85 20.25 7.7 20.25 -0.45 20.25 -6.25 14.5 -12.0 8.7 -12.0 0.6"/><path fill="#333333" fill-opacity="0.0" d="M25.7 -19.6 L25.7 20.15 -27.65 20.15 -27.65 -19.6 25.7 -19.6"/></g></defs><g><g><use transform="matrix(1.0,0.0,0.0,1.0,0.0,0.0)" xlink:href="#c1"/></g></g></svg>