<?xml version='1.0' encoding='UTF-8'?>
<svg xmlns:xlink="http://www.w3.org/1999/xlink" xmlns="http://www.w3.org/2000/svg" version="1.1" width="29px" height="29px" viewBox="-19.0 -19.0 37.4 37.4"><defs><g id="c1"><path fill="#bfb5ae" fill-opacity="0.0" d="M14.4 -15.0 L14.4 14.4 -15.0 14.4 -15.0 -15.0 14.4 -15.0"/><path fill="none" stroke="#000000" stroke-width="2.0" d="M5.85 -10.35 Q3.8 -12.35 0.0 -11.65 L0.0 -5.5 Q6.4 -7.4 6.65 -4.65 6.65 -0.75 0.0 1.65 L0.0 12.1 M-5.4 -1.3 Q-6.0 2.15 0.0 1.65 L0.0 -5.5 Q-6.3 -4.0 -6.4 -6.95 -6.5 -9.95 0.0 -11.65"/><path fill="#000000" stroke="none" d="M13.4 11.65 Q13.4 12.8 12.6 13.6 11.75 14.4 10.55 14.4 9.4 14.4 8.65 13.7 7.9 13.05 7.75 11.9 L9.35 11.7 9.75 12.7 Q10.05 13.05 10.5 13.05 11.0 13.05 11.35 12.65 L11.65 11.6 11.35 10.6 Q11.05 10.2 10.6 10.2 L9.95 10.35 10.1 9.0 11.05 8.7 Q11.4 8.4 11.4 7.9 L11.15 7.2 Q10.9 6.95 10.5 6.95 10.1 6.95 9.8 7.25 9.5 7.55 9.45 8.1 L7.95 7.85 Q8.1 7.05 8.4 6.6 L9.3 5.85 10.55 5.6 Q11.7 5.6 12.45 6.35 13.0 7.0 13.0 7.8 13.0 8.9 11.8 9.6 L12.95 10.3 Q13.4 10.85 13.4 11.65"/></g></defs><g><g><use transform="matrix(1.0,0.0,0.0,1.0,0.0,0.0)" xlink:href="#c1"/></g></g></svg>