<?xml version='1.0' encoding='UTF-8'?>
<svg xmlns:xlink="http://www.w3.org/1999/xlink" xmlns="http://www.w3.org/2000/svg" version="1.1" width="54px" height="39px" viewBox="-31.1 -23.25 62.1 47.0"><defs><g id="c1"><path fill="#000000" stroke="none" d="M1.8 -0.5 L-1.65 0.3 0.75 2.8 -0.95 3.95 -2.75 1.05 -4.5 3.95 -6.1 2.8 -3.8 0.3 -7.15 -0.5 -6.55 -2.45 -3.45 -1.1 -3.75 -4.45 -1.7 -4.45 -2.05 -1.1 1.1 -2.45 1.8 -0.5 M6.65 -1.1 L6.4 -4.45 8.4 -4.45 8.05 -1.1 11.2 -2.45 11.9 -0.5 8.5 0.3 10.85 2.8 9.2 3.95 7.35 1.05 5.65 3.95 4.05 2.8 6.3 0.3 3.0 -0.5 3.6 -2.45 6.65 -1.1 M16.8 -1.1 L16.55 -4.45 18.55 -4.45 18.2 -1.1 Q19.6 -1.85 21.35 -2.45 L22.05 -0.5 18.65 0.3 21.0 2.8 19.35 3.95 17.5 1.05 15.75 3.95 14.2 2.8 Q15.75 0.9 16.45 0.3 L13.15 -0.5 13.75 -2.45 16.8 -1.1"/><path fill="none" stroke="#000000" stroke-width="2.0" d="M-27.1 0.65 L-11.55 0.65 -11.55 -19.25 27.0 -19.25 27.0 19.25 -11.55 19.25 -11.55 0.65"/><path fill="#333333" fill-opacity="0.0" d="M25.7 -19.2 L25.7 19.75 -26.35 19.75 -26.35 -19.2 25.7 -19.2"/></g></defs><g><g><use transform="matrix(1.0,0.0,0.0,1.0,0.0,0.0)" xlink:href="#c1"/></g></g></svg>