<?xml version='1.0' encoding='UTF-8'?>
<svg xmlns:xlink="http://www.w3.org/1999/xlink" xmlns="http://www.w3.org/2000/svg" version="1.1" width="30px" height="30px" viewBox="-19.0 -19.0 38.0 38.0"><defs><g id="c1"><path fill="none" stroke="#000000" stroke-width="2.0" d="M0.0 -15.0 L0.0 -7.25 Q3.05 -7.25 5.15 -5.2 7.25 -3.0 7.25 0.0 L15.0 0.0 M7.25 0.0 Q7.25 3.0 5.15 5.15 3.05 7.25 0.0 7.25 L0.0 15.0 M0.0 7.25 Q-2.95 7.25 -5.1 5.15 -7.25 3.0 -7.25 0.0 L-15.0 0.0 M-7.25 0.0 Q-7.25 -3.0 -5.1 -5.2 -2.95 -7.25 0.0 -7.25"/><path fill="#bfb5ae" fill-opacity="0.0" d="M14.4 -15.0 L14.4 14.4 -15.0 14.4 -15.0 -15.0 14.4 -15.0"/></g></defs><g><g><use transform="matrix(1.0,0.0,0.0,1.0,0.0,0.0)" xlink:href="#c1"/></g></g></svg>