<?xml version='1.0' encoding='UTF-8'?>
<svg xmlns:xlink="http://www.w3.org/1999/xlink" xmlns="http://www.w3.org/2000/svg" version="1.1" width="39px" height="39px" viewBox="-23.75 -23.25 47.05 46.5"><defs><g id="c1"><path fill="#000000" stroke="none" d="M13.4 5.55 L13.6 7.1 13.6 11.55 12.4 11.55 12.4 7.1 Q12.4 6.2 12.05 5.85 11.65 5.4 10.9 5.4 10.4 5.4 9.95 5.7 9.5 5.9 9.25 6.45 9.1 6.9 9.1 7.7 L9.1 11.55 7.9 11.55 7.9 1.85 9.1 1.85 9.1 5.3 Q9.95 4.4 11.2 4.4 L12.55 4.7 13.4 5.55 M2.35 11.55 L0.05 3.05 -2.3 11.55 -3.6 11.55 -6.15 1.85 -4.8 1.85 -2.95 10.2 -0.7 1.85 0.85 1.85 2.95 10.2 5.0 1.85 6.25 1.85 3.65 11.55 2.35 11.55 M-7.2 4.55 L-9.9 7.1 -7.0 11.55 -8.4 11.55 -10.75 7.95 -11.55 8.75 -11.55 11.55 -12.75 11.55 -12.75 1.85 -11.55 1.85 -11.55 7.4 -8.8 4.55 -7.2 4.55"/><path fill="none" stroke="#000000" stroke-width="2.0" d="M19.2 -8.4 L19.2 19.25 -19.3 19.25 -19.3 -8.4 -19.3 -19.25 19.2 -19.25 19.2 -8.4 -19.3 -8.4"/><path fill="#333333" fill-opacity="0.0" d="M19.3 -18.7 L19.3 19.25 -19.75 19.25 -19.75 -18.7 19.3 -18.7"/></g></defs><g><g><use transform="matrix(1.0,0.0,0.0,1.0,0.0,0.0)" xlink:href="#c1"/></g></g></svg>