<?xml version='1.0' encoding='UTF-8'?>
<svg xmlns:xlink="http://www.w3.org/1999/xlink" xmlns="http://www.w3.org/2000/svg" version="1.1" width="47px" height="34px" viewBox="-26.9 -21.3 54.55 42.0"><defs><g id="c1"><path fill="#bfb5ae" fill-opacity="0.0" d="M23.65 16.7 L-22.9 16.7 -22.9 -17.3 23.65 -17.3 23.65 16.7"/><path fill="none" stroke="#000000" stroke-width="2.0" d="M5.85 -10.35 Q3.8 -12.35 0.0 -11.65 L0.0 -5.5 Q6.4 -7.4 6.65 -4.65 6.65 -0.75 0.0 1.65 L0.0 12.1 M-5.4 -1.3 Q-6.0 2.15 0.0 1.65 L0.0 -5.5 Q-6.3 -4.0 -6.4 -6.95 -6.5 -9.95 0.0 -11.65"/><path fill="#000000" stroke="none" d="M20.25 13.45 L18.65 13.45 16.85 6.65 16.85 13.45 15.2 13.45 15.2 4.85 17.85 4.85 19.45 10.7 21.0 4.85 23.65 4.85 23.65 13.45 22.0 13.45 21.95 6.65 20.25 13.45 M12.7 5.8 L13.55 7.2 13.8 9.2 13.55 11.05 12.65 12.6 Q12.2 13.0 11.4 13.25 L9.9 13.45 6.65 13.45 6.65 4.85 9.8 4.85 11.45 5.0 12.7 5.8 M11.85 7.6 L11.35 6.75 10.55 6.35 9.15 6.3 8.4 6.3 8.4 12.0 9.65 12.0 10.7 11.9 11.4 11.55 11.85 10.7 12.05 9.15 11.85 7.6"/></g></defs><g><g><use transform="matrix(1.0,0.0,0.0,1.0,0.0,0.0)" xlink:href="#c1"/></g></g></svg>