<?xml version='1.0' encoding='UTF-8'?>
<svg xmlns:xlink="http://www.w3.org/1999/xlink" xmlns="http://www.w3.org/2000/svg" version="1.1" width="29px" height="29px" viewBox="-19.0 -19.0 37.4 37.4"><defs><g id="c1"><path fill="#bfb5ae" fill-opacity="0.0" d="M14.4 14.4 L-15.0 14.4 -15.0 -15.0 14.4 -15.0 14.4 14.4"/><path fill="none" stroke="#000000" stroke-width="2.0" d="M-2.4 11.2 L-2.4 3.55 Q-4.2 3.0 -5.8 1.5 -8.2 -1.0 -8.2 -4.45 -8.2 -7.8 -5.8 -10.3 -4.2 -11.9 -2.4 -12.4 L0.0 -12.8 2.5 -12.4 Q4.3 -11.8 5.8 -10.3 8.2 -7.8 8.2 -4.45 8.2 -1.0 5.8 1.5 4.3 3.0 2.5 3.55 L2.5 11.2 M2.5 3.55 L0.0 3.9 -2.4 3.55 -2.4 -12.4 M2.5 -12.4 L2.5 3.55"/></g></defs><g><g><use transform="matrix(1.0,0.0,0.0,1.0,0.0,0.0)" xlink:href="#c1"/></g></g></svg>