<?xml version='1.0' encoding='UTF-8'?>
<svg xmlns:xlink="http://www.w3.org/1999/xlink" xmlns="http://www.w3.org/2000/svg" version="1.1" width="16px" height="64px" viewBox="-12.1 -37.35 24.0 72.15"><defs><g id="c1"><path fill="#333333" fill-opacity="0.0" d="M7.9 -32.6 L7.9 29.55 -8.1 29.55 -8.1 -32.6 7.9 -32.6"/><path fill="#000000" stroke="none" d="M0.2 -3.75 L1.75 -3.55 Q2.75 -3.4 3.6 -2.95 L5.6 -1.5 Q7.6 0.45 7.85 3.15 L7.9 3.75 7.9 3.95 7.85 4.55 Q7.6 7.2 5.65 9.2 3.35 11.4 0.15 11.45 L-1.4 11.25 -3.25 10.65 Q-4.35 10.1 -5.25 9.2 -7.25 7.2 -7.5 4.55 L-7.55 3.95 -7.55 3.75 -7.5 3.15 Q-7.25 0.45 -5.3 -1.5 -3.15 -3.65 -0.1 -3.75 L0.2 -3.75 M0.35 20.7 L0.35 24.65 -0.5 24.65 -0.5 20.7 -2.95 20.7 -2.95 25.1 -3.8 25.1 -3.8 19.75 3.4 19.75 3.4 24.9 2.55 24.9 2.55 20.7 0.35 20.7 M2.55 16.4 L-3.8 16.4 -3.8 15.45 2.55 15.45 2.55 13.1 3.4 13.1 3.4 18.75 2.55 18.75 2.55 16.4 M3.4 27.3 L-2.95 27.3 -2.95 30.8 -3.8 30.8 -3.8 26.35 3.4 26.35 3.4 27.3"/><path fill="none" stroke="#000000" stroke-width="2.0" d="M0.2 -3.75 L0.2 -33.35 M0.2 -3.75 L1.75 -3.55 Q2.75 -3.4 3.6 -2.95 L5.6 -1.5 Q7.6 0.45 7.85 3.15 L7.9 3.75 7.9 3.95 7.85 4.55 Q7.6 7.2 5.65 9.2 3.35 11.4 0.15 11.45 L-1.4 11.25 -3.25 10.65 Q-4.35 10.1 -5.25 9.2 -7.25 7.2 -7.5 4.55 L-7.55 3.95 -7.55 3.75 -7.5 3.15 Q-7.25 0.45 -5.3 -1.5 -3.15 -3.65 -0.1 -3.75"/></g></defs><g><g><use transform="matrix(1.0,0.0,0.0,1.0,0.0,0.0)" xlink:href="#c1"/></g></g></svg>