<?xml version='1.0' encoding='UTF-8'?>
<svg xmlns:xlink="http://www.w3.org/1999/xlink" xmlns="http://www.w3.org/2000/svg" version="1.1" width="80px" height="40px" viewBox="-44.0 -24.0 88.0 48.0"><defs><g id="c1"><path fill="#cccccc" fill-opacity="0.0" d="M40.0 -20.0 L40.0 20.0 0.0 20.0 0.0 -20.0 40.0 -20.0"/><path fill="#ffffff" stroke="none" d="M-5.9 -14.15 Q0.0 -8.25 0.0 0.0 0.0 8.3 -5.9 14.15 -11.7 20.0 -20.0 20.0 -28.3 20.0 -34.15 14.15 -40.0 8.3 -40.0 0.0 -40.0 -8.25 -34.15 -14.15 -28.3 -20.0 -20.0 -20.0 -11.7 -20.0 -5.9 -14.15"/><path fill="none" stroke="#000000" stroke-width="2.0" d="M-5.9 -14.15 Q0.0 -8.25 0.0 0.0 0.0 8.3 -5.9 14.15 -11.7 20.0 -20.0 20.0 -28.3 20.0 -34.15 14.15 -40.0 8.3 -40.0 0.0 -40.0 -8.25 -34.15 -14.15 -28.3 -20.0 -20.0 -20.0 -11.7 -20.0 -5.9 -14.15"/><path fill="#333333" stroke="none" d="M25.2 -4.55 L21.0 6.95 19.35 6.95 15.2 -4.55 16.85 -4.55 20.2 5.25 23.55 -4.55 25.2 -4.55"/></g></defs><g><g><use transform="matrix(1.0,0.0,0.0,1.0,0.0,0.0)" xlink:href="#c1"/></g></g></svg>