<?xml version='1.0' encoding='UTF-8'?>
<svg xmlns:xlink="http://www.w3.org/1999/xlink" xmlns="http://www.w3.org/2000/svg" version="1.1" width="30px" height="29px" viewBox="-19.2 -18.6 38.4 37.35"><defs><g id="c1"><path fill="#919191" stroke="none" d="M15.2 0.1 Q15.2 6.1 10.75 10.45 6.25 14.75 -0.05 14.75 -6.35 14.75 -10.75 10.45 -15.2 6.1 -15.2 0.1 -15.2 -6.0 -10.75 -10.3 -6.35 -14.6 -0.05 -14.55 6.25 -14.6 10.75 -10.3 15.2 -6.0 15.2 0.1"/><path fill="none" stroke="#000000" stroke-width="2.0" d="M15.2 0.1 Q15.2 -6.0 10.75 -10.3 6.25 -14.6 -0.05 -14.55 -6.35 -14.6 -10.75 -10.3 -15.2 -6.0 -15.2 0.1 -15.2 6.1 -10.75 10.45 -6.35 14.75 -0.05 14.75 6.25 14.75 10.75 10.45 15.2 6.1 15.2 0.1"/></g></defs><g><g><use transform="matrix(1.0,0.0,0.0,1.0,0.0,0.0)" xlink:href="#c1"/></g></g></svg>