<?xml version='1.0' encoding='UTF-8'?>
<svg xmlns:xlink="http://www.w3.org/1999/xlink" xmlns="http://www.w3.org/2000/svg" version="1.1" width="100px" height="30px" viewBox="-54.0 -19.0 108.0 38.0"><defs><g id="c1"><path fill="none" stroke="#000000" stroke-width="2.0" d="M50.0 0.0 L-50.0 0.0"/><path fill="#ffffff" stroke="none" d="M-7.55 -10.55 Q-3.15 -6.2 -3.15 0.0 -3.15 6.25 -7.55 10.6 -11.9 15.0 -18.15 15.0 -24.35 15.0 -28.75 10.6 -33.15 6.25 -33.15 0.0 -33.15 -6.2 -28.75 -10.6 -24.35 -15.0 -18.15 -15.0 -11.9 -15.0 -7.55 -10.6 L-7.55 -10.55"/><path fill="none" stroke="#000000" stroke-width="2.0" d="M-7.55 -10.55 Q-3.15 -6.2 -3.15 0.0 -3.15 6.25 -7.55 10.6 -11.9 15.0 -18.15 15.0 -24.35 15.0 -28.75 10.6 -33.15 6.25 -33.15 0.0 -33.15 -6.2 -28.75 -10.6 -24.35 -15.0 -18.15 -15.0 -11.9 -15.0 -7.55 -10.6 L-7.55 -10.55"/></g></defs><g><g><use transform="matrix(1.0,0.0,0.0,1.0,0.0,0.0)" xlink:href="#c1"/></g></g></svg>