<?xml version='1.0' encoding='UTF-8'?>
<svg xmlns:xlink="http://www.w3.org/1999/xlink" xmlns="http://www.w3.org/2000/svg" version="1.1" width="80px" height="40px" viewBox="-44.0 -24.0 88.0 48.0"><defs><g id="c1"><path fill="#cccccc" fill-opacity="0.0" d="M40.0 -20.0 L40.0 20.0 0.0 20.0 0.0 -20.0 40.0 -20.0"/><path fill="#ffffff" stroke="none" d="M-5.9 -14.15 Q0.0 -8.25 0.0 0.0 0.0 8.3 -5.9 14.15 -11.7 20.0 -20.0 20.0 -28.3 20.0 -34.15 14.15 -40.0 8.3 -40.0 0.0 -40.0 -8.25 -34.15 -14.15 -28.3 -20.0 -20.0 -20.0 -11.7 -20.0 -5.9 -14.15"/><path fill="none" stroke="#000000" stroke-width="2.0" d="M-5.9 -14.15 Q0.0 -8.25 0.0 0.0 0.0 8.3 -5.9 14.15 -11.7 20.0 -20.0 20.0 -28.3 20.0 -34.15 14.15 -40.0 8.3 -40.0 0.0 -40.0 -8.25 -34.15 -14.15 -28.3 -20.0 -20.0 -20.0 -11.7 -20.0 -5.9 -14.15"/><path fill="#333333" stroke="none" d="M7.5 -4.55 L10.85 5.25 14.2 -4.55 15.85 -4.55 11.65 6.95 10.0 6.95 5.85 -4.55 7.5 -4.55 M22.35 -1.25 L23.6 -0.15 24.15 1.35 24.3 3.2 18.15 3.2 Q18.2 4.5 18.75 5.3 19.35 6.1 20.5 6.1 21.6 6.1 22.25 5.35 L22.8 4.35 24.15 4.35 23.8 5.35 23.1 6.3 Q22.5 6.9 21.55 7.15 L20.4 7.25 Q18.85 7.25 17.75 6.1 16.65 4.95 16.65 2.9 16.65 0.85 17.75 -0.4 18.85 -1.65 20.6 -1.65 L22.35 -1.25 M29.6 -1.65 L29.75 -1.65 30.05 -1.6 30.05 -0.1 29.85 -0.15 29.6 -0.15 Q28.55 -0.15 28.0 0.5 27.45 1.2 27.45 2.1 L27.45 6.95 26.0 6.95 26.0 -1.4 27.4 -1.4 27.4 0.0 28.15 -1.05 Q28.8 -1.65 29.6 -1.65 M31.6 -1.4 L31.6 -3.75 33.05 -3.75 33.05 -1.4 34.4 -1.4 34.4 -0.25 33.05 -0.25 33.05 5.15 Q33.05 5.6 33.35 5.75 L33.9 5.85 34.15 5.8 34.4 5.75 34.4 6.95 33.9 7.05 33.3 7.1 Q32.3 7.1 31.95 6.6 31.6 6.1 31.6 5.25 L31.6 -0.25 30.5 -0.25 30.5 -1.4 31.6 -1.4 M22.4 0.55 Q21.85 -0.5 20.5 -0.5 19.55 -0.5 18.9 0.25 18.25 0.95 18.25 2.1 L22.8 2.1 Q22.7 1.15 22.4 0.55"/></g></defs><g><g><use transform="matrix(1.0,0.0,0.0,1.0,0.0,0.0)" xlink:href="#c1"/></g></g></svg>