<?xml version='1.0' encoding='UTF-8'?>
<svg xmlns:xlink="http://www.w3.org/1999/xlink" xmlns="http://www.w3.org/2000/svg" version="1.1" width="80px" height="40px" viewBox="-44.0 -24.0 88.0 48.0"><defs><g id="c1"><path fill="#cccccc" fill-opacity="0.0" d="M40.0 20.0 L0.0 20.0 0.0 -20.0 40.0 -20.0 40.0 20.0"/><path fill="#ffffff" stroke="none" d="M-20.0 -20.0 Q-11.7 -20.0 -5.9 -14.15 0.0 -8.25 0.0 0.0 0.0 8.3 -5.9 14.15 -11.7 20.0 -20.0 20.0 -28.3 20.0 -34.15 14.15 -40.0 8.3 -40.0 0.0 -40.0 -8.25 -34.15 -14.15 -28.3 -20.0 -20.0 -20.0"/><path fill="none" stroke="#000000" stroke-width="2.0" d="M-20.0 -20.0 Q-11.7 -20.0 -5.9 -14.15 0.0 -8.25 0.0 0.0 0.0 8.3 -5.9 14.15 -11.7 20.0 -20.0 20.0 -28.3 20.0 -34.15 14.15 -40.0 8.3 -40.0 0.0 -40.0 -8.25 -34.15 -14.15 -28.3 -20.0 -20.0 -20.0"/><path fill="#333333" stroke="none" d="M9.05 -4.55 L11.3 5.05 14.0 -4.55 15.55 -4.55 18.2 4.95 20.4 -4.55 22.05 -4.55 19.05 6.95 17.4 6.95 14.75 -2.6 12.1 6.95 10.45 6.95 7.45 -4.55 9.05 -4.55 M24.35 -3.9 Q25.4 -4.85 27.35 -4.85 29.1 -4.85 30.35 -4.0 31.6 -3.1 31.6 -1.15 L30.15 -1.15 29.65 -2.65 Q28.95 -3.55 27.3 -3.55 26.0 -3.55 25.4 -2.95 24.85 -2.4 24.85 -1.6 24.85 -0.75 25.5 -0.4 25.95 -0.1 27.55 0.25 L29.1 0.6 Q30.2 0.9 30.85 1.35 31.9 2.15 31.9 3.7 31.9 5.6 30.55 6.45 29.2 7.25 27.4 7.25 25.3 7.25 24.1 6.15 22.95 5.05 22.95 3.2 L24.4 3.2 Q24.45 4.2 24.85 4.8 25.6 5.95 27.45 5.95 L29.0 5.7 Q30.35 5.2 30.35 3.9 30.35 2.95 29.75 2.55 29.2 2.15 27.95 1.9 L26.45 1.55 Q25.0 1.2 24.4 0.8 23.35 0.05 23.35 -1.35 23.35 -2.9 24.35 -3.9"/></g></defs><g><g><use transform="matrix(1.0,0.0,0.0,1.0,0.0,0.0)" xlink:href="#c1"/></g></g></svg>