<?xml version='1.0' encoding='UTF-8'?>
<svg xmlns:xlink="http://www.w3.org/1999/xlink" xmlns="http://www.w3.org/2000/svg" version="1.1" width="150px" height="150px" viewBox="-79.0 -79.0 158.0 158.0"><defs><g id="c1"><path fill="#cc0000" fill-opacity="0.0" d="M53.0 -53.05 Q75.0 -31.1 75.0 0.0 75.0 31.05 53.0 53.0 L49.5 56.35 Q38.05 66.55 24.25 71.2 12.9 75.0 0.0 75.0 L-0.85 75.0 Q-14.25 74.8 -25.95 70.6 -39.7 65.55 -51.1 54.9 L-53.05 53.0 Q-75.0 31.05 -75.0 0.0 -75.0 -31.1 -53.05 -53.05 L-51.1 -54.95 Q-39.7 -65.6 -25.95 -70.6 -14.25 -74.85 -0.85 -75.0 L0.0 -75.0 Q12.9 -75.0 24.25 -71.2 38.05 -66.6 49.5 -56.35 L53.0 -53.05 M-51.1 54.9 L-51.1 -54.95 -51.1 54.9 M-25.95 70.6 L-25.95 -70.6 -25.95 70.6 M-0.85 75.0 L-0.85 -75.0 -0.85 75.0 M49.5 56.35 L49.5 -56.35 49.5 56.35 M24.25 71.2 L24.25 -71.2 24.25 71.2"/><path fill="none" stroke="#c10000" stroke-width="2.0" d="M53.0 -53.05 Q75.0 -31.1 75.0 0.0 75.0 31.05 53.0 53.0 L49.5 56.35 Q38.05 66.55 24.25 71.2 12.9 75.0 0.0 75.0 L-0.85 75.0 Q-14.25 74.8 -25.95 70.6 -39.7 65.55 -51.1 54.9 L-53.05 53.0 Q-75.0 31.05 -75.0 0.0 -75.0 -31.1 -53.05 -53.05 L-51.1 -54.95 Q-39.7 -65.6 -25.95 -70.6 -14.25 -74.85 -0.85 -75.0 L0.0 -75.0 Q12.9 -75.0 24.25 -71.2 38.05 -66.6 49.5 -56.35 L53.0 -53.05 M24.25 -71.2 L24.25 71.2 M49.5 -56.35 L49.5 56.35 M-0.85 -75.0 L-0.85 75.0 M-25.95 -70.6 L-25.95 70.6 M-51.1 -54.95 L-51.1 54.9"/></g></defs><g><g><use transform="matrix(1.0,0.0,0.0,1.0,0.0,0.0)" xlink:href="#c1"/></g></g></svg>