<?xml version="1.0" encoding="UTF-8"?>
<svg width="84px" height="42px" viewBox="0 0 84 42" version="1.1" xmlns="http://www.w3.org/2000/svg" xmlns:xlink="http://www.w3.org/1999/xlink">
    <!-- Generator: Sketch 49.3 (51167) - http://www.bohemiancoding.com/sketch -->
    <title>Water &amp; Electricity symbol</title>
    <desc>Created with Sketch.</desc>
    <defs></defs>
    <g id="Page-1" stroke="none" stroke-width="1" fill="none" fill-rule="evenodd">
        <g id="Water-&amp;-Electricity-symbol">
            <g id="Electricity-symbol-Copy-7">
                <polygon id="Rectangle-path" fill-opacity="0.01" fill="#FFFFFF" points="0 0 42 0 42 42 0 42"></polygon>
                <g id="Group-7" transform="translate(5.000000, 5.000000)" stroke="#000000">
                    <ellipse id="Oval" cx="16" cy="15.7096189" rx="16" ry="15.7096189"></ellipse>
                    <polygon id="Path-3" stroke-linecap="round" stroke-linejoin="round" points="17.9904929 5.51724138 11.0344828 17.8937961 15.9415534 17.8937961 14.1004067 26.5905021 21.3336285 14.2973581 16.3039267 14.2973581"></polygon>
                </g>
            </g>
            <g id="Water-symbol-Copy-5" transform="translate(42.000000, 0.000000)">
                <polygon id="Rectangle-path" fill-opacity="0.01" fill="#FFFFFF" points="0 0 42 0 42 42 0 42"></polygon>
                <g id="Group-7" transform="translate(5.000000, 5.000000)" stroke="#000000">
                    <ellipse id="Oval" cx="16" cy="15.7096189" rx="16" ry="15.7096189"></ellipse>
                </g>
                <path d="M21.4493754,11.0213563 L21.4425677,11 L21.4425677,11.0426795 C20.1066006,15.2240101 18.4331873,18.5555129 16.4223278,21.0371878 C13.3968911,24.7709893 15.2555272,30.6448221 21.4493754,30.6491229 C27.6432236,30.6448221 29.5018596,24.7709893 26.476423,21.0371878 C24.4655634,18.5555129 22.7921501,15.2240101 21.456183,11.0426795 L21.456183,11 L21.4493754,11.0213563 Z" id="Combined-Shape" stroke="#000000" stroke-linecap="round" stroke-linejoin="round"></path>
            </g>
        </g>
    </g>
</svg>