<?xml version="1.0" encoding="utf-8"?>
<!-- Generator: Adobe Illustrator 27.0.0, SVG Export Plug-In . SVG Version: 6.00 Build 0)  -->
<svg version="1.1" xmlns="http://www.w3.org/2000/svg" xmlns:xlink="http://www.w3.org/1999/xlink" x="0px" y="0px"
	 viewBox="0 0 1920 1080" style="enable-background:new 0 0 1920 1080;" xml:space="preserve">
<g id="Layer_1">
	<path d="M970.07,165.03v146.44c0,4.44-2.35,8.54-6.18,10.78L787.73,425.55c-8.22,4.82-8.24,16.7-0.04,21.55l176.23,104.14
		c3.81,2.25,6.14,6.34,6.14,10.76v144.59c0,9.6-10.38,15.62-18.71,10.85L619.73,527.45c-3.89-2.23-6.29-6.37-6.29-10.85V354.17
		c0-4.49,2.41-8.63,6.31-10.86l331.62-189.14C959.71,149.42,970.07,155.44,970.07,165.03z"/>
	<path d="M970.07,830.26v147.27c0,9.59-10.36,15.61-18.69,10.86L619.75,799.25c-3.9-2.22-6.31-6.37-6.31-10.86V640.27
		c0-9.6,10.38-15.62,18.71-10.85l331.62,189.98C967.67,821.64,970.07,825.78,970.07,830.26z"/>
	<path d="M1033.95,145.38l346.44,199.06c3.88,2.23,6.27,6.36,6.27,10.84v146.35c0,9.6-10.36,15.61-18.7,10.86L1021.52,314.7
		c-3.9-2.23-6.3-6.37-6.3-10.86V156.22C1015.22,146.61,1025.61,140.59,1033.95,145.38z"/>
	<path d="M1034.37,412.35v169.29c0,4.45,2.37,8.57,6.22,10.81l174.44,101.31c8.25,4.79,8.31,16.68,0.11,21.56l-174.66,103.84
		c-3.79,2.25-6.11,6.34-6.11,10.75v147.56c0,9.61,10.39,15.63,18.72,10.84l327.29-187.9c3.88-2.23,6.28-6.36,6.28-10.84V625.83
		c0-4.42-2.33-8.51-6.14-10.76l-339.79-200.99C1038.81,412.95,1036.61,412.35,1034.37,412.35L1034.37,412.35z"/>
</g>
<g id="Layer_2">
</g>
</svg>
